<svg xmlns="http://www.w3.org/2000/svg" viewBox="0 0 90.78 91.71"><rect x="0.5" y="0.5" width="89.78" height="90.71" rx="44.89" fill="#fff"/><rect x="0.5" y="0.5" width="89.78" height="90.71" rx="44.89" fill="none" stroke="#1d1d1b" stroke-linecap="round" stroke-linejoin="round" stroke-dasharray="5.07 5.07"/><polyline points="53.71 47 61.97 47 76.4 70.31 14.38 70.31 27.42 47 37.03 47" fill="none" stroke="#000" stroke-linecap="round" stroke-linejoin="round" stroke-width="3"/><polyline points="51.21 50.91 59.49 50.91 69.08 66.4 22.3 66.4 30.96 50.91 39.5 50.91" fill="none" stroke="#000" stroke-miterlimit="10"/><line x1="67.14" y1="39.85" x2="76.01" y2="37.83" fill="none" stroke="#000" stroke-miterlimit="10" stroke-dasharray="2"/><line x1="62.83" y1="30.89" x2="69.93" y2="25.23" fill="none" stroke="#000" stroke-miterlimit="10" stroke-dasharray="2"/><line x1="55.05" y1="24.7" x2="59" y2="16.51" fill="none" stroke="#000" stroke-miterlimit="10" stroke-dasharray="2"/><line x1="45.35" y1="22.48" x2="45.35" y2="13.39" fill="none" stroke="#000" stroke-miterlimit="10" stroke-dasharray="2"/><line x1="35.64" y1="24.68" x2="31.71" y2="16.51" fill="none" stroke="#000" stroke-miterlimit="10" stroke-dasharray="2"/><line x1="27.88" y1="30.9" x2="20.78" y2="25.23" fill="none" stroke="#000" stroke-miterlimit="10" stroke-dasharray="2"/><line x1="23.56" y1="39.85" x2="14.71" y2="37.83" fill="none" stroke="#000" stroke-miterlimit="10" stroke-dasharray="2"/><path d="M55.15,37.14v0a10.25,10.25,0,0,1-3.38,7.6,7.68,7.68,0,0,0-1.86,2.58,7.55,7.55,0,0,0-.66,3.11v.24a.78.78,0,0,1,.51.74v3a.8.8,0,0,1-.8.8h-.82a3.23,3.23,0,0,1-6.21,0h-.64a.8.8,0,0,1-.79-.8v-3a.82.82,0,0,1,.48-.74v-.24a7.71,7.71,0,0,0-2.52-5.69,10.28,10.28,0,0,1-3.37-7.6v0a10.25,10.25,0,0,1,10-10.25h.06a10.25,10.25,0,0,1,10,10.25Zm-1.66,0a8.38,8.38,0,1,0-16.75,0v0a8.63,8.63,0,0,0,2.83,6.38,9.29,9.29,0,0,1,3.07,6.91v.18h5v-.18a9.33,9.33,0,0,1,3.06-6.91,8.63,8.63,0,0,0,2.83-6.38v0ZM40.8,38.52A4.48,4.48,0,0,0,44,42.8v3.49a.67.67,0,0,0,.66.66.65.65,0,0,0,.66-.66V31.7S40.8,36,40.8,38.52Zm9,0c0-1.72-2.17-4.35-3.49-5.79v3.65l.54-.54a.5.5,0,0,1,.7,0,.5.5,0,0,1,0,.71l-1.24,1.23v2l1.52-1.52a.49.49,0,1,1,.7.7L46.27,41.2v1.69A4.48,4.48,0,0,0,49.76,38.52Z"/></svg>