<svg xmlns="http://www.w3.org/2000/svg" viewBox="0 0 91.71 91.71"><rect x="0.5" y="0.5" width="90.71" height="90.71" rx="45.35" fill="#ff9a9a"/><path d="M45.85,91.21A45.36,45.36,0,0,1,.5,45.85h0a45.36,45.36,0,0,1,90.71,0h0A45.36,45.36,0,0,1,45.85,91.21Z" fill="none" stroke="#1d1d1b" stroke-linecap="round" stroke-linejoin="round" stroke-dasharray="5.09 5.09"/><path d="M69.82,69.84,58.18,50.7s0,0,0,0l-2.72-4.47a11.12,11.12,0,0,1-1.62-5.81v-21h1.73a1.21,1.21,0,0,0,0-2.41H36.16a1.21,1.21,0,0,0,0,2.41h1.73v21a11.12,11.12,0,0,1-1.62,5.81l-2.72,4.47,0,0L21.89,69.84a3.2,3.2,0,0,0,2.74,4.85H67.08a3.2,3.2,0,0,0,2.74-4.85ZM49.7,60.17,49,61.75H43.47v1.53h5.05l-.76,1.57H43.64a3.94,3.94,0,0,0,1,1.9,3.46,3.46,0,0,0,2.65,1.08,5.48,5.48,0,0,0,3.3-1.19l1,2.18a6.65,6.65,0,0,1-4.32,1.45,6.16,6.16,0,0,1-4.48-1.77,6.65,6.65,0,0,1-1.84-3.65H39.24V63.28h1.51c0-.26,0-.54,0-.8s0-.5,0-.73H39.24V60.17H40.9a6.71,6.71,0,0,1,1.86-3.71,6.16,6.16,0,0,1,4.48-1.77,6.65,6.65,0,0,1,4.32,1.45l-1,2.17a5,5,0,0,0-3.3-1.18,3.46,3.46,0,0,0-2.65,1.08,4,4,0,0,0-1,2Zm-13-10,1.65-2.71a13.57,13.57,0,0,0,2-7.06v-21H51.42v21a13.57,13.57,0,0,0,2,7.06L55,50.15Z"/></svg>