<svg xmlns="http://www.w3.org/2000/svg" viewBox="0 0 91.71 91.71"><rect x="0.5" y="0.5" width="90.71" height="90.71" rx="45.35" fill="#fff"/><rect x="0.5" y="0.5" width="90.71" height="90.71" rx="45.35" fill="none" stroke="#1d1d1b" stroke-linecap="round" stroke-linejoin="round" stroke-dasharray="5.09 5.09"/><polyline points="54.17 46.72 62.44 46.72 76.86 70.04 14.85 70.04 27.89 46.72 37.49 46.72" fill="none" stroke="#000" stroke-linecap="round" stroke-linejoin="round" stroke-width="3"/><polyline points="51.68 50.63 59.95 50.63 69.54 66.12 22.76 66.12 31.42 50.63 39.96 50.63" fill="none" stroke="#000" stroke-miterlimit="10"/><path d="M55.62,37l0-1.1-.17-1.1-.3-1.06-.42-1-.6-1-.63-.89L52.74,30l-.85-.72L51,28.63l-1-.56-1-.42-1.06-.3-1.1-.17-1.11-.12-1.1,0-1.1.17-1.06.29-1,.43-1,.55-.89.64-.85.72-.72.85-.68,1-.55,1-.42,1-.3,1.06-.17,1.1,0,1.1,0,1.11.17,1.1.3,1.06.42,1,.55,1,.64.89.72.85.85.72.89.63,1,.56,1,.42,1.06.3,1.11.17,1.1,0,1.1,0,1.11-.17,1.06-.3,1-.42,1-.56.89-.63.85-.72.72-.85.64-.89.55-1,.43-1,.29-1.06.17-1.1L55.62,37M33.86,47.4l-.92-1.21-.77-1.25-.68-1.35L31,42.19l-.38-1.45-.24-1.5-.1-1.49.05-1.5.19-1.5.34-1.49.48-1.45.58-1.4.72-1.3.87-1.26,1-1.16,1.06-1.06,1.16-1,1.25-.83,1.36-.72,1.4-.58,1.44-.43,1.5-.29,1.5-.15H46.6l1.5.15,1.5.29,1.44.43,1.4.58,1.35.72,1.26.83,1.16,1,1.06,1.06,1,1.16.86,1.26.73,1.3.58,1.4.48,1.45.34,1.49.19,1.5,0,1.5-.1,1.49-.24,1.5-.38,1.45-.54,1.4-.67,1.35-.82,1.25L57.8,47.4,45.73,61.3,33.86,47.4" fill-rule="evenodd"/><path d="M53.46,41.93h-.73v-8.6l.42-1.48v-1a.23.23,0,0,0-.23-.24h-.8a.24.24,0,0,0-.24.24v1h-.61v-1a.24.24,0,0,0-.24-.24h-.8a.24.24,0,0,0-.24.24v1h-.61v-1a.24.24,0,0,0-.24-.24h-.8a.23.23,0,0,0-.23.24v1l.42,1.48v1.88H42.72V33.33l.42-1.48v-1a.23.23,0,0,0-.23-.24h-.8a.24.24,0,0,0-.24.24v1h-.61v-1a.24.24,0,0,0-.24-.24h-.8a.24.24,0,0,0-.24.24v1h-.61v-1a.24.24,0,0,0-.24-.24h-.8a.23.23,0,0,0-.23.24v1l.42,1.48v8.6h-.73a.23.23,0,0,0-.24.24v.64a.23.23,0,0,0,.24.24H53.46a.23.23,0,0,0,.24-.24v-.64A.23.23,0,0,0,53.46,41.93Zm-7.84-3.18A1.26,1.26,0,0,1,46.9,40v1.91H44.35V40A1.27,1.27,0,0,1,45.62,38.75Z"/></svg>