<svg xmlns="http://www.w3.org/2000/svg" viewBox="0 0 91.71 91.71"><rect x="0.5" y="0.5" width="90.71" height="90.71" rx="45.35" fill="#33f"/><path d="M45.85,91.21h0A45.36,45.36,0,0,1,45.85.5h0a45.36,45.36,0,1,1,0,90.71Z" fill="none" stroke="#1d1d1b" stroke-linecap="round" stroke-linejoin="round" stroke-dasharray="5.09 5.09"/><path d="M83.55,60.09a2.67,2.67,0,0,1-1.33,2L48.61,81.52a5.53,5.53,0,0,1-5.51,0L9.49,62.11a2.64,2.64,0,0,1-1.34-2.29v-4.4" fill="none" stroke="#12100b" stroke-linecap="round" stroke-linejoin="round" stroke-width="1.85"/><path d="M52.62,28.07a2,2,0,1,1-2-2A2,2,0,0,1,52.62,28.07Z" fill="none" stroke="#12100b" stroke-linecap="round" stroke-linejoin="round" stroke-width="0.5" stroke-dasharray="1.03 1.03"/><path d="M48.56,55.42a2,2,0,1,1-2-2A2,2,0,0,1,48.56,55.42Z" fill="none" stroke="#12100b" stroke-linecap="round" stroke-linejoin="round" stroke-width="0.5" stroke-dasharray="1.03 1.03"/><path d="M27,33.82a2,2,0,1,1-2-2A2,2,0,0,1,27,33.82Z" fill="none" stroke="#12100b" stroke-linecap="round" stroke-linejoin="round" stroke-width="0.5" stroke-dasharray="1.03 1.03"/><path d="M54.42,41.53a2,2,0,1,1-2-2,2,2,0,0,1,2,2" fill="#12100b"/><path d="M46.53,11.49a2,2,0,1,1-2-2,2,2,0,0,1,2,2" fill="#12100b"/><path d="M69.39,60.09a2,2,0,1,1-2-2,2,2,0,0,1,2,2" fill="#12100b"/><path d="M41.69,66.18a2,2,0,1,1-2-2,2,2,0,0,1,2,2" fill="#12100b"/><path d="M36.7,48.7a2,2,0,1,1-2-2,2,2,0,0,1,2,2" fill="#12100b"/><polyline points="52.39 41.53 34.67 48.7 44.5 11.48" fill="none" stroke="#12100b" stroke-linecap="round" stroke-linejoin="round" stroke-width="0.5" stroke-dasharray="1.55 1.55 0.52 1.55"/><path d="M38.46,51.22a4.4,4.4,0,1,1-5.93-6.07" fill="none" stroke="#12100b" stroke-linecap="round" stroke-linejoin="round" stroke-width="1.03"/><polygon points="32.62 46.63 34.4 44.6 31.76 44.07 32.62 46.63" fill="#12100b"/><line x1="52.39" y1="41.53" x2="67.36" y2="60.09" fill="none" stroke="#12100b" stroke-linecap="round" stroke-linejoin="round" stroke-width="0.5" stroke-dasharray="1.55 1.55 0.52 1.55"/><path d="M34.67,38.55,9.49,53.09a2.69,2.69,0,0,0,0,4.66L43.1,77.15a5.48,5.48,0,0,0,5.51,0l33.61-19.4a2.69,2.69,0,0,0,0-4.66L48.61,33.68a5.53,5.53,0,0,0-5.51,0l-2.77,1.6" fill="none" stroke="#12100b" stroke-linecap="round" stroke-linejoin="round" stroke-width="1.85"/><line x1="83.56" y1="60.09" x2="83.56" y2="55.42" fill="none" stroke="#12100b" stroke-linecap="round" stroke-linejoin="round" stroke-width="1.85"/></svg>