<svg xmlns="http://www.w3.org/2000/svg" viewBox="0 0 91.71 91.71"><rect x="0.5" y="0.5" width="90.71" height="90.71" rx="45.35" fill="#99f"/><rect x="0.5" y="0.5" width="90.71" height="90.71" rx="45.35" fill="none" stroke="#1d1d1b" stroke-linecap="round" stroke-linejoin="round" stroke-dasharray="5.09 5.09"/><path d="M58.33,70.28H33.38a5,5,0,0,1-5-5V26.38a5,5,0,0,1,5-4.95H49.19L63.29,35v30.3A5,5,0,0,1,58.33,70.28Z" fill="none" stroke="#000" stroke-linecap="round" stroke-linejoin="round" stroke-width="2.87"/><path d="M63.29,35H53.46a4.27,4.27,0,0,1-4.27-4.27V21.43" fill="none" stroke="#000" stroke-linecap="round" stroke-linejoin="round" stroke-width="2.87"/><polyline points="42.06 32.81 45.8 30.39 42.06 27.97" fill="none" stroke="#000" stroke-linecap="round" stroke-linejoin="round" stroke-width="2.28"/><polyline points="36.13 32.8 32.39 30.37 36.13 27.95" fill="none" stroke="#000" stroke-linecap="round" stroke-linejoin="round" stroke-width="2.28"/><line x1="40.19" y1="26.57" x2="37.94" y2="34.25" fill="none" stroke="#000" stroke-linecap="round" stroke-linejoin="round" stroke-width="2.28"/><text transform="translate(39.16 58.55)" font-size="21.57" font-family="AkkuratPro-Bold, Akkurat Pro" font-weight="700">€</text></svg>