<svg xmlns="http://www.w3.org/2000/svg" viewBox="0 0 283.46 283.46"><circle cx="141.73" cy="141.73" r="73.77" fill="#f07e20" stroke="#000" stroke-miterlimit="10" stroke-width="4"/><circle cx="141.73" cy="141.73" r="68.11" transform="translate(-43.45 65.03) rotate(-22.5)" fill="none" stroke="#000" stroke-miterlimit="10" stroke-width="0.75" stroke-dasharray="2"/><path d="M160.73,175h-38a7.55,7.55,0,0,1-7.55-7.55v-59.3a7.55,7.55,0,0,1,7.55-7.55h24.08l21.47,20.7v46.15A7.55,7.55,0,0,1,160.73,175Z" fill="#f07e20" stroke="#000" stroke-miterlimit="10" stroke-width="4"/><path d="M168.28,121.31h-15a6.52,6.52,0,0,1-6.51-6.51V100.61" fill="none" stroke="#2b2523" stroke-linecap="round" stroke-linejoin="round" stroke-width="2.87"/><polyline points="135.96 117.95 141.65 114.26 135.96 110.57" fill="none" stroke="#2b2523" stroke-linecap="round" stroke-linejoin="round" stroke-width="2.28"/><polyline points="126.92 117.92 121.23 114.23 126.92 110.54" fill="none" stroke="#2b2523" stroke-linecap="round" stroke-linejoin="round" stroke-width="2.28"/><line x1="133.11" y1="108.44" x2="129.69" y2="120.13" fill="none" stroke="#2b2523" stroke-linecap="round" stroke-linejoin="round" stroke-width="2.28"/><text transform="translate(131.53 157.15)" font-size="32.86" fill="#2b2523" font-family="AkkuratPro-Bold, Akkurat Pro" font-weight="700">€</text></svg>