<svg xmlns="http://www.w3.org/2000/svg" viewBox="0 0 283.46 283.46"><circle cx="141.73" cy="141.73" r="73.77" fill="#8d574c" stroke="#000" stroke-miterlimit="10" stroke-width="4"/><circle cx="141.73" cy="141.73" r="68.1" transform="translate(-20.87 258.93) rotate(-80.78)" fill="none" stroke="#000" stroke-miterlimit="10" stroke-width="0.75" stroke-dasharray="2"/><path d="M109.28,129v46.36h64.9V129L141.73,96.54Zm-4.64-1.92L141.73,90l37.09,37.09V180H104.64Z" fill="#010101"/><path d="M109.28,129v46.36h64.9V129L141.73,96.54Zm-4.64-1.92L141.73,90l37.09,37.09V180H104.64Z" fill="#010101"/><line x1="104.64" y1="186.73" x2="178.82" y2="187.25" fill="none" stroke="#1d1d1b" stroke-miterlimit="10" stroke-width="8"/><line x1="141.73" y1="83.97" x2="181.83" y2="124.06" fill="none" stroke="#010101" stroke-miterlimit="10" stroke-dasharray="2"/><line x1="101.64" y1="124.06" x2="141.73" y2="83.97" fill="none" stroke="#010101" stroke-miterlimit="10" stroke-dasharray="2"/><path d="M137.22,133.92a25.9,25.9,0,0,1-8.09-1.3,14.09,14.09,0,0,1-2.52-1.18,5,5,0,0,1-1.32-1.19,2,2,0,0,1,0-2.53,4.8,4.8,0,0,1,1.45-1.28,14.29,14.29,0,0,1,4.33-1.64,31.91,31.91,0,0,1,8.72-.69,25.1,25.1,0,0,1,7,1.25,15.62,15.62,0,0,1,2.52,1.18,5.16,5.16,0,0,1,1.3,1.17,1.92,1.92,0,0,1,0,2.57,6.43,6.43,0,0,1-1.38,1.22,13.72,13.72,0,0,1-4.64,1.74,32.69,32.69,0,0,1-7.39.68" fill="#12100b"/><path d="M124.84,148.86a4.81,4.81,0,0,0,2.21,2.49,13.09,13.09,0,0,0,4.62,1.59,39,39,0,0,0,9,.41,21.56,21.56,0,0,0,6.74-1.26,6.9,6.9,0,0,0,3-2,11,11,0,0,0,.75-1.18v.21c0,1.89,0,3.78,0,5.66a3.14,3.14,0,0,1-.74,2.06,7.81,7.81,0,0,1-3.56,2.33,20.4,20.4,0,0,1-5,1,41,41,0,0,1-6.37.11,20.75,20.75,0,0,1-6.92-1.39,7.1,7.1,0,0,1-2.86-2,3.29,3.29,0,0,1-.82-2.22c0-1.85,0-3.7,0-5.56Z" fill="#12100b"/><path d="M124.84,131.41a4.74,4.74,0,0,0,2.12,2.44,12.31,12.31,0,0,0,4.1,1.52,36.56,36.56,0,0,0,8.16.58,30.9,30.9,0,0,0,5.67-.58,12.48,12.48,0,0,0,3.78-1.35,9.26,9.26,0,0,0,1.29-.94,3.74,3.74,0,0,0,1.14-1.67v.31c0,1.88,0,3.77,0,5.65a3.13,3.13,0,0,1-.75,2.06,7.88,7.88,0,0,1-3.68,2.37,19.58,19.58,0,0,1-5.62,1c-1.8.08-3.62.12-5.43,0a20.09,20.09,0,0,1-7.14-1.38,7,7,0,0,1-3.05-2.28,3.12,3.12,0,0,1-.61-1.87c0-1.89,0-3.79,0-5.68Z" fill="#12100b"/><path d="M151.1,140.33c0,2.06,0,4.18,0,6.3a2.83,2.83,0,0,1-.86,1.8,8.33,8.33,0,0,1-3.85,2.31,21,21,0,0,1-5.66,1c-1.52.08-3,.11-4.55.06a21.67,21.67,0,0,1-7.43-1.32,7.15,7.15,0,0,1-3.21-2.26,3.12,3.12,0,0,1-.7-2c0-1.87,0-3.74,0-5.6v-.31a4.68,4.68,0,0,0,2.09,2.4,12.81,12.81,0,0,0,4.6,1.64,37.83,37.83,0,0,0,8.5.47,23.48,23.48,0,0,0,6.95-1.15,7.21,7.21,0,0,0,3.41-2.16,10.13,10.13,0,0,0,.71-1.14" fill="#12100b"/><path d="M150.93,166a1.85,1.85,0,0,1-1-.28l-6-3.77a1.74,1.74,0,0,1-.65-2.38,1.9,1.9,0,0,1,.62-.64l6.06-3.79a1.94,1.94,0,0,1,1-.3,1.72,1.72,0,0,1,1.69,1.33,1.75,1.75,0,0,1-.84,1.94l-3.71,2.32,3.68,2.3a1.77,1.77,0,0,1,.81,2.05A1.72,1.72,0,0,1,150.93,166Z" fill="#12100b"/><path d="M151,155.82a.73.73,0,0,1,.73.58.78.78,0,0,1-.4.87l-1.65,1-3.19,2-.19.13.2.13,4.8,3a.79.79,0,0,1,.39.93.74.74,0,0,1-.72.52.84.84,0,0,1-.45-.13l-2.72-1.69-3.31-2.07a.76.76,0,0,1-.32-1.06.86.86,0,0,1,.3-.3c2-1.26,4-2.53,6-3.78a.93.93,0,0,1,.48-.15m0-2h0a2.88,2.88,0,0,0-1.52.44c-2,1.26-4.05,2.52-6.06,3.79a2.87,2.87,0,0,0-.95,1,2.73,2.73,0,0,0,1,3.72l2.64,1.65.67.42.7.43c.67.42,1.34.85,2,1.26a2.83,2.83,0,0,0,1.49.43,2.7,2.7,0,0,0,2.6-1.9,2.77,2.77,0,0,0-1.22-3.19L150,160.42l.73-.45.55-.35,1.1-.69a2.73,2.73,0,0,0-1.38-5.08Z" fill="#fff"/><path d="M160.11,166a1.71,1.71,0,0,1-1.65-1.2,1.77,1.77,0,0,1,.8-2.06l3.68-2.3-3.7-2.32a1.79,1.79,0,0,1-.88-1.4,1.73,1.73,0,0,1,.6-1.43,1.7,1.7,0,0,1,1.14-.44,1.82,1.82,0,0,1,1,.3l6,3.74a1.75,1.75,0,0,1,0,3.09l-6,3.72A1.89,1.89,0,0,1,160.11,166Z" fill="#12100b"/><path d="M160.1,155.82a1,1,0,0,1,.47.14l2.83,1.77,3.15,2a.78.78,0,0,1,0,1.43l-5.95,3.72a1,1,0,0,1-.5.15.73.73,0,0,1-.71-.51.79.79,0,0,1,.38-.94l2.7-1.68,2.14-1.34.18-.11L162,158.65l-2.22-1.38a.77.77,0,0,1-.15-1.26.7.7,0,0,1,.49-.19m0-2a2.72,2.72,0,0,0-1.79.68,2.67,2.67,0,0,0-.93,2.25,2.78,2.78,0,0,0,1.33,2.15l1.5.94.72.45.15.1-.44.27-1.9,1.19a2.75,2.75,0,0,0-1.22,3.2,2.7,2.7,0,0,0,2.59,1.89,2.94,2.94,0,0,0,1.54-.45l6-3.72a2.75,2.75,0,0,0,0-4.77l-3.16-2-.42-.26-2.41-1.51a2.87,2.87,0,0,0-1.51-.44Z" fill="#fff"/><path d="M153.64,168.35l-.16,0a1.77,1.77,0,0,1-1.5-1.81v-.1l0-.1a2.11,2.11,0,0,1,.07-.3l3.55-12.17a1.76,1.76,0,0,1,1.68-1.32,1.49,1.49,0,0,1,.47.07,1.72,1.72,0,0,1,1,.84,1.82,1.82,0,0,1,.15,1.41l-3.55,12.2a1.83,1.83,0,0,1-1.71,1.3Z" fill="#12100b"/><path d="M157.3,153.51l.2,0a.82.82,0,0,1,.52,1l-2.23,7.66-1.32,4.54a.83.83,0,0,1-.76.58h-.09a.8.8,0,0,1-.66-.84s0-.13,0-.22q1.78-6.09,3.56-12.18a.79.79,0,0,1,.73-.61m0-2h0a2.76,2.76,0,0,0-2.63,2q-1.77,6.09-3.55,12.18c0,.14-.07.29-.09.39l0,.2v.18a2.77,2.77,0,0,0,2.35,2.79l.37,0a2.82,2.82,0,0,0,2.65-2l1.32-4.54.91-3.11,1.33-4.55a2.82,2.82,0,0,0-.24-2.17,2.7,2.7,0,0,0-1.63-1.31,2.78,2.78,0,0,0-.75-.11Z" fill="#fff"/></svg>