<svg xmlns="http://www.w3.org/2000/svg" viewBox="0 0 91.71 91.71"><rect x="0.5" y="0.5" width="90.71" height="90.71" rx="45.35" fill="#ff9a9a"/><path d="M45.85,91.21A45.36,45.36,0,0,1,.5,45.85h0a45.36,45.36,0,0,1,90.71,0h0A45.36,45.36,0,0,1,45.85,91.21Z" fill="none" stroke="#1d1d1b" stroke-linecap="round" stroke-linejoin="round" stroke-dasharray="5.09 5.09"/><path d="M24.55,37.51V68H67.16V37.51L45.85,16.2ZM21.5,36.25,45.85,11.9,70.21,36.25V71H21.5Z"/><path d="M24.55,37.51V68H67.16V37.51L45.85,16.2ZM21.5,36.25,45.85,11.9,70.21,36.25V71H21.5Z"/><line x1="21.5" y1="75.42" x2="70.21" y2="75.76" fill="none" stroke="#000" stroke-miterlimit="10" stroke-width="5"/><line x1="45.85" y1="7.95" x2="72.18" y2="34.27" fill="none" stroke="#000" stroke-miterlimit="10" stroke-dasharray="2"/><line x1="19.53" y1="34.27" x2="45.85" y2="7.95" fill="none" stroke="#000" stroke-miterlimit="10" stroke-dasharray="2"/><path d="M42.89,40.74a16.89,16.89,0,0,1-5.31-.85,9.17,9.17,0,0,1-1.65-.77,3.41,3.41,0,0,1-.87-.78,1.3,1.3,0,0,1,0-1.67,3.27,3.27,0,0,1,1-.83,9.12,9.12,0,0,1,2.85-1.08,20.34,20.34,0,0,1,5.72-.45,16.48,16.48,0,0,1,4.62.81,11.29,11.29,0,0,1,1.65.78,3.1,3.1,0,0,1,.85.76,1.25,1.25,0,0,1,0,1.69,3.62,3.62,0,0,1-.9.8,9,9,0,0,1-3,1.15,21.09,21.09,0,0,1-4.86.44Z"/><path d="M52,53.73l-6.48,4.32a26.92,26.92,0,0,1-3.81.05,13.86,13.86,0,0,1-4.55-.91,4.76,4.76,0,0,1-1.87-1.32,2.15,2.15,0,0,1-.54-1.46c0-1.22,0-2.43,0-3.65v-.21a3.13,3.13,0,0,0,1.46,1.64,8.59,8.59,0,0,0,3,1,25.17,25.17,0,0,0,5.88.27,14.28,14.28,0,0,0,4.43-.82,4.54,4.54,0,0,0,1.95-1.3,6.59,6.59,0,0,0,.49-.77v.14C52,51.74,52,52.73,52,53.73Z"/><path d="M34.76,39.1a3.09,3.09,0,0,0,1.4,1.6,8,8,0,0,0,2.69,1,24,24,0,0,0,5.35.38,21.16,21.16,0,0,0,3.73-.38,7.93,7.93,0,0,0,2.48-.89,6.36,6.36,0,0,0,.85-.62A2.36,2.36,0,0,0,52,39.1v.2c0,1.24,0,2.48,0,3.71a2,2,0,0,1-.49,1.36,5.24,5.24,0,0,1-2.42,1.55,12.86,12.86,0,0,1-3.68.68c-1.19.06-2.38.08-3.57,0a13.44,13.44,0,0,1-4.69-.91,4.5,4.5,0,0,1-2-1.5,2,2,0,0,1-.4-1.22c0-1.25,0-2.49,0-3.73Z"/><path d="M52,45c0,1.35,0,2.74,0,4.13a1.93,1.93,0,0,1-.56,1.18,5.41,5.41,0,0,1-2.53,1.52,13.89,13.89,0,0,1-3.72.64c-1,0-2,.07-3,0a14.55,14.55,0,0,1-4.88-.87,4.67,4.67,0,0,1-2.1-1.48,2,2,0,0,1-.46-1.33c0-1.22,0-2.45,0-3.67v-.21a3.06,3.06,0,0,0,1.38,1.58,8.47,8.47,0,0,0,3,1.08,25.41,25.41,0,0,0,5.58.31,15.4,15.4,0,0,0,4.56-.76,4.79,4.79,0,0,0,2.24-1.42A6,6,0,0,0,52,45Z"/><path d="M48.83,58.15l.13.08,3.15,2a.53.53,0,0,1,.26.61.51.51,0,0,1-.77.26L49.81,60,47.64,58.6a.51.51,0,0,1-.21-.7.69.69,0,0,1,.19-.19c1.33-.84,2.65-1.67,4-2.49a.51.51,0,0,1,.8.28.53.53,0,0,1-.27.57l-1.08.68L49,58.06A.94.94,0,0,0,48.83,58.15Z"/><path d="M61,58.14,59.15,57l-1.46-.9a.51.51,0,0,1-.1-.83.5.5,0,0,1,.63,0l1.86,1.16,2.07,1.29a.52.52,0,0,1,0,.94l-3.91,2.44a.51.51,0,0,1-.8-.24.52.52,0,0,1,.26-.61l1.76-1.1,1.41-.88Z"/><path d="M53.23,62.15a.58.58,0,0,1,0-.14c.78-2.67,1.56-5.33,2.33-8a.5.5,0,0,1,.62-.38.53.53,0,0,1,.34.68l-1.47,5c-.29,1-.57,2-.86,3a.55.55,0,0,1-.56.38A.52.52,0,0,1,53.23,62.15Z"/></svg>