<svg xmlns="http://www.w3.org/2000/svg" viewBox="0 0 283.46 283.46"><circle cx="141.73" cy="141.73" r="73.77" fill="#f29f9c" stroke="#000" stroke-miterlimit="10" stroke-width="4"/><circle cx="141.73" cy="141.73" r="68.1" transform="translate(-20.87 258.93) rotate(-80.78)" fill="none" stroke="#000" stroke-miterlimit="10" stroke-width="0.75" stroke-dasharray="2"/><path d="M109.28,129v46.36h64.9V129L141.73,96.54Zm-4.64-1.92L141.73,90l37.09,37.09V180H104.64Z" fill="#010101"/><path d="M109.28,129v46.36h64.9V129L141.73,96.54Zm-4.64-1.92L141.73,90l37.09,37.09V180H104.64Z" fill="#010101"/><line x1="104.64" y1="186.73" x2="178.82" y2="187.25" fill="none" stroke="#1d1d1b" stroke-miterlimit="10" stroke-width="8"/><line x1="141.73" y1="83.97" x2="181.83" y2="124.06" fill="none" stroke="#010101" stroke-miterlimit="10" stroke-dasharray="2"/><line x1="101.64" y1="124.06" x2="141.73" y2="83.97" fill="none" stroke="#010101" stroke-miterlimit="10" stroke-dasharray="2"/><path d="M137.22,133.92a25.9,25.9,0,0,1-8.09-1.3,14.09,14.09,0,0,1-2.52-1.18,5,5,0,0,1-1.32-1.19,2,2,0,0,1,0-2.53,4.8,4.8,0,0,1,1.45-1.28,14.29,14.29,0,0,1,4.33-1.64,31.91,31.91,0,0,1,8.72-.69,25.1,25.1,0,0,1,7,1.25,15.62,15.62,0,0,1,2.52,1.18,5.16,5.16,0,0,1,1.3,1.17,1.92,1.92,0,0,1,0,2.57,6.43,6.43,0,0,1-1.38,1.22,13.72,13.72,0,0,1-4.64,1.74,32.69,32.69,0,0,1-7.39.68" fill="#12100b"/><path d="M124.84,148.86a4.81,4.81,0,0,0,2.21,2.49,13.09,13.09,0,0,0,4.62,1.59,39,39,0,0,0,9,.41,21.56,21.56,0,0,0,6.74-1.26,6.9,6.9,0,0,0,3-2,11,11,0,0,0,.75-1.18v.21c0,1.89,0,3.78,0,5.66a3.14,3.14,0,0,1-.74,2.06,7.81,7.81,0,0,1-3.56,2.33,20.4,20.4,0,0,1-5,1,41,41,0,0,1-6.37.11,20.75,20.75,0,0,1-6.92-1.39,7.1,7.1,0,0,1-2.86-2,3.29,3.29,0,0,1-.82-2.22c0-1.85,0-3.7,0-5.56Z" fill="#12100b"/><path d="M124.84,131.41a4.74,4.74,0,0,0,2.12,2.44,12.31,12.31,0,0,0,4.1,1.52,36.56,36.56,0,0,0,8.16.58,30.9,30.9,0,0,0,5.67-.58,12.48,12.48,0,0,0,3.78-1.35,9.26,9.26,0,0,0,1.29-.94,3.74,3.74,0,0,0,1.14-1.67v.31c0,1.88,0,3.77,0,5.65a3.13,3.13,0,0,1-.75,2.06,7.88,7.88,0,0,1-3.68,2.37,19.58,19.58,0,0,1-5.62,1c-1.8.08-3.62.12-5.43,0a20.09,20.09,0,0,1-7.14-1.38,7,7,0,0,1-3.05-2.28,3.12,3.12,0,0,1-.61-1.87c0-1.89,0-3.79,0-5.68Z" fill="#12100b"/><path d="M151.1,140.33c0,2.06,0,4.18,0,6.3a2.83,2.83,0,0,1-.86,1.8,8.33,8.33,0,0,1-3.85,2.31,21,21,0,0,1-5.66,1c-1.52.08-3,.11-4.55.06a21.67,21.67,0,0,1-7.43-1.32,7.15,7.15,0,0,1-3.21-2.26,3.12,3.12,0,0,1-.7-2c0-1.87,0-3.74,0-5.6v-.31a4.68,4.68,0,0,0,2.09,2.4,12.81,12.81,0,0,0,4.6,1.64,37.83,37.83,0,0,0,8.5.47,23.48,23.48,0,0,0,6.95-1.15,7.21,7.21,0,0,0,3.41-2.16,10.13,10.13,0,0,0,.71-1.14" fill="#12100b"/><path d="M146.26,160.42l.2.13,4.8,3a.79.79,0,0,1,.39.93.77.77,0,0,1-1.17.39l-2.72-1.69-3.31-2.07a.76.76,0,0,1-.32-1.06.86.86,0,0,1,.3-.3c2-1.26,4-2.53,6-3.78a.77.77,0,0,1,1.21.43.78.78,0,0,1-.4.87l-1.65,1-3.19,2Z" fill="#f29f9c" stroke="#000" stroke-miterlimit="10" stroke-width="0.75" stroke-dasharray="2"/><path d="M164.8,160.42,162,158.65l-2.22-1.38a.77.77,0,1,1,.81-1.31l2.83,1.77,3.15,2a.78.78,0,0,1,0,1.43l-5.95,3.72a.78.78,0,0,1-1.21-.36.79.79,0,0,1,.38-.94l2.7-1.68,2.14-1.34Z" fill="#f29f9c" stroke="#000" stroke-miterlimit="10" stroke-width="0.75" stroke-dasharray="2"/><path d="M153,166.52s0-.13,0-.22q1.78-6.09,3.56-12.18a.76.76,0,0,1,.93-.58.82.82,0,0,1,.52,1l-2.23,7.66-1.32,4.54a.83.83,0,0,1-.85.58A.8.8,0,0,1,153,166.52Z" fill="#f29f9c" stroke="#000" stroke-miterlimit="10" stroke-width="0.75" stroke-dasharray="2"/></svg>