<svg xmlns="http://www.w3.org/2000/svg" viewBox="0 0 91.71 91.71"><rect x="44.61" y="40.27" width="2.48" height="11.16" fill="#1d1d1b"/><rect x="44.61" y="39.65" width="2.48" height="12.4" fill="#1d1d1b"/><rect x="44.61" y="39.03" width="2.48" height="13.64" fill="#1d1d1b"/><rect x="0.5" y="0.5" width="90.71" height="90.71" rx="45.35" fill="#ff9a9a"/><path d="M45.85,91.21h0A45.36,45.36,0,0,1,45.85.5h0a45.36,45.36,0,1,1,0,90.71Z" fill="none" stroke="#1d1d1b" stroke-linecap="round" stroke-linejoin="round" stroke-dasharray="5.09 5.09"/><path d="M62.26,52.46c-1.3-.34-2.6-.73-3.9-1.18v8.63h9V55.17l-5.7,2.54Z"/><path d="M46,60h9V50a54.61,54.61,0,0,1-9-5Z"/><path d="M42.57,42.53c-1.19-1-2.32-1.92-3.44-3a55.17,55.17,0,0,1-5.59-6V60h9Z"/><path d="M42.57,39.6c1.07,1,2.2,1.8,3.38,2.71a47.82,47.82,0,0,0,9,5.24c1.13.51,2.26,1,3.38,1.36a48.13,48.13,0,0,0,6.32,1.8l-.34,3.39,9.26-4.18L65.42,44l-.34,3.33c-14.28-3-25.28-13.09-31.54-23.64v6.15A61.16,61.16,0,0,0,42.57,39.6Z"/><path d="M30.15,19.9V55.16a8.64,8.64,0,0,0-3.38-.68V19.9Z"/><path d="M73.59,63.34v3.39H34.65a8.55,8.55,0,0,0,.78-3.39Z"/><path d="M35.43,63.14v.2a8.55,8.55,0,0,1-.78,3.39,8.69,8.69,0,1,1-1.11-9,8.68,8.68,0,0,1,1.89,5.39Z" fill="none" stroke="#000" stroke-miterlimit="10" stroke-width="3"/><path d="M25.47,64c-.45-.42-1.17-1.18-1.66-1.66s-.79-.07-1.37.55,0,1,.93,1.93l1.68,1.69c.63.55,1.14-.27,2-1.07L30.4,62c1.07-1,1.31-1,.45-1.86s-.73-.79-1.93.45C28.36,61.12,25.64,63.88,25.47,64Z" fill-rule="evenodd"/></svg>