<svg xmlns="http://www.w3.org/2000/svg" viewBox="0 0 90.78 91.71"><rect x="0.5" y="0.5" width="89.78" height="90.71" rx="44.89" fill="#ff9a9a"/><path d="M45.39,91.21A44.89,44.89,0,0,1,.5,46.32v-.93a44.89,44.89,0,0,1,89.78,0v.93A44.89,44.89,0,0,1,45.39,91.21Z" fill="none" stroke="#1d1d1b" stroke-linecap="round" stroke-linejoin="round" stroke-dasharray="5.07 5.07"/><path d="M74.16,26.36V64.84c0,2.07-1.58,4.27-3.54,4.27H20.17c-2,0-3.55-2.2-3.55-4.27V26.36a3.66,3.66,0,0,1,3.55-3.76H70.62A3.66,3.66,0,0,1,74.16,26.36Z" fill="none" stroke="#000" stroke-miterlimit="10" stroke-width="3"/><path d="M53.17,51.09c0-.07-.08-.07-.11,0l-.17.33-.14.21-.25.31-.17.18c-.13.1-.33.28-.37.32a1.58,1.58,0,0,0-.27.26.39.39,0,0,0,0,.24c0,.08,0,.16.06.22a.28.28,0,0,1,0,.22c-.09.1-.22.25-.26.31a1,1,0,0,0-.17.31v.22a.12.12,0,0,0,.13.12h.13a.45.45,0,0,0,.22-.08l.16-.15.28-.32.22-.24a.46.46,0,0,0,.11-.22l0-.24a2.17,2.17,0,0,1,.07-.24l.09-.19a1,1,0,0,1,.14-.21l0,0a1,1,0,0,0,.14-.21l.07-.16.12-.31a.6.6,0,0,0,0-.48Z" fill="#353435"/><path d="M45.46,42.56a.1.1,0,0,0,.07-.06.25.25,0,0,0,0-.15h0c0-.05-.05-.06-.08,0a.22.22,0,0,0-.05.14v0C45.41,42.52,45.43,42.56,45.46,42.56Z" fill="#8c8c8c"/><path d="M43.47,39.55a.33.33,0,0,1-.06.06l-.15.06a1.29,1.29,0,0,0-.09.16v0s0,.06-.07.08L43,40s0,.07,0,.12a.07.07,0,0,0,.09.07l.07,0,.08,0,.14,0a.14.14,0,0,0,.1-.07l0-.08,0-.06a.33.33,0,0,1,.09-.11.14.14,0,0,0,0-.12.17.17,0,0,0-.09-.12h0A.16.16,0,0,0,43.47,39.55Z" fill="#8c8c8c"/><path d="M43.84,39.47s0,.16,0,.19.16.07.16.1-.1.12-.1.13-.09,0-.12,0,0,.13,0,.15-.17.1-.18.12l.12,0s.06,0,0,.07l-.06,0-.07.08s0,.06,0,.06l.21,0,.3,0,.17,0a.12.12,0,0,0,.11-.09.68.68,0,0,1,0-.13.18.18,0,0,0,0-.12l0-.06a1.22,1.22,0,0,1-.07-.17l0-.06a.38.38,0,0,0-.11-.14l0,0a.2.2,0,0,1-.06-.28.75.75,0,0,0,.07-.12.08.08,0,0,0,0-.1h0A.38.38,0,0,1,44,39a.08.08,0,0,0-.11,0l-.09.06a.25.25,0,0,0-.08.14h0a.47.47,0,0,0,0,.17Z" fill="#8c8c8c"/><path d="M43,38.05h.06a.47.47,0,0,0,.17,0l.12-.05.16-.08a.07.07,0,0,0,0-.11.32.32,0,0,0-.12-.11h0a.34.34,0,0,0-.17,0h-.09a.32.32,0,0,1-.17,0h0a.11.11,0,0,0-.16.1v.14a.22.22,0,0,0,.05.14A.25.25,0,0,0,43,38.05Z" fill="#8c8c8c"/><path d="M45.54,36.29l.12.07s.06,0,.08,0l0-.05,0,0s.06,0,.1,0,.08,0,.09,0,0-.09,0-.1,0-.05,0-.07,0-.05,0-.07h0a.12.12,0,0,0-.14,0,.23.23,0,0,1-.16,0c-.06,0-.14,0-.14,0a1,1,0,0,0,0,.17Z" fill="#8c8c8c"/><path d="M46.59,35.9a.26.26,0,0,0,.15,0l.07,0,.17-.06.09,0s0,0,0-.07l-.07,0a.33.33,0,0,0-.17,0l-.25,0s0,.12,0,.14S46.56,35.89,46.59,35.9Z" fill="#8c8c8c"/><path d="M47.69,36.43a1.83,1.83,0,0,1,.15.17l.08.07a.3.3,0,0,0,.16,0h.05l.13,0s0,0,0-.06l0,0a.78.78,0,0,1-.15-.1h0a.49.49,0,0,1-.1-.15v0l-.06-.11a.23.23,0,0,1,0-.11V36a.53.53,0,0,0,0-.17l0,0a.1.1,0,0,0-.1-.06.18.18,0,0,0-.07.11s0,.1-.08.14a.1.1,0,0,0,0,.09c0,.09.12.16.13.19A.2.2,0,0,0,47.69,36.43Z" fill="#8c8c8c"/><path d="M48.51,36.36l.08.07,0,0,.11.07a.11.11,0,0,0,.1,0,.13.13,0,0,0,0-.09.2.2,0,0,0-.07-.09l0,0-.13-.09-.06,0a.14.14,0,0,0-.12,0l-.06,0s0,.08,0,.1S48.51,36.36,48.51,36.36Z" fill="#8c8c8c"/><path d="M34.69,43.71v-.17a.31.31,0,0,0,0-.16l0-.07a.34.34,0,0,0-.12-.12l0,0a.21.21,0,0,1-.11-.12l0-.11s0-.06-.09,0h0a.28.28,0,0,0-.06.15v.18a.85.85,0,0,0,.07.16l.07.17a.36.36,0,0,0,0,.09l.08.16.1.15a.25.25,0,0,1,0,.17l0,.27,0,.25s0,.06,0,0l0-.06a1.11,1.11,0,0,0,.07-.16l.05-.19a.57.57,0,0,0,0-.18v0s0-.13,0-.18Z" fill="#353435"/><path d="M54.26,37a12.55,12.55,0,1,0,3.67,8.87A12.47,12.47,0,0,0,54.26,37ZM45.39,57.5a11.6,11.6,0,0,1-8.58-3.79.36.36,0,0,1-.08-.15l0-.18a.46.46,0,0,0-.07-.16l-.16-.16s-.07-.1,0-.14l.1-.12a.14.14,0,0,1,.15,0l.09,0a.18.18,0,0,0,.16,0l.11-.08a.15.15,0,0,0,.06-.14l0-.51v-.59a.25.25,0,0,1,.06-.16l.18-.23a.28.28,0,0,0,.05-.16l-.1-.65a.26.26,0,0,0-.07-.15l-.3-.34-.24-.28-.14-.12-.32-.2a.74.74,0,0,1-.13-.12l-.41-.42a1.3,1.3,0,0,1-.1-.15l-.16-.29a1.15,1.15,0,0,1-.06-.17l0-.23-.13-.55a.56.56,0,0,0-.07-.16l-.27-.49a.83.83,0,0,0-.11-.15.78.78,0,0,1-.12-.17s-.15-.71-.15-.71l-.2-.69a.77.77,0,0,0-.07-.16l-.23-.36a.25.25,0,0,1,0-.17,11.41,11.41,0,0,1,.54-2.2s0-.06,0,0l0,.06-.06.34a.19.19,0,0,0,.05.16l.06.07s.07,0,.08,0l.06-.17a.88.88,0,0,0,0-.17v-.19a1.1,1.1,0,0,0,0-.18l0-.13a.33.33,0,0,1,0-.17,11,11,0,0,1,.56-1.21.18.18,0,0,1,.13-.08.58.58,0,0,0,.17-.06l.09-.06a.49.49,0,0,0,.14-.11,2.55,2.55,0,0,0,.21-.23s.21-.13.21-.17a1.57,1.57,0,0,1,.28-.19.53.53,0,0,1,.17,0h.08a.17.17,0,0,0,.14-.08,1,1,0,0,0,.09-.14.44.44,0,0,1,.17-.08.07.07,0,0,1,.1.06v.08a.09.09,0,0,0,.1.08,1.56,1.56,0,0,0,.39-.06l0-.08a.47.47,0,0,1,0-.16V39a.11.11,0,0,1,.08-.12h0a.38.38,0,0,0,.15-.09l.1-.1a.07.07,0,0,0,0-.11h0a.14.14,0,0,1-.08-.12.07.07,0,0,1,.09-.07H38l.16.06.15.08.12.07a.08.08,0,0,1,0,.12l-.06.08a.32.32,0,0,1-.13.1l-.17.06A.2.2,0,0,0,38,39l0,.16a.17.17,0,0,0,0,.15l.14.15a.17.17,0,0,0,.15,0c.1,0,.25-.06.25-.08l0-.13a.32.32,0,0,1,0-.17l.19-.38.13-.26a.85.85,0,0,1,.11-.14l.14-.13a.38.38,0,0,0,.11-.14c.07-.13.19-.38.21-.4l.26-.25a.28.28,0,0,0,.08-.15v-.09s0-.08-.08-.07l-.26.07s-.06,0,0,0l.13-.13.25-.26a.75.75,0,0,0,.09-.15l0-.12c0-.05,0-.08,0-.08a.3.3,0,0,0-.16.05l-.21.17-.37.27L39,37l-.11.06-.16.09-.35.24a.31.31,0,0,1-.16.06h-.07s-.07,0,0-.07l.14-.17.13-.13.36-.32L39,36.5l.35-.3.24-.18a.46.46,0,0,1,.16-.07l.09,0,.18,0h.05s.07,0,0,.08l-.06.12a.05.05,0,0,0,.05.08.23.23,0,0,0,.14,0,.06.06,0,0,1,.09.05h0a.18.18,0,0,1,0,.16v0l-.12.14-.09.08a.54.54,0,0,0-.09.15l-.05.17s0,.07.05,0l.13,0,.17-.07.17-.05h.1l.18,0,.19-.08a.48.48,0,0,0,.16-.08l.31-.21.27-.16a.74.74,0,0,0,.13-.12l.07-.08a.07.07,0,0,0,0-.11h0a.08.08,0,0,1,0-.1,1.19,1.19,0,0,0,.09-.15l.08-.17,0-.07s.06,0,.1,0l.07.05a.12.12,0,0,0,.14,0l.12-.07.09,0a.18.18,0,0,1,.16,0l.2.09s0,0,0,.06l-.14,0a.26.26,0,0,0-.14.09.09.09,0,0,0,0,.13s0,.08,0,.1l-.08,0a.56.56,0,0,0-.15.1l-.25.2-.19.2-.15.11-.19.11-.39.26a.76.76,0,0,0-.14.11L41,37l-.11.14-.11.16-.14.2a.48.48,0,0,0-.08.16v.07a.11.11,0,0,0,.06.13l.12.07a.11.11,0,0,0,.14,0l.08-.07.12-.13,0,0a.36.36,0,0,1,.14-.1l.15-.05a1.22,1.22,0,0,0,.17-.07l.09,0a.34.34,0,0,1,.17,0h.25a.53.53,0,0,0,.17,0l.22-.12a.33.33,0,0,1,.17,0l.22,0a.33.33,0,0,0,.17,0l.12-.06a.49.49,0,0,0,.14-.11l.1-.09a.49.49,0,0,1,.14-.11l.24-.12a.38.38,0,0,0,.13-.12l.11-.17a1.34,1.34,0,0,1,.11-.14l.13-.12a.21.21,0,0,0,0-.15l-.07-.22-.08-.23c0-.05,0-.08.05-.06l.16.06.35.15.16.09,0,0a.46.46,0,0,0,.16.07l.2,0a.37.37,0,0,0,.18,0l.15-.05a.32.32,0,0,1,.17,0H46a.23.23,0,0,0,.16,0l.19-.1a.77.77,0,0,1,.16-.07l.13-.05.18,0h.17a.11.11,0,0,0,.1-.09v-.06a.26.26,0,0,1,.09-.14l.06,0a.27.27,0,0,1,.17,0l.2,0a.3.3,0,0,0,.16,0l.1-.1a.07.07,0,0,0,0-.11l-.16-.09a.3.3,0,0,1-.12-.13l0-.08s0-.07,0-.06l.52.12.17.06.17.07a.65.65,0,0,1,.15.1l0,0a.23.23,0,0,1,0,.15l0,.07a.09.09,0,0,1-.1.07l-.07,0h-.17l-.3.06s-.06,0,0,.08l.12.1.15.1.1,0a.28.28,0,0,1,.12.12l.09.18a1.21,1.21,0,0,0,.1.14l.11.08a.75.75,0,0,1,.12.14l.11.16.11.14.15.14s0,0,0,0l-.23,0a.54.54,0,0,0-.18,0l-.18,0s0,0,0,0l.09,0a.16.16,0,0,1,.1.1.09.09,0,0,1-.08.08l-.11,0a.46.46,0,0,0-.16.07l-.13.11a.12.12,0,0,0,0,.14l0,.07s0,.09-.06.09h-.08a.17.17,0,0,0-.13.08l0,.06a.85.85,0,0,0-.06.17v0a.07.07,0,0,1-.1.06l-.13,0a.29.29,0,0,1-.15-.09l-.07-.07s0-.07,0-.08l.18,0a.12.12,0,0,0,.1-.1h0a.17.17,0,0,0-.08-.14l-.11-.06-.16-.07-.16,0-.17,0H47a.32.32,0,0,1-.17,0l-.1,0a.25.25,0,0,0-.17,0l-.33.1a.34.34,0,0,0-.15.09l-.17.18a.33.33,0,0,0-.07.16v0a.46.46,0,0,1-.07.16l-.11.13-.11.15-.05.07a.3.3,0,0,1-.13.12l-.08,0a.37.37,0,0,0-.12.13l0,.09a.47.47,0,0,0,0,.17v.16a.13.13,0,0,0,.08.12l.08,0a.28.28,0,0,0,.18,0l.14,0a.15.15,0,0,1,.14.05.8.8,0,0,1,.08.16l0,.09a.38.38,0,0,0,.11.14l.05,0a.16.16,0,0,0,.15,0,1.46,1.46,0,0,0,.21-.14.68.68,0,0,0,0-.21.25.25,0,0,1,0-.17l0-.08a.2.2,0,0,0,0-.17l0-.12a.57.57,0,0,1,0-.18c0-.07,0-.17,0-.18l.15-.23a.36.36,0,0,1,.14-.1.09.09,0,0,1,.11.06l0,0a.14.14,0,0,1,0,.15l0,0a.24.24,0,0,0,0,.16h0a.15.15,0,0,0,.09.13l.06,0a.53.53,0,0,0,.17,0h0a1.08,1.08,0,0,0,.18,0h.07a.19.19,0,0,1,.16.05h0a.22.22,0,0,1,.07.12s0,.06-.07.06h-.26a.06.06,0,0,0-.06.09h0a1.13,1.13,0,0,1,0,.18v.09c0,.05,0,.07-.09.05l0,0a.14.14,0,0,0-.13,0,.19.19,0,0,0,0,.13l0,.08a.32.32,0,0,1,0,.17l-.07.13a.08.08,0,0,1-.12,0l0,0a.15.15,0,0,0-.16,0l-.19.1a.25.25,0,0,1-.17,0l-.17-.07-.14,0a.14.14,0,0,1-.09-.12v-.22a.11.11,0,0,0-.08-.1h0a.09.09,0,0,0-.11.06l0,.13a.37.37,0,0,0,0,.18v.11a.12.12,0,0,1-.09.11l-.22,0A.26.26,0,0,0,45,40l-.06.13a.56.56,0,0,1-.1.15l-.09.11a.42.42,0,0,1-.14.09l-.3.1-.3.11-.28.08s-.07,0,0,.09l.24.31a.22.22,0,0,1,.05.17l0,.23a.11.11,0,0,1-.1.09h-.12l-.18,0-.37-.07-.07,0a.11.11,0,0,0-.11.06l-.1.15a.26.26,0,0,0,0,.17l0,.13a.11.11,0,0,1-.06.13l0,0a.5.5,0,0,0-.13.12l0,.08a.08.08,0,0,0,0,.12.16.16,0,0,1,.07.13v.08a.14.14,0,0,0,.08.13l.12,0L43,43l.08,0a.23.23,0,0,0,.16,0l.08,0a.29.29,0,0,1,.16,0h0a.14.14,0,0,0,.15,0l.16-.15L44,42.8a.14.14,0,0,0,0-.14,1.64,1.64,0,0,1-.07-.21.73.73,0,0,1,.14-.11.56.56,0,0,1,.16-.07l.11,0a.4.4,0,0,0,.15-.1l0,0a.25.25,0,0,0,.06-.16v0a.13.13,0,0,1,.08-.12.22.22,0,0,1,.16,0l.12.05a.18.18,0,0,0,.16,0l.13-.08.24-.12a.08.08,0,0,1,.12,0l0,.06a.3.3,0,0,0,.13.12l0,0a.75.75,0,0,1,.15.09l.12.11.16.12.15.09.05,0a.17.17,0,0,1,.08.14v.09a.19.19,0,0,1-.09.12l-.07,0a1.19,1.19,0,0,0-.16.08l-.11.06s0,.06,0,.08l.08,0,.18,0h.05a.15.15,0,0,0,.14-.05l.08-.13.17-.21.11-.12a.12.12,0,0,0,0-.14l0-.06a.46.46,0,0,0-.12-.12l-.09,0a.43.43,0,0,0-.16,0h0a.22.22,0,0,1-.14-.09l0,0a.74.74,0,0,0-.12-.13l-.12-.11a.26.26,0,0,1-.07-.16v-.1c0-.05,0-.08.07-.07l.13.09.29.23.16.1.16.09L47,42a.12.12,0,0,1,.08.11,1,1,0,0,0,0,.17l0,.07a.29.29,0,0,0,.09.15l.08.09.11.14.06.08a.21.21,0,0,0,.14.1h0a.09.09,0,0,0,.11-.06.1.1,0,0,1,.1-.09h0s.06,0,0-.06l0,0a.38.38,0,0,1-.1-.12.67.67,0,0,0-.06-.12.15.15,0,0,1,0-.13.32.32,0,0,1,.13-.1l0,0,.15,0a.19.19,0,0,1,.13.07l0,0a.46.46,0,0,1,.07.16,1,1,0,0,0,0,.16l0,0,.1.15,0,.06a.45.45,0,0,0,.14.1h0a.36.36,0,0,1,.12.08.12.12,0,0,0,.12,0h0a.24.24,0,0,0,.1-.1.07.07,0,0,1,.08,0h.06l.12,0a.38.38,0,0,0,.23-.06h0a.39.39,0,0,1,.21-.09c.06,0,.11,0,.11.07v.06l0,.24,0,.23a.33.33,0,0,1,0,.17l-.06.21,0,.12a.11.11,0,0,1-.12.07l-.2,0a.29.29,0,0,0-.16,0l-.15.08a.34.34,0,0,1-.17,0h-.16l-.46,0-.27,0a.19.19,0,0,1-.11-.06s-.06-.05-.11-.06h0a.37.37,0,0,0-.18,0l-.1,0a.18.18,0,0,0-.1.11v0a.26.26,0,0,0,0,.17h0a.06.06,0,0,1,0,.1l-.06,0a.18.18,0,0,1-.16,0h0l-.17-.06-.19,0a.19.19,0,0,1-.13-.1h0a.28.28,0,0,0-.12-.12l-.1,0-.17,0-.22,0a.51.51,0,0,1-.17-.07l-.09-.07a.09.09,0,0,1,0-.13l.09-.12a.13.13,0,0,0,0-.13.13.13,0,0,1,0-.12.08.08,0,0,0,0-.11l-.06,0a.33.33,0,0,0-.17,0l-.19,0-.18,0h-.7a.47.47,0,0,0-.17,0l-.39.13-.26.09a.37.37,0,0,1-.18,0l-.16,0-.18,0,0,0a.14.14,0,0,0-.15,0l-.19.22a.78.78,0,0,1-.15.1l-.11.05a.45.45,0,0,0-.14.1l-.12.14a.25.25,0,0,0-.06.15v.12a.23.23,0,0,1-.07.15l-.18.15a.56.56,0,0,1-.16.07H41.7a.18.18,0,0,0-.14.08l-.06.09a.8.8,0,0,1-.13.13l-.12.07a.28.28,0,0,0-.1.14l0,.08a.36.36,0,0,1-.08.15l-.21.23a.56.56,0,0,0-.1.15l0,.09a.22.22,0,0,0,0,.16l0,.08a.16.16,0,0,1,0,.15.33.33,0,0,0,0,.17v.06a.91.91,0,0,1,0,.17l0,.19a1.15,1.15,0,0,1-.06.17l-.1.19a.18.18,0,0,0,0,.16h0a.25.25,0,0,1,0,.17l0,.1a.22.22,0,0,0,0,.16l.37.43.1.15.23.43a.53.53,0,0,0,.11.14l.32.3a.83.83,0,0,0,.15.11l.31.19a.23.23,0,0,0,.16,0l.36-.08h.17l.43.08a.33.33,0,0,0,.17,0l.25-.14a1.11,1.11,0,0,1,.16-.07l.39-.08a.2.2,0,0,1,.15,0l.14.11.13.13.15.16a.17.17,0,0,0,.15,0l.24,0h.18l.11,0a.28.28,0,0,1,.15.08l.11.09a.17.17,0,0,1,.05.15l0,.12a.61.61,0,0,1-.07.17l-.09.16a.4.4,0,0,1-.1.12.08.08,0,0,0,0,.12l.33.37a.74.74,0,0,0,.12.13l.23.21a.21.21,0,0,1,.07.15v.24a.57.57,0,0,0,0,.18l.05.1a.83.83,0,0,0,.09.16l0,0a.23.23,0,0,1,0,.16l0,.13a.56.56,0,0,1-.07.16l-.07.09a.83.83,0,0,0-.09.16l-.13.3a.53.53,0,0,0,0,.17v.19a.31.31,0,0,0,.06.16l.26.33.18.21a.23.23,0,0,1,.06.16v.31a.26.26,0,0,0,.07.15l.09.07a.45.45,0,0,1,.11.13l.15.3a.47.47,0,0,1,0,.17v.09a.09.09,0,0,0,.09.09h.16a.57.57,0,0,0,.18,0l.29-.08.18,0,.47,0a.48.48,0,0,0,.17-.05l.23-.13.16-.09.29-.23a.74.74,0,0,0,.13-.12l.23-.31a.8.8,0,0,1,.13-.13l.24-.2a1.34,1.34,0,0,0,.11-.14l.16-.25a.51.51,0,0,0,.07-.17l0-.26a.26.26,0,0,1,.09-.14l.36-.3.15-.1.25-.14a.22.22,0,0,0,.1-.13l.09-.31s0-.12,0-.17v-.38c0-.05,0-.13,0-.18a2.4,2.4,0,0,1,0-.29c0-.06,0-.56,0-.6a2.17,2.17,0,0,1,.19-.38l.1-.15.32-.39.44-.61.24-.32.09-.15.13-.32a1.09,1.09,0,0,0,.05-.17l.13-.73.07-.45s0-.08-.07-.06l-.29.09-.16.07-.3.16-.16.07-.07,0a.22.22,0,0,1-.16,0l0,0a.5.5,0,0,1-.12-.13l-.11-.18A.19.19,0,0,0,51.6,47h0a.21.21,0,0,1-.15-.07l-.1-.13-.1-.15-.09-.15a.45.45,0,0,0-.11-.13,1.89,1.89,0,0,0-.24-.19s-.06-.06-.09-.11l-.07-.17,0-.13-.07-.17-.07-.12a.85.85,0,0,0-.11-.14l-.19-.18A.4.4,0,0,1,50,45l-.21-.45s0-.08.05-.07l.12,0a.28.28,0,0,1,.15.08l.34.41a.38.38,0,0,0,.14.11l.26.17a.17.17,0,0,1,.08.13v.18a.21.21,0,0,0,.07.15l.23.18a.74.74,0,0,1,.12.13l.29.44.26.43a.12.12,0,0,0,.13.05l.31-.11.49-.16a.5.5,0,0,0,.14-.1l.3-.38.12-.13.34-.34a.26.26,0,0,0,.07-.16c0-.22,0-.8,0-.84s0-.26,0-.39a.17.17,0,0,0-.08-.13l-.15-.06a.1.1,0,0,0-.13,0,.08.08,0,0,1-.12,0l0,0a.38.38,0,0,1-.14-.11h0a0,0,0,0,0-.09,0l0,0-.08.16,0,0a.23.23,0,0,1-.14.1h-.06s-.08,0-.07-.07v-.06a.08.08,0,0,0-.07-.1h0a.47.47,0,0,0-.17,0,.12.12,0,0,1-.14,0l-.29-.36a.25.25,0,0,1-.06-.16v-.18s0-.08.08-.06h0a.38.38,0,0,1,.14.11l.05.06a.8.8,0,0,0,.13.13l.08.05.09.06a.56.56,0,0,0,.16.07l.08,0a.22.22,0,0,0,.16,0h0a.44.44,0,0,1,.16-.06l.47,0a.48.48,0,0,0,.17,0l.34-.18a.14.14,0,0,1,.15,0l.15.14a.3.3,0,0,0,.16.05c.13,0,.36-.06.36-.1a1.13,1.13,0,0,1,.19-.27s.06,0,.07,0l.09.36.06.17.17.44s.06.11.08.16l.34.57.07.16.17.54a.45.45,0,0,0,.1.14l.14.13s.07,0,.06,0a7.42,7.42,0,0,1-.15-1.14s-.12-.25-.2-.36a.34.34,0,0,1,0-.17c0-.23.1-.84.1-.87s-.12-.38-.17-.55a.25.25,0,0,1,0-.17l.1-.34c0-.05,0-.05.07,0l.45.71s0,.07.06.07a.24.24,0,0,1,0,.08A11.62,11.62,0,0,1,45.39,57.5Z" fill="#353435"/><circle cx="45.29" cy="51.69" r="3.21"/><path d="M49.26,33.87l-.21,1.26-1.84,11H43.45l-1.74-11-.19-1.19a3.87,3.87,0,0,1,7.74,0Z"/><path d="M50.26,34.83A12.32,12.32,0,1,1,39.91,35" fill="none" stroke="#1d1d1b" stroke-miterlimit="10" stroke-width="2"/><line x1="16.62" y1="61.89" x2="74.16" y2="61.89" fill="none" stroke="#1d1d1b" stroke-miterlimit="10"/><line x1="16.62" y1="27.17" x2="74.16" y2="27.17" fill="none" stroke="#1d1d1b" stroke-miterlimit="10"/><circle cx="46.03" cy="25.3" r="0.63"/></svg>