<svg xmlns="http://www.w3.org/2000/svg" viewBox="0 0 91.71 91.71"><rect x="0.5" y="0.5" width="90.71" height="90.71" rx="45.35" fill="#fff"/><rect x="0.5" y="0.5" width="90.71" height="90.71" rx="45.35" fill="none" stroke="#1d1d1b" stroke-linecap="round" stroke-linejoin="round" stroke-dasharray="5.09 5.09"/><path d="M52.36,52.63c.79-1.3,1.53-1.82.52-3.36.12-.7.8-1.52-.07-1.66a1.44,1.44,0,0,0-1.63.92l-.33.16c0-.32-.29-.59-1.18-.17.73-1.81-.15-1.61.45-2.54a1.49,1.49,0,0,0-.78-2.21c1.07-1.49-1.39-2-2.5-.7,0-.74-.09-1.87-.55-1.64-.64.31.25-1-.39-2-1.12-1.65-2.39-1.39-2.76-.83-.36-.12-.37-.74-1.39-.6-.55-1.09-1.83.08-1.45,1.27-1-.05-1.25.75-.49,1.19-.68.38-1.45,1.33-1.25,2.06a2.34,2.34,0,0,0-.23,1.6c-.62-.48-1.81.16-1.57,1.52-1.25-1.1-2,1-1.83,2.09a1.27,1.27,0,0,0-1,.86c-.7-.33-2.29.38-1.49,1.16C29.79,50.7,32,54,33.6,54.1c-.48,1.12.29,2,1.55,2.37.12,1.15,2.82,1.08,3.23-.27l.16.06a1.33,1.33,0,0,0,2,.52h0a20.21,20.21,0,0,1,2,3c-.1,1.87-.16,3.75-.17,4.31h2c0-.95-.44-4-.44-4.46,0-.34,0-1,0-1.78.37-.46.81-1,1.26-1.46a15.42,15.42,0,0,0,3.85-.86,5.11,5.11,0,0,0,1.6-.23c-1.22,1.64,1.65,1.35,2.51.05S54.07,51.69,52.36,52.63Zm-9.54,3.31c-.08.54-.16,1.46-.23,2.49a21.81,21.81,0,0,0-1.58-2,4.08,4.08,0,0,0,.91-1.1c.07-.14.42,0,1,0C42.88,55.56,42.85,55.75,42.82,55.94Zm1.15.8V55.4a4.78,4.78,0,0,0,1.79-.46,1.53,1.53,0,0,1,.83.08A5.39,5.39,0,0,0,44,56.74ZM45.61,56a2.17,2.17,0,0,1,.93-.55,1.72,1.72,0,0,0,.65-.27,10.89,10.89,0,0,0,1.49.31A11.1,11.1,0,0,1,45.61,56Z"/><path d="M65.28,71.32H21.69c-1.69,0-3.06-1.9-3.06-3.69V28a2.79,2.79,0,0,1,3.06-2.8H31.91c.81,0,1.59-.11,2.17.5l4.26,4.53a3,3,0,0,0,2.17.95H65.28a3.16,3.16,0,0,1,3.07,3.25V67.63C68.35,69.42,67,71.32,65.28,71.32Z" fill="none" stroke="#000" stroke-miterlimit="10" stroke-width="3"/><path d="M23.36,25.15v-2c0-1.79,1.37-2.73,3.07-2.73H36.64c.82,0,1.6-.17,2.17.43l4.27,4.53a3,3,0,0,0,2.17.95H70a3.16,3.16,0,0,1,3.06,3.25V62.82A3.15,3.15,0,0,1,70,66.06H68.35" fill="none" stroke="#000" stroke-miterlimit="10" stroke-width="3"/></svg>