<svg xmlns="http://www.w3.org/2000/svg" viewBox="0 0 90.78 91.71"><rect x="0.5" y="0.5" width="89.78" height="90.71" rx="44.89" fill="#fff"/><path d="M45.39,91.21A44.89,44.89,0,0,1,.5,46.32v-.93a44.89,44.89,0,0,1,89.78,0v.93A44.89,44.89,0,0,1,45.39,91.21Z" fill="none" stroke="#1d1d1b" stroke-linecap="round" stroke-linejoin="round" stroke-dasharray="5.07 5.07"/><line x1="33.38" y1="52.8" x2="48.92" y2="52.8" fill="none" stroke="#000" stroke-linecap="round" stroke-linejoin="round" stroke-width="1.71"/><line x1="33.38" y1="38.8" x2="53.54" y2="38.8" fill="none" stroke="#000" stroke-linecap="round" stroke-linejoin="round" stroke-width="1.71"/><line x1="33.38" y1="32.02" x2="46.83" y2="32.02" fill="none" stroke="#000" stroke-linecap="round" stroke-linejoin="round" stroke-width="1.71"/><line x1="33.38" y1="45.8" x2="51.21" y2="45.8" fill="none" stroke="#000" stroke-linecap="round" stroke-linejoin="round" stroke-width="1.71"/><line x1="47.01" y1="59.8" x2="51.65" y2="59.8" fill="none" stroke="#000" stroke-linecap="round" stroke-linejoin="round" stroke-width="1.71"/><path d="M61.1,34.89H51.16a4.33,4.33,0,0,1-4.33-4.32V21.13" fill="none" stroke="#000" stroke-linecap="round" stroke-linejoin="round" stroke-width="2.87"/><path d="M59,47.31a5.35,5.35,0,0,1,2.95.47,5.26,5.26,0,0,1-4.53,9.5,5.14,5.14,0,0,1-2.24-2" fill="none" stroke="#000" stroke-linecap="round" stroke-linejoin="round" stroke-width="2"/><polygon points="61.93 50.13 54.95 50.27 58.32 44.15 61.93 50.13"/><path d="M60,63.57a11,11,0,1,1,0-22.08,10.88,10.88,0,0,1,1.14.06V34.89L46.83,21.13h-16a5,5,0,0,0-5,5V65.56a5,5,0,0,0,5,5H56.08a5,5,0,0,0,5-5V63.51A10.88,10.88,0,0,1,60,63.57Z" fill="none" stroke="#000" stroke-linecap="round" stroke-linejoin="round" stroke-width="2.87"/><text transform="translate(33.38 66.17)" font-size="13.2" font-family="AkkuratPro-Bold, Akkurat Pro" font-weight="700">€</text></svg>