<svg xmlns="http://www.w3.org/2000/svg" viewBox="0 0 91.71 91.71"><rect x="0.5" y="0.5" width="90.71" height="90.71" rx="45.35" fill="#999"/><path d="M45.85,91.21h0A45.36,45.36,0,0,1,45.85.5h0a45.36,45.36,0,1,1,0,90.71Z" fill="none" stroke="#1d1d1b" stroke-linecap="round" stroke-linejoin="round" stroke-dasharray="5.09 5.09"/><path d="M60,47.61l-4.53-7.44A2.87,2.87,0,0,0,53,38.75H51.77a5.83,5.83,0,0,1-2.18-.42l-.7-.28a7.48,7.48,0,0,0-2.28-.52c.18-.33.38-.73.59-1.2a6.1,6.1,0,0,1,2.68-1.28,8.32,8.32,0,0,0,3.33.84,4.38,4.38,0,0,0,1.6-.29,4.57,4.57,0,0,0,2.47-2.71.89.89,0,0,1,0-.13.64.64,0,0,0-.31-.83l-.11-.05a5.82,5.82,0,0,0-4.65-.73,5.05,5.05,0,0,0-2.82,2.73,12.66,12.66,0,0,0-1.51.52,15.68,15.68,0,0,0,.46-1.88.61.61,0,0,0,0-.12s0-.07,0-.11a13.8,13.8,0,0,0,.17-3.5,11.68,11.68,0,0,0,2.13.22,6.77,6.77,0,0,0,3.69-1,6.89,6.89,0,0,0,2.93-4.64l0-.13a.64.64,0,0,0-.07-.47.65.65,0,0,0-.39-.28c-.72-.17-6.46-1.34-8.88,3.32A14,14,0,0,0,46.77,23,6.48,6.48,0,0,0,45,18.25c-1-.95-2.83-2.07-6.2-2h-.1a.62.62,0,0,0-.62.62V17a6.31,6.31,0,0,0,1.63,4.69c1.32,1.33,3.37,2,6.1,2.05a12.25,12.25,0,0,1,1.53,4.31v0a0,0,0,0,1,0,0,11.22,11.22,0,0,1,.13,1.71,4.42,4.42,0,0,0-1.32-1.23,6.56,6.56,0,0,0-5.05-.46l-.06,0a.62.62,0,0,0-.46.74l0,.09a4.8,4.8,0,0,0,5,4.24A8.46,8.46,0,0,0,47,33.1a15,15,0,0,1-.86,2.54.43.43,0,0,0-.05.12,15.42,15.42,0,0,1-.93,1.74h-.57a2.35,2.35,0,0,0-2,1.13l-1.19,2H39.5a2.27,2.27,0,0,0-1.85,1L35.9,44A2.35,2.35,0,0,1,34,45a3.53,3.53,0,0,0-3,1.65h0l-.39,1.5.17,1,.51-.35.38-.14.84-.08,1,.26.66.48,9.07,9.12,1,1.36L45,61.45l.28.76h1.12l.73-1.74L48,59.1l1.17-1.36,5.61-5.63L58,49l.81-.35.76,0,1.37.57-1-1.55,1,1.54h0" fill-rule="evenodd"/><path d="M42.55,57.74c-2.82-2.83-6.69-6.7-8.41-8.41a2.46,2.46,0,0,0-3.35-.17,2.41,2.41,0,0,0-.12,3.52l5.15,5.17A.8.8,0,1,1,34.69,59l-6.45-6.47V39.21a2.41,2.41,0,0,0-2.63-2.4,2.47,2.47,0,0,0-2.2,2.48V56.91l12,12v6.57H45.86V65.72A11.27,11.27,0,0,0,42.55,57.74Z" stroke="#fffffd" stroke-miterlimit="10" stroke-opacity="0" stroke-width="2"/><path d="M68.3,39.29V56.91l-12,12v6.57H45.86V65.72a11.27,11.27,0,0,1,3.31-8l8.4-8.41a2.47,2.47,0,0,1,3.36-.17,2.41,2.41,0,0,1,.12,3.52l-5.16,5.17A.8.8,0,0,0,57,59l6.45-6.47V39.21a2.41,2.41,0,0,1,2.63-2.4A2.46,2.46,0,0,1,68.3,39.29Z" stroke="#fffffd" stroke-miterlimit="10" stroke-opacity="0" stroke-width="2"/></svg>