<svg xmlns="http://www.w3.org/2000/svg" viewBox="0 0 90.78 91.71"><rect x="0.5" y="0.5" width="89.78" height="90.71" rx="44.89" fill="#99f"/><rect x="0.5" y="0.5" width="89.78" height="90.71" rx="44.89" fill="none" stroke="#1d1d1b" stroke-linecap="round" stroke-linejoin="round" stroke-dasharray="5.07 5.07"/><path d="M58.6,31.26V65.77c0,1.86-.89,3.83-2,3.83H28.14c-1.11,0-2-2-2-3.83V31.26c0-1.86.89-3.37,2-3.37H56.6C57.71,27.89,58.6,29.4,58.6,31.26Z" fill="none" stroke="#000" stroke-miterlimit="10" stroke-width="3"/><path d="M62.65,22.11H34.19c-1.11,0-2,1.51-2,3.37V60c0,1.86.89,3.83,2,3.83H62.65c1.11,0,2-2,2-3.83V25.48C64.65,23.62,63.76,22.11,62.65,22.11Zm-6.53,25.1c-.69,1-3,1.26-2,0a3.94,3.94,0,0,1-1.27.18,12.57,12.57,0,0,1-3.07.69,15,15,0,0,0-1,1.16c0,.66,0,1.15,0,1.42s.36,2.79.35,3.55H47.5c0-.44.06-1.94.14-3.44A16.07,16.07,0,0,0,46,48.36a1.06,1.06,0,0,1-1.56-.42l-.13,0C44,49,41.87,49,41.77,48.11c-1-.27-1.61-1-1.23-1.89-1.28,0-3-2.71-.9-3.46-.64-.63.63-1.19,1.19-.93a1,1,0,0,1,.77-.69c-.16-.85.46-2.54,1.46-1.66-.19-1.08.75-1.59,1.25-1.21A1.84,1.84,0,0,1,44.49,37c-.16-.59.45-1.34,1-1.65-.61-.35-.43-1,.39-.94-.3-.95.71-1.88,1.15-1,.82-.12.82.38,1.11.48.3-.45,1.31-.66,2.2.65.51.76-.2,1.85.31,1.59s.45.73.44,1.31c.88-1,2.84-.63,2,.56a1.19,1.19,0,0,1,.62,1.76c-.48.74.23.58-.36,2,.71-.34.91-.13.94.13l.27-.13a1.14,1.14,0,0,1,1.3-.73c.68.11.14.76,0,1.32.8,1.23.21,1.65-.41,2.68C56.85,44.3,56.86,46.11,56.12,47.21Z"/><path d="M52.56,47.32a9,9,0,0,1-2.45.41,1.65,1.65,0,0,1,.74-.44,1.65,1.65,0,0,0,.52-.21A9.62,9.62,0,0,0,52.56,47.32Z"/><path d="M50.89,47a4.39,4.39,0,0,0-2.09,1.38c0-.33,0-.69,0-1.07a4.14,4.14,0,0,0,1.43-.37A1.16,1.16,0,0,1,50.89,47Z"/><path d="M48,47.23l-.06.45c-.07.44-.13,1.17-.19,2a14.76,14.76,0,0,0-1.26-1.6,3.14,3.14,0,0,0,.73-.88C47.22,47.08,47.5,47.17,48,47.23Z"/></svg>