<svg xmlns="http://www.w3.org/2000/svg" viewBox="0 0 283.46 283.46"><circle cx="141.73" cy="141.73" r="73.77" fill="#f07e20" stroke="#000" stroke-miterlimit="10" stroke-width="4"/><circle cx="141.73" cy="141.73" r="68.11" fill="none" stroke="#000" stroke-miterlimit="10" stroke-width="0.75" stroke-dasharray="2"/><path d="M161.85,119.51v52.56c0,2.83-1.36,5.83-3,5.83H115.45c-1.68,0-3-3-3-5.83V119.51c0-2.84,1.36-5.14,3-5.14H158.8C160.49,114.37,161.85,116.67,161.85,119.51Z" fill="none" stroke="#010101" stroke-miterlimit="10" stroke-width="3"/><path d="M171.06,110.7v52.56c0,2.84-1.36,5.84-3.05,5.84H124.66c-1.68,0-3-3-3-5.84V110.7c0-2.83,1.37-5.14,3-5.14H168C169.7,105.56,171.06,107.87,171.06,110.7Z" fill="#010101"/><path d="M157.1,140.5c1-1.57,1.85-2.2.63-4.07.14-.85,1-1.85-.09-2a1.73,1.73,0,0,0-2,1.11c-.14.07-.28.13-.4.2-.05-.39-.36-.72-1.44-.21.89-2.2-.18-2,.55-3.08a1.8,1.8,0,0,0-.95-2.68c1.3-1.81-1.68-2.43-3-.85,0-.89-.11-2.28-.67-2-.77.39.31-1.26-.48-2.42-1.35-2-2.89-1.68-3.34-1-.44-.15-.45-.9-1.69-.73-.67-1.32-2.22.09-1.76,1.54-1.24-.07-1.52.91-.59,1.44-.83.47-1.76,1.62-1.52,2.51a2.75,2.75,0,0,0-.27,1.93c-.76-.58-2.2.2-1.91,1.84-1.52-1.33-2.47,1.24-2.22,2.54a1.57,1.57,0,0,0-1.18,1.05c-.85-.4-2.78.45-1.81,1.41-3.25,1.14-.58,5.2,1.37,5.27-.58,1.35.36,2.47,1.88,2.88.15,1.39,3.43,1.3,3.93-.34a.64.64,0,0,0,.19.08,1.61,1.61,0,0,0,2.38.63h0a23.92,23.92,0,0,1,2.44,3.62c-.12,2.27-.2,4.56-.21,5.24h2.44c0-1.16-.53-4.82-.54-5.42,0-.41,0-1.16,0-2.15a18.91,18.91,0,0,1,1.52-1.78,19,19,0,0,0,4.68-1.05,5.73,5.73,0,0,0,1.93-.28c-1.48,2,2,1.64,3,.07S159.17,139.37,157.1,140.5Zm-11.57,4c-.11.66-.2,1.77-.28,3a25.22,25.22,0,0,0-1.93-2.44,5,5,0,0,0,1.11-1.34c.08-.17.51,0,1.19,0C145.59,144.06,145.56,144.3,145.53,144.52Zm1.38,1c0-.51,0-1.05,0-1.63a6,6,0,0,0,2.17-.56,2,2,0,0,1,1,.09A6.7,6.7,0,0,0,146.91,145.5Zm2-.91a2.54,2.54,0,0,1,1.14-.67,2.31,2.31,0,0,0,.79-.32,13.45,13.45,0,0,0,1.81.37A13.69,13.69,0,0,1,148.9,144.59Z" fill="#fff"/></svg>