<svg xmlns="http://www.w3.org/2000/svg" viewBox="0 0 91.71 91.71"><rect x="0.5" y="0.5" width="90.71" height="90.71" rx="45.35" fill="#99f"/><rect x="0.5" y="0.5" width="90.71" height="90.71" rx="45.35" fill="none" stroke="#1d1d1b" stroke-linecap="round" stroke-linejoin="round" stroke-dasharray="5.09 5.09"/><rect x="37.35" y="64.36" width="1.89" height="1.44"/><rect x="48.69" y="64.36" width="1.89" height="1.44"/><rect x="52.47" y="64.36" width="1.89" height="1.44"/><rect x="44.91" y="64.36" width="1.89" height="1.44"/><rect x="41.13" y="64.36" width="1.89" height="1.44"/><rect x="26.21" y="45.75" width="1.44" height="1.84"/><rect x="26.21" y="49.42" width="1.44" height="1.84"/><rect x="26.21" y="42.07" width="1.44" height="1.84"/><rect x="44.91" y="27.53" width="1.89" height="1.44"/><rect x="41.13" y="27.53" width="1.89" height="1.44"/><rect x="48.69" y="27.53" width="1.89" height="1.44"/><rect x="52.47" y="27.53" width="1.89" height="1.44"/><rect x="37.35" y="27.53" width="1.89" height="1.44"/><rect x="64.06" y="45.75" width="1.44" height="1.84"/><rect x="64.06" y="49.42" width="1.44" height="1.84"/><rect x="64.06" y="42.07" width="1.44" height="1.84"/><path d="M64.73,74.92,55.87,70V59l.24.14,8.62,4.73Zm.72-12.3-8.8-4.84,8.8-4.84,8.81,4.84ZM75,70l-8.87,4.88V63.87L75,59Z"/><path d="M25.53,74.92,16.67,70V59l.35.2,8.51,4.67Zm.72-12.3-8.8-4.84,8.8-4.84,8.81,4.84ZM35.84,70,27,74.92V63.87L35.84,59Z"/><path d="M64.73,38.77,55.87,33.9v-11l.12.07,8.74,4.8Zm.72-12.29-8.8-4.84,8.8-4.85,8.81,4.85ZM75,33.9l-8.87,4.87v-11L75,22.86Z"/><path d="M35.84,33.9,27,38.77v-11l8.87-4.87ZM26.25,16.79l8.81,4.85-8.81,4.84-8.8-4.84Zm-9.58,6.07.23.12,8.63,4.75v11L16.67,33.9Z"/><path d="M51.9,47c.56-.92,1.09-1.29.37-2.38.08-.5.56-1.08-.05-1.18a1,1,0,0,0-1.15.65l-.24.12c0-.23-.2-.42-.84-.12.53-1.29-.1-1.15.33-1.8a1.06,1.06,0,0,0-.56-1.57c.76-1.06-1-1.42-1.77-.5,0-.52-.06-1.32-.39-1.16s.18-.74-.28-1.42c-.79-1.16-1.69-1-2-.58-.26-.09-.26-.53-1-.43-.39-.77-1.29.06-1,.9-.72,0-.88.53-.34.84-.49.27-1,1-.89,1.47A1.65,1.65,0,0,0,42,41c-.44-.34-1.28.11-1.11,1.07-.89-.77-1.44.72-1.3,1.48a.92.92,0,0,0-.69.62c-.49-.24-1.62.26-1.06.82-1.89.67-.33,3,.81,3.08-.34.79.21,1.44,1.09,1.68.09.81,2,.76,2.3-.2l.11.05A.94.94,0,0,0,43.5,50h0a15.53,15.53,0,0,1,1.43,2.11c-.08,1.33-.12,2.67-.13,3.06h1.43c0-.67-.31-2.81-.32-3.16s0-.68,0-1.26a10.39,10.39,0,0,1,.89-1,11.44,11.44,0,0,0,2.73-.62,3.29,3.29,0,0,0,1.13-.16c-.86,1.16,1.17,1,1.78,0S53.11,46.36,51.9,47Zm-6.76,2.34c-.06.38-.11,1-.16,1.77a15.54,15.54,0,0,0-1.12-1.42,3.07,3.07,0,0,0,.64-.78c0-.11.3,0,.7,0Zm.81.57c0-.29,0-.61,0-.95a3.42,3.42,0,0,0,1.27-.33,1.07,1.07,0,0,1,.58.06A4,4,0,0,0,46,49.94Zm1.17-.53a1.47,1.47,0,0,1,.66-.39,1.31,1.31,0,0,0,.46-.19,6.61,6.61,0,0,0,1.06.22A8.18,8.18,0,0,1,47.12,49.41Z"/></svg>