<svg xmlns="http://www.w3.org/2000/svg" viewBox="0 0 91.71 91.71"><rect x="0.5" y="0.5" width="90.71" height="90.71" rx="45.35" fill="#99f"/><rect x="0.5" y="0.5" width="90.71" height="90.71" rx="45.35" fill="none" stroke="#1d1d1b" stroke-linecap="round" stroke-linejoin="round" stroke-dasharray="5.09 5.09"/><path d="M26.76,18.47a1.21,1.21,0,0,0-1.21,1.19v0A59.74,59.74,0,0,0,26,25.86c.43,3.3,1.05,7,3.1,9.06a9.13,9.13,0,0,0,10.6,1.66,22.22,22.22,0,0,0-6.23-5.06A1.19,1.19,0,0,1,32.79,30a1.17,1.17,0,0,1,1.1-.76,1.09,1.09,0,0,1,.47.09A21.47,21.47,0,0,1,41.51,35c1.81,2.32,3.15,4.92,3.15,7.31v6a1.2,1.2,0,1,0,2.39,0v-6c0-2.39,1.33-5,3.15-7.31a21.47,21.47,0,0,1,7.15-5.72,1.09,1.09,0,0,1,.47-.09,1.19,1.19,0,0,1,.41,2.3A22.35,22.35,0,0,0,52,36.58a9.13,9.13,0,0,0,10.6-1.66c2-2.06,2.67-5.76,3.1-9.06a59.74,59.74,0,0,0,.45-6.18A1.21,1.21,0,0,0,65,18.47h0a59.74,59.74,0,0,0-6.18.45c-3.3.43-7,1-9.06,3.1a9.14,9.14,0,0,0-1.24,11.34,20.32,20.32,0,0,0-2.62,4.07,19.84,19.84,0,0,0-2.61-4.07A9.14,9.14,0,0,0,42,22c-2.06-2.05-5.76-2.67-9.06-3.1A59.74,59.74,0,0,0,26.76,18.47Z"/><polygon points="31.8 67.06 45.2 73.01 45.2 52.44 37 49.71 31.8 67.06"/><polygon points="46.48 52.44 46.48 73.01 59.88 67.06 54.68 49.71 46.48 52.44"/><path d="M26.38,52.72A.65.65,0,0,0,26,53L16.38,72.3a.65.65,0,0,0,.11.74.64.64,0,0,0,.72.14l13.17-5.85,5.31-17.71Z"/><path d="M75.24,72.16,65.68,53a.65.65,0,0,0-.37-.32L56,49.62l5.31,17.7,13.17,5.86a.65.65,0,0,0,.26.06h0a.66.66,0,0,0,.65-.65A.67.67,0,0,0,75.24,72.16Z"/></svg>