<svg xmlns="http://www.w3.org/2000/svg" viewBox="0 0 283.46 283.46"><circle cx="141.73" cy="141.73" r="73.77" fill="#9697cb" stroke="#000" stroke-miterlimit="10" stroke-width="4"/><circle cx="141.73" cy="141.73" r="68.1" fill="none" stroke="#000" stroke-miterlimit="10" stroke-width="0.75" stroke-dasharray="2"/><path d="M112.65,101a1.82,1.82,0,0,0-1.84,1.8v0a88.69,88.69,0,0,0,.69,9.42c.64,5,1.59,10.66,4.72,13.79a13.93,13.93,0,0,0,16.13,2.54c-3.49-4-7.7-7-9.47-7.71a1.81,1.81,0,0,1,.64-3.51,1.75,1.75,0,0,1,.71.13c3,1.18,7.13,4.39,10.88,8.72,2.77,3.54,4.8,7.5,4.8,11.13v9.1a1.82,1.82,0,1,0,3.64,0v-9.1c0-3.63,2-7.59,4.8-11.13,3.75-4.33,7.93-7.54,10.89-8.72a1.72,1.72,0,0,1,.71-.13,1.82,1.82,0,0,1,.64,3.51c-1.78.71-6,3.75-9.48,7.71a13.94,13.94,0,0,0,16.14-2.54c3.13-3.13,4.07-8.77,4.72-13.79a90.16,90.16,0,0,0,.68-9.42,1.81,1.81,0,0,0-1.8-1.84h0a88.69,88.69,0,0,0-9.42.69c-5,.64-10.66,1.59-13.79,4.72a13.92,13.92,0,0,0-1.9,17.26,31.28,31.28,0,0,0-4,6.2,31.28,31.28,0,0,0-4-6.2,13.91,13.91,0,0,0-1.89-17.26c-3.14-3.13-8.77-4.08-13.79-4.72A88.69,88.69,0,0,0,112.65,101Z" fill="#010101"/><polygon points="120.33 175 140.74 184.07 140.74 152.74 128.25 148.58 120.33 175" fill="#010101"/><polygon points="142.69 152.74 142.69 184.07 163.09 175 155.18 148.58 142.69 152.74" fill="#010101"/><path d="M112.07,153.17a1,1,0,0,0-.56.48L96.84,183a1,1,0,0,0,.16,1.12,1,1,0,0,0,1.11.22l20-8.92,8.09-27Z" fill="#010101"/><path d="M186.48,182.78l-14.55-29.12a1,1,0,0,0-.56-.49l-14.19-4.73,8.08,27,20.06,8.92a1.1,1.1,0,0,0,.4.08h0a1,1,0,0,0,1-1A.94.94,0,0,0,186.48,182.78Z" fill="#010101"/></svg>