<svg xmlns="http://www.w3.org/2000/svg" viewBox="0 0 91.71 91.71"><rect x="0.5" y="0.5" width="90.71" height="90.71" rx="45.35" fill="#99f"/><rect x="0.5" y="0.5" width="90.71" height="90.71" rx="45.35" fill="none" stroke="#1d1d1b" stroke-linecap="round" stroke-linejoin="round" stroke-dasharray="5.09 5.09"/><path d="M45.85,74.69v1.9A30.77,30.77,0,0,1,15.32,49.36l-2.51.15,3.26-3.66,3.65,3.27-2.5.14A28.73,28.73,0,0,0,45.85,74.69Z"/><path d="M76.39,42.34A30.79,30.79,0,0,0,45.85,15.12V17A28.74,28.74,0,0,1,74.49,42.45l-2.5.14,3.65,3.27L78.9,42.2Z"/><path d="M47.21,52.15a7,7,0,0,1,6.71-5,6.9,6.9,0,0,1,4,1.25,7.15,7.15,0,0,1,3.86-1.25c1.08-8.36-3.34-13.9-10.61-13.34a18,18,0,0,0-6.54,1.78c-.21-3.9-1.34-9.79-5.28-10.31C37,25,36.69,27,38.08,27.43c3.42.9,4.41,5,4.63,8.26a17.5,17.5,0,0,0-6.63-1.81c-8.52-.7-13.11,6.92-9.61,17.7,2.64,8.14,7.71,14.25,14.29,12.9a10.27,10.27,0,0,0,2.81-1,9.27,9.27,0,0,0,2.82,1,8.72,8.72,0,0,0,6.75-1.34l-4.28-4.28A6.55,6.55,0,0,1,47.21,52.15Z"/><path d="M47.21,32.92a7.61,7.61,0,0,0,4-2.72,7.45,7.45,0,0,0,1-4.77,1,1,0,0,0-1.43-.95,7.56,7.56,0,0,0-4,2.73,7.45,7.45,0,0,0-1,4.76A1.05,1.05,0,0,0,47.21,32.92Z"/><path d="M65.09,50.89a4.6,4.6,0,0,0-6.49,0l-.74.74-.74-.74a4.53,4.53,0,0,0-3.24-1.34,4.67,4.67,0,0,0-4.46,3.33,4.23,4.23,0,0,0,1,4.29L57.34,64a.76.76,0,0,0,1.08,0l6.67-6.67A4.58,4.58,0,0,0,65.09,50.89Z"/></svg>