<svg xmlns="http://www.w3.org/2000/svg" viewBox="0 0 91.71 91.71"><rect x="0.5" y="0.5" width="90.71" height="90.71" rx="45.35" fill="#ff9a9a"/><path d="M45.85,91.21h0A45.36,45.36,0,0,1,45.85.5h0a45.36,45.36,0,1,1,0,90.71Z" fill="none" stroke="#1d1d1b" stroke-linecap="round" stroke-linejoin="round" stroke-dasharray="5.09 5.09"/><path d="M66.41,74.33h-1L57.72,60.91a3.24,3.24,0,0,0-2.82-1.64H53.51A6.71,6.71,0,0,1,51,58.79l-.8-.32a8.46,8.46,0,0,0-2.62-.6c.2-.38.44-.84.68-1.38A7,7,0,0,1,51.33,55a9.57,9.57,0,0,0,3.82,1A5.07,5.07,0,0,0,57,55.65a5.18,5.18,0,0,0,2.82-3.11l.06-.14a.71.71,0,0,0-.35-.95l-.12-.07a6.71,6.71,0,0,0-5.34-.83,5.77,5.77,0,0,0-3.24,3.13,16,16,0,0,0-1.74.6,17.93,17.93,0,0,0,.54-2.16s0-.09,0-.13,0-.09,0-.14a16.39,16.39,0,0,0,.19-4,12.73,12.73,0,0,0,2.45.25A7.8,7.8,0,0,0,56.54,47a7.89,7.89,0,0,0,3.37-5.33l0-.14a.73.73,0,0,0-.09-.54.67.67,0,0,0-.45-.32c-.83-.2-7.41-1.55-10.19,3.8a16.09,16.09,0,0,0-1.45-3.24,7.45,7.45,0,0,0-2.08-5.47c-1.12-1.09-3.26-2.38-7.12-2.29h-.12a.71.71,0,0,0-.71.71v.15a7.2,7.2,0,0,0,1.87,5.38c1.52,1.53,3.87,2.32,7,2.35a14.29,14.29,0,0,1,1.76,5v0a0,0,0,0,1,0,0,13.37,13.37,0,0,1,.15,2A5.14,5.14,0,0,0,47,47.63a7.52,7.52,0,0,0-5.79-.52h-.07a.72.72,0,0,0-.52.86l0,.1A5.5,5.5,0,0,0,46.39,53a10.22,10.22,0,0,0,1.68-.16,19.29,19.29,0,0,1-1,2.91.35.35,0,0,0-.06.14,18.81,18.81,0,0,1-1.07,2H45.3A2.71,2.71,0,0,0,43,59.14l-1.37,2.28h-2.2a2.62,2.62,0,0,0-2.13,1.1l-2,2.81a2.63,2.63,0,0,1-2.16,1.11,4.08,4.08,0,0,0-3.45,1.9l-3.81,6h-1a.72.72,0,1,0,0,1.43H66.41a.72.72,0,1,0,0-1.43" fill-rule="evenodd"/><line x1="67.63" y1="42.4" x2="76.51" y2="40.38" fill="none" stroke="#000" stroke-miterlimit="10" stroke-dasharray="2"/><line x1="63.32" y1="33.44" x2="70.42" y2="27.78" fill="none" stroke="#000" stroke-miterlimit="10" stroke-dasharray="2"/><line x1="55.55" y1="27.25" x2="59.5" y2="19.06" fill="none" stroke="#000" stroke-miterlimit="10" stroke-dasharray="2"/><line x1="45.85" y1="25.03" x2="45.85" y2="15.94" fill="none" stroke="#000" stroke-miterlimit="10" stroke-dasharray="2"/><line x1="36.14" y1="27.24" x2="32.21" y2="19.06" fill="none" stroke="#000" stroke-miterlimit="10" stroke-dasharray="2"/><line x1="28.38" y1="33.45" x2="21.28" y2="27.78" fill="none" stroke="#000" stroke-miterlimit="10" stroke-dasharray="2"/><line x1="24.06" y1="42.4" x2="15.2" y2="40.38" fill="none" stroke="#000" stroke-miterlimit="10" stroke-dasharray="2"/></svg>