<svg xmlns="http://www.w3.org/2000/svg" viewBox="0 0 91.71 91.71"><rect x="0.5" y="0.5" width="90.71" height="90.71" rx="45.35" fill="#ff5757"/><path d="M45.85,91.21A45.36,45.36,0,0,1,.5,45.85h0a45.36,45.36,0,0,1,90.71,0h0A45.36,45.36,0,0,1,45.85,91.21Z" fill="none" stroke="#1d1d1b" stroke-linecap="round" stroke-linejoin="round" stroke-dasharray="5.09 5.09"/><path d="M45.85,74.69v1.9A30.77,30.77,0,0,1,15.32,49.36l-2.51.15,3.26-3.66,3.65,3.27-2.5.14A28.73,28.73,0,0,0,45.85,74.69Z"/><path d="M76.39,42.34A30.79,30.79,0,0,0,45.85,15.12V17A28.74,28.74,0,0,1,74.49,42.45l-2.5.14,3.65,3.27L78.9,42.2Z"/><path d="M65.79,57.36a8.24,8.24,0,0,1-1.47-1.42c-1.11-1.28-2.62-3-5.52-3s-4.41,1.74-5.52,3-1.67,1.85-3,1.85-1.89-.63-2.95-1.85-2.63-3-5.52-3-4.41,1.74-5.52,3-1.68,1.85-3,1.85-1.9-.63-2.95-1.85a9.21,9.21,0,0,0-2.83-2.44,1.71,1.71,0,1,0-1.49,3.07,6.17,6.17,0,0,1,1.75,1.59c1.11,1.28,2.63,3,5.52,3s4.41-1.74,5.52-3,1.67-1.85,3-1.85,1.89.64,3,1.85,2.63,3,5.52,3,4.41-1.74,5.52-3,1.69-1.83,3-1.83,1.89.63,2.95,1.85a10.9,10.9,0,0,0,2.15,2,1.71,1.71,0,0,0,1.88-2.85Z"/><path d="M65.79,50.06a8.24,8.24,0,0,1-1.47-1.42c-1.11-1.28-2.62-3-5.52-3s-4.41,1.74-5.52,3-1.67,1.85-3,1.85-1.89-.63-2.95-1.85-2.63-3-5.52-3-4.41,1.74-5.52,3-1.68,1.84-3,1.84-1.9-.63-2.95-1.85a9.31,9.31,0,0,0-2.83-2.43,1.71,1.71,0,1,0-1.49,3.07h0a6.17,6.17,0,0,1,1.75,1.59c1.11,1.28,2.63,3,5.52,3s4.41-1.74,5.52-3,1.67-1.85,3-1.85,1.89.63,3,1.85,2.63,3,5.52,3,4.41-1.74,5.52-3,1.69-1.84,3-1.84,1.89.64,2.95,1.85a10.35,10.35,0,0,0,2.15,2,1.7,1.7,0,1,0,1.88-2.84Z"/><path d="M26.12,41.48a6.17,6.17,0,0,1,1.75,1.59c1.11,1.27,2.63,3,5.52,3s4.41-1.75,5.52-3,1.67-1.85,3-1.85,1.89.63,3,1.85,2.63,3,5.52,3,4.41-1.75,5.52-3,1.69-1.84,3-1.84,1.89.64,2.95,1.85a10.35,10.35,0,0,0,2.15,2,1.7,1.7,0,1,0,1.88-2.84,8,8,0,0,1-1.47-1.43c-1.11-1.27-2.62-3-5.52-3s-4.41,1.74-5.52,3-1.67,1.85-3,1.85-1.89-.63-2.95-1.85-2.63-3-5.52-3-4.41,1.74-5.52,3-1.68,1.85-3,1.85-1.9-.63-2.95-1.85a9.31,9.31,0,0,0-2.83-2.43,1.71,1.71,0,1,0-1.49,3.07Z"/><path d="M65.79,35a8.24,8.24,0,0,1-1.47-1.42c-1.11-1.28-2.62-3-5.52-3s-4.41,1.74-5.52,3-1.67,1.85-3,1.85-1.89-.64-2.95-1.85-2.63-3-5.52-3-4.41,1.74-5.52,3-1.68,1.84-3,1.84-1.9-.63-2.95-1.85a9,9,0,0,0-2.83-2.43,1.7,1.7,0,1,0-1.49,3.06,6.36,6.36,0,0,1,1.75,1.6c1.11,1.27,2.63,3,5.52,3s4.41-1.74,5.52-3,1.67-1.85,3-1.85,1.89.63,3,1.85,2.63,3,5.52,3,4.41-1.74,5.52-3,1.69-1.84,3-1.84,1.89.63,2.95,1.85a10.62,10.62,0,0,0,2.15,2A1.7,1.7,0,0,0,65.79,35Z"/></svg>