<svg xmlns="http://www.w3.org/2000/svg" viewBox="0 0 283.46 283.46"><circle cx="141.73" cy="141.73" r="73.77" fill="#9697cb" stroke="#000" stroke-miterlimit="10" stroke-width="4"/><circle cx="141.73" cy="141.73" r="68.1" transform="translate(-20.87 258.93) rotate(-80.78)" fill="none" stroke="#000" stroke-miterlimit="10" stroke-width="0.75" stroke-dasharray="2"/><path d="M160.73,175h-38a7.55,7.55,0,0,1-7.55-7.55v-59.3a7.55,7.55,0,0,1,7.55-7.55h24.08l21.47,20.7v46.15A7.55,7.55,0,0,1,160.73,175Z" fill="#9697cb" stroke="#000" stroke-miterlimit="10" stroke-width="4"/><path d="M168.28,121.31h-15a6.52,6.52,0,0,1-6.51-6.51V100.61" fill="none" stroke="#000" stroke-linecap="round" stroke-linejoin="round" stroke-width="2.87"/><polyline points="135.96 117.95 141.65 114.26 135.96 110.57" fill="none" stroke="#000" stroke-linecap="round" stroke-linejoin="round" stroke-width="2.28"/><polyline points="126.92 117.92 121.23 114.23 126.92 110.54" fill="none" stroke="#000" stroke-linecap="round" stroke-linejoin="round" stroke-width="2.28"/><line x1="133.11" y1="108.44" x2="129.69" y2="120.13" fill="none" stroke="#000" stroke-linecap="round" stroke-linejoin="round" stroke-width="2.28"/><path d="M153.4,151.58c.95-1.57,1.85-2.21.63-4.08.14-.85,1-1.84-.08-2a1.73,1.73,0,0,0-2,1.12l-.4.19c0-.39-.35-.72-1.44-.21.9-2.19-.17-2,.55-3.07a1.79,1.79,0,0,0-1-2.68c1.3-1.82-1.68-2.43-3-.86,0-.89-.11-2.27-.66-2-.78.38.3-1.27-.48-2.42-1.36-2-2.9-1.69-3.35-1-.44-.15-.45-.9-1.68-.73-.67-1.32-2.22.09-1.77,1.54-1.23-.06-1.51.91-.59,1.44-.83.47-1.76,1.62-1.51,2.51a2.82,2.82,0,0,0-.28,1.94c-.76-.59-2.19.19-1.91,1.84-1.51-1.33-2.46,1.23-2.21,2.53a1.57,1.57,0,0,0-1.19,1.05c-.85-.4-2.77.46-1.81,1.41-3.24,1.15-.58,5.2,1.37,5.27-.58,1.36.36,2.47,1.88,2.88.16,1.39,3.43,1.31,3.93-.33l.19.07a1.61,1.61,0,0,0,2.38.64h0a25,25,0,0,1,2.44,3.62c-.12,2.27-.2,4.56-.21,5.24h2.44c0-1.16-.53-4.82-.54-5.42,0-.41,0-1.16.05-2.15a20.42,20.42,0,0,1,1.52-1.77,19.19,19.19,0,0,0,4.68-1.06,5.73,5.73,0,0,0,1.93-.28c-1.47,2,2,1.65,3.05.07S155.47,150.44,153.4,151.58Zm-11.57,4c-.1.66-.2,1.78-.28,3a25.22,25.22,0,0,0-1.93-2.44,4.62,4.62,0,0,0,1.11-1.33c.08-.18.51,0,1.2.05C141.9,155.14,141.86,155.37,141.83,155.59Zm1.39,1c0-.5,0-1,0-1.62a6.36,6.36,0,0,0,2.18-.57,1.91,1.91,0,0,1,1,.1A6.54,6.54,0,0,0,143.22,156.57Zm2-.91a2.51,2.51,0,0,1,1.13-.67,2.31,2.31,0,0,0,.79-.32,13.45,13.45,0,0,0,1.81.37A13.69,13.69,0,0,1,145.21,155.66Z"/></svg>