<svg xmlns="http://www.w3.org/2000/svg" viewBox="0 0 91.71 91.71"><rect x="0.5" y="0.5" width="90.71" height="90.71" rx="45.35" fill="#99f"/><rect x="0.5" y="0.5" width="90.71" height="90.71" rx="45.35" fill="none" stroke="#1d1d1b" stroke-linecap="round" stroke-linejoin="round" stroke-dasharray="5.09 5.09"/><path d="M58.33,70.28H33.38a5,5,0,0,1-5-5V26.38a5,5,0,0,1,5-4.95H49.19L63.29,35v30.3A5,5,0,0,1,58.33,70.28Z" fill="none" stroke="#000" stroke-linecap="round" stroke-linejoin="round" stroke-width="2.87"/><path d="M63.29,35H53.46a4.27,4.27,0,0,1-4.27-4.27V21.43" fill="none" stroke="#000" stroke-linecap="round" stroke-linejoin="round" stroke-width="2.87"/><polyline points="42.06 32.81 45.8 30.39 42.06 27.97" fill="none" stroke="#000" stroke-linecap="round" stroke-linejoin="round" stroke-width="2.28"/><polyline points="36.13 32.8 32.39 30.37 36.13 27.95" fill="none" stroke="#000" stroke-linecap="round" stroke-linejoin="round" stroke-width="2.28"/><line x1="40.19" y1="26.57" x2="37.94" y2="34.25" fill="none" stroke="#000" stroke-linecap="round" stroke-linejoin="round" stroke-width="2.28"/><path d="M53.52,54.89c.62-1,1.21-1.45.41-2.67.09-.56.63-1.21-.06-1.32a1.13,1.13,0,0,0-1.29.73l-.27.13c0-.26-.23-.47-.94-.14.59-1.44-.12-1.28.36-2a1.19,1.19,0,0,0-.62-1.76c.85-1.19-1.11-1.59-2-.56,0-.59-.07-1.49-.44-1.31s.2-.83-.32-1.59c-.88-1.31-1.89-1.11-2.19-.66-.29-.1-.29-.59-1.11-.48-.44-.87-1.46.06-1.16,1-.81,0-1,.59-.38.94-.55.31-1.16,1.06-1,1.65a1.83,1.83,0,0,0-.18,1.27c-.5-.39-1.44.12-1.25,1.2-1-.87-1.62.82-1.46,1.67a1,1,0,0,0-.77.69c-.56-.26-1.83.3-1.19.93-2.13.75-.38,3.41.9,3.46-.38.89.23,1.62,1.23,1.89.1.91,2.25.85,2.58-.22l.13,0a1,1,0,0,0,1.56.41h0a15.55,15.55,0,0,1,1.6,2.37c-.08,1.49-.13,3-.14,3.44h1.6c0-.76-.34-3.16-.35-3.56s0-.76,0-1.41a15,15,0,0,1,1-1.16,12.67,12.67,0,0,0,3.07-.69A4,4,0,0,0,52.15,57c-1,1.31,1.31,1.08,2,.05S54.88,54.15,53.52,54.89Zm-7.6,2.64c-.07.43-.13,1.17-.19,2a15,15,0,0,0-1.26-1.6A3.29,3.29,0,0,0,45.2,57c0-.11.33,0,.78,0Zm.91.64V57.11a4.14,4.14,0,0,0,1.43-.37,1.16,1.16,0,0,1,.66.06A4.33,4.33,0,0,0,46.83,58.17Zm1.31-.59a1.48,1.48,0,0,1,.74-.44,1.72,1.72,0,0,0,.52-.22,8,8,0,0,0,1.19.25A9.42,9.42,0,0,1,48.14,57.58Z"/></svg>