<svg xmlns="http://www.w3.org/2000/svg" viewBox="0 0 283.46 283.46"><circle cx="141.73" cy="141.73" r="73.77" fill="#f29f9c" stroke="#000" stroke-miterlimit="10" stroke-width="4"/><circle cx="141.73" cy="141.73" r="68.11" fill="none" stroke="#000" stroke-miterlimit="10" stroke-width="0.75" stroke-dasharray="2"/><polygon points="96.61 175.28 141.73 93.17 186.86 175.28 96.61 175.28" fill="none" stroke="#000" stroke-miterlimit="10" stroke-width="0.75" stroke-dasharray="2"/><circle cx="178.43" cy="167.2" r="15.82" fill="#f29f9c" stroke="#000" stroke-miterlimit="10" stroke-width="4"/><path d="M178.11,161.92a11.21,11.21,0,0,1-3.46-.55,6.17,6.17,0,0,1-1.07-.51,1.92,1.92,0,0,1-.56-.5.83.83,0,0,1,0-1.08,2,2,0,0,1,.62-.55,6.1,6.1,0,0,1,1.85-.7,13.28,13.28,0,0,1,3.72-.29,10.57,10.57,0,0,1,3,.53,7.05,7.05,0,0,1,1.08.5,2.19,2.19,0,0,1,.55.5.81.81,0,0,1,0,1.1,2.61,2.61,0,0,1-.58.52,5.94,5.94,0,0,1-2,.74,14,14,0,0,1-3.16.29" fill="#12100b"/><path d="M172.82,168.3a2.07,2.07,0,0,0,1,1.07,5.48,5.48,0,0,0,2,.67,16.36,16.36,0,0,0,3.83.18,9.06,9.06,0,0,0,2.87-.54,2.81,2.81,0,0,0,1.27-.84,3.49,3.49,0,0,0,.32-.5v.09c0,.8,0,1.61,0,2.41a1.32,1.32,0,0,1-.32.88,3.25,3.25,0,0,1-1.52,1,8.68,8.68,0,0,1-2.13.44,17.78,17.78,0,0,1-2.73.05,9,9,0,0,1-3-.59,3.09,3.09,0,0,1-1.22-.86,1.38,1.38,0,0,1-.35-.95c0-.79,0-1.58,0-2.37Z" fill="#12100b"/><path d="M172.82,160.85a2,2,0,0,0,.91,1,4.93,4.93,0,0,0,1.75.65,15,15,0,0,0,3.48.25,13.07,13.07,0,0,0,2.42-.25A5.39,5.39,0,0,0,183,162a4.36,4.36,0,0,0,.55-.41,1.53,1.53,0,0,0,.48-.71V161c0,.81,0,1.61,0,2.42a1.34,1.34,0,0,1-.32.88,3.42,3.42,0,0,1-1.57,1,8.54,8.54,0,0,1-2.4.44c-.77,0-1.55.05-2.32,0a8.67,8.67,0,0,1-3.05-.6,2.9,2.9,0,0,1-1.3-1,1.34,1.34,0,0,1-.26-.8c0-.8,0-1.61,0-2.42Z" fill="#12100b"/><path d="M184,164.66c0,.88,0,1.79,0,2.69a1.21,1.21,0,0,1-.36.77,3.73,3.73,0,0,1-1.65,1,9,9,0,0,1-2.42.41c-.64,0-1.29,0-1.94,0a9.3,9.3,0,0,1-3.17-.57,3,3,0,0,1-1.37-1,1.36,1.36,0,0,1-.3-.86c0-.8,0-1.6,0-2.39v-.14a2,2,0,0,0,.9,1,5.48,5.48,0,0,0,2,.7,15.75,15.75,0,0,0,3.63.2,10,10,0,0,0,3-.49,3.06,3.06,0,0,0,1.45-.92,5.4,5.4,0,0,0,.3-.49" fill="#12100b"/><path d="M175.66,176.63l.06,0,1.44.9a.24.24,0,0,1,.11.28.23.23,0,0,1-.35.12l-.81-.51-1-.62a.22.22,0,0,1-.1-.32.38.38,0,0,1,.09-.09l1.81-1.13a.23.23,0,0,1,.37.13.24.24,0,0,1-.13.26l-.49.31-1,.6Z" fill="#12100b"/><path d="M181.21,176.63l-.84-.53-.67-.41a.23.23,0,1,1,.24-.39c.29.17.57.35.85.53l1,.59a.24.24,0,0,1,0,.43L180,178a.24.24,0,0,1-.37-.11.25.25,0,0,1,.12-.28l.81-.5.64-.4Z" fill="#12100b"/><path d="M177.67,178.46a.15.15,0,0,1,0-.06c.36-1.22.71-2.44,1.07-3.65a.23.23,0,0,1,.28-.18.25.25,0,0,1,.15.31c-.22.77-.44,1.53-.67,2.3l-.39,1.36a.24.24,0,0,1-.26.17A.23.23,0,0,1,177.67,178.46Z" fill="#12100b"/><path d="M153.07,145.8c1-1.57,1.85-2.21.63-4.07.14-.85,1-1.85-.08-2a1.73,1.73,0,0,0-2,1.11l-.4.2c-.05-.4-.35-.72-1.44-.21.89-2.2-.17-2,.55-3.08a1.8,1.8,0,0,0-.95-2.68c1.3-1.81-1.68-2.43-3-.85,0-.9-.11-2.28-.66-2-.78.39.3-1.26-.48-2.42-1.36-2-2.9-1.68-3.35-1-.44-.15-.45-.9-1.68-.73-.67-1.32-2.22.09-1.77,1.54-1.23-.07-1.51.91-.59,1.44-.83.46-1.76,1.62-1.51,2.51a2.8,2.8,0,0,0-.28,1.93c-.76-.58-2.19.19-1.91,1.84-1.51-1.33-2.46,1.24-2.21,2.54a1.57,1.57,0,0,0-1.19,1c-.85-.4-2.77.45-1.81,1.41-3.24,1.14-.58,5.2,1.37,5.27-.58,1.35.36,2.47,1.88,2.88.16,1.39,3.43,1.3,3.93-.34l.19.08a1.61,1.61,0,0,0,2.38.63h0a24.28,24.28,0,0,1,2.44,3.61c-.12,2.28-.2,4.57-.21,5.25h2.44c0-1.16-.53-4.82-.54-5.42,0-.41,0-1.16.05-2.16a22,22,0,0,1,1.52-1.77,19,19,0,0,0,4.68-1.05A6,6,0,0,0,151,149c-1.47,2,2,1.64,3,.07S155.14,144.67,153.07,145.8Zm-11.57,4c-.1.66-.2,1.77-.28,3a25.22,25.22,0,0,0-1.93-2.44,5,5,0,0,0,1.11-1.34c.08-.17.51,0,1.2.05C141.57,149.36,141.53,149.6,141.5,149.82Zm1.39,1c0-.51,0-1.05,0-1.63a6.1,6.1,0,0,0,2.18-.56,1.87,1.87,0,0,1,1,.09A6.55,6.55,0,0,0,142.89,150.8Zm2-.91a2.51,2.51,0,0,1,1.13-.67,2.37,2.37,0,0,0,.79-.33,13.43,13.43,0,0,0,1.81.38A13.69,13.69,0,0,1,144.88,149.89Z"/><circle cx="140.6" cy="98.54" r="15.82" fill="#f29f9c" stroke="#000" stroke-miterlimit="10" stroke-width="4"/><path d="M140.45,101.52a1.76,1.76,0,0,1,.08-.72,3.19,3.19,0,0,1,.33-.7,4.84,4.84,0,0,1,.61-.76,4.46,4.46,0,0,1,.76-.6,2.67,2.67,0,0,1,.7-.34,1.71,1.71,0,0,1,.71-.07.63.63,0,0,1,.4.19l.27.27a.24.24,0,0,0,.36,0l.46-.45a.26.26,0,0,0,0-.35l-5.78-5.78a.75.75,0,0,0-.51-.22,2.67,2.67,0,0,0-1,.16,5.15,5.15,0,0,0-1,.53,7,7,0,0,0-1.11.93,10.74,10.74,0,0,0-1.46,2.09,2.52,2.52,0,0,0-.16,1,.74.74,0,0,0,.22.52l5.77,5.77a.25.25,0,0,0,.36,0l.45-.45a.25.25,0,0,0,0-.36l-.27-.27A.7.7,0,0,1,140.45,101.52Zm-.29-10.12,3.35,3.35L148,90.31,144.6,87Zm3.5,8.42L142,101.53a.24.24,0,0,0-.07.18v.82a.26.26,0,0,0,.26.26.23.23,0,0,0,.17-.08l2.54-2.53a.25.25,0,0,0,0-.36.31.31,0,0,0-.18-.07h-.83A.26.26,0,0,0,143.66,99.82Zm.08,4.12a.52.52,0,0,0-.5.58.54.54,0,0,0,.57.5,3.59,3.59,0,0,0,3.34-3.33.57.57,0,0,0-.51-.58.55.55,0,0,0-.58.51A2.51,2.51,0,0,1,143.74,103.94Zm.17,2.43a.55.55,0,0,0,.07,1.09,6,6,0,0,0,5.61-5.6.57.57,0,0,0-.51-.58.54.54,0,0,0-.58.5A4.94,4.94,0,0,1,143.91,106.37Zm-14.83-3.9,3.35,3.35,4.44-4.44L133.53,98Z"/><circle cx="107.44" cy="167.2" r="15.82" fill="#f29f9c" stroke="#000" stroke-miterlimit="10" stroke-width="4"/><path d="M103.15,157.24h8.58a1.53,1.53,0,0,1,1.52,1.52v16.87a1.53,1.53,0,0,1-1.52,1.52h-8.58a1.53,1.53,0,0,1-1.52-1.52V158.76A1.53,1.53,0,0,1,103.15,157.24Zm3.26,18.53a.36.36,0,1,1,0-.72h2.1a.36.36,0,0,1,0,.72Zm-3.77-16.06v14h9.63v-14Z" fill="#010101" fill-rule="evenodd"/></svg>