<svg xmlns="http://www.w3.org/2000/svg" viewBox="0 0 90.78 91.71"><rect x="0.5" y="0.5" width="89.78" height="90.71" rx="44.89" fill="#ff9a9a"/><path d="M45.39,91.21A44.89,44.89,0,0,1,.5,46.32v-.93a44.89,44.89,0,0,1,89.78,0v.93A44.89,44.89,0,0,1,45.39,91.21Z" fill="none" stroke="#1d1d1b" stroke-linecap="round" stroke-linejoin="round" stroke-dasharray="5.07 5.07"/><line x1="23.81" y1="53.63" x2="37.47" y2="28.77" fill="none" stroke="#000" stroke-miterlimit="10" stroke-width="0.75" stroke-dasharray="2"/><line x1="58.93" y1="69.7" x2="31.87" y2="69.7" fill="none" stroke="#000" stroke-miterlimit="10" stroke-width="0.75" stroke-dasharray="2"/><line x1="51.16" y1="27.73" x2="65.61" y2="54.01" fill="none" stroke="#000" stroke-miterlimit="10" stroke-width="0.75" stroke-dasharray="2"/><circle cx="68.7" cy="64.39" r="10.39" fill="none" stroke="#000" stroke-miterlimit="10" stroke-width="3"/><path d="M68.49,60.93a7,7,0,0,1-2.27-.36,4.58,4.58,0,0,1-.71-.33,1.5,1.5,0,0,1-.37-.34.55.55,0,0,1,0-.71,1.25,1.25,0,0,1,.41-.35,3.7,3.7,0,0,1,1.21-.46,8.7,8.7,0,0,1,2.44-.2,7.28,7.28,0,0,1,2,.35,4.19,4.19,0,0,1,.71.33,1.26,1.26,0,0,1,.36.33.53.53,0,0,1,0,.72,1.54,1.54,0,0,1-.38.34,3.8,3.8,0,0,1-1.3.49,9.07,9.07,0,0,1-2.07.19"/><path d="M65,65.12a1.39,1.39,0,0,0,.63.7,3.66,3.66,0,0,0,1.29.44,10.55,10.55,0,0,0,2.51.12A6.38,6.38,0,0,0,71.33,66a2,2,0,0,0,.84-.56,3.7,3.7,0,0,0,.21-.33v.06c0,.53,0,1.06,0,1.59a.88.88,0,0,1-.21.58,2.18,2.18,0,0,1-1,.65,6,6,0,0,1-1.4.29,10.69,10.69,0,0,1-1.79,0A5.88,5.88,0,0,1,66,68a2.11,2.11,0,0,1-.8-.56.93.93,0,0,1-.23-.62c0-.52,0-1,0-1.56Z"/><path d="M65,60.23a1.37,1.37,0,0,0,.6.68,3.55,3.55,0,0,0,1.15.43,10.31,10.31,0,0,0,2.29.16,8.57,8.57,0,0,0,1.59-.16A3.63,3.63,0,0,0,71.7,61l.36-.26a1.19,1.19,0,0,0,.32-.47v.08c0,.53,0,1.06,0,1.59a.88.88,0,0,1-.21.58,2.26,2.26,0,0,1-1,.66,5.31,5.31,0,0,1-1.58.29c-.5,0-1,0-1.52,0a5.74,5.74,0,0,1-2-.39,2,2,0,0,1-.86-.64A.9.9,0,0,1,65,61.9c0-.53,0-1.07,0-1.6Z"/><path d="M72.38,62.73c0,.58,0,1.17,0,1.76a.79.79,0,0,1-.24.51,2.4,2.4,0,0,1-1.08.65,5.63,5.63,0,0,1-1.58.27c-.43,0-.85,0-1.28,0a6.42,6.42,0,0,1-2.08-.37,2,2,0,0,1-.9-.64.87.87,0,0,1-.2-.56c0-.52,0-1.05,0-1.57v-.09a1.36,1.36,0,0,0,.59.68,3.55,3.55,0,0,0,1.29.45,10.58,10.58,0,0,0,2.38.14,6.75,6.75,0,0,0,2-.32,2,2,0,0,0,1-.61,2.8,2.8,0,0,0,.2-.32"/><path d="M66.88,70.59l0,0,1,.59a.15.15,0,0,1,.08.18.16.16,0,0,1-.23.08l-.54-.34-.65-.4c-.08-.06-.11-.14-.06-.21a.09.09,0,0,1,.06-.06l1.19-.75a.15.15,0,0,1,.24.09.18.18,0,0,1-.08.17l-.33.2-.63.4Z"/><path d="M70.52,70.59,70,70.24,69.53,70a.16.16,0,0,1,0-.25.17.17,0,0,1,.19,0l.56.35.62.39a.15.15,0,0,1,0,.28l-1.17.73a.15.15,0,0,1-.24-.07.15.15,0,0,1,.08-.18l.53-.33.42-.27Z"/><path d="M68.2,71.79v0c.24-.8.47-1.6.7-2.4a.15.15,0,0,1,.19-.11.15.15,0,0,1,.1.2c-.15.5-.29,1-.44,1.51l-.26.89a.17.17,0,0,1-.17.12A.17.17,0,0,1,68.2,71.79Z"/><path d="M52.05,50.35c.62-1,1.21-1.45.41-2.68.09-.56.63-1.21-.05-1.32a1.14,1.14,0,0,0-1.3.74l-.27.12c0-.26-.23-.47-.94-.13.59-1.45-.12-1.29.36-2a1.19,1.19,0,0,0-.62-1.76c.85-1.19-1.11-1.59-2-.56,0-.58-.07-1.49-.44-1.31s.2-.83-.31-1.58c-.89-1.32-1.9-1.11-2.2-.66-.29-.1-.29-.59-1.11-.48-.44-.87-1.45.06-1.15,1-.82-.05-1,.6-.39.94-.55.31-1.16,1.07-1,1.65a1.84,1.84,0,0,0-.18,1.27c-.5-.38-1.44.13-1.25,1.21-1-.87-1.62.81-1.46,1.66a1,1,0,0,0-.77.69c-.56-.26-1.83.3-1.19.93-2.13.75-.38,3.41.9,3.46-.38.89.23,1.62,1.23,1.89.1.91,2.25.86,2.58-.22l.13.05a1.06,1.06,0,0,0,1.56.42h0A16.07,16.07,0,0,1,44.2,56c-.08,1.5-.13,3-.14,3.45h1.6c0-.77-.34-3.17-.35-3.56s0-.76,0-1.42a15,15,0,0,1,1-1.16,12.57,12.57,0,0,0,3.07-.69,3.94,3.94,0,0,0,1.27-.18c-1,1.3,1.31,1.08,2,0S53.41,49.6,52.05,50.35ZM44.45,53c-.07.44-.13,1.17-.19,2A14,14,0,0,0,43,53.37a3.14,3.14,0,0,0,.73-.88c.05-.11.33,0,.78,0Zm.91.65c0-.33,0-.69,0-1.07a4.14,4.14,0,0,0,1.43-.37,1.26,1.26,0,0,1,.66.06A4.39,4.39,0,0,0,45.36,53.63Zm1.31-.6a1.65,1.65,0,0,1,.74-.44,1.65,1.65,0,0,0,.52-.21,9.62,9.62,0,0,0,1.19.24A9,9,0,0,1,46.67,53Z"/><circle cx="43.86" cy="19.32" r="10.39" fill="none" stroke="#000" stroke-miterlimit="10" stroke-width="3"/><path d="M43.76,21.27a1.24,1.24,0,0,1,.05-.47,2.15,2.15,0,0,1,.22-.46,3.13,3.13,0,0,1,.4-.5,4,4,0,0,1,.5-.4,2.43,2.43,0,0,1,.46-.22,1.23,1.23,0,0,1,.47,0,.45.45,0,0,1,.26.12l.18.18a.15.15,0,0,0,.23,0l.3-.3a.17.17,0,0,0,0-.23L43,15.16A.53.53,0,0,0,42.7,15a1.87,1.87,0,0,0-.66.11,2.82,2.82,0,0,0-.64.35,4.8,4.8,0,0,0-.74.61,7.14,7.14,0,0,0-.95,1.37,1.72,1.72,0,0,0-.11.67.44.44,0,0,0,.15.33l3.79,3.8a.17.17,0,0,0,.23,0l.3-.3a.18.18,0,0,0,0-.24l-.18-.18A.43.43,0,0,1,43.76,21.27Zm-.19-6.64,2.2,2.2,2.91-2.92-2.19-2.2Zm2.29,5.53-1.12,1.12a.16.16,0,0,0,0,.12v.54a.17.17,0,0,0,.17.16.17.17,0,0,0,.12,0l1.66-1.67a.15.15,0,0,0,0-.23.16.16,0,0,0-.11-.05H46A.21.21,0,0,0,45.86,20.16Zm.06,2.7a.36.36,0,0,0-.33.38.35.35,0,0,0,.38.33,2.36,2.36,0,0,0,2.19-2.18.36.36,0,0,0-.34-.38.35.35,0,0,0-.38.33A1.64,1.64,0,0,1,45.92,22.86ZM46,24.45a.36.36,0,0,0-.33.39.35.35,0,0,0,.38.33,4,4,0,0,0,3.68-3.67.36.36,0,0,0-.72-.05A3.23,3.23,0,0,1,46,24.45ZM36.3,21.89l2.2,2.2,2.91-2.91L39.21,19Z"/><circle cx="22.08" cy="64.39" r="10.39" fill="none" stroke="#000" stroke-miterlimit="10" stroke-width="3"/><path d="M19.27,57.86H24.9a1,1,0,0,1,1,1V69.93a1,1,0,0,1-1,1H19.27a1,1,0,0,1-1-1V58.86A1,1,0,0,1,19.27,57.86ZM21.41,70a.22.22,0,0,1-.24-.23.22.22,0,0,1,.24-.24h1.38a.23.23,0,0,1,.23.24.23.23,0,0,1-.23.23ZM18.94,59.48v9.17h6.32V59.48Z" fill-rule="evenodd"/></svg>