<svg xmlns="http://www.w3.org/2000/svg" viewBox="0 0 91.71 91.71"><rect x="0.5" y="0.5" width="90.71" height="90.71" rx="45.35" fill="#33f"/><path d="M45.85,91.21h0A45.36,45.36,0,0,1,45.85.5h0a45.36,45.36,0,1,1,0,90.71Z" fill="none" stroke="#1d1d1b" stroke-linecap="round" stroke-linejoin="round" stroke-dasharray="5.09 5.09"/><path d="M30.83,19.11a1.21,1.21,0,0,0-1.21,1.18v0a59.91,59.91,0,0,0,.45,6.18c.43,3.3,1.05,7,3.1,9.06a9.15,9.15,0,0,0,10.6,1.66,22.22,22.22,0,0,0-6.23-5.06,1.19,1.19,0,0,1-.68-1.54,1.17,1.17,0,0,1,1.1-.76,1,1,0,0,1,.47.09,21.47,21.47,0,0,1,7.15,5.72C47.39,38,48.73,40.59,48.73,43v6a1.2,1.2,0,1,0,2.39,0V43c0-2.39,1.34-5,3.15-7.31A21.47,21.47,0,0,1,61.42,30a1,1,0,0,1,.47-.09,1.19,1.19,0,0,1,.42,2.3,22.22,22.22,0,0,0-6.23,5.06,9.15,9.15,0,0,0,10.6-1.66c2-2.06,2.67-5.76,3.1-9.06a59.91,59.91,0,0,0,.45-6.18A1.21,1.21,0,0,0,69,19.11h0a59.74,59.74,0,0,0-6.18.45c-3.3.43-7,1.05-9.06,3.1A9.14,9.14,0,0,0,52.54,34a20.32,20.32,0,0,0-2.62,4.07A19.84,19.84,0,0,0,47.31,34a9.14,9.14,0,0,0-1.24-11.34C44,20.61,40.31,20,37,19.56A59.74,59.74,0,0,0,30.83,19.11Z"/><path d="M38.76,51.91a14,14,0,0,0-10.26,3l-9.38,7.58L27.27,72.6l6.32-5.12,20.86,2.21L71.41,56a3.06,3.06,0,0,0,.69-4,3,3,0,0,0-4.37-.66L54.93,61.62,43.68,60.44a1,1,0,1,1,.21-2l9,.94a3,3,0,0,0,3.3-2.86,3.06,3.06,0,0,0-2.78-3.1Z"/></svg>