<svg xmlns="http://www.w3.org/2000/svg" viewBox="0 0 283.46 283.46"><circle cx="141.73" cy="141.73" r="73.77" fill="none" stroke="#000" stroke-miterlimit="10" stroke-width="4"/><path d="M141.73,209.84a68.11,68.11,0,1,1,68.11-68.11A68.18,68.18,0,0,1,141.73,209.84Z" fill="none" stroke="#000" stroke-miterlimit="10" stroke-width="0.75" stroke-dasharray="2"/><path d="M118.85,101a1.82,1.82,0,0,0-1.84,1.8v0a88.69,88.69,0,0,0,.69,9.42c.64,5,1.59,10.66,4.72,13.79a13.93,13.93,0,0,0,16.13,2.54c-3.49-4-7.7-7-9.47-7.71a1.81,1.81,0,0,1,.64-3.51,1.75,1.75,0,0,1,.71.13c2.95,1.18,7.13,4.39,10.88,8.72,2.77,3.54,4.8,7.5,4.8,11.13v9.1a1.82,1.82,0,1,0,3.64,0v-9.1c0-3.63,2-7.59,4.8-11.13,3.75-4.33,7.93-7.54,10.89-8.72a1.72,1.72,0,0,1,.71-.13,1.82,1.82,0,0,1,.64,3.51c-1.78.71-6,3.75-9.48,7.71a13.94,13.94,0,0,0,16.14-2.54c3.13-3.13,4.07-8.77,4.72-13.79a90.16,90.16,0,0,0,.68-9.42,1.81,1.81,0,0,0-1.8-1.84h0a88.69,88.69,0,0,0-9.42.69c-5,.64-10.66,1.59-13.79,4.72a13.92,13.92,0,0,0-1.9,17.26,31.28,31.28,0,0,0-4,6.2,31.28,31.28,0,0,0-4-6.2,13.91,13.91,0,0,0-1.89-17.26c-3.14-3.13-8.77-4.08-13.79-4.72A88.69,88.69,0,0,0,118.85,101Z" fill="#010101"/><path d="M130.93,151a21.33,21.33,0,0,0-15.63,4.62L101,167.11l12.4,15.35,9.64-7.79L154.83,178l25.83-20.88a4.65,4.65,0,0,0,1-6.17,4.55,4.55,0,0,0-6.65-1l-19.5,15.76L138.42,164a1.5,1.5,0,0,1,.31-3l13.7,1.43a4.56,4.56,0,0,0,5-4.35,4.66,4.66,0,0,0-4.23-4.72Z" fill="#010101"/></svg>