<svg xmlns="http://www.w3.org/2000/svg" viewBox="0 0 90.78 91.71"><rect x="0.5" y="0.5" width="89.78" height="90.71" rx="44.89" fill="#999"/><rect x="0.5" y="0.5" width="89.78" height="90.71" rx="44.89" fill="none" stroke="#1d1d1b" stroke-linecap="round" stroke-linejoin="round" stroke-dasharray="5.07 5.07"/><line x1="20.27" y1="59.82" x2="41.3" y2="59.82" stroke="#000" stroke-miterlimit="10" stroke-width="8"/><line x1="49.48" y1="59.82" x2="70.51" y2="59.82" stroke="#000" stroke-miterlimit="10" stroke-width="8"/><path d="M23.1,19.74a1.4,1.4,0,0,0-1.42,1.39v0a68.37,68.37,0,0,0,.53,7.26c.5,3.87,1.23,8.21,3.64,10.62a10.71,10.71,0,0,0,12.43,2A25.77,25.77,0,0,0,31,35.05a1.4,1.4,0,0,1,.49-2.71,1.5,1.5,0,0,1,.55.11c2.28.91,5.5,3.38,8.38,6.71,2.14,2.73,3.7,5.78,3.7,8.58v7a1.41,1.41,0,1,0,2.81,0v-7c0-2.8,1.56-5.85,3.7-8.58,2.88-3.33,6.1-5.8,8.38-6.71a1.5,1.5,0,0,1,.55-.11,1.41,1.41,0,0,1,1.39,1.42,1.38,1.38,0,0,1-.9,1.29A25.77,25.77,0,0,0,52.73,41a10.71,10.71,0,0,0,12.43-2c2.41-2.41,3.14-6.75,3.64-10.62a68.37,68.37,0,0,0,.53-7.26,1.41,1.41,0,0,0-1.39-1.41h0a68.1,68.1,0,0,0-7.25.53c-3.87.49-8.21,1.22-10.63,3.63a10.73,10.73,0,0,0-1.46,13.3A23.66,23.66,0,0,0,45.51,42a24.15,24.15,0,0,0-3.07-4.78A10.73,10.73,0,0,0,41,23.9c-2.42-2.41-6.76-3.14-10.63-3.63A68.1,68.1,0,0,0,23.1,19.74Z"/><line x1="45.51" y1="41.98" x2="45.51" y2="75.31" stroke="#000" stroke-miterlimit="10" stroke-width="5"/><circle cx="30.4" cy="70.51" r="2.83" stroke="#000" stroke-miterlimit="10"/><circle cx="61.73" cy="71.85" r="1.74" stroke="#000" stroke-miterlimit="10"/><circle cx="56.36" cy="78.9" r="1.08" stroke="#000" stroke-miterlimit="10"/></svg>