<svg xmlns="http://www.w3.org/2000/svg" viewBox="0 0 91.71 91.71"><rect x="0.5" y="0.5" width="90.71" height="90.71" rx="45.35" fill="#fff"/><path d="M45.85,91.21h0A45.36,45.36,0,0,1,45.85.5h0a45.36,45.36,0,1,1,0,90.71Z" fill="none" stroke="#1d1d1b" stroke-linecap="round" stroke-linejoin="round" stroke-dasharray="5.09 5.09"/><polygon points="53.13 31.56 53.13 31.56 53.13 31.56 53.13 31.56"/><path d="M24.55,33.53V64H67.16V33.53L45.85,12.23ZM21.5,32.27,45.85,7.92,70.21,32.27V67H21.5Z"/><path d="M24.55,33.53V64H67.16V33.53L45.85,12.23ZM21.5,32.27,45.85,7.92,70.21,32.27V67H21.5Z"/><line x1="21.5" y1="71.44" x2="70.21" y2="71.79" fill="none" stroke="#000" stroke-miterlimit="10" stroke-width="5"/><path d="M47.29,40.72l0,0,.78-1.5c-.76,0-1.51,0-2.24,0h0a30.16,30.16,0,0,0-5.2.33,5.27,5.27,0,0,0-3.58,2.08,32.62,32.62,0,0,0-2.25,4.76,2.63,2.63,0,0,0-1.73-.77h-.58A1.53,1.53,0,0,0,31,47.08v1.1a1.6,1.6,0,0,0,1.56,1.56h.76l-.23.3A6.56,6.56,0,0,0,32,53.81v7.41a1.54,1.54,0,0,0,1.55,1.55h2a1.54,1.54,0,0,0,1.55-1.55h0V60.06H54.58v1.17a1.55,1.55,0,0,0,1.55,1.55h2a1.55,1.55,0,0,0,1.55-1.55h0V53.81a6.55,6.55,0,0,0-1.07-3.74c-.08-.1-.15-.21-.23-.3h.76a1.6,1.6,0,0,0,1.57-1.59v-1.1a1.53,1.53,0,0,0-1.52-1.51h-.57a2.52,2.52,0,0,0-1.65.7l-1.23,2.34a3.12,3.12,0,0,1-5.87-1.91l.2-1.18A3.32,3.32,0,0,1,47,42a3.41,3.41,0,0,1,.33-1.25ZM40,55.35H37.2A1.21,1.21,0,0,1,36,54.14v-.73a1.22,1.22,0,0,1,1.22-1.21.92.92,0,0,1,.29,0l2.84.74a1.23,1.23,0,0,1,.81,1.52,1.21,1.21,0,0,1-1.11.85ZM51.36,53l2.84-.74a1.21,1.21,0,0,1,1.48.87,1.36,1.36,0,0,1,0,.29v.75a1.21,1.21,0,0,1-1.21,1.21H51.67a1.21,1.21,0,0,1-.3-2.37Zm3.26-17.5L54,39l2.37.11h.13a1.19,1.19,0,0,1,1,1.37,1.24,1.24,0,0,1-.12.32l-3.54,6.81a1,1,0,0,1-.88.54.43.43,0,0,1-.16,0A1,1,0,0,1,52,47.06v0l.59-3.56-2.37-.11h-.13a1.18,1.18,0,0,1-1-1.36.92.92,0,0,1,.1-.32l3.56-6.8a1,1,0,0,1,.88-.55h.15a1,1,0,0,1,.82,1.13Z"/></svg>