<svg xmlns="http://www.w3.org/2000/svg" viewBox="0 0 90.78 91.71"><rect x="0.5" y="0.5" width="89.78" height="90.71" rx="44.89" fill="#99f"/><rect x="0.5" y="0.5" width="89.78" height="90.71" rx="44.89" fill="none" stroke="#1d1d1b" stroke-linecap="round" stroke-linejoin="round" stroke-dasharray="5.07 5.07"/><circle cx="49.27" cy="33.38" r="13.79" fill="none" stroke="#000" stroke-miterlimit="10" stroke-width="3"/><text transform="translate(40.39 41.53)" font-size="24.54" font-family="AkkuratPro-Bold, Akkurat Pro" font-weight="700">€</text><path d="M38.3,51.43a14,14,0,0,0-10.26,3L18.66,62l8.15,10.08L33.13,67,54,69.22,71,55.5a3,3,0,0,0,.68-4,3,3,0,0,0-4.36-.66L54.46,61.14,43.22,60a1,1,0,0,1-.88-1A1,1,0,0,1,43.42,58l9,.94a3,3,0,0,0,3.3-2.86A3.07,3.07,0,0,0,52.94,53Z"/></svg>