<svg xmlns="http://www.w3.org/2000/svg" viewBox="0 0 283.46 283.46"><circle cx="141.73" cy="141.73" r="73.77" fill="#39509e" stroke="#000" stroke-miterlimit="10" stroke-width="4"/><circle cx="141.73" cy="141.73" r="68.11" fill="none" stroke="#000" stroke-miterlimit="10" stroke-width="0.75" stroke-dasharray="2"/><path d="M143,140.4V148c4.22.35,7.47,2.42,7.47,4.93H133c0-2.51,3.25-4.58,7.48-4.93V140.4a10,10,0,0,1-8.72-9.88,10,10,0,0,1,10,9.84h0a10,10,0,0,1,10-9.84A10,10,0,0,1,143,140.4Zm27.1,33.92a18,18,0,0,1,1.49,5.84,1.27,1.27,0,0,1-1.36,1.38,18,18,0,0,1-6-1.57,155.37,155.37,0,0,1-44.91,0,18.16,18.16,0,0,1-6,1.57,1.28,1.28,0,0,1-1.37-1.38,18.28,18.28,0,0,1,1.49-5.84,344.5,344.5,0,0,1,0-65.18,18.28,18.28,0,0,1-1.49-5.83,1.27,1.27,0,0,1,1.37-1.38,18.16,18.16,0,0,1,6,1.57,155,155,0,0,1,44.91,0,18,18,0,0,1,6-1.57,1.27,1.27,0,0,1,1.36,1.38,18,18,0,0,1-1.49,5.83A342.84,342.84,0,0,1,170.08,174.32Zm-8.42-32.59a19.93,19.93,0,1,0-19.93,19.93A19.93,19.93,0,0,0,161.66,141.73Z" fill="#010101"/></svg>