<svg xmlns="http://www.w3.org/2000/svg" viewBox="0 0 91.71 91.71"><rect x="0.5" y="0.5" width="90.71" height="90.71" rx="45.35" fill="#33f"/><path d="M45.85,91.21h0A45.36,45.36,0,0,1,45.85.5h0a45.36,45.36,0,1,1,0,90.71Z" fill="none" stroke="#1d1d1b" stroke-linecap="round" stroke-linejoin="round" stroke-dasharray="5.09 5.09"/><path d="M46.67,45v5c2.78.23,4.91,1.59,4.91,3.24H40.13c0-1.65,2.13-3,4.91-3.24V45a6.54,6.54,0,0,1-5.73-6.49A6.54,6.54,0,0,1,45.85,45h0a6.54,6.54,0,0,1,6.54-6.47A6.54,6.54,0,0,1,46.67,45Zm17.8,22.27a12,12,0,0,1,1,3.83.84.84,0,0,1-.9.91,12,12,0,0,1-3.95-1,101.9,101.9,0,0,1-29.49,0,12,12,0,0,1-3.95,1,.84.84,0,0,1-.9-.91,12,12,0,0,1,1-3.83,225.72,225.72,0,0,1,0-42.79,12,12,0,0,1-1-3.83.84.84,0,0,1,.9-.91,12,12,0,0,1,3.95,1,101.9,101.9,0,0,1,29.49,0,12,12,0,0,1,3.95-1,.84.84,0,0,1,.9.91,12,12,0,0,1-1,3.83A226.55,226.55,0,0,1,64.47,67.25Zm-5.53-21.4A13.09,13.09,0,1,0,45.85,58.94,13.09,13.09,0,0,0,58.94,45.85Z"/></svg>