<svg xmlns="http://www.w3.org/2000/svg" viewBox="0 0 91.71 91.71"><rect x="0.5" y="0.5" width="90.71" height="90.71" rx="45.35" fill="#33f"/><path d="M45.85,91.21h0A45.36,45.36,0,0,1,45.85.5h0a45.36,45.36,0,1,1,0,90.71Z" fill="none" stroke="#1d1d1b" stroke-linecap="round" stroke-linejoin="round" stroke-dasharray="5.09 5.09"/><path d="M73,23.89a10.56,10.56,0,0,1-2-1.36,11.48,11.48,0,0,0-15.21,0c-1.53,1.21-2.3,1.76-4.07,1.76s-2.6-.6-4.06-1.76A11.18,11.18,0,0,0,40,19.65a11,11,0,0,0-7.6,2.88c-1.53,1.21-2.31,1.76-4.06,1.76s-2.61-.6-4.07-1.76a12,12,0,0,0-3.89-2.32,2.88,2.88,0,0,0-3.14.75c-.57.8-.08,1.78,1.08,2.17a8,8,0,0,1,2.41,1.52,11.09,11.09,0,0,0,7.61,2.87A11.08,11.08,0,0,0,36,24.65c1.53-1.22,2.3-1.77,4.06-1.77s2.61.61,4.07,1.77a11.51,11.51,0,0,0,15.21,0c1.53-1.22,2.33-1.75,4.07-1.75s2.61.6,4.06,1.76a14.16,14.16,0,0,0,3,1.94,3.06,3.06,0,0,0,3.25-.46c.72-.75.42-1.76-.66-2.25Z"/><circle cx="73.17" cy="29.78" r="1.51"/><circle cx="66.63" cy="31.7" r="1.92"/><circle cx="71.98" cy="38.05" r="1.19"/><path d="M42.89,66.73c3.75-2,6.81-4.82,7.94-7.31a7.2,7.2,0,0,0,.34-1l-7.6,3.34a3.17,3.17,0,0,1,.23,1,7.05,7.05,0,0,1-1.32,3.74C42.32,66.82,42.57,66.88,42.89,66.73Z"/><path d="M33,52.83a44.47,44.47,0,0,1,4.8-4.39l-2.35-.81a1.36,1.36,0,0,0-1.1.15l-3.49,2.1a1.13,1.13,0,0,0-.07,2Z"/><path d="M22.31,69.53a6.67,6.67,0,0,0,1.12,2.53c1.06-1.57,2.19-3.13,3.26-4.7a7.7,7.7,0,0,1,5.49-3.31,58.18,58.18,0,0,0,8.59-1.78L50.9,57.82a48.62,48.62,0,0,0,5.58-4.29,46.77,46.77,0,0,0,4.16-4.32c1.12-1.23,2.17-2.49,3.28-3.73,2-2.1,3.19-4.3,2.51-5.44s-2.85-.86-5.72-.58a30.34,30.34,0,0,0-6.22,1.27,40.36,40.36,0,0,0-4,1.25,44.46,44.46,0,0,0-7.08,3.34,47.26,47.26,0,0,0-11.82,10,33.27,33.27,0,0,0-2.36,3,7.84,7.84,0,0,1-6.11,3.32l-5.39.15a7.68,7.68,0,0,0,2.2,3,8.44,8.44,0,0,0,2.49,1.39A8.54,8.54,0,0,0,22.31,69.53ZM59.12,44.29a1,1,0,0,1,.37-1.36,1,1,0,0,1,1.38.31,1,1,0,0,1-.37,1.36A1,1,0,0,1,59.12,44.29Z"/></svg>