<svg xmlns="http://www.w3.org/2000/svg" viewBox="0 0 283.46 283.46"><circle cx="141.73" cy="141.73" r="73.77" fill="#39509e" stroke="#000" stroke-miterlimit="10" stroke-width="4"/><circle cx="141.73" cy="141.73" r="68.11" fill="none" stroke="#000" stroke-miterlimit="10" stroke-width="0.75" stroke-dasharray="2"/><path d="M186.8,111.62a15.14,15.14,0,0,1-3.07-2.07,17.5,17.5,0,0,0-23.16,0c-2.33,1.85-3.51,2.69-6.19,2.69s-4-.92-6.19-2.69a17.51,17.51,0,0,0-23.17,0c-2.33,1.85-3.52,2.69-6.19,2.69s-4-.92-6.19-2.69a18.7,18.7,0,0,0-5.92-3.53c-1.78-.6-3.92-.09-4.79,1.14s-.12,2.71,1.65,3.31a12.41,12.41,0,0,1,3.67,2.31,17.51,17.51,0,0,0,23.17,0c2.32-1.85,3.5-2.68,6.19-2.68s4,.91,6.19,2.68a17.5,17.5,0,0,0,23.16,0c2.33-1.85,3.54-2.66,6.2-2.66s4,.92,6.19,2.68a21.22,21.22,0,0,0,4.5,3,4.65,4.65,0,0,0,5-.7c1.09-1.14.63-2.67-1-3.43Z" fill="#010101" stroke="#fff" stroke-miterlimit="10"/><circle cx="187.09" cy="120.6" r="2.3" fill="#1d1d1b"/><circle cx="177.12" cy="123.53" r="2.93" fill="#1d1d1b"/><circle cx="185.28" cy="133.19" r="1.81" fill="#1d1d1b"/><path d="M141,176.88c5.72-3,10.37-7.35,12.09-11.14a10.7,10.7,0,0,0,.52-1.49L142,169.33a4.86,4.86,0,0,1,.34,1.61,10.78,10.78,0,0,1-2,5.69C140.11,177,140.48,177.1,141,176.88Z" fill="#010101"/><path d="M125.85,155.7a67.18,67.18,0,0,1,7.3-6.68l-3.57-1.23a2.11,2.11,0,0,0-1.68.22l-5.31,3.2a1.73,1.73,0,0,0-.12,3.07Z" fill="#010101"/><path d="M109.63,181.14a10.08,10.08,0,0,0,1.7,3.85c1.62-2.39,3.34-4.76,5-7.16a11.78,11.78,0,0,1,8.37-5,88.11,88.11,0,0,0,13.09-2.7l15.42-6.78a76.37,76.37,0,0,0,8.5-6.54A71.72,71.72,0,0,0,168,150.2c1.69-1.89,3.3-3.8,5-5.69,3.1-3.2,4.86-6.55,3.82-8.28s-4.34-1.32-8.72-.88a46.47,46.47,0,0,0-9.46,1.92,60.12,60.12,0,0,0-6.16,1.91,66.66,66.66,0,0,0-10.79,5.09,71.87,71.87,0,0,0-18,15.17,51.83,51.83,0,0,0-3.6,4.61,11.89,11.89,0,0,1-9.3,5c-2.72.07-5.49.17-8.21.23a11.68,11.68,0,0,0,3.35,4.51,12.53,12.53,0,0,0,3.8,2.12A12.73,12.73,0,0,0,109.63,181.14Zm56.06-38.44a1.55,1.55,0,1,1,2.1.47A1.48,1.48,0,0,1,165.69,142.7Z" fill="#010101"/></svg>