<svg xmlns="http://www.w3.org/2000/svg" viewBox="0 0 91.71 91.71"><rect x="0.5" y="0.5" width="90.71" height="90.71" rx="45.35" fill="#999"/><path d="M45.85,91.21h0A45.36,45.36,0,0,1,45.85.5h0a45.36,45.36,0,1,1,0,90.71Z" fill="none" stroke="#1d1d1b" stroke-linecap="round" stroke-linejoin="round" stroke-dasharray="5.09 5.09"/><path d="M58.45,29.49l3-1.27c.09.07.2.14.29.22a6.22,6.22,0,0,1-.44,1.63c-1.49,2.61-3,5.19-4.61,7.75a1.38,1.38,0,0,1-1,.63q-4.74-.31-9.48-.77a3.73,3.73,0,0,1-1.13-.49,7.75,7.75,0,0,1,1-.95,11.71,11.71,0,0,1,1.48-.74c-1.9-3.43-3.62-6.88-5.69-10.1-.82-1.26-2.41-2-3.56-2.94a5.75,5.75,0,0,1,.67-.05c3.79,0,7.57.05,11.36,0,3.18-.07,5.51,1.06,6.7,4.17A31.89,31.89,0,0,0,58.45,29.49Z" fill-rule="evenodd"/><path d="M49.1,53.29c3.92,0,11.1.05,14.82,0a6.54,6.54,0,0,0,2.53-.79,19,19,0,0,0,2.29-1.57l-4.09,7.44c-1,1.77-2,3.53-2.92,5.34a4,4,0,0,1-3.91,2.38h-8c0,.87,0,1.63,0,2.39,0,.31-.21.78-.44.86a1,1,0,0,1-.91-.36Q45.69,64.81,43,60.59a1.17,1.17,0,0,1,.1-1q2.3-4.08,4.68-8.13c.17-.28.59-.43.89-.64a3.89,3.89,0,0,1,.41.94A12.57,12.57,0,0,1,49.1,53.29Z" fill-rule="evenodd"/><path d="M52.22,42,62.46,36c1.15,1.75,2.26,3.43,3.36,5.12l2.61,4A2.76,2.76,0,0,1,68.71,48a6.43,6.43,0,0,1-5.3,3.77,37.7,37.7,0,0,1-4.51,0,1.38,1.38,0,0,1-1-.45C56,48.27,54.16,45.18,52.22,42Z" fill-rule="evenodd"/><path d="M36.26,42.27l-9.91-6.64s2.85-4.37,3.73-5.77a39.88,39.88,0,0,0,2.42-3.93c1.38-2.93,4.86-2.59,6.6-1A17.45,17.45,0,0,1,43.17,31a1.1,1.1,0,0,1-.15.87C41.17,34.82,36.26,42.27,36.26,42.27Z" fill-rule="evenodd"/><path d="M30.9,47.82v-.58h.73v-.63h-.37V45.06H26.36v1.55H26v.63h.73v.58c-2.34.55-4,2-4,3.65h0v1.37a.73.73,0,0,0,.45.6v.37a.73.73,0,0,0-.45.6v1.07a.71.71,0,0,0,.45.6v.37a.73.73,0,0,0-.45.6V67.27c0,.44.56.8,1.26.8h9.69c.69,0,1.25-.36,1.25-.8h0V57.06a.71.71,0,0,0-.45-.6v-.37a.7.7,0,0,0,.45-.6V54.42a.71.71,0,0,0-.45-.6v-.37a.71.71,0,0,0,.45-.6V51.48h0C34.91,49.79,33.24,48.37,30.9,47.82Z"/></svg>