<svg xmlns="http://www.w3.org/2000/svg" viewBox="0 0 91.71 91.71"><rect x="0.5" y="0.5" width="90.71" height="90.71" rx="45.35" fill="#99f"/><path d="M45.85,91.21h0A45.36,45.36,0,0,1,45.85.5h0a45.36,45.36,0,1,1,0,90.71Z" fill="none" stroke="#1d1d1b" stroke-linecap="round" stroke-linejoin="round" stroke-dasharray="5.09 5.09"/><path d="M72.33,25.78,67.55,23a.33.33,0,0,0-.17,0,.32.32,0,0,0-.16,0L51.43,32.13l-27-15.56a.33.33,0,0,0-.16-.05.34.34,0,0,0-.17.05l-4.77,2.76a.34.34,0,0,0-.16.29V56.44a.34.34,0,0,0,.16.29L51.26,75.14a.38.38,0,0,0,.17,0,.27.27,0,0,0,.16,0l4.79-2.75,15.95-9.22a.3.3,0,0,0,.17-.28V26.06A.31.31,0,0,0,72.33,25.78ZM24.31,17,51.1,32.51l-4.44,2.57L19.87,19.61ZM46.83,35.55l4.43,2.58v4.22l-4.43-2.59Zm4.44,29.82-4.52-2.62h0l0,0h0l0,0a.1.1,0,0,0-.05,0h0s0,0,0,0l0,0V67.5h0a.33.33,0,0,0,0,.06.1.1,0,0,0,0,.05s0,0,0,0l4.69,2.71v4.22L19.7,56.35V19.9L46.5,35.36v4.52s0,0,0,0,0,0,0,0,0,0,0,0l4.68,2.73V47l-4.52-2.61s0,0,0,0l0,0h0l-.06,0s0,0,0,0l0,0s0,0,0,0,0,0,0,0v4.6l0,.06,0,0h0l4.68,2.73v4.23l-4.51-2.62h0l0,0h0l0,0a.1.1,0,0,0-.05,0h0s0,0,0,0a.05.05,0,0,0,0,0v4.62l0,0a.1.1,0,0,0,0,0v0l4.69,2.71Zm0,.37V70L46.83,67.4V63.17Zm0-18.41v4.22L46.83,49V44.76Zm0,9.21v4.23l-4.43-2.58V54Zm.17-18.7L47,35.27l4.52-2.61h0l15.87-9.16,4.46,2.57Zm.16,4.89,4.46-2.59v4.24L51.59,47Zm4.46,6.62v4.24l-4.46,2.57V51.93ZM51.59,61.14l4.46-2.57v4.22l-4.46,2.58ZM56.05,72l-4.46,2.56V70.35l4.46-2.57Zm16-9.22h0l-15.63,9V67.5s0,0,0,0,0,0,0,0l0,0a.1.1,0,0,0-.05,0l0,0h-.1L51.59,70V65.74L56.3,63h0l0-.06a.08.08,0,0,0,0-.05V58.29s0,0,0,0,0,0,0,0h0s0,0-.05,0l0,0h0l0,0h0l-4.55,2.61V56.54l4.71-2.71v0l0-.05a.11.11,0,0,0,0-.06s0,0,0,0V49.06s0,0,0,0a.06.06,0,0,0,0,0h0l-.06,0,0,0h-.1L51.6,51.55V47.33l4.7-2.71v0a.1.1,0,0,0,0-.05.06.06,0,0,0,0,0l0,0V39.85s0,0,0,0a.08.08,0,0,0,0,0,0,0,0,0,1,0,0l-.06,0,0,0h0l0,0s0,0,0,0L51.6,42.34V38.12L72,26.34Z" stroke="#000" stroke-miterlimit="10" stroke-width="0.25"/><path d="M72.5,26.06V62.89a.3.3,0,0,1-.17.28L56.38,72.39l-4.79,2.75a.27.27,0,0,1-.16,0,.38.38,0,0,1-.17,0L19.37,56.73a.34.34,0,0,1-.16-.29V19.62a.34.34,0,0,1,.16-.29l4.77-2.76a.34.34,0,0,1,.17-.05.33.33,0,0,1,.16.05l27,15.56L67.22,23a.32.32,0,0,1,.16,0,.33.33,0,0,1,.17,0l4.78,2.76A.31.31,0,0,1,72.5,26.06Z" fill="none" stroke="#1d1d1b" stroke-miterlimit="10" stroke-width="2"/></svg>