<svg xmlns="http://www.w3.org/2000/svg" viewBox="0 0 283.46 283.46"><circle cx="141.73" cy="141.73" r="73.77" fill="#f07e20" stroke="#000" stroke-miterlimit="10" stroke-width="4"/><circle cx="141.73" cy="141.73" r="68.11" fill="none" stroke="#000" stroke-miterlimit="10" stroke-width="0.75" stroke-dasharray="2"/><path d="M182.06,111.15l-7.29-4.2a.51.51,0,0,0-.25-.06.57.57,0,0,0-.25.06l-24.05,13.88-41.06-23.7a.55.55,0,0,0-.25-.07.59.59,0,0,0-.25.07l-7.26,4.2a.5.5,0,0,0-.25.44v56.09a.48.48,0,0,0,.25.43L150,186.34a.57.57,0,0,0,.25.06.51.51,0,0,0,.25-.06l7.29-4.2,24.3-14a.48.48,0,0,0,.25-.43V111.59A.5.5,0,0,0,182.06,111.15Zm-73.15-13.3,40.81,23.56L143,125.32l-40.81-23.56ZM143.21,126,150,130v6.43l-6.76-3.94ZM150,171.45l-6.89-4s-.05,0-.07,0,0,0-.06,0h0l-.08,0a.24.24,0,0,0-.08.06l0,0s0,0,0,.06,0,0,0,.06v7s0,0,0,0a.25.25,0,0,0,0,.09.2.2,0,0,0,.06.07l0,0L150,179v6.43L101.9,157.71V102.2l40.81,23.55v6.85s0,0,0,0,0,.05,0,.08a.24.24,0,0,0,.06.08s0,0,0,0L150,137v6.43l-6.89-4s0,0-.06,0l-.06,0,0,0a.24.24,0,0,0-.09,0,.2.2,0,0,0-.07.06l0,0s0,0,0,.06,0,0,0,.06v7s0,0,0,0a.36.36,0,0,0,0,.09l.05.07s0,0,0,0L150,151v6.43l-6.88-4H143l-.06,0h0a.19.19,0,0,0-.08,0,.24.24,0,0,0-.08.06l0,0s0,0,0,.07,0,0,0,.06v7s0,0,0,0a.2.2,0,0,0,0,.08.24.24,0,0,0,.06.08l0,0L150,165Zm0,.57v6.44l-6.76-3.91v-6.44Zm0-28v6.43l-6.76-3.93v-6.41Zm0,14v6.44l-6.76-3.92v-6.43Zm.25-28.48-6.76-3.91,6.88-4h0l24.17-14,6.79,3.92Zm.25,7.45,6.79-3.94v6.46l-6.79,3.91Zm6.79,10.08v6.46l-6.79,3.92V151Zm-6.79,18,6.79-3.91v6.43l-6.79,3.92Zm6.79,16.55-6.79,3.91V179l6.79-3.92Zm24.31-14h0l-23.8,13.74v-6.58s0,0,0-.06,0,0,0-.06l0,0a.18.18,0,0,0-.07,0l-.09,0h0l-.06,0h-.06l-6.92,4V172l7.17-4.13,0,0a.24.24,0,0,0,.06-.08.19.19,0,0,0,0-.08s0,0,0,0v-7s0,0,0-.06,0-.05,0-.07l0,0a.2.2,0,0,0-.07-.06.24.24,0,0,0-.09,0s0,0,0,0,0,0-.06,0h-.07l-6.92,4V158l7.17-4.13,0,0a.2.2,0,0,0,.06-.07.24.24,0,0,0,0-.09s0,0,0,0v-7s0,0,0-.07a.13.13,0,0,0,0-.06s0,0,0,0a.24.24,0,0,0-.08-.06s0,0-.08,0h0l-.06,0h-.07l-6.91,4V144l7.16-4.13,0,0s0,0,.06-.07a.16.16,0,0,0,0-.09l0,0v-7s0,0,0-.06,0,0,0-.06,0,0,0,0a.24.24,0,0,0-.08-.06l-.08,0h0s0,0-.06,0-.05,0-.07,0l-6.91,4V130L181.57,112Z" stroke="#000" stroke-miterlimit="10" stroke-width="0.25"/><path d="M182.31,111.59v56.09a.48.48,0,0,1-.25.43l-24.3,14-7.29,4.2a.51.51,0,0,1-.25.06.57.57,0,0,1-.25-.06L101.4,158.29a.48.48,0,0,1-.25-.43V101.77a.5.5,0,0,1,.25-.44l7.26-4.2a.59.59,0,0,1,.25-.07.55.55,0,0,1,.25.07l41.06,23.7L174.27,107a.57.57,0,0,1,.25-.06.51.51,0,0,1,.25.06l7.29,4.2A.5.5,0,0,1,182.31,111.59Z" fill="none" stroke="#1d1d1b" stroke-miterlimit="10" stroke-width="2"/></svg>