<svg xmlns="http://www.w3.org/2000/svg" viewBox="0 0 90.78 91.71"><rect x="0.5" y="0.5" width="89.78" height="90.71" rx="44.89" fill="#ffded1"/><path d="M45.39,91.21A44.89,44.89,0,0,1,.5,46.32v-.93a44.89,44.89,0,0,1,89.78,0v.93A44.89,44.89,0,0,1,45.39,91.21Z" fill="none" stroke="#1d1d1b" stroke-linecap="round" stroke-linejoin="round" stroke-dasharray="5.07 5.07"/><path d="M56.07,22.46h-.13l-2.37-.11.58-3.56h0a1,1,0,0,0-.81-1.13h-.16a1,1,0,0,0-.88.55L48.74,25a1.19,1.19,0,0,0-.1.32,1.18,1.18,0,0,0,1,1.36h.14l2.37.11-.59,3.56v0a1,1,0,0,0,.81,1.12.43.43,0,0,0,.16,0,1,1,0,0,0,.88-.54l3.55-6.8a1.42,1.42,0,0,0,.11-.33A1.18,1.18,0,0,0,56.07,22.46Z"/><path d="M58.73,28.88h-.58a2.57,2.57,0,0,0-1.64.7l-1.24,2.35A3.12,3.12,0,0,1,49.4,30l.2-1.17a3.32,3.32,0,0,1-3.11-3.52,3.16,3.16,0,0,1,.32-1.24l0,0,0,0,.78-1.5c-.77,0-1.52,0-2.24,0h-.7a29.55,29.55,0,0,0-4.5.34,5.28,5.28,0,0,0-3.59,2.09,31.62,31.62,0,0,0-2.25,4.76,2.57,2.57,0,0,0-1.73-.78h-.57a1.53,1.53,0,0,0-1.52,1.51V31.5a1.59,1.59,0,0,0,1.57,1.55h.75l-.22.31a6.37,6.37,0,0,0-1.06,3.77v7.4a1.54,1.54,0,0,0,1.54,1.55h2a1.54,1.54,0,0,0,1.55-1.55V43.37H54.11v1.17a1.56,1.56,0,0,0,1.55,1.55h2a1.55,1.55,0,0,0,1.54-1.55V37.13a6.48,6.48,0,0,0-1.07-3.75l-.23-.3h.76a1.59,1.59,0,0,0,1.57-1.58V30.39A1.53,1.53,0,0,0,58.73,28.88ZM36.89,37.12a1.38,1.38,0,1,1,1.37-1.38A1.38,1.38,0,0,1,36.89,37.12Zm16.89,0a1.38,1.38,0,1,1,1.38-1.38A1.38,1.38,0,0,1,53.78,37.12Z"/><circle cx="26.18" cy="39.05" r="1.31"/><circle cx="23.42" cy="43.29" r="1.31"/><circle cx="24.87" cy="48.07" r="1.31"/><circle cx="64.6" cy="39.05" r="1.31"/><circle cx="67.37" cy="43.29" r="1.31"/><circle cx="65.92" cy="48.07" r="1.31"/><path d="M32.26,57.28a4.6,4.6,0,1,0-4.59-4.59A4.6,4.6,0,0,0,32.26,57.28Zm0-7.22a2.63,2.63,0,1,1-2.62,2.63A2.63,2.63,0,0,1,32.26,50.06Z"/><path d="M53.93,52.69a4.6,4.6,0,1,0,4.59-4.6A4.6,4.6,0,0,0,53.93,52.69Zm7.22,0a2.63,2.63,0,1,1-2.63-2.63A2.63,2.63,0,0,1,61.15,52.69Z"/><path d="M45.39,49.28a5.45,5.45,0,1,0,5.45,5.44A5.45,5.45,0,0,0,45.39,49.28Zm0,8.92a3.48,3.48,0,1,1,3.48-3.48A3.48,3.48,0,0,1,45.39,58.2Z"/><path d="M58.57,59.14h-.1a8.61,8.61,0,0,0-7.89,5.19,10.05,10.05,0,0,0-10.37,0,8.63,8.63,0,0,0-7.9-5.19h-.1a8.61,8.61,0,0,0-8.6,8.61v2.34a1,1,0,0,0,2,0V67.75a6.64,6.64,0,0,1,6.63-6.64h.1a6.64,6.64,0,0,1,6.25,4.44,10.14,10.14,0,0,0-3.35,7.52,1,1,0,1,0,2,0A8.19,8.19,0,0,1,39,68a8.54,8.54,0,0,1,1.81-1.69A8.22,8.22,0,0,1,53.6,73.07a1,1,0,1,0,2,0,10.14,10.14,0,0,0-3.35-7.52,6.64,6.64,0,0,1,6.25-4.44h.1a6.65,6.65,0,0,1,6.64,6.64v2.34a1,1,0,0,0,2,0V67.75A8.62,8.62,0,0,0,58.57,59.14Z"/></svg>