<svg xmlns="http://www.w3.org/2000/svg" viewBox="0 0 91.71 91.71"><rect x="0.5" y="0.5" width="90.71" height="90.71" rx="45.35" fill="#99f"/><path d="M45.85,91.21h0A45.36,45.36,0,0,1,45.85.5h0a45.36,45.36,0,1,1,0,90.71Z" fill="none" stroke="#1d1d1b" stroke-linecap="round" stroke-linejoin="round" stroke-dasharray="5.09 5.09"/><line x1="21.5" y1="72.49" x2="70.21" y2="72.83" fill="none" stroke="#000" stroke-miterlimit="10" stroke-width="5"/><path d="M57.92,59.45a5.08,5.08,0,0,1-5.08,4.31,5.17,5.17,0,0,1-4.44-2.52H41.56V64H37.47V61.24h-.28L36.57,55,25.1,67l-2-2L36.23,51.33,35.8,47c-.44-4.44-.92-9.15-1.29-13L22.41,20.9l2-2,7.71,8.36v-.76h1.78a3.12,3.12,0,0,1,1.68-2.29L36,24h0a5.38,5.38,0,0,1,.85-.38V22.36H41v.46c.64-.06,1.3-.1,2-.13v-1h7.53v1.21A18.37,18.37,0,0,1,55.33,24h0l.34.14a5,5,0,0,1,.56.3,2.75,2.75,0,0,1,4.2,1.66l6.92-7.22,2,2.07-9.15,9.55v5.05h-3c-.43,5.38-1,12.2-1.37,17.43l11.1,12-2,2Zm-5.08-2a1.39,1.39,0,1,0,.27,2.76,1.38,1.38,0,0,0,1.25-1.37,1.43,1.43,0,0,0-1.49-1.39Zm-6.57,1.24h1.45a5,5,0,0,1,5.08-4.81l-7.4-8L39,52.57l.61,6.1Zm7.12-8.31c.35-4.45.77-9.63,1.11-14l-7.12,7.47Zm-16-13.19c.37,3.72.77,7.9,1.16,11.68l4.91-5.11Zm8,4.58,2.87-3H42.68V35.06h9.14l2.42-2.51V29.91H36.71L37,32.54Zm12.33-8.57V33l-.18.19ZM54.8,26.51l-.1,0-.15-.06-.36-.15a9.49,9.49,0,0,0-1.28-.4,18,18,0,0,0-2.44-.43v.37H42.94v-.59a18.81,18.81,0,0,0-2,.14v1.16Zm-18,0v-.13l-.18.13Z"/></svg>