<svg xmlns="http://www.w3.org/2000/svg" viewBox="0 0 283.46 283.46"><circle cx="141.73" cy="141.73" r="73.77" fill="#d27ab0" stroke="#000" stroke-miterlimit="10" stroke-width="4"/><circle cx="141.73" cy="141.73" r="68.11" fill="none" stroke="#000" stroke-miterlimit="10" stroke-width="0.75" stroke-dasharray="2"/><path d="M146.65,152.63a37.47,37.47,0,0,0,1.54-10.9,34,34,0,0,0-2.95-14.51c-2.11-4.34-5.08-6.74-8.36-6.74h-45c-3.28,0-6.26,2.39-8.37,6.74a37.28,37.28,0,0,0,0,29c2.12,4.35,5.09,6.74,8.37,6.74h45.05a7.24,7.24,0,0,0,4.59-1.72" fill="#010101"/><path d="M136.88,124.3c3.54,0,7.49,7.16,7.49,17.43a33.15,33.15,0,0,1-1.52,10.3,84.91,84.91,0,0,0-12.14-.64,33.91,33.91,0,0,1-1.32-9.66C129.39,131.46,133.34,124.3,136.88,124.3Z" fill="#d27ab0" stroke="#000" stroke-miterlimit="10" stroke-width="4"/><path d="M91.83,159.17c-3.55,0-7.5-7.16-7.5-17.44s4-17.43,7.5-17.43H130a17.64,17.64,0,0,0-1.76,2.92,37.16,37.16,0,0,0,0,29,17.75,17.75,0,0,0,1.76,2.93Z" fill="#d27ab0" stroke="#000" stroke-miterlimit="10" stroke-width="4"/><path d="M167,132v-.9h.83v-.95h-.42V127.8h-5.56v2.38h-.42v.95h.83v.9a6.06,6.06,0,0,0-4.55,5.57h0v2.1a1.15,1.15,0,0,0,.52.92v.55a1.15,1.15,0,0,0-.52.93v1.64a1.15,1.15,0,0,0,.52.92v.55a1.12,1.12,0,0,0-.51.93v15.6a1.33,1.33,0,0,0,1.43,1.22h11a1.33,1.33,0,0,0,1.43-1.22h0v-15.6a1.13,1.13,0,0,0-.52-.93v-.55a1.12,1.12,0,0,0,.52-.92v-1.64a1.13,1.13,0,0,0-.52-.93v-.55a1.12,1.12,0,0,0,.52-.92v-2.1h0A6.06,6.06,0,0,0,167,132Z" fill="#010101"/><path d="M157.81,115a.41.41,0,0,0-.43.42h0a21.05,21.05,0,0,0,.16,2.2,5.71,5.71,0,0,0,1.1,3.23,3.25,3.25,0,0,0,3.78.59,8,8,0,0,0-2.22-1.8.42.42,0,0,1-.24-.55.42.42,0,0,1,.39-.27.51.51,0,0,1,.17,0,7.81,7.81,0,0,1,2.55,2,4.58,4.58,0,0,1,1.12,2.61v4.85a.43.43,0,1,0,.85,0v-4.85a4.53,4.53,0,0,1,1.13-2.61,7.69,7.69,0,0,1,2.54-2,.51.51,0,0,1,.17,0,.42.42,0,0,1,.15.82,8,8,0,0,0-2.22,1.8,3.25,3.25,0,0,0,3.78-.59,5.71,5.71,0,0,0,1.1-3.23,21.05,21.05,0,0,0,.16-2.2.41.41,0,0,0-.42-.43h0a21.05,21.05,0,0,0-2.2.16,5.71,5.71,0,0,0-3.23,1.1,3.26,3.26,0,0,0-.44,4,7,7,0,0,0-.93,1.45,7.49,7.49,0,0,0-.94-1.45,3.26,3.26,0,0,0-.44-4,5.71,5.71,0,0,0-3.23-1.1A21.05,21.05,0,0,0,157.81,115Z"/><path d="M173.8,111.92a.42.42,0,0,0-.43.42h0a21.05,21.05,0,0,0,.16,2.2,5.71,5.71,0,0,0,1.1,3.23,3.27,3.27,0,0,0,3.78.6,7.85,7.85,0,0,0-2.22-1.81A.42.42,0,0,1,176,116a.42.42,0,0,1,.39-.27.51.51,0,0,1,.17,0,7.69,7.69,0,0,1,2.54,2,4.56,4.56,0,0,1,1.13,2.61v8.09a.43.43,0,1,0,.85,0v-8.09a4.61,4.61,0,0,1,1.12-2.61,7.81,7.81,0,0,1,2.55-2,.51.51,0,0,1,.17,0,.42.42,0,0,1,.15.82,7.85,7.85,0,0,0-2.22,1.81,3.27,3.27,0,0,0,3.78-.6,5.71,5.71,0,0,0,1.1-3.23,21.05,21.05,0,0,0,.16-2.2.41.41,0,0,0-.42-.43h0a21.05,21.05,0,0,0-2.2.16,5.71,5.71,0,0,0-3.23,1.1,3.27,3.27,0,0,0-.44,4,6.93,6.93,0,0,0-.94,1.45,6.51,6.51,0,0,0-.93-1.45,3.27,3.27,0,0,0-.44-4,5.71,5.71,0,0,0-3.23-1.1A21.05,21.05,0,0,0,173.8,111.92Z"/><path d="M189.22,117.45a.42.42,0,0,0-.42.43h0a18.46,18.46,0,0,0,.16,2.21,5.76,5.76,0,0,0,1.1,3.23,3.26,3.26,0,0,0,3.78.59,7.91,7.91,0,0,0-2.22-1.8.43.43,0,0,1-.25-.55.45.45,0,0,1,.4-.28.35.35,0,0,1,.17,0,7.44,7.44,0,0,1,2.54,2,4.53,4.53,0,0,1,1.13,2.6v2.13a.43.43,0,1,0,.85,0V126a4.58,4.58,0,0,1,1.12-2.6,7.55,7.55,0,0,1,2.55-2,.33.33,0,0,1,.17,0,.43.43,0,0,1,.15.83,7.77,7.77,0,0,0-2.22,1.8,3.26,3.26,0,0,0,3.78-.59,5.76,5.76,0,0,0,1.1-3.23,21.32,21.32,0,0,0,.16-2.21.44.44,0,0,0-.42-.43h0a21.05,21.05,0,0,0-2.2.16,5.79,5.79,0,0,0-3.23,1.11,3.24,3.24,0,0,0-.44,4,7.49,7.49,0,0,0-.94,1.45,7.44,7.44,0,0,0-.93-1.45,3.26,3.26,0,0,0-.44-4,5.84,5.84,0,0,0-3.23-1.11A21.32,21.32,0,0,0,189.22,117.45Z"/><path d="M183,132v-.9h.83v-.95h-.42V127.8h-5.55v2.38h-.42v.95h.83v.9a6.06,6.06,0,0,0-4.55,5.57h0v2.1a1.15,1.15,0,0,0,.52.92v.55a1.15,1.15,0,0,0-.52.93v1.64a1.15,1.15,0,0,0,.52.92v.55a1.15,1.15,0,0,0-.52.93v15.6a1.33,1.33,0,0,0,1.43,1.22h11a1.33,1.33,0,0,0,1.43-1.22h0v-15.6a1.15,1.15,0,0,0-.52-.93v-.55a1.15,1.15,0,0,0,.52-.92v-1.64a1.15,1.15,0,0,0-.52-.93v-.55a1.15,1.15,0,0,0,.52-.92v-2.1h0A6.06,6.06,0,0,0,183,132Z" fill="#010101"/><path d="M198.4,132v-.9h.83v-.95h-.42V127.8h-5.56v2.38h-.41v.95h.82v.9a6.07,6.07,0,0,0-4.54,5.57h0v2.1a1.12,1.12,0,0,0,.52.92v.55a1.13,1.13,0,0,0-.52.93v1.64a1.15,1.15,0,0,0,.52.92v.55a1.15,1.15,0,0,0-.52.93v15.6a1.33,1.33,0,0,0,1.43,1.22h11a1.32,1.32,0,0,0,1.42-1.22h0v-15.6a1.14,1.14,0,0,0-.51-.93v-.55a1.14,1.14,0,0,0,.51-.92v-1.64a1.14,1.14,0,0,0-.51-.93v-.55a1.14,1.14,0,0,0,.51-.92v-2.1h0A6.05,6.05,0,0,0,198.4,132Z" fill="#010101"/><polygon points="196.55 160.03 142.85 152.03 132.91 162.98 196.03 162.98 196.55 160.03" fill="#010101"/></svg>