<svg xmlns="http://www.w3.org/2000/svg" viewBox="0 0 90.78 91.71"><rect x="0.5" y="0.5" width="89.78" height="90.71" rx="44.89" fill="#33f"/><path d="M45.39,91.21A44.89,44.89,0,0,1,.5,46.32v-.93a44.89,44.89,0,0,1,89.78,0v.93A44.89,44.89,0,0,1,45.39,91.21Z" fill="none" stroke="#1d1d1b" stroke-linecap="round" stroke-linejoin="round" stroke-dasharray="5.07 5.07"/><path d="M45.59,39.13c-1.39-2.85-3.34-4.42-5.49-4.42H10.52c-2.16,0-4.11,1.57-5.49,4.42a22.3,22.3,0,0,0-1.94,9.53A22.3,22.3,0,0,0,5,58.19c1.38,2.85,3.33,4.42,5.49,4.42H40.1a4.81,4.81,0,0,0,3-1.13l3.39-5.67a24.53,24.53,0,0,0,1-7.16A22.3,22.3,0,0,0,45.59,39.13Zm-35.07,21c-2.33,0-4.92-4.7-4.92-11.45s2.59-11.45,4.92-11.45H35.59a11.77,11.77,0,0,0-1.16,1.92,22.3,22.3,0,0,0-1.93,9.53,22.3,22.3,0,0,0,1.93,9.53,11.36,11.36,0,0,0,1.16,1.92ZM44,55.43a55.49,55.49,0,0,0-8-.43,21.92,21.92,0,0,1-.87-6.34c0-6.75,2.59-11.45,4.92-11.45S45,41.91,45,48.66A21.82,21.82,0,0,1,44,55.43Z"/><path d="M59.87,42.29V41.7h.54v-.62h-.27V39.51H56.49v1.57h-.28v.62h.55v.59a4,4,0,0,0-3,3.66h0v1.38a.77.77,0,0,0,.34.61v.36a.75.75,0,0,0-.34.6V50a.77.77,0,0,0,.34.61V51a.77.77,0,0,0-.34.61V61.81a.88.88,0,0,0,.94.81h7.2a.88.88,0,0,0,.94-.81h0V51.57a.74.74,0,0,0-.34-.61V50.6a.74.74,0,0,0,.34-.61V48.91a.73.73,0,0,0-.34-.6V48a.76.76,0,0,0,.34-.61V46h0A4,4,0,0,0,59.87,42.29Z"/><path d="M53.84,31.08a.27.27,0,0,0-.28.27h0a12.78,12.78,0,0,0,.1,1.45,3.8,3.8,0,0,0,.73,2.12,2.17,2.17,0,0,0,2.48.39,5.12,5.12,0,0,0-1.46-1.19.29.29,0,0,1-.16-.36.28.28,0,0,1,.26-.18l.11,0A5.07,5.07,0,0,1,57.29,35,3,3,0,0,1,58,36.66v3.19a.28.28,0,1,0,.56,0V36.66A3,3,0,0,1,59.33,35,5.07,5.07,0,0,1,61,33.61l.11,0a.28.28,0,0,1,.28.28.27.27,0,0,1-.18.26,5.26,5.26,0,0,0-1.46,1.19,2.17,2.17,0,0,0,2.48-.39A3.8,3.8,0,0,0,63,32.81a12.78,12.78,0,0,0,.1-1.45.27.27,0,0,0-.27-.28h0a12.78,12.78,0,0,0-1.45.1,3.8,3.8,0,0,0-2.12.73,2.15,2.15,0,0,0-.29,2.65,4.52,4.52,0,0,0-.61.95,4.52,4.52,0,0,0-.61-.95,2.14,2.14,0,0,0-.29-2.65,3.77,3.77,0,0,0-2.12-.73A12.66,12.66,0,0,0,53.84,31.08Z"/><path d="M64.34,29.09a.27.27,0,0,0-.28.27h0a12.66,12.66,0,0,0,.1,1.45,3.77,3.77,0,0,0,.73,2.12,2.14,2.14,0,0,0,2.48.39,5.26,5.26,0,0,0-1.46-1.19.28.28,0,0,1-.16-.36A.27.27,0,0,1,66,31.6l.11,0A5.2,5.2,0,0,1,67.79,33a3,3,0,0,1,.74,1.72V40a.28.28,0,1,0,.56,0V34.68A3,3,0,0,1,69.83,33a5.2,5.2,0,0,1,1.67-1.34l.11,0a.28.28,0,0,1,.1.54,5.12,5.12,0,0,0-1.46,1.19,2.14,2.14,0,0,0,2.48-.39,3.77,3.77,0,0,0,.73-2.12,12.66,12.66,0,0,0,.1-1.45.28.28,0,0,0-.28-.28h0a12.66,12.66,0,0,0-1.45.1,3.77,3.77,0,0,0-2.12.73,2.14,2.14,0,0,0-.29,2.65,5.1,5.1,0,0,0-.61,1,5.1,5.1,0,0,0-.61-1,2.15,2.15,0,0,0-.29-2.65,3.8,3.8,0,0,0-2.12-.73A12.66,12.66,0,0,0,64.34,29.09Z"/><path d="M74.47,32.72a.27.27,0,0,0-.28.28h0a12.66,12.66,0,0,0,.1,1.45A3.77,3.77,0,0,0,75,36.57,2.14,2.14,0,0,0,77.5,37,5.17,5.17,0,0,0,76,35.78a.29.29,0,0,1-.16-.36.27.27,0,0,1,.26-.18.22.22,0,0,1,.11,0,4.94,4.94,0,0,1,1.67,1.34,2.94,2.94,0,0,1,.74,1.71v1.4a.28.28,0,0,0,.56,0v-1.4A2.94,2.94,0,0,1,80,36.6a4.94,4.94,0,0,1,1.67-1.34.2.2,0,0,1,.11,0,.28.28,0,0,1,.28.28.3.3,0,0,1-.18.26A5,5,0,0,0,80.38,37a2.14,2.14,0,0,0,2.48-.39,3.77,3.77,0,0,0,.73-2.12,12.66,12.66,0,0,0,.1-1.45.28.28,0,0,0-.28-.28h0a14.29,14.29,0,0,0-1.45.11,3.76,3.76,0,0,0-2.12.72,2.15,2.15,0,0,0-.29,2.66,4.52,4.52,0,0,0-.61.95,4.52,4.52,0,0,0-.61-.95A2.16,2.16,0,0,0,78,33.55a3.79,3.79,0,0,0-2.12-.72A14.29,14.29,0,0,0,74.47,32.72Z"/><path d="M70.36,42.29V41.7h.55v-.62h-.28V39.51H67v1.57h-.27v.62h.54v.59a4,4,0,0,0-3,3.66h0v1.38a.74.74,0,0,0,.34.61v.36a.73.73,0,0,0-.34.6V50a.77.77,0,0,0,.34.61V51a.77.77,0,0,0-.34.61V61.81a.88.88,0,0,0,.94.81h7.2a.88.88,0,0,0,.94-.81h0V51.57A.74.74,0,0,0,73,51V50.6a.74.74,0,0,0,.34-.61V48.91a.73.73,0,0,0-.34-.6V48a.76.76,0,0,0,.34-.61V46h0A4,4,0,0,0,70.36,42.29Z"/><path d="M80.49,42.29V41.7H81v-.62h-.28V39.51H77.11v1.57h-.27v.62h.54v.59a4,4,0,0,0-3,3.66h0v1.38a.74.74,0,0,0,.34.61v.36a.73.73,0,0,0-.34.6V50a.74.74,0,0,0,.34.61V51a.77.77,0,0,0-.34.61V61.81a.88.88,0,0,0,.94.81h7.2a.88.88,0,0,0,.94-.81h0V51.57a.74.74,0,0,0-.34-.61V50.6a.74.74,0,0,0,.34-.61V48.91a.73.73,0,0,0-.34-.6V48a.76.76,0,0,0,.34-.61V46h0A4,4,0,0,0,80.49,42.29Z"/><polygon points="79.28 60.67 44.02 55.43 37.49 62.62 78.94 62.62 79.28 60.67"/></svg>