<svg xmlns="http://www.w3.org/2000/svg" viewBox="0 0 90.78 91.71"><rect x="0.5" y="0.5" width="89.78" height="90.71" rx="44.89" fill="#33f"/><path d="M45.39,91.21A44.89,44.89,0,0,1,.5,46.32v-.93a44.89,44.89,0,0,1,89.78,0v.93A44.89,44.89,0,0,1,45.39,91.21Z" fill="none" stroke="#1d1d1b" stroke-linecap="round" stroke-linejoin="round" stroke-dasharray="5.07 5.07"/><path d="M45.39,74.69v1.9A30.77,30.77,0,0,1,14.86,49.36l-2.51.15,3.26-3.66,3.65,3.27-2.5.14A28.73,28.73,0,0,0,45.39,74.69Z"/><path d="M75.92,42.34A30.77,30.77,0,0,0,45.39,15.12V17A28.73,28.73,0,0,1,74,42.45l-2.5.14,3.65,3.27,3.27-3.66Z"/><path d="M24.13,58.32a.69.69,0,0,0,.73.73h19.8V49.52H24.13Zm8.06-6.6h4.4a.7.7,0,0,1,.74.73.7.7,0,0,1-.74.74h-4.4a.7.7,0,0,1-.73-.74A.69.69,0,0,1,32.19,51.72Zm-8.06-3.67H44.66V40.72H24.13Zm8.06-5.13h4.4a.7.7,0,0,1,.74.73.7.7,0,0,1-.74.74h-4.4a.7.7,0,0,1-.73-.74A.69.69,0,0,1,32.19,42.92Zm-8.06-9.53v5.87H44.66v-6.6H24.86A.69.69,0,0,0,24.13,33.39Zm8.06,1.47h4.4a.73.73,0,1,1,0,1.46h-4.4a.73.73,0,0,1,0-1.46Z"/><path d="M46.13,59.05H66.66V32.66H46.13ZM63.72,40.72H49.06V39.26H63.72Zm0,13.2H49.06V43.65H63.72ZM62.26,34.71a1,1,0,0,1,1,1,1,1,0,1,1-1-1Zm-3.82,0a1,1,0,0,1,1,1,1,1,0,0,1-2,0A1,1,0,0,1,58.44,34.71Zm-3.74,0a1,1,0,0,1,1,1,1,1,0,1,1-1-1Zm-3.81,0a1.05,1.05,0,0,1,1,1,1,1,0,0,1-2.06,0A1.05,1.05,0,0,1,50.89,34.71Z"/></svg>