<svg xmlns="http://www.w3.org/2000/svg" viewBox="0 0 91.71 91.71"><rect x="0.5" y="0.5" width="90.71" height="90.71" rx="45.35" fill="#ff9a9a"/><path d="M45.85,91.21h0A45.36,45.36,0,0,1,45.85.5h0a45.36,45.36,0,1,1,0,90.71Z" fill="none" stroke="#1d1d1b" stroke-linecap="round" stroke-linejoin="round" stroke-dasharray="5.09 5.09"/><path d="M49,56.32a11,11,0,0,0,11,11c.39,0,.77,0,1.14,0v2a5,5,0,0,1-1.47,3.54,3.81,3.81,0,0,1-.36.33,4.93,4.93,0,0,1-3.19,1.14H30.88a4.93,4.93,0,0,1-3.19-1.14,3.81,3.81,0,0,1-.36-.33,5,5,0,0,1-1.47-3.54V29.93a5,5,0,0,1,4.93-5h1v2.36H55.52V24.92h.83a5,5,0,0,1,4.79,5v15.4A10.6,10.6,0,0,0,60,45.27,11,11,0,0,0,49,56.32Z" fill="none" stroke="#000" stroke-linecap="round" stroke-linejoin="round" stroke-width="2.87"/><path d="M61.14,67.3c-.37,0-.75,0-1.14,0a11,11,0,1,1,0-22.08,10.6,10.6,0,0,1,1.14.06" fill="none" stroke="#000" stroke-linecap="round" stroke-linejoin="round" stroke-width="2.87"/><path d="M65.85,53l-8.3,8.29L53.24,57l1.12-1.12,3.19,3.2,7.17-7.18Z" fill-rule="evenodd"/><text transform="translate(32.77 36.36)" font-size="4.75" stroke="#1d1d1b" stroke-miterlimit="10" stroke-width="0.5" font-family="AkkuratPro-Bold, Akkurat Pro" font-weight="700" letter-spacing="0.1em">TEA/<tspan x="12.44" y="0" letter-spacing="0.07em">L</tspan><tspan x="15.38" y="0" letter-spacing="0.09em">C</tspan><tspan x="18.77" y="0">A</tspan></text><text transform="translate(32.77 64.9)" font-size="4.75" stroke="#1d1d1b" stroke-miterlimit="10" stroke-width="0.5" font-family="AkkuratPro-Bold, Akkurat Pro" font-weight="700" letter-spacing="0.12em">C<tspan x="3.58" y="0" letter-spacing="0.1em">02</tspan></text><path d="M52.72,21H47.28A3.63,3.63,0,0,0,40,21H34.58A3.64,3.64,0,0,0,31,24.61h0v1.81h0v.92a.91.91,0,0,0,.91.9H55.45a.9.9,0,0,0,.9-.9V24.61A3.63,3.63,0,0,0,52.72,21Zm1.82,5.44H32.77V24.61a1.81,1.81,0,0,1,1.81-1.81h7.26V21a1.82,1.82,0,0,1,3.63,0V22.8h7.25a1.81,1.81,0,0,1,1.82,1.81Z"/><path d="M54.54,24.61v1.81H32.77V24.61a1.81,1.81,0,0,1,1.81-1.81h7.26V21a1.82,1.82,0,0,1,3.63,0V22.8h7.25A1.81,1.81,0,0,1,54.54,24.61Z" fill="none"/><line x1="33.42" y1="56.58" x2="48.96" y2="56.58" fill="none" stroke="#000" stroke-linecap="round" stroke-linejoin="round" stroke-width="1.71"/><line x1="33.42" y1="42.58" x2="53.58" y2="42.58" fill="none" stroke="#000" stroke-linecap="round" stroke-linejoin="round" stroke-width="1.71"/><line x1="33.42" y1="49.58" x2="51.26" y2="49.58" fill="none" stroke="#000" stroke-linecap="round" stroke-linejoin="round" stroke-width="1.71"/><line x1="47.06" y1="63.58" x2="51.69" y2="63.58" fill="none" stroke="#000" stroke-linecap="round" stroke-linejoin="round" stroke-width="1.71"/></svg>