<svg xmlns="http://www.w3.org/2000/svg" viewBox="0 0 283.46 283.46"><circle cx="141.73" cy="141.73" r="73.77" fill="#f07e20" stroke="#000" stroke-miterlimit="10" stroke-width="4"/><circle cx="141.73" cy="141.73" r="68.1" fill="none" stroke="#000" stroke-miterlimit="10" stroke-width="0.75" stroke-dasharray="2"/><path d="M158.66,121.1v0a13.45,13.45,0,0,1-4.42,10,10.2,10.2,0,0,0-2.44,3.37,10,10,0,0,0-.86,4.07v.32a1,1,0,0,1,.66,1v4a1,1,0,0,1-1,1h-1.07a4.23,4.23,0,0,1-8.13,0h-.83a1,1,0,0,1-1-1v-4a1,1,0,0,1,.63-.95v-.32a10,10,0,0,0-.86-4.08,10.2,10.2,0,0,0-2.44-3.37,13.45,13.45,0,0,1-4.42-10v0a13.46,13.46,0,0,1,13.09-13.43h.08a13.44,13.44,0,0,1,13.09,13.43Zm-2.17,0a11,11,0,1,0-21.92,0v0a11.28,11.28,0,0,0,3.7,8.35,12.23,12.23,0,0,1,3,4.1,12.09,12.09,0,0,1,1.05,4.95v.24h6.5v-.24a12.09,12.09,0,0,1,1.05-4.95,12.23,12.23,0,0,1,3-4.1,11.25,11.25,0,0,0,3.7-8.35v0Zm-16.61,1.8a5.87,5.87,0,0,0,4.14,5.61v4.56a.87.87,0,1,0,1.73,0V114S139.88,119.66,139.88,122.9Zm11.73,0c0-2.25-2.84-5.69-4.56-7.58v4.78l.7-.7a.65.65,0,0,1,.92.92l-1.62,1.62v2.63l2-2a.65.65,0,1,1,.92.92l-2.9,2.9v2.21A5.87,5.87,0,0,0,151.61,122.9Z"/><path d="M107.55,96.89v2.76h80.81v56.26H107.55v36.74H104.3V96.89Zm0,6v49.76h77.56V102.9Z" stroke="#1d1d1b" stroke-miterlimit="10" stroke-width="2"/></svg>