<svg xmlns="http://www.w3.org/2000/svg" viewBox="0 0 91.71 91.71"><rect x="0.5" y="0.5" width="90.71" height="90.71" rx="45.35" fill="#99f"/><path d="M45.85,91.21h0A45.36,45.36,0,0,1,45.85.5h0a45.36,45.36,0,1,1,0,90.71Z" fill="none" stroke="#1d1d1b" stroke-linecap="round" stroke-linejoin="round" stroke-dasharray="5.09 5.09"/><path d="M55.08,33v0a8.35,8.35,0,0,1-2.73,6.16,6.12,6.12,0,0,0-1.51,2.09,6.22,6.22,0,0,0-.53,2.52V44a.64.64,0,0,1,.41.6v2.46a.65.65,0,0,1-.65.64h-.66a2.62,2.62,0,0,1-5,0h-.52a.64.64,0,0,1-.64-.64V44.62a.65.65,0,0,1,.39-.6v-.19a6.2,6.2,0,0,0-2-4.61,8.29,8.29,0,0,1-2.73-6.16v0a8.3,8.3,0,0,1,8.09-8.31H47A8.3,8.3,0,0,1,55.08,33Zm-1.34,0a6.78,6.78,0,1,0-13.56,0v0a7,7,0,0,0,2.29,5.17A7.55,7.55,0,0,1,45,43.83V44h4v-.14a7.55,7.55,0,0,1,2.48-5.6,7,7,0,0,0,2.29-5.17v0ZM43.47,34.15A3.63,3.63,0,0,0,46,37.62v2.82a.54.54,0,1,0,1.07,0V28.63S43.47,32.15,43.47,34.15Zm7.25,0c0-1.39-1.75-3.52-2.82-4.69v3l.43-.44a.42.42,0,0,1,.57,0,.4.4,0,0,1,0,.57l-1,1v1.63L49.12,34a.4.4,0,0,1,.57.57L47.9,36.32v1.37A3.64,3.64,0,0,0,50.72,34.15Z"/><path d="M23.47,18.06v1.71h50v34.8h-50V77.29h-2V18.06Zm0,3.72V52.55h48V21.78Z" stroke="#000" stroke-miterlimit="10" stroke-width="2"/></svg>