<svg xmlns="http://www.w3.org/2000/svg" viewBox="0 0 91.71 91.71"><rect x="0.5" y="0.5" width="90.71" height="90.71" rx="45.35" fill="#ff9a9a"/><path d="M45.85,91.21h0A45.36,45.36,0,0,1,45.85.5h0a45.36,45.36,0,1,1,0,90.71Z" fill="none" stroke="#1d1d1b" stroke-linecap="round" stroke-linejoin="round" stroke-dasharray="5.09 5.09"/><path d="M29.43,21.13a30,30,0,0,1,9.73-4.31" fill="none" stroke="#000" stroke-miterlimit="10" stroke-width="0.75" stroke-dasharray="2"/><path d="M16.67,40.55a29.61,29.61,0,0,1,3-8.63" fill="none" stroke="#000" stroke-miterlimit="10" stroke-width="0.75" stroke-dasharray="2"/><path d="M20.25,61.3a29.92,29.92,0,0,1-2.9-6.77" fill="none" stroke="#000" stroke-miterlimit="10" stroke-width="0.75" stroke-dasharray="2"/><path d="M39.12,75.39a29.59,29.59,0,0,1-8.85-3.75" fill="none" stroke="#000" stroke-miterlimit="10" stroke-width="0.75" stroke-dasharray="2"/><path d="M62.32,71.64a29.76,29.76,0,0,1-8.86,3.75" fill="none" stroke="#000" stroke-miterlimit="10" stroke-width="0.75" stroke-dasharray="2"/><path d="M75.07,55.07a29.69,29.69,0,0,1-2.74,6.23" fill="none" stroke="#000" stroke-miterlimit="10" stroke-width="0.75" stroke-dasharray="2"/><path d="M72.79,31.75a29.93,29.93,0,0,1,3.1,8.66" fill="none" stroke="#000" stroke-miterlimit="10" stroke-width="0.75" stroke-dasharray="2"/><path d="M53.42,16.82a29.94,29.94,0,0,1,9.73,4.31" fill="none" stroke="#000" stroke-miterlimit="10" stroke-width="0.75" stroke-dasharray="2"/><path d="M58.48,56.77,52.56,47s0,0,0,0l-1.38-2.27a5.6,5.6,0,0,1-.83-3V31.13h.88a.61.61,0,0,0,0-1.22H41.36a.61.61,0,0,0,0,1.22h.88V41.79a5.68,5.68,0,0,1-.82,3L40,47s0,0,0,0L34.1,56.77a1.63,1.63,0,0,0,1.4,2.46H57.09a1.59,1.59,0,0,0,1.41-.83A1.57,1.57,0,0,0,58.48,56.77Zm-16.86-10,.84-1.37a7,7,0,0,0,1-3.59V31.13h5.66V41.79a7,7,0,0,0,1,3.59L51,46.75Z"/><line x1="46.29" y1="23.85" x2="46.29" y2="31.02" fill="none" stroke="#000" stroke-miterlimit="10" stroke-width="0.25" stroke-dasharray="2"/><line x1="46.29" y1="59.23" x2="46.29" y2="67.86" fill="none" stroke="#000" stroke-miterlimit="10" stroke-width="0.25" stroke-dasharray="2"/><line x1="24.03" y1="47.74" x2="41.84" y2="47.74" fill="none" stroke="#000" stroke-miterlimit="10" stroke-width="0.25" stroke-dasharray="2"/><line x1="68.55" y1="47.74" x2="52" y2="47.74" fill="none" stroke="#000" stroke-miterlimit="10" stroke-width="0.25" stroke-dasharray="2"/><line x1="42.99" y1="44.09" x2="29.14" y2="31.4" fill="none" stroke="#000" stroke-miterlimit="10" stroke-width="0.25" stroke-dasharray="2"/><line x1="63.31" y1="62.69" x2="49.46" y2="50" fill="none" stroke="#000" stroke-miterlimit="10" stroke-width="0.25" stroke-dasharray="2"/><line x1="49.99" y1="43.32" x2="62.91" y2="31.47" fill="none" stroke="#000" stroke-miterlimit="10" stroke-width="0.25" stroke-dasharray="2"/><line x1="29.4" y1="62.27" x2="42.33" y2="50.43" fill="none" stroke="#000" stroke-miterlimit="10" stroke-width="0.25" stroke-dasharray="2"/><path d="M46.29,8.09a7.87,7.87,0,0,0-6,12.93l0,0,.37.42.47.43.1.1A7.88,7.88,0,1,0,46.29,8.09Zm0,14.45a6.52,6.52,0,0,1-3.94-1.33,3.94,3.94,0,0,1,7.88,0A6.52,6.52,0,0,1,46.29,22.54Zm-2-8.54a2,2,0,1,1,2,2A2,2,0,0,1,44.32,14Zm7.09,6.07a5.31,5.31,0,0,0-2.95-3.63,3.29,3.29,0,1,0-4.34,0,5.26,5.26,0,0,0-2.95,3.63A6.5,6.5,0,0,1,39.72,16a6.57,6.57,0,1,1,11.69,4.1Z"/><path d="M46.29,67.86a7.86,7.86,0,0,0-6,12.92l0,0,.37.42.47.43.1.09a7.88,7.88,0,1,0,5.07-13.9Zm0,14.44A6.52,6.52,0,0,1,42.35,81a3.94,3.94,0,0,1,7.88,0A6.52,6.52,0,0,1,46.29,82.3Zm-2-8.54a2,2,0,1,1,2,2A2,2,0,0,1,44.32,73.76Zm7.09,6.07a5.3,5.3,0,0,0-2.95-3.62,3.29,3.29,0,1,0-4.34,0,5.25,5.25,0,0,0-2.95,3.62,6.48,6.48,0,0,1-1.45-4.1,6.57,6.57,0,1,1,11.69,4.1Z"/><path d="M16.15,39.86a7.88,7.88,0,0,0-7.88,7.88,7.78,7.78,0,0,0,1.84,5l0,0,.37.42.47.43.1.09a7.88,7.88,0,1,0,5.07-13.9Zm0,14.44A6.51,6.51,0,0,1,12.21,53a3.94,3.94,0,0,1,7.88,0A6.51,6.51,0,0,1,16.15,54.3Zm-2-8.53a2,2,0,1,1,2,2A2,2,0,0,1,14.18,45.77Zm7.09,6.07a5.27,5.27,0,0,0-2.95-3.63,3.25,3.25,0,0,0,1.11-2.44,3.28,3.28,0,1,0-6.56,0A3.25,3.25,0,0,0,14,48.21a5.24,5.24,0,0,0-3,3.63,6.57,6.57,0,1,1,10.24,0Z"/><path d="M24,18.08A7.87,7.87,0,0,0,18,31l0,0,.37.42.47.43L19,32A7.88,7.88,0,1,0,24,18.08Zm0,14.45a6.52,6.52,0,0,1-3.94-1.33,3.94,3.94,0,0,1,7.88,0A6.52,6.52,0,0,1,24,32.53Zm-2-8.54a2,2,0,1,1,2,2A2,2,0,0,1,22.06,24Zm7.09,6.07a5.3,5.3,0,0,0-2.95-3.62,3.28,3.28,0,1,0-4.34,0,5.25,5.25,0,0,0-2.95,3.62,6.56,6.56,0,1,1,10.24,0Z"/><path d="M68.55,18.08a7.87,7.87,0,0,0-6,12.93l0,0,.37.42.47.43.1.09a7.88,7.88,0,1,0,5.07-13.91Zm0,14.45a6.52,6.52,0,0,1-3.94-1.33,3.94,3.94,0,0,1,7.87,0A6.49,6.49,0,0,1,68.55,32.53Zm-2-8.54a2,2,0,1,1,2,2A2,2,0,0,1,66.58,24Zm7.09,6.07a5.3,5.3,0,0,0-3-3.62,3.29,3.29,0,1,0-4.34,0,5.28,5.28,0,0,0-3,3.62,6.57,6.57,0,1,1,10.25,0Z"/><path d="M75.55,40.08a7.87,7.87,0,0,0-6,12.93l0,0,.37.42.47.43.1.09a7.88,7.88,0,1,0,5.07-13.91Zm0,14.45a6.52,6.52,0,0,1-3.94-1.33,3.94,3.94,0,0,1,7.87,0A6.49,6.49,0,0,1,75.55,54.53Zm-2-8.54a2,2,0,1,1,2,2A2,2,0,0,1,73.58,46Zm7.09,6.07a5.3,5.3,0,0,0-3-3.62,3.29,3.29,0,1,0-4.34,0,5.28,5.28,0,0,0-3,3.62,6.57,6.57,0,1,1,10.25,0Z"/><path d="M24,60A7.86,7.86,0,0,0,18,72.9l0,0,.37.42.47.43.1.09A7.88,7.88,0,1,0,24,60Zm0,14.44a6.57,6.57,0,0,1-3.94-1.32,3.94,3.94,0,0,1,7.88,0A6.57,6.57,0,0,1,24,74.42Zm-2-8.53a2,2,0,1,1,2,2A2,2,0,0,1,22.06,65.89ZM29.15,72a5.3,5.3,0,0,0-2.95-3.62,3.25,3.25,0,0,0,1.11-2.44,3.28,3.28,0,1,0-6.56,0,3.25,3.25,0,0,0,1.11,2.44A5.25,5.25,0,0,0,18.91,72a6.56,6.56,0,1,1,10.24,0Z"/><path d="M68.55,60a7.86,7.86,0,0,0-6,12.92l0,0,.37.42.47.43.08.08h0A7.88,7.88,0,1,0,68.55,60Zm0,14.44a6.57,6.57,0,0,1-3.94-1.32,3.94,3.94,0,0,1,7.87,0A6.54,6.54,0,0,1,68.55,74.42Zm-2-8.53a2,2,0,1,1,2,2A2,2,0,0,1,66.58,65.89ZM73.67,72a5.3,5.3,0,0,0-3-3.62,3.29,3.29,0,1,0-4.34,0,5.28,5.28,0,0,0-3,3.62A6.5,6.5,0,0,1,62,67.86a6.57,6.57,0,1,1,13.13,0A6.5,6.5,0,0,1,73.67,72Z"/></svg>