<svg xmlns="http://www.w3.org/2000/svg" viewBox="0 0 283.46 283.46"><circle cx="141.73" cy="141.73" r="73.77" fill="none" stroke="#000" stroke-miterlimit="10" stroke-width="4"/><circle cx="141.73" cy="141.73" r="68.11" fill="none" stroke="#000" stroke-miterlimit="10" stroke-width="0.75" stroke-dasharray="2"/><circle cx="141.73" cy="142.12" r="45.9" fill="none" stroke="#000" stroke-miterlimit="10" stroke-width="0.75" stroke-dasharray="2"/><path d="M132.53,103.91l.05,0" fill="#010101"/><path d="M134,105.38l0,0-.16-.14-.72-.66-.61-.69A12.06,12.06,0,1,1,134,105.4" fill="#010101"/><path d="M135.73,104.2a6,6,0,0,1,12,0,9.92,9.92,0,0,1-12,0Z" fill="#fff"/><circle cx="141.73" cy="93.22" r="3" fill="#fff"/><path d="M141.73,86.22a10,10,0,0,1,10,10,9.9,9.9,0,0,1-2.2,6.24A8,8,0,0,0,145,96.94a4.94,4.94,0,0,0,1.69-3.72,5,5,0,1,0-8.3,3.72,8.05,8.05,0,0,0-4.5,5.52,10,10,0,0,1,7.8-16.24Z" fill="#fff"/><path d="M132.53,194.93l.05,0" fill="#010101"/><path d="M134,196.4l0,0-.16-.14-.72-.65-.61-.7a12.06,12.06,0,1,1,1.49,1.49" fill="#010101"/><path d="M135.73,195.23a6,6,0,0,1,12,0,10,10,0,0,1-12,0Z" fill="#fff"/><circle cx="141.73" cy="184.24" r="3" fill="#fff"/><path d="M141.73,177.24a10,10,0,0,1,7.8,16.25A8,8,0,0,0,145,188a5,5,0,1,0-6.61,0,8,8,0,0,0-4.5,5.52,10,10,0,0,1,7.8-16.25Z" fill="#fff"/><path d="M178.43,152.29l0,.05" fill="#010101"/><path d="M179.89,153.76l0,0-.16-.14L179,153l-.61-.7a12.06,12.06,0,1,1,1.49,1.49" fill="#010101"/><path d="M181.63,152.58a6,6,0,0,1,12,0,9.92,9.92,0,0,1-12,0Z" fill="#fff"/><circle cx="187.63" cy="141.6" r="3" fill="#fff"/><path d="M187.63,134.6a10,10,0,0,1,7.8,16.25,8,8,0,0,0-4.49-5.52,5,5,0,1,0-6.61,0,8,8,0,0,0-4.5,5.52,10,10,0,0,1,7.8-16.25Z" fill="#fff"/><path d="M86.63,152.29l.05.05" fill="#010101"/><path d="M88.09,153.76l0,0-.16-.14-.72-.65-.61-.7a12.06,12.06,0,1,1,1.49,1.49" fill="#010101"/><path d="M89.83,152.58a6,6,0,0,1,12,0,9.92,9.92,0,0,1-12,0Z" fill="#fff"/><circle cx="95.83" cy="141.6" r="3" fill="#fff"/><path d="M95.83,134.6a10,10,0,0,1,7.8,16.25,8,8,0,0,0-4.49-5.52,5,5,0,1,0-6.61,0,8,8,0,0,0-4.5,5.52,10,10,0,0,1,7.8-16.25Z" fill="#fff"/><path d="M98.63,119.13l.05.05" fill="#010101"/><path d="M100.09,120.6l0,0-.16-.14-.72-.66-.61-.69a12.06,12.06,0,1,1,1.49,1.49" fill="#010101"/><path d="M101.83,119.42a6,6,0,0,1,12,0,9.92,9.92,0,0,1-12,0Z" fill="#fff"/><circle cx="107.83" cy="108.44" r="3" fill="#fff"/><path d="M107.83,101.44a10,10,0,0,1,7.8,16.24,8,8,0,0,0-4.49-5.52,4.94,4.94,0,0,0,1.69-3.72,5,5,0,1,0-8.3,3.72,8.05,8.05,0,0,0-4.5,5.52,10,10,0,0,1,7.8-16.24Z" fill="#fff"/><path d="M166.43,119.13l0,.05" fill="#010101"/><path d="M167.89,120.6l0,0-.16-.14-.72-.66-.61-.69a12.06,12.06,0,1,1,1.49,1.49" fill="#010101"/><path d="M169.63,119.42a6,6,0,0,1,12,0,9.92,9.92,0,0,1-12,0Z" fill="#fff"/><circle cx="175.63" cy="108.44" r="3" fill="#fff"/><path d="M175.63,101.44a10,10,0,0,1,10,10,9.9,9.9,0,0,1-2.2,6.24,8,8,0,0,0-4.49-5.52,4.94,4.94,0,0,0,1.69-3.72,5,5,0,1,0-8.3,3.72,8.05,8.05,0,0,0-4.5,5.52,10,10,0,0,1,7.8-16.24Z" fill="#fff"/><path d="M98.63,182.93l.05,0" fill="#010101"/><path d="M100.09,184.4l0,0-.16-.14-.72-.65-.61-.7a12.06,12.06,0,1,1,1.49,1.49" fill="#010101"/><path d="M101.83,183.23a6,6,0,0,1,12,0,10,10,0,0,1-12,0Z" fill="#fff"/><circle cx="107.83" cy="172.24" r="3" fill="#fff"/><path d="M107.83,165.24a10,10,0,0,1,7.8,16.25,8,8,0,0,0-4.49-5.52,5,5,0,1,0-6.61,0,8,8,0,0,0-4.5,5.52,10,10,0,0,1,7.8-16.25Z" fill="#fff"/><path d="M166.43,182.93l0,0" fill="#010101"/><path d="M167.89,184.4l0,0-.16-.14-.72-.65-.61-.7a12.06,12.06,0,1,1,1.49,1.49" fill="#010101"/><path d="M169.63,183.23a6,6,0,0,1,12,0,10,10,0,0,1-12,0Z" fill="#fff"/><circle cx="175.63" cy="172.24" r="3" fill="#fff"/><path d="M175.63,165.24a10,10,0,0,1,7.8,16.25,8,8,0,0,0-4.49-5.52,5,5,0,1,0-6.61,0,8,8,0,0,0-4.5,5.52,10,10,0,0,1,7.8-16.25Z" fill="#fff"/><path d="M160.3,158.35l-9-14.83,0,0-2.1-3.47a8.59,8.59,0,0,1-1.26-4.5V119.3h1.34a.93.93,0,1,0,0-1.86h-15a.93.93,0,1,0,0,1.86h1.34v16.23a8.67,8.67,0,0,1-1.25,4.5l-2.11,3.47s0,0,0,0l-9,14.83a2.42,2.42,0,0,0,0,2.49,2.46,2.46,0,0,0,2.16,1.27h32.88a2.49,2.49,0,0,0,2.13-3.76ZM134.62,143.1l1.28-2.1a10.58,10.58,0,0,0,1.52-5.47V119.3H146v16.23a10.5,10.5,0,0,0,1.53,5.47l1.27,2.1Z" fill="#010101"/><line x1="141.73" y1="108.22" x2="141.73" y2="119.13" fill="none" stroke="#010101" stroke-miterlimit="10" stroke-width="0.25" stroke-dasharray="2"/><line x1="141.73" y1="162.11" x2="141.73" y2="175.24" fill="none" stroke="#010101" stroke-miterlimit="10" stroke-width="0.25" stroke-dasharray="2"/><line x1="107.83" y1="144.6" x2="134.96" y2="144.6" fill="none" stroke="#010101" stroke-miterlimit="10" stroke-width="0.25" stroke-dasharray="2"/><line x1="175.63" y1="144.6" x2="150.43" y2="144.6" fill="none" stroke="#010101" stroke-miterlimit="10" stroke-width="0.25" stroke-dasharray="2"/><line x1="136.71" y1="139.03" x2="115.61" y2="119.71" fill="none" stroke="#010101" stroke-miterlimit="10" stroke-width="0.25" stroke-dasharray="2"/><line x1="167.65" y1="167.37" x2="146.55" y2="148.05" fill="none" stroke="#010101" stroke-miterlimit="10" stroke-width="0.25" stroke-dasharray="2"/><line x1="147.36" y1="137.86" x2="167.04" y2="119.82" fill="none" stroke="#010101" stroke-miterlimit="10" stroke-width="0.25" stroke-dasharray="2"/><line x1="116.01" y1="166.73" x2="135.69" y2="148.69" fill="none" stroke="#010101" stroke-miterlimit="10" stroke-width="0.25" stroke-dasharray="2"/></svg>