<svg xmlns="http://www.w3.org/2000/svg" viewBox="0 0 283.46 283.46"><circle cx="141.73" cy="141.73" r="73.77" fill="#d27ab0" stroke="#000" stroke-miterlimit="10" stroke-width="4"/><circle cx="141.73" cy="141.73" r="68.11" fill="none" stroke="#000" stroke-miterlimit="10" stroke-width="0.75" stroke-dasharray="2"/><line x1="100.97" y1="157.43" x2="183.97" y2="158.01" fill="none" stroke="#1d1d1b" stroke-miterlimit="10" stroke-width="8"/><path d="M109.54,136.38l8.55,1.86-2.43,2.95V143a.62.62,0,1,1-1.24,0v-1.8h-1.58V143a.62.62,0,0,1-1.24,0v-1.8h-1.84l1,8.07h-2l-2-8.07,0-1.24Zm17.35,2-1.4,10.9h2l2.08-8.94-1.05-2Zm24.28-.4h-5l-9-17.22a4,4,0,0,0-3.58-2.17H102.72a3.23,3.23,0,0,0-3.23,3.23v15.34h1.62V121.83a1.62,1.62,0,0,1,1.61-1.62v7.32l.81,5.6-.81,4.85.81,11.3h2v-9.69l3.5-4.56,9.82,2.14h10.56l2.12,4,.85,8.07h2V137.17l11.5,12.11h1.69a1.34,1.34,0,0,0,1.34-1.34V140.2Z" fill="#010101"/><path d="M183.11,154.13H166.67v-6.46c1.55.61,4.39-.82,6.74-3.53,2.61-3,3.61-6.4,2.23-7.6s-4.61.26-7.22,3.26a14.65,14.65,0,0,0-1.75,2.51v-5.66c1.55.61,4.39-.82,6.74-3.53,2.61-3,3.61-6.41,2.23-7.6s-4.61.26-7.22,3.26a14.65,14.65,0,0,0-1.75,2.51v-5.67c1.55.62,4.39-.82,6.74-3.52,2.61-3,3.61-6.41,2.23-7.61s-4.61.27-7.22,3.27a14.65,14.65,0,0,0-1.75,2.51V99.62a1.53,1.53,0,0,0-3.06,0v20.9a14.08,14.08,0,0,0-1.88-2.76c-2.61-3-5.84-4.46-7.22-3.27s-.38,4.61,2.23,7.61c2.42,2.78,5.36,4.22,6.87,3.45v6a14.14,14.14,0,0,0-1.88-2.77c-2.61-3-5.84-4.46-7.22-3.26s-.38,4.6,2.23,7.6c2.42,2.79,5.36,4.22,6.87,3.45v6a14.44,14.44,0,0,0-1.88-2.77c-2.61-3-5.84-4.46-7.22-3.26s-.38,4.6,2.23,7.6c2.42,2.79,5.36,4.22,6.87,3.46v6.53h-16a1.53,1.53,0,1,0,0,3.05h16v6.41H155.2l-3.68,7.46A4.34,4.34,0,0,0,151,171a4.24,4.24,0,1,0,4.24,4.24,4.18,4.18,0,0,0-1-2.73l2.89-5.87h6.51v10.53a4.22,4.22,0,1,0,3.06,0V166.64h6l3.23,5.9a4.22,4.22,0,1,0,3.24-1.54,3.68,3.68,0,0,0-.57.06l-4.09-7.47h-7.83v-6.41h16.44M157,110.11V105a1.53,1.53,0,1,0-3,0v5.14a1.53,1.53,0,1,0,3,0m4.86,2.06V101.89a1.53,1.53,0,1,0-3.05,0v10.28a1.53,1.53,0,0,0,3.05,0m14.58-2.06V105a1.53,1.53,0,1,0-3,0v5.14a1.53,1.53,0,1,0,3,0m-6.39,3.58a1.52,1.52,0,0,1-1.52-1.52V101.89a1.53,1.53,0,1,1,3.05,0v10.28a1.52,1.52,0,0,1-1.53,1.52"/></svg>