<svg xmlns="http://www.w3.org/2000/svg" viewBox="0 0 91.71 91.71"><rect x="0.5" y="0.5" width="90.71" height="90.71" rx="45.35" fill="#33f"/><path d="M45.85,91.21A45.36,45.36,0,0,1,.5,45.85h0a45.36,45.36,0,0,1,90.71,0h0A45.36,45.36,0,0,1,45.85,91.21Z" fill="none" stroke="#1d1d1b" stroke-linecap="round" stroke-linejoin="round" stroke-dasharray="5.09 5.09"/><line x1="19.09" y1="56.16" x2="73.59" y2="56.54" fill="none" stroke="#000" stroke-miterlimit="10" stroke-width="5"/><path d="M24.72,42.34l5.61,1.22-1.6,1.94v1.19a.41.41,0,1,1-.81,0V45.51h-1v1.18a.41.41,0,1,1-.81,0V45.51H24.86l.68,5.3H24.22l-1.3-5.3,0-.81Zm11.39,1.31-.92,7.16h1.32l1.36-5.87-.69-1.29Zm15.94-.26H48.74L42.85,32.09a2.64,2.64,0,0,0-2.35-1.43H20.24a2.12,2.12,0,0,0-2.12,2.12V42.86h1.06V32.78a1.07,1.07,0,0,1,1.06-1.06v4.81l.53,3.68-.53,3.18.53,7.42H22.1V44.45l2.29-3,6.46,1.41h6.93l1.39,2.65.56,5.3h1.32v-8l7.56,8h1.1a.87.87,0,0,0,.88-.88V44.85Z"/><path d="M73,54H62.23V49.75c1,.4,2.88-.54,4.42-2.31,1.72-2,2.37-4.21,1.47-5s-3,.17-4.74,2.14a9.3,9.3,0,0,0-1.15,1.65V42.51c1,.41,2.88-.53,4.42-2.31,1.72-2,2.37-4.21,1.47-5s-3,.17-4.74,2.14A9.3,9.3,0,0,0,62.23,39V35.28c1,.4,2.88-.54,4.42-2.32,1.72-2,2.37-4.2,1.47-5s-3,.17-4.74,2.15a9.62,9.62,0,0,0-1.15,1.64V18.21a1,1,0,1,0-2,0V31.93A9,9,0,0,0,59,30.12c-1.71-2-3.83-2.94-4.74-2.15s-.25,3,1.47,5,3.52,2.77,4.51,2.27v3.94A9.33,9.33,0,0,0,59,37.35c-1.71-2-3.83-2.93-4.74-2.14s-.25,3,1.47,5,3.52,2.77,4.51,2.27V46.4A9.28,9.28,0,0,0,59,44.59c-1.71-2-3.83-2.93-4.74-2.14s-.25,3,1.47,5,3.52,2.77,4.51,2.26V54H49.74a1,1,0,0,0,0,2H60.22v4.2H54.7l-2.42,4.91a2,2,0,0,0-.34,0,2.81,2.81,0,1,0,2.11,1l1.89-3.85h4.28v6.91a2.77,2.77,0,1,0,2,0V62.21h4l2.12,3.87a2.77,2.77,0,1,0,2.13-1,2.45,2.45,0,0,0-.38,0L67.37,60.2H62.23V56H73M55.89,25.09V21.72a1,1,0,0,0-2,0v3.37a1,1,0,1,0,2,0m3.19,1.35V19.69a1,1,0,0,0-2,0v6.75a1,1,0,1,0,2,0m9.57-1.35V21.72a1,1,0,0,0-2,0v3.37a1,1,0,1,0,2,0m-4.19,2.36a1,1,0,0,1-1-1V19.69a1,1,0,0,1,2,0v6.75a1,1,0,0,1-1,1"/></svg>