<svg xmlns="http://www.w3.org/2000/svg" viewBox="0 0 91.71 91.71"><rect x="0.5" y="0.5" width="90.71" height="90.71" rx="45.35" fill="#99f"/><path d="M45.85,91.21A45.36,45.36,0,0,1,.5,45.85h0a45.36,45.36,0,0,1,90.71,0h0A45.36,45.36,0,0,1,45.85,91.21Z" fill="none" stroke="#1d1d1b" stroke-linecap="round" stroke-linejoin="round" stroke-dasharray="5.09 5.09"/><path d="M57.07,48.13c.49-1.49,1.28-4.49,2.44-6L36.18,28.55c-.45,1.29-1.78,4.41-4.51,5.81-3.49,1.78-7.93.07-7.93.07s1.22-4.6,4.7-6.38a9.48,9.48,0,0,1,5.81-.63l-1.88-1.09c-1.1-.36-4.55-1.68-6-4.59-1.78-3.49-.07-7.93-.07-7.93s4.61,1.21,6.39,4.7a8.47,8.47,0,0,1,.79,4.34l19.8,11.56-2-6.2a5,5,0,0,1-3.38.34,5.54,5.54,0,0,1-2.83-2.78A5.51,5.51,0,0,1,49,25.18a4.11,4.11,0,0,1,1.69,1.12l-1.38-4.42A.89.89,0,1,1,51,21.35l2,6.31a3,3,0,0,1,.15-.88A5.5,5.5,0,0,1,55.91,24a5.53,5.53,0,0,1,.59,3.91,5.23,5.23,0,0,1-2.6,2.74l1.61,5.13L73,46l-2.54-8.1a5,5,0,0,1-3.38.34,5.5,5.5,0,0,1-2.83-2.78,5.49,5.49,0,0,1,3.92-.59,4.18,4.18,0,0,1,1.69,1.12l-1.39-4.42a.9.9,0,0,1,.58-1.11.88.88,0,0,1,1.11.58l2,6.31a3.86,3.86,0,0,1,.15-.88,5.58,5.58,0,0,1,2.78-2.83,5.54,5.54,0,0,1,.6,3.92,5.23,5.23,0,0,1-2.6,2.74l2.21,7,4.37,2.55-1.1,3.41L61.05,43c-1.33,1.61-2.19,4.69-2.48,5.6l0,.06"/><path d="M28.81,66c0-.17,0,.19,0,0Z"/><path d="M29.23,64.27Z"/><path d="M39.59,49.77h0a1.9,1.9,0,0,1-.45,3.38c-.07,0-7.1,3.13-10.63,4.92a6.74,6.74,0,0,1,2.67-2.58c2.48-1.41,4-2.27,5.13-3l1.53-.89A4.11,4.11,0,0,0,39.59,49.77Z"/><path d="M38.44,48a2.2,2.2,0,0,1-1.27,2.47l-1.53.88c-1.16.68-2.64,1.55-5.12,3,0,0-3,1.72-3.54,4a6.61,6.61,0,0,0,.78,5.38,3.76,3.76,0,0,0,2.92,1.83c.9.08,2.45-.63,4.74-1.75a17.92,17.92,0,0,1,3.17-1.37c1.35-.22,2.48,1,3.2,2.34-1.36.82-5.16,3.13-8.94,5.71-1.5,1-2.74,2-3.83,2.92a21.67,21.67,0,0,1-3.71,2.66c-2.6,1.33-6.54,1.7-8.11,1.79h-.08l-5.06-8a19.18,19.18,0,0,0,5.7-5.51,43.73,43.73,0,0,0,2.85-4.93,32.69,32.69,0,0,1,3.88-6.26c.71-.6,11-6.08,11.52-6.3A1.94,1.94,0,0,1,38.44,48Z"/><path d="M28.1,59.79C30,58.72,35.6,56.19,38.26,55a1.91,1.91,0,0,1-1.14,2.31,89.45,89.45,0,0,0-8.94,4A3.08,3.08,0,0,1,28.1,59.79Z"/><path d="M28.87,63a5.05,5.05,0,0,1-.25-.45c2.84-1.5,5.8-2.76,7.53-3.46A1.74,1.74,0,0,1,35,61.31s-2.58,1.09-5.43,2.44A2.38,2.38,0,0,1,28.87,63Z"/><path d="M54,46.28a6.37,6.37,0,0,0-1.45.86,7.31,7.31,0,0,0-2,3.08,9.74,9.74,0,0,0-3.9-.63,3.56,3.56,0,0,0-1.32.29A4.75,4.75,0,0,0,43,56.26c1.17,2.85,5.28,4.36,8.28,5.47l.48.18a32.7,32.7,0,0,1,3.95,1.72.39.39,0,0,0,.36,0h0a.42.42,0,0,0,.24-.28,32,32,0,0,1,1.6-4l.21-.44c1.36-2.9,3.23-6.87,2.05-9.73S56.51,45.24,54,46.28Z"/></svg>