<svg xmlns="http://www.w3.org/2000/svg" viewBox="0 0 91.71 91.71"><rect x="0.5" y="0.5" width="90.71" height="90.71" rx="45.35" fill="#ff9a9a"/><path d="M45.85,91.21h0A45.36,45.36,0,0,1,45.85.5h0a45.36,45.36,0,1,1,0,90.71Z" fill="none" stroke="#1d1d1b" stroke-linecap="round" stroke-linejoin="round" stroke-dasharray="5.09 5.09"/><polygon points="35.68 39.93 33.92 39.93 33.92 65.12 58.27 65.12 58.27 63.3 35.68 63.3 35.68 39.93"/><line x1="38.59" y1="43.59" x2="48.62" y2="54" fill="none" stroke="#000" stroke-miterlimit="10" stroke-width="4"/><polygon points="43.09 56.89 54.59 60.2 51.71 48.59 43.09 56.89"/><text transform="translate(44.24 42.46)" font-size="7.22" stroke="#1d1d1b" stroke-miterlimit="10" stroke-width="0.5" font-family="AkkuratPro-Bold, Akkurat Pro" font-weight="700" letter-spacing="0.1em">CO2</text><path d="M62.18,27.71H58.55a3.63,3.63,0,0,0-3.62-3.63H49.48a3.63,3.63,0,1,0-7.25,0H36.78a3.64,3.64,0,0,0-3.63,3.63H29.53a1.81,1.81,0,0,0-1.82,1.82V69.44a1.81,1.81,0,0,0,1.82,1.81H62.18A1.81,1.81,0,0,0,64,69.44V29.53A1.81,1.81,0,0,0,62.18,27.71ZM35,27.71a1.81,1.81,0,0,1,1.81-1.81H44V24.08a1.82,1.82,0,0,1,3.63,0V25.9h7.26a1.81,1.81,0,0,1,1.81,1.81v1.82H35ZM62.18,69.44H29.53V29.53h3.62v.9a.91.91,0,0,0,.91.91H57.65a.9.9,0,0,0,.9-.91v-.9h3.63Z"/></svg>