<svg xmlns="http://www.w3.org/2000/svg" viewBox="0 0 283.46 283.46"><circle cx="141.73" cy="141.73" r="73.77" fill="#f29f9c" stroke="#000" stroke-miterlimit="10" stroke-width="4"/><circle cx="141.73" cy="141.73" r="68.11" fill="none" stroke="#000" stroke-miterlimit="10" stroke-width="0.75" stroke-dasharray="2"/><polygon points="126.23 132.71 123.55 132.71 123.55 171.08 160.65 171.08 160.65 168.3 126.23 168.3 126.23 132.71"/><line x1="130.67" y1="138.28" x2="149.06" y2="157.38" fill="none" stroke="#000" stroke-miterlimit="10" stroke-width="4"/><polygon points="143.54 160.27 155.04 163.59 152.16 151.97 143.54 160.27"/><text transform="translate(139.27 136.57)" font-size="11" stroke="#1d1d1b" stroke-miterlimit="10" stroke-width="0.5" font-family="AkkuratPro-Bold, Akkurat Pro" font-weight="700" letter-spacing="0.1em">CO2</text><path d="M166.6,114.1h-5.52a5.54,5.54,0,0,0-5.53-5.53h-8.29a5.53,5.53,0,0,0-11,0h-8.29a5.53,5.53,0,0,0-5.53,5.53h-5.53a2.77,2.77,0,0,0-2.76,2.76v60.79a2.77,2.77,0,0,0,2.76,2.77H166.6a2.77,2.77,0,0,0,2.77-2.77V116.86A2.77,2.77,0,0,0,166.6,114.1Zm-41.45,0a2.77,2.77,0,0,1,2.77-2.76h11v-2.77a2.77,2.77,0,0,1,5.53,0v2.77h11.05a2.77,2.77,0,0,1,2.76,2.76v2.76H125.15Zm41.45,63.55H116.86V116.86h5.53v1.38a1.38,1.38,0,0,0,1.38,1.39h35.92a1.39,1.39,0,0,0,1.39-1.39v-1.38h5.52Z"/></svg>