<svg xmlns="http://www.w3.org/2000/svg" viewBox="0 0 283.46 283.46"><circle cx="141.73" cy="141.73" r="73.77" fill="none" stroke="#000" stroke-miterlimit="10" stroke-width="4"/><circle cx="141.73" cy="141.73" r="68.11" fill="none" stroke="#000" stroke-miterlimit="10" stroke-width="0.75" stroke-dasharray="2"/><path d="M174.08,137A20,20,0,1,0,156,108.56l-5.34-2a8.67,8.67,0,0,0,.11-1.25,8.39,8.39,0,1,0-1.27,4.38l5.34,2a19.87,19.87,0,0,0-.74,5.32,20.14,20.14,0,0,0,1,6.24L136.78,131a19.91,19.91,0,0,0-24.72-9.38L107.45,112a8.19,8.19,0,1,0-3,1.46l4.6,9.66A20,20,0,0,0,108,156.92l-3,5.46a8.32,8.32,0,1,0,5.82,7.93,8.31,8.31,0,0,0-2.91-6.3l3-5.48a19.83,19.83,0,0,0,20.35-2.37l6.56,7.21a20,20,0,0,0-5.38,13.6,19.56,19.56,0,0,0,.25,3l-7.7,1.83a8.3,8.3,0,1,0,.79,3.51,2.45,2.45,0,0,0,0-.27l7.69-1.82A20,20,0,1,0,170,167.52l9.8-6.37a8.23,8.23,0,0,0,5.92,2.49,8.33,8.33,0,1,0-8.33-8.33,8.08,8.08,0,0,0,.6,3l-9.82,6.39a20,20,0,0,0-7.44-5.92l8.13-22.54A19.82,19.82,0,0,0,174.08,137Zm-16.46,20.7a19.71,19.71,0,0,0-17.34,3.44l-6.56-7.21a19.81,19.81,0,0,0,4.36-19.85l18.33-7.76a20.09,20.09,0,0,0,9.35,8.84Z" fill="#010101"/><circle cx="173.98" cy="117" r="16.97" fill="#fff"/><circle cx="152.41" cy="176.97" r="16.97" fill="#fff"/><circle cx="119.13" cy="140.41" r="16.97" fill="#fff"/><path d="M152.39,166.87a.34.34,0,0,0-.21.08L143,174.17a.37.37,0,0,0-.14.29v12.21a.36.36,0,0,0,.36.36h3.91a.36.36,0,0,0,.36-.36h0V176.4h9.92v10.27a.36.36,0,0,0,.35.36h3.91a.36.36,0,0,0,.36-.36V174.46a.37.37,0,0,0-.14-.29L152.63,167A.35.35,0,0,0,152.39,166.87Zm-1.59,11.78a.35.35,0,0,0-.32.35v3.14a.36.36,0,0,0,.36.36H154a.36.36,0,0,0,.35-.36V179a.35.35,0,0,0-.35-.35H150.8Zm-2.25,4.57a.36.36,0,0,0-.36.35v3.14a.36.36,0,0,0,.36.36h3.14a.36.36,0,0,0,.36-.36v-3.14a.36.36,0,0,0-.36-.35Zm4.57,0a.37.37,0,0,0-.36.35v3.14a.36.36,0,0,0,.36.36h3.14a.36.36,0,0,0,.36-.36h0v-3.14a.36.36,0,0,0-.36-.35Z" fill="#010101"/><path d="M174,104.53a.42.42,0,0,0-.21.08l-9.22,7.23a.35.35,0,0,0-.14.28v12.21a.36.36,0,0,0,.36.36h3.91a.36.36,0,0,0,.36-.35h0V114.07h9.92v10.26a.36.36,0,0,0,.35.36h3.91a.36.36,0,0,0,.36-.36V112.12a.35.35,0,0,0-.14-.28l-9.22-7.23A.41.41,0,0,0,174,104.53Zm-3.84,16.35a.36.36,0,0,0-.36.36v3.14a.36.36,0,0,0,.36.36h3.14a.36.36,0,0,0,.36-.36v-3.14a.36.36,0,0,0-.36-.36Zm4.57,0a.36.36,0,0,0-.36.36v3.14a.36.36,0,0,0,.36.36h3.14a.36.36,0,0,0,.36-.36h0v-3.14a.36.36,0,0,0-.36-.36Z" fill="#010101"/><path d="M131.75,143.05l-2.4-.31L128,140.31a2.12,2.12,0,0,0-1.84-1h-2.62a.44.44,0,0,0-.45.45v7.15a.44.44,0,0,0,.45.45h3.33a2.09,2.09,0,0,0,2.06,1.92,2.07,2.07,0,0,0,2.06-1.92h.65a1,1,0,0,0,.94-.93V144A.92.92,0,0,0,131.75,143.05Zm-4.12-.39h-3a.08.08,0,0,1-.09-.09v-1.92c0-.05,0-.08.09-.08h1.49a.76.76,0,0,1,.68.39l.91,1.56A.12.12,0,0,1,127.63,142.66Zm1.27,5.59a1.1,1.1,0,1,1,1.1-1.1A1.08,1.08,0,0,1,128.9,148.25Z" fill="#010101"/><path d="M121.42,145H108.65a.45.45,0,0,0-.45.46v1.41a.45.45,0,0,0,.45.45h1a2.09,2.09,0,0,0,2.06,1.92,2.07,2.07,0,0,0,2.06-1.92h7.57a.45.45,0,0,0,.45-.45v-1.41A.4.4,0,0,0,121.42,145Zm-9.63,3.28a1.1,1.1,0,0,1,0-2.2,1.08,1.08,0,0,1,1.1,1.1A1.1,1.1,0,0,1,111.79,148.25Z" fill="#010101"/><path d="M109.64,140.82a6.51,6.51,0,0,1-1.47-.19v2.76a.44.44,0,0,0,.46.45h12.76a.44.44,0,0,0,.45-.45v-6.94a.45.45,0,0,0-.45-.46H114.9A5.25,5.25,0,0,1,109.64,140.82Z" fill="#010101"/><path d="M113.6,135.51a3.94,3.94,0,1,0-4,3.93A4,4,0,0,0,113.6,135.51Zm-2.55,3a4.38,4.38,0,0,0,.48-1,3.87,3.87,0,0,1,.63.2A2.87,2.87,0,0,1,111.05,138.54Zm1.44-1.28a8.53,8.53,0,0,0-.81-.28,5.45,5.45,0,0,0,.14-1.18H113A2.76,2.76,0,0,1,112.49,137.26Zm0-3.53a2.82,2.82,0,0,1,.48,1.47h-1.15a8.3,8.3,0,0,0-.14-1.18A6.44,6.44,0,0,0,112.49,133.73Zm-.36-.48a3.21,3.21,0,0,1-.62.2,3.79,3.79,0,0,0-.48-1A3.32,3.32,0,0,1,112.13,133.25Zm-2.18-1a2.2,2.2,0,0,1,1,1.38c-.31.06-.68.09-1,.12Zm0,2.06a5.5,5.5,0,0,0,1.16-.14,9.65,9.65,0,0,1,.14,1.07H110Zm0,1.53h1.3a5.89,5.89,0,0,1-.14,1.07c-.37-.06-.76-.11-1.16-.14Zm0,1.52a7.07,7.07,0,0,1,1,.11,2.2,2.2,0,0,1-1,1.39Zm-1.69-4.86a4.38,4.38,0,0,0-.48,1,6.25,6.25,0,0,1-.62-.23A3.63,3.63,0,0,1,108.26,132.46Zm-1.47,1.27a6.59,6.59,0,0,0,.82.29,4.89,4.89,0,0,0-.14,1.18h-1.16A4,4,0,0,1,106.79,133.73Zm0,3.53a3,3,0,0,1-.48-1.46h1.16a7.07,7.07,0,0,0,.14,1.18C107.33,137.07,107.07,137.15,106.79,137.26Zm.37.48a3.47,3.47,0,0,1,.62-.19,3.26,3.26,0,0,0,.48,1A3.41,3.41,0,0,1,107.16,137.74Zm2.2,1a2.23,2.23,0,0,1-1-1.38c.31-.06.68-.09,1-.12Zm0-2.06a7.22,7.22,0,0,0-1.16.14c0-.31-.11-.68-.14-1.07h1.3Zm0-1.53h-1.3a6.93,6.93,0,0,1,.14-1.07,8.56,8.56,0,0,0,1.16.14Zm0-1.49a5.91,5.91,0,0,1-1-.12,2.23,2.23,0,0,1,1-1.38Z" fill="#010101"/><circle cx="109.66" cy="135.51" r="3.94" fill="#fff" stroke="#010101" stroke-miterlimit="10" stroke-width="0.5"/><path d="M108.16,134.41a1.85,1.85,0,0,0,.32,2.15l-.68,1.25a.27.27,0,0,0,.48.26l2.81-5.25S108.64,133.52,108.16,134.41Z" fill="#010101"/><path d="M111.39,136.13a5,5,0,0,0-.14-2.75l-.71,1.31.3-.09a.2.2,0,0,1,.25.14.2.2,0,0,1-.13.25l-.69.21-.38.72.83-.25a.2.2,0,0,1,.12.39l-1.22.37-.33.6A1.82,1.82,0,0,0,111.39,136.13Z" fill="#010101"/></svg>