<svg xmlns="http://www.w3.org/2000/svg" viewBox="0 0 91.71 91.71"><rect x="0.5" y="0.5" width="90.71" height="90.71" rx="45.35" fill="#ffded1"/><path d="M45.85,91.21h0A45.36,45.36,0,0,1,45.85.5h0a45.36,45.36,0,1,1,0,90.71Z" fill="none" stroke="#1d1d1b" stroke-linecap="round" stroke-linejoin="round" stroke-dasharray="5.09 5.09"/><path d="M73.2,45.85a5.45,5.45,0,0,0-5.08,7.47l-6.44,4.19a13.16,13.16,0,0,0-4.89-3.88l5.34-14.8a13.12,13.12,0,1,0-8.47-18.21l-3.5-1.29a5.67,5.67,0,0,0,.07-.82,5.53,5.53,0,1,0-.84,2.87l3.51,1.3a13,13,0,0,0,.18,7.59l-12,5.09a13.05,13.05,0,0,0-16.23-6.15l-3-6.36A5.43,5.43,0,1,0,18.51,24a5.17,5.17,0,0,0,1.31-.17l3,6.34a13.11,13.11,0,0,0-.7,22.23l-2,3.58a5.68,5.68,0,0,0-1.64-.26A5.51,5.51,0,1,0,22.06,57l2-3.59a13,13,0,0,0,13.36-1.56l4.31,4.74a13,13,0,0,0-3.53,8.92,12.77,12.77,0,0,0,.16,2l-5.06,1.2a5.45,5.45,0,1,0,.52,2.3c0-.05,0-.11,0-.17l5-1.2a13.12,13.12,0,1,0,24-10.3l6.43-4.18a5.47,5.47,0,1,0,3.89-9.31ZM65.47,15A11.15,11.15,0,1,1,54.33,26.16,11.16,11.16,0,0,1,65.47,15Zm-36,37.66A11.15,11.15,0,1,1,40.61,41.54,11.16,11.16,0,0,1,29.46,52.68ZM39,50.41a13.09,13.09,0,0,0,3.53-8.93,13.24,13.24,0,0,0-.66-4.1l12-5.1a13.16,13.16,0,0,0,6.13,5.8l-5.34,14.8a13.23,13.23,0,0,0-3.41-.46,13,13,0,0,0-8,2.72ZM51.31,76.69A11.15,11.15,0,1,1,62.45,65.54,11.16,11.16,0,0,1,51.31,76.69Z"/><path d="M51.3,58.91a.24.24,0,0,0-.14.05l-6,4.75a.21.21,0,0,0-.09.18v8a.23.23,0,0,0,.23.24h2.57a.23.23,0,0,0,.23-.24h0V65.17h6.52v6.74a.23.23,0,0,0,.23.24h2.57a.23.23,0,0,0,.23-.24v-8a.21.21,0,0,0-.09-.18L51.45,59A.25.25,0,0,0,51.3,58.91Zm-1,7.73a.26.26,0,0,0-.22.24v2.06a.23.23,0,0,0,.24.23h2.06a.23.23,0,0,0,.23-.23V66.88a.23.23,0,0,0-.23-.24H50.26Zm-1.48,3a.24.24,0,0,0-.24.24v2.06a.23.23,0,0,0,.24.23h2.06a.23.23,0,0,0,.23-.23V69.88a.23.23,0,0,0-.23-.24Zm3,0a.24.24,0,0,0-.24.24v2.06a.23.23,0,0,0,.24.23h2.06a.23.23,0,0,0,.24-.23h0V69.88a.24.24,0,0,0-.24-.24Z"/><path d="M65.46,18a.21.21,0,0,0-.13.05l-6.06,4.75a.21.21,0,0,0-.09.18v8a.23.23,0,0,0,.23.24H62a.25.25,0,0,0,.24-.24h0V24.24h6.51V31a.23.23,0,0,0,.23.24h2.57a.23.23,0,0,0,.23-.24V23a.21.21,0,0,0-.09-.18l-6-4.75A.3.3,0,0,0,65.46,18ZM62.94,28.72a.23.23,0,0,0-.23.23V31a.23.23,0,0,0,.23.24H65a.24.24,0,0,0,.24-.24V29a.24.24,0,0,0-.24-.23Zm3,0a.23.23,0,0,0-.23.23V31a.23.23,0,0,0,.23.24H68a.24.24,0,0,0,.24-.24h0V29a.23.23,0,0,0-.24-.23Z"/><path d="M37.75,43.27l-1.58-.2-.91-1.6a1.38,1.38,0,0,0-1.2-.68H32.34a.29.29,0,0,0-.3.3v4.69a.29.29,0,0,0,.3.29h2.18a1.37,1.37,0,0,0,1.36,1.26,1.35,1.35,0,0,0,1.35-1.26h.43a.61.61,0,0,0,.61-.61V43.87A.6.6,0,0,0,37.75,43.27ZM35,43h-2S33,43,33,43V41.7a.05.05,0,0,1,.06-.06h1a.49.49,0,0,1,.44.26l.6,1A.07.07,0,0,1,35,43Zm.84,3.68a.73.73,0,0,1-.73-.73.73.73,0,0,1,.73-.72.73.73,0,0,1,0,1.45Z"/><path d="M31,44.53H22.58a.29.29,0,0,0-.29.3v.93a.28.28,0,0,0,.29.29h.69a1.36,1.36,0,0,0,2.71,0h5a.29.29,0,0,0,.3-.29v-.93A.26.26,0,0,0,31,44.53Zm-6.32,2.16a.73.73,0,0,1-.72-.73.72.72,0,0,1,.72-.72.7.7,0,0,1,.72.72A.73.73,0,0,1,24.64,46.69Z"/><path d="M23.23,41.81a4.36,4.36,0,0,1-1-.13V43.5a.29.29,0,0,0,.29.29h8.38a.29.29,0,0,0,.3-.29V38.93a.29.29,0,0,0-.3-.29H26.68A3.44,3.44,0,0,1,23.23,41.81Z"/><circle cx="23.24" cy="38.32" r="2.59" fill="none" stroke="#000" stroke-miterlimit="10" stroke-width="0.5"/><path d="M22.26,37.6a1.21,1.21,0,0,0,.2,1.41l-.44.82a.18.18,0,0,0,.08.24.17.17,0,0,0,.24-.07l1.84-3.45S22.57,37,22.26,37.6Z"/><path d="M24.38,38.73a3.33,3.33,0,0,0-.1-1.81l-.46.86.2-.05a.12.12,0,0,1,.16.08.14.14,0,0,1-.09.17l-.45.14-.25.47.55-.17a.14.14,0,0,1,.17.09.14.14,0,0,1-.09.17l-.81.24-.21.4A1.2,1.2,0,0,0,24.38,38.73Z"/></svg>