<svg xmlns="http://www.w3.org/2000/svg" viewBox="0 0 90.78 91.71"><rect x="0.5" y="0.5" width="89.78" height="90.71" rx="44.89" fill="#33f"/><path d="M45.39,91.21A44.89,44.89,0,0,1,.5,46.32v-.93a44.89,44.89,0,0,1,89.78,0v.93A44.89,44.89,0,0,1,45.39,91.21Z" fill="none" stroke="#1d1d1b" stroke-linecap="round" stroke-linejoin="round" stroke-dasharray="5.07 5.07"/><path d="M24.08,37.51V68H66.7V37.51L45.39,16.2Zm-3-1.26L45.39,11.9,69.74,36.25V71H21Z"/><path d="M24.08,37.51V68H66.7V37.51L45.39,16.2Zm-3-1.26L45.39,11.9,69.74,36.25V71H21Z"/><line x1="21.04" y1="75.42" x2="69.74" y2="75.76" fill="none" stroke="#000" stroke-miterlimit="10" stroke-width="5"/><polyline points="19.07 34.27 45.39 7.95 71.72 34.27" fill="none" stroke="#000" stroke-miterlimit="10" stroke-dasharray="2"/><path d="M36.36,55.67a12,12,0,0,0,18.16-.1" fill="none" stroke="#000" stroke-miterlimit="10" stroke-width="8.86"/><path d="M43.16,35.93a12,12,0,0,0-9.1,15.82" fill="none" stroke="#000" stroke-miterlimit="10" stroke-width="8.86"/><path d="M56.77,51.61a11.77,11.77,0,0,0,.65-3.87,12,12,0,0,0-9.71-11.8" fill="none" stroke="#000" stroke-miterlimit="10" stroke-width="8.86"/><path d="M36.36,55.67a12,12,0,0,0,18.16-.11" fill="none" stroke="#000" stroke-miterlimit="10" stroke-width="0.5"/><polygon points="41.97 51.93 31.93 60.75 32.54 51.33 41.97 51.93"/><path d="M43.16,35.93a12,12,0,0,0-9.1,15.82" fill="none" stroke="#000" stroke-miterlimit="10" stroke-width="0.5"/><polygon points="43.51 42.66 41.05 29.53 48.84 34.86 43.51 42.66"/><path d="M56.77,51.61a11.77,11.77,0,0,0,.65-3.87,12,12,0,0,0-9.71-11.8" fill="none" stroke="#000" stroke-miterlimit="10" stroke-width="0.5"/><polygon points="50.74 48.61 63.39 52.92 54.91 57.09 50.74 48.61"/></svg>