<svg xmlns="http://www.w3.org/2000/svg" width="91.71" height="91.71" viewBox="0 0 91.71 91.71"><rect x="0.5" y="0.5" width="90.71" height="90.71" rx="45.35" fill="#99f"/><rect x="0.5" y="0.5" width="90.71" height="90.71" rx="45.35" fill="none" stroke="#1d1d1b" stroke-linecap="round" stroke-linejoin="round" stroke-dasharray="5.09 5.09"/><path d="M61.43,37.21c.49-.81,1-1.13.33-2.09.07-.44.49-.95,0-1a.87.87,0,0,0-1,.57l-.21.1c0-.2-.18-.37-.73-.11.45-1.13-.1-1,.28-1.58a.92.92,0,0,0-.49-1.37c.67-.94-.86-1.25-1.56-.44,0-.46-.05-1.17-.34-1s.16-.65-.24-1.24c-.7-1-1.49-.86-1.72-.51-.23-.08-.23-.47-.87-.38-.34-.68-1.13,0-.9.79-.63,0-.78.47-.3.74-.43.24-.91.83-.78,1.29a1.39,1.39,0,0,0-.14,1c-.39-.3-1.13.1-1,.95-.78-.69-1.27.63-1.14,1.3a.8.8,0,0,0-.61.54c-.43-.21-1.42.23-.93.72-1.66.59-.29,2.67.71,2.71-.3.69.18,1.26,1,1.47.08.72,1.76.67,2-.17l.1,0a.83.83,0,0,0,1.22.33h0a13.31,13.31,0,0,1,1.25,1.85c-.06,1.17-.1,2.35-.11,2.69h1.25c0-.59-.27-2.47-.27-2.78s0-.59,0-1.1c.23-.29.51-.63.78-.91a9.9,9.9,0,0,0,2.4-.54,3.1,3.1,0,0,0,1-.14c-.75,1,1,.84,1.57,0S62.5,36.63,61.43,37.21Zm-5.94,2.06c-.05.34-.1.91-.14,1.56a13.38,13.38,0,0,0-1-1.26,2.69,2.69,0,0,0,.57-.68c0-.09.26,0,.61,0A3.48,3.48,0,0,1,55.49,39.27Zm.71.5c0-.26,0-.54,0-.83a3,3,0,0,0,1.11-.29,1,1,0,0,1,.52.05A3.46,3.46,0,0,0,56.2,39.77Zm1-.46a1.27,1.27,0,0,1,.58-.35,1.29,1.29,0,0,0,.41-.16,7.85,7.85,0,0,0,.92.19A7.46,7.46,0,0,1,57.23,39.31Z"/><path d="M54.41,52.29c.49-.81,1-1.13.32-2.09.07-.44.5-1,0-1a.88.88,0,0,0-1,.57,1,1,0,0,0-.21.1c0-.2-.18-.37-.74-.11.46-1.12-.09-1,.28-1.58a.92.92,0,0,0-.48-1.37c.66-.93-.87-1.25-1.56-.44,0-.46,0-1.17-.34-1s.15-.64-.25-1.24c-.69-1-1.48-.86-1.71-.51-.23-.08-.23-.46-.87-.38-.34-.68-1.14,0-.9.79-.64,0-.78.47-.31.74-.42.24-.9.83-.78,1.29a1.51,1.51,0,0,0-.14,1c-.39-.3-1.12.1-1,.95-.77-.69-1.26.63-1.13,1.3a.8.8,0,0,0-.61.54c-.44-.21-1.43.23-.93.72-1.67.59-.3,2.67.7,2.71-.29.69.19,1.26,1,1.47.08.72,1.76.67,2-.17l.1,0a.83.83,0,0,0,1.22.33h0a12.09,12.09,0,0,1,1.26,1.86c-.06,1.16-.1,2.34-.11,2.69h1.25c0-.6-.27-2.48-.28-2.79s0-.59,0-1.1a9.2,9.2,0,0,1,.78-.91,9.52,9.52,0,0,0,2.4-.54,3.13,3.13,0,0,0,1-.14c-.76,1,1,.84,1.57,0S55.47,51.71,54.41,52.29Zm-5.94,2.06c0,.34-.1.91-.14,1.56a13.38,13.38,0,0,0-1-1.26,2.53,2.53,0,0,0,.57-.68c0-.09.26,0,.61,0C48.5,54.12,48.49,54.24,48.47,54.35Zm.71.5c0-.26,0-.54,0-.83a3.1,3.1,0,0,0,1.11-.29,1,1,0,0,1,.52.05A3.46,3.46,0,0,0,49.18,54.85Zm1-.46a1.3,1.3,0,0,1,.59-.35,1.17,1.17,0,0,0,.4-.16,8.49,8.49,0,0,0,.93.19A7.1,7.1,0,0,1,50.2,54.39Z"/><path d="M69.15,52.29c.49-.81.95-1.13.33-2.09.07-.44.49-1,0-1a.88.88,0,0,0-1,.57l-.21.1c0-.2-.18-.37-.74-.11.46-1.12-.09-1,.29-1.58a.92.92,0,0,0-.49-1.37c.66-.93-.87-1.25-1.56-.44,0-.46,0-1.17-.34-1s.16-.64-.25-1.24c-.69-1-1.48-.86-1.71-.51-.23-.08-.23-.46-.87-.38-.34-.68-1.14,0-.9.79-.64,0-.78.47-.3.74-.43.24-.91.83-.78,1.29a1.39,1.39,0,0,0-.14,1c-.39-.3-1.13.1-1,.95-.77-.69-1.26.63-1.13,1.3a.81.81,0,0,0-.61.54c-.43-.21-1.42.23-.93.72-1.66.59-.29,2.67.71,2.71-.3.69.18,1.26,1,1.47.08.72,1.76.67,2-.17l.1,0a.83.83,0,0,0,1.22.33h0A12.9,12.9,0,0,1,63,56.74c-.06,1.16-.1,2.34-.11,2.69h1.25c0-.6-.27-2.48-.27-2.79s0-.59,0-1.1a10.77,10.77,0,0,1,.78-.91,9.43,9.43,0,0,0,2.4-.54,3.13,3.13,0,0,0,1-.14c-.75,1,1,.84,1.57,0S70.22,51.71,69.15,52.29Zm-5.94,2.06c-.05.34-.1.91-.14,1.56a13.38,13.38,0,0,0-1-1.26,2.53,2.53,0,0,0,.57-.68c0-.09.26,0,.61,0A3.48,3.48,0,0,1,63.21,54.35Zm.71.5c0-.26,0-.54,0-.83A3.1,3.1,0,0,0,65,53.73a1,1,0,0,1,.52.05A3.46,3.46,0,0,0,63.92,54.85Zm1-.46a1.27,1.27,0,0,1,.58-.35,1.17,1.17,0,0,0,.4-.16,8.49,8.49,0,0,0,.93.19A7,7,0,0,1,65,54.39Z"/><path d="M35.85,54.22c-1.85,1.86-4.7,2.61-7.68,2.61a10.68,10.68,0,0,1-7.28-2.5,7.77,7.77,0,0,1-2.53-5.66h4.52a4.27,4.27,0,0,0,1.27,3A5.81,5.81,0,0,0,28.24,53a5.86,5.86,0,0,0,4.21-1.31,3,3,0,0,0,1-2.33c0-1.78-1.38-2.61-2.89-2.88s-3.77-.38-5.38-.65C21.79,45.24,19,43,19,39a6.72,6.72,0,0,1,2.13-4.81,10.39,10.39,0,0,1,7.14-2.57A10,10,0,0,1,35,34a7.38,7.38,0,0,1,2.47,5.18H33a4,4,0,0,0-1.06-2.4,5.59,5.59,0,0,0-3.71-1.31,5.47,5.47,0,0,0-3.94,1.34,2.81,2.81,0,0,0-.83,2.06A2.58,2.58,0,0,0,25.9,41.5c1.55.24,3.71.41,5.29.62,3.63.51,6.68,2.88,6.68,7A6.84,6.84,0,0,1,35.85,54.22Z"/><text transform="translate(5.8 54.58)" font-size="34.3" font-family="AkkuratPro-Bold, Akkurat Pro" font-weight="700" letter-spacing="0.1em">[</text><text transform="translate(70.03 54.58)" font-size="34.3" font-family="AkkuratPro-Bold, Akkurat Pro" font-weight="700" letter-spacing="0.1em">]</text></svg>