<svg xmlns="http://www.w3.org/2000/svg" xmlns:xlink="http://www.w3.org/1999/xlink" viewBox="0 0 90.78 91.71"><defs><filter id="b" x="9.97" y="10.43" width="70.84" height="70.84" filterUnits="userSpaceOnUse" color-interpolation-filters="sRGB"><feFlood flood-color="#fff" result="bg"/><feBlend in="SourceGraphic" in2="bg"/></filter><mask id="a" x="9.97" y="10.43" width="70.84" height="70.84" maskUnits="userSpaceOnUse"><g filter="url(#b)"><polyline points="67.71 20.48 67.71 27.17 61.03 27.17" fill="none" stroke="#12100b" stroke-miterlimit="10" stroke-width="1.5"/><polyline points="23.04 71.41 23.04 64.72 29.72 64.72" fill="none" stroke="#12100b" stroke-miterlimit="10" stroke-width="1.5"/><polyline points="70.84 68.28 64.15 68.28 64.15 61.6" fill="none" stroke="#12100b" stroke-miterlimit="10" stroke-width="1.5"/><polyline points="19.91 23.61 26.6 23.61 26.6 30.29" fill="none" stroke="#12100b" stroke-miterlimit="10" stroke-width="1.5"/></g></mask></defs><rect x="0.5" y="0.5" width="89.78" height="90.71" rx="44.89" fill="#33f"/><path d="M45.39,91.21A44.89,44.89,0,0,1,.5,46.32v-.93a44.89,44.89,0,0,1,89.78,0v.93A44.89,44.89,0,0,1,45.39,91.21Z" fill="none" stroke="#1d1d1b" stroke-linecap="round" stroke-linejoin="round" stroke-dasharray="5.07 5.07"/><g mask="url(#a)"><circle cx="45.39" cy="45.85" r="29.07" fill="none" stroke="#000" stroke-miterlimit="10" stroke-width="12.7"/></g><path d="M59.18,56.61v-21H54.49V46l-7.6-4.31V46L39.3,41.68V46l-7.7-4.32V56.61H30.31v1.16H60.47V56.61ZM37.72,54.53H33.94V52.89h3.77v1.64Zm0-4H33.94V48.86h3.77V50.5Zm7.44,4H41.39V52.89h3.77v1.64Zm0-4H41.39V48.86h3.77V50.5Zm7.45,4H48.84V52.89h3.77Zm0-4H48.84V48.86h3.77Z"/><path d="M52.57,33.41a2.6,2.6,0,0,0,1.35-.34,2,2,0,0,0,1.34.6,1.76,1.76,0,0,0,.4,0A1.76,1.76,0,0,0,56,34a1.23,1.23,0,1,0,1.57-1.84,1.79,1.79,0,0,0-.53-.31,1.92,1.92,0,0,0-1.83-1.61,2,2,0,0,0-.48,0,2.49,2.49,0,0,0-2.18-1.26,2.25,2.25,0,0,0-2.41,2.14A2.36,2.36,0,0,0,52.57,33.41Z"/></svg>