<svg xmlns="http://www.w3.org/2000/svg" xmlns:xlink="http://www.w3.org/1999/xlink" viewBox="0 0 283.46 283.46"><defs><filter id="b" x="91.1" y="91.1" width="101.26" height="101.26" filterUnits="userSpaceOnUse" color-interpolation-filters="sRGB"><feFlood flood-color="#fff" result="bg"/><feBlend in="SourceGraphic" in2="bg"/></filter><mask id="a" x="91.1" y="91.1" width="101.26" height="101.26" maskUnits="userSpaceOnUse"><g filter="url(#b)"><polyline points="175.72 103.09 175.72 113.27 165.54 113.27" fill="none" stroke="#13110c" stroke-miterlimit="10" stroke-width="1.5"/><polyline points="107.68 180.65 107.68 170.47 117.86 170.47" fill="none" stroke="#13110c" stroke-miterlimit="10" stroke-width="1.5"/><polyline points="180.49 175.89 170.3 175.89 170.3 165.71" fill="none" stroke="#13110c" stroke-miterlimit="10" stroke-width="1.5"/><polyline points="102.92 107.85 113.11 107.85 113.11 118.03" fill="none" stroke="#13110c" stroke-miterlimit="10" stroke-width="1.5"/></g></mask></defs><circle cx="141.73" cy="141.73" r="73.77" fill="none" stroke="#000" stroke-miterlimit="10" stroke-width="4"/><circle cx="141.73" cy="141.73" r="68.11" fill="none" stroke="#000" stroke-miterlimit="10" stroke-width="0.75" stroke-dasharray="2"/><g mask="url(#a)"><circle cx="141.73" cy="141.73" r="44.28" fill="none" stroke="#1d1d1b" stroke-miterlimit="10" stroke-width="12.7"/></g><path d="M162.73,158.11V126.18h-7.14v15.76L144,135.37v6.57l-11.56-6.57V142l-11.72-6.59v22.74h-2v1.76H164.7v-1.76ZM130,155h-5.75v-2.5H130V155Zm0-6.14h-5.75v-2.5H130v2.5ZM141.38,155h-5.74v-2.5h5.75V155Zm0-6.14h-5.74v-2.5h5.75v2.5ZM152.73,155H147v-2.5h5.75Zm0-6.14H147v-2.5h5.75Z" fill="#010101"/><path d="M152.67,122.79a3.93,3.93,0,0,0,2.06-.54,3,3,0,0,0,2,.92,3.14,3.14,0,0,0,.62,0,2.41,2.41,0,0,0,.52.6,1.88,1.88,0,1,0,2.39-2.81,2.64,2.64,0,0,0-.81-.46,2.92,2.92,0,0,0-2.78-2.46,2.52,2.52,0,0,0-.73.07,3.83,3.83,0,0,0-3.33-1.93,3.43,3.43,0,0,0-3.67,3.26A3.62,3.62,0,0,0,152.67,122.79Z" fill="#010101"/></svg>