<svg xmlns="http://www.w3.org/2000/svg" viewBox="0 0 283.46 283.46"><circle cx="141.73" cy="141.73" r="73.77" fill="#ec635d" stroke="#000" stroke-miterlimit="10" stroke-width="4"/><path d="M141.73,209.84a68.11,68.11,0,1,1,68.11-68.11A68.18,68.18,0,0,1,141.73,209.84Z" fill="#ec635d" stroke="#000" stroke-miterlimit="10" stroke-width="0.75" stroke-dasharray="2"/><path d="M160.73,178.93h-38a7.55,7.55,0,0,1-7.55-7.54V112.08a7.55,7.55,0,0,1,7.55-7.55h24.08l21.47,20.7v46.16A7.55,7.55,0,0,1,160.73,178.93Z" fill="#ec635d" stroke="#000" stroke-miterlimit="10" stroke-width="0.75" stroke-dasharray="2"/><path d="M168.28,125.23h-15a6.51,6.51,0,0,1-6.51-6.51V104.53" fill="none" stroke="#000" stroke-linecap="round" stroke-linejoin="round" stroke-width="2.87"/><line x1="122.73" y1="134.35" x2="160.73" y2="134.35" fill="none" stroke="#000" stroke-linecap="round" stroke-linejoin="round" stroke-width="2.28"/><line x1="122.73" y1="141.73" x2="160.73" y2="141.73" fill="none" stroke="#000" stroke-linecap="round" stroke-linejoin="round" stroke-width="2.28"/><line x1="122.73" y1="149.11" x2="152.48" y2="149.11" fill="none" stroke="#000" stroke-linecap="round" stroke-linejoin="round" stroke-width="2.28"/><circle cx="159.5" cy="167.22" r="15.78" fill="#ec635d" stroke="#000" stroke-miterlimit="10" stroke-width="0.75" stroke-dasharray="2"/><path d="M166.1,160.77v2.64h-6.16v-2.64h6.16Zm-3.52,6.16h-6.16v-2.64h6.16Zm-9.68-6.16h6.16v2.64H152.9Zm-3.52,6.16v-2.64h6.16v2.64h-6.16Zm3.52.88h6.16v2.64H152.9Zm9.68,6.16h-6.16v-2.64h6.16Zm-13.2,0v-2.64h6.16V174h-6.16Zm20.24-2.64V174h-6.16v-2.64h6.16Zm-3.52-.88h-6.16v-2.64h6.16Zm3.52-3.52h-6.16v-2.64h6.16Z" fill="#010101"/></svg>