<svg xmlns="http://www.w3.org/2000/svg" viewBox="0 0 91.71 91.71"><rect x="0.5" y="0.5" width="90.71" height="90.71" rx="45.35" fill="#33f"/><rect x="0.5" y="0.5" width="90.71" height="90.71" rx="45.35" fill="none" stroke="#1d1d1b" stroke-linecap="round" stroke-linejoin="round" stroke-dasharray="5.09 5.09"/><path d="M69.64,37.75a1,1,0,0,0-.55.88V66.18a1,1,0,0,1-1.94,0V38.63a1,1,0,0,0-.55-.88c-2-.94-3.32-3.52-3.32-6.42,0-3.73,2.17-6.77,4.84-6.77S73,27.6,73,31.33C73,34.23,71.63,36.81,69.64,37.75Z" stroke="#000" stroke-miterlimit="10"/><path d="M28.43,25.53V35.2a1,1,0,0,1-1,1H25.52a1,1,0,0,0-1,1V66.19a1,1,0,0,1-1.94,0v-29a1,1,0,0,0-1-1H19.71a1,1,0,0,1-1-1V25.53a1,1,0,1,1,1.93,0v5.8a1,1,0,0,0,1.94,0v-5.8a1,1,0,1,1,1.94,0v5.8a1,1,0,1,0,1.93,0v-5.8a1,1,0,1,1,1.94,0Z" stroke="#000" stroke-miterlimit="10"/><path d="M56.33,63.92c3.69-3.69,3.05-10.1,3-10.37a1,1,0,0,0-.86-.86c-.27,0-6.68-.67-10.37,3a9.07,9.07,0,0,0-1.3,1.69V51.66h.53c2.14,0,6.29-.38,9-3.07,3.69-3.69,3.05-10.1,3-10.37a1,1,0,0,0-.86-.86c-.27,0-6.68-.68-10.37,3a9.34,9.34,0,0,0-1.3,1.68V39.52c1.18-1.06,4.84-4.69,4.84-9.16,0-5.21-5-9.29-5.2-9.46a1,1,0,0,0-1.21,0c-.22.17-5.2,4.25-5.2,9.46,0,4.48,3.66,8.11,4.84,9.16v2.54a9.07,9.07,0,0,0-1.3-1.69c-3.69-3.69-10.1-3-10.37-3a1,1,0,0,0-.86.86c0,.27-.67,6.68,3,10.37,2.7,2.69,6.84,3.08,9,3.08h.53v5.73a8.69,8.69,0,0,0-1.3-1.68c-3.69-3.69-10.1-3.05-10.37-3a1,1,0,0,0-.86.86c0,.27-.67,6.68,3,10.37,2.7,2.69,6.84,3.08,9,3.08h.53v4h1.93V67h.53C49.5,67,53.64,66.61,56.33,63.92ZM49.49,41.74c2.34-2.34,6.28-2.53,8-2.5,0,1.7-.16,5.63-2.5,8s-6.29,2.53-8,2.5C47,48,47.14,44.09,49.49,41.74ZM36.74,47.22c-2.34-2.34-2.53-6.28-2.5-8,1.69,0,5.63.15,8,2.5s2.54,6.28,2.5,8C43,49.75,39.08,49.56,36.74,47.22Zm0,15.33c-2.34-2.34-2.53-6.28-2.5-8,1.69,0,5.63.16,8,2.5s2.54,6.29,2.5,8C43,65.1,39.09,64.9,36.74,62.55ZM42,30.36c0-3.3,2.65-6.23,3.87-7.41,1.23,1.18,3.88,4.11,3.88,7.41,0,2.83-1.93,5.36-3.25,6.78H45.23C43.9,35.72,42,33.19,42,30.36Zm7.51,26.71c2.34-2.33,6.28-2.53,8-2.5,0,1.7-.17,5.64-2.5,8s-6.29,2.53-8,2.5C47,63.36,47.14,59.42,49.49,57.07Z"/><path d="M32.83,22.08l-.93-1.7c-.57.31-1.13.65-1.67,1L31.28,23C31.78,22.68,32.3,22.37,32.83,22.08Z"/><path d="M46.83,16.83c-.64,0-1.29,0-1.94,0L45,18.76c.6,0,1.21,0,1.81,0Z"/><path d="M43,17c-.65.07-1.29.15-1.93.26l.32,1.91q.88-.15,1.8-.24Z"/><path d="M48.77,17l-.19,1.92c.6.06,1.2.14,1.79.24l.32-1.91C50.06,17.11,49.41,17,48.77,17Z"/><path d="M39.13,17.6c-.63.14-1.26.32-1.88.51L37.83,20q.86-.27,1.74-.48Z"/><path d="M52.6,17.6l-.45,1.88q.89.21,1.74.48l.58-1.85C53.86,17.92,53.23,17.75,52.6,17.6Z"/><path d="M36.12,20.55l-.7-1.8c-.6.23-1.2.48-1.79.75l.82,1.76C35,21,35.55,20.77,36.12,20.55Z"/><path d="M61.49,21.38c-.54-.35-1.1-.68-1.67-1l-.93,1.7c.53.29,1,.6,1.56.92Z"/><path d="M56.3,18.75l-.7,1.81c.57.22,1.13.45,1.67.71l.82-1.76C57.51,19.24,56.91,19,56.3,18.75Z"/><path d="M33.62,72.2c.58.27,1.18.52,1.78.76l.7-1.81c-.56-.22-1.12-.45-1.66-.71Z"/><path d="M48.56,72.83l.19,1.92c.64-.06,1.29-.15,1.93-.25l-.32-1.91C49.77,72.69,49.16,72.77,48.56,72.83Z"/><path d="M30.22,70.33c.54.34,1.1.67,1.67,1l.93-1.7q-.8-.44-1.56-.93Z"/><path d="M37.24,73.6c.61.18,1.24.36,1.87.51l.45-1.88c-.59-.15-1.17-.31-1.75-.48Z"/><path d="M44.94,73l-.07,1.93,1,0,1,0L46.75,73C46.15,73,45.54,73,44.94,73Z"/><path d="M58.88,69.63l.93,1.7c.56-.31,1.13-.65,1.67-1l-1-1.63C59.92,69,59.41,69.34,58.88,69.63Z"/><path d="M41,74.5c.64.1,1.29.19,1.93.25l.19-1.92c-.61-.06-1.2-.14-1.8-.24Z"/><path d="M52.13,72.23l.45,1.88c.63-.15,1.26-.32,1.87-.51l-.57-1.85C53.31,71.93,52.72,72.09,52.13,72.23Z"/><path d="M55.59,71.16l.7,1.8c.6-.23,1.2-.49,1.79-.76l-.82-1.75C56.71,70.7,56.16,70.94,55.59,71.16Z"/></svg>