<svg xmlns="http://www.w3.org/2000/svg" viewBox="0 0 283.46 283.46"><circle cx="141.73" cy="141.73" r="73.77" fill="#d27ab0" stroke="#000" stroke-miterlimit="10" stroke-width="4"/><path d="M141.73,209.84a68.11,68.11,0,1,1,68.11-68.11A68.18,68.18,0,0,1,141.73,209.84Z" fill="none" stroke="#000" stroke-miterlimit="10" stroke-width="0.75" stroke-dasharray="2"/><path d="M178,129.39a1.48,1.48,0,0,0-.84,1.33v42a1.48,1.48,0,0,1-3,0v-42a1.48,1.48,0,0,0-.84-1.33c-3-1.43-5.06-5.36-5.06-9.78,0-5.69,3.31-10.32,7.38-10.32s7.37,4.63,7.37,10.32C183,124,181,128,178,129.39Z" stroke="#000" stroke-miterlimit="10"/><path d="M115.19,110.77v14.74a1.47,1.47,0,0,1-1.47,1.48h-3a1.47,1.47,0,0,0-1.47,1.47V172.7a1.48,1.48,0,0,1-3,0V128.46a1.47,1.47,0,0,0-1.48-1.47h-3a1.47,1.47,0,0,1-1.47-1.48V110.77a1.48,1.48,0,1,1,3,0v8.84a1.48,1.48,0,1,0,2.95,0v-8.84a1.48,1.48,0,1,1,3,0v8.84a1.47,1.47,0,1,0,2.94,0v-8.84a1.48,1.48,0,1,1,3,0Z" stroke="#000" stroke-miterlimit="10"/><path d="M157.69,169.25c5.62-5.62,4.64-15.39,4.6-15.8a1.48,1.48,0,0,0-1.31-1.31c-.41,0-10.18-1-15.8,4.59a13.31,13.31,0,0,0-2,2.57v-8.73h.8c3.27,0,9.58-.58,13.68-4.69,5.62-5.61,4.64-15.38,4.6-15.79a1.48,1.48,0,0,0-1.31-1.31c-.41,0-10.18-1-15.8,4.59a13.25,13.25,0,0,0-2,2.56v-3.86c1.79-1.6,7.37-7.13,7.37-13.94,0-8-7.6-14.16-7.92-14.42a1.46,1.46,0,0,0-1.85,0c-.33.26-7.93,6.48-7.93,14.42,0,6.81,5.58,12.34,7.38,13.94V136a13.37,13.37,0,0,0-2-2.57c-5.61-5.61-15.38-4.63-15.79-4.59a1.48,1.48,0,0,0-1.31,1.31c-.05.41-1,10.18,4.59,15.8,4.1,4.1,10.42,4.68,13.69,4.68h.8v8.73a13,13,0,0,0-2-2.56c-5.61-5.62-15.38-4.64-15.79-4.6a1.48,1.48,0,0,0-1.31,1.31c-.05.41-1,10.18,4.59,15.8,4.1,4.1,10.41,4.69,13.68,4.69l.81,0v6.15h3v-6.15h.8C147.28,173.93,153.59,173.35,157.69,169.25Zm-10.42-33.78c3.56-3.56,9.56-3.86,12.15-3.81.06,2.58-.24,8.57-3.81,12.15s-9.58,3.85-12.16,3.81C143.4,145,143.69,139.05,147.27,135.47Zm-19.42,8.34c-3.56-3.56-3.86-9.57-3.8-12.15,2.57-.07,8.57.23,12.15,3.81s3.86,9.56,3.81,12.15C137.42,147.67,131.42,147.37,127.85,143.81Zm0,23.35c-3.56-3.56-3.86-9.57-3.8-12.15,2.57-.07,8.57.23,12.15,3.81s3.86,9.57,3.81,12.15C137.42,171,131.43,170.74,127.85,167.16Zm8-49c0-5,4-9.49,5.9-11.29,1.87,1.8,5.9,6.25,5.9,11.29,0,4.3-2.93,8.16-4.95,10.32h-1.9C138.76,126.3,135.83,122.44,135.83,118.14Zm11.44,40.68c3.56-3.56,9.57-3.85,12.15-3.81.05,2.59-.25,8.59-3.81,12.15S146,171,143.45,171C143.4,168.39,143.69,162.4,147.27,158.82Z" fill="#010101"/><path d="M121.9,105.52l-1.42-2.58c-.86.47-1.72,1-2.54,1.51l1.59,2.48C120.3,106.44,121.09,106,121.9,105.52Z" fill="#010101"/><path d="M143.22,97.52c-1,0-2,0-2.95,0l.09,3c.92,0,1.85,0,2.76,0Z" fill="#010101"/><path d="M137.32,97.71c-1,.1-2,.23-2.94.4l.49,2.91c.9-.16,1.82-.28,2.74-.37Z" fill="#010101"/><path d="M146.17,97.72l-.29,2.93c.92.09,1.83.22,2.73.37l.49-2.91C148.14,98,147.15,97.82,146.17,97.72Z" fill="#010101"/><path d="M131.49,98.69c-1,.23-1.92.49-2.86.78l.87,2.82c.88-.27,1.77-.51,2.67-.73Z" fill="#010101"/><path d="M152,98.7l-.68,2.87c.9.21,1.78.45,2.66.73l.87-2.82C153.92,99.19,153,98.93,152,98.7Z" fill="#010101"/><path d="M126.9,103.2l-1.06-2.75c-.92.35-1.83.74-2.72,1.15l1.24,2.68C125.19,103.89,126,103.53,126.9,103.2Z" fill="#010101"/><path d="M165.54,104.46c-.82-.53-1.67-1-2.53-1.51l-1.43,2.58c.81.45,1.6.92,2.38,1.41Z" fill="#010101"/><path d="M157.65,100.45l-1.07,2.75c.86.34,1.71.7,2.54,1.08l1.25-2.67C159.48,101.2,158.57,100.81,157.65,100.45Z" fill="#010101"/><path d="M123.1,181.85c.88.41,1.8.8,2.72,1.16l1.06-2.75c-.86-.33-1.71-.69-2.54-1.08Z" fill="#010101"/><path d="M145.85,182.81l.29,2.94c1-.1,2-.23,2.94-.39l-.49-2.91C147.69,182.6,146.77,182.72,145.85,182.81Z" fill="#010101"/><path d="M117.92,179c.83.53,1.67,1,2.54,1.51l1.42-2.58q-1.22-.68-2.37-1.41Z" fill="#010101"/><path d="M128.61,184c.93.29,1.89.56,2.85.78l.69-2.86c-.9-.22-1.79-.46-2.66-.73Z" fill="#010101"/><path d="M140.34,183l-.1,2.95c.49,0,1,0,1.49,0s1,0,1.47,0l-.1-2.94C142.18,183,141.25,183,140.34,183Z" fill="#010101"/><path d="M161.56,177.94l1.42,2.59c.87-.48,1.72-1,2.55-1.51l-1.6-2.49Q162.77,177.28,161.56,177.94Z" fill="#010101"/><path d="M134.36,185.35c1,.17,1.95.3,2.93.4l.29-2.94q-1.38-.13-2.73-.36Z" fill="#010101"/><path d="M151.3,181.9l.68,2.87c1-.23,1.91-.49,2.85-.78l-.87-2.82C153.08,181.44,152.19,181.69,151.3,181.9Z" fill="#010101"/><path d="M156.56,180.27l1.06,2.75c.92-.35,1.84-.74,2.73-1.16l-1.25-2.67C158.27,179.57,157.42,179.93,156.56,180.27Z" fill="#010101"/></svg>