<svg xmlns="http://www.w3.org/2000/svg" viewBox="0 0 283.46 283.46"><circle cx="141.73" cy="141.73" r="73.77" fill="#9697cb" stroke="#000" stroke-miterlimit="10" stroke-width="4"/><circle cx="141.73" cy="141.73" r="68.11" transform="translate(-43.45 65.03) rotate(-22.5)" fill="none" stroke="#000" stroke-miterlimit="10" stroke-width="0.75" stroke-dasharray="2"/><polyline points="114.53 171.1 113.53 171.1 113.53 170.1" fill="none" stroke="#010101" stroke-miterlimit="10"/><polyline points="113.53 168.09 113.53 130.75 140.32 103.97" fill="none" stroke="#010101" stroke-miterlimit="10" stroke-dasharray="2.01 2.01"/><polyline points="141.03 103.26 141.73 102.55 142.44 103.26" fill="none" stroke="#010101" stroke-miterlimit="10"/><polyline points="143.86 104.67 169.93 130.75 169.93 169.09" fill="none" stroke="#010101" stroke-miterlimit="10" stroke-dasharray="2.01 2.01"/><polyline points="169.93 170.1 169.93 171.1 168.93 171.1" fill="none" stroke="#010101" stroke-miterlimit="10"/><line x1="166.92" y1="171.1" x2="115.54" y2="171.1" fill="none" stroke="#010101" stroke-miterlimit="10" stroke-dasharray="2.01 2.01"/><path d="M109.28,129v46.36h64.9V129L141.73,96.54Zm-4.64-1.92L141.73,90l37.09,37.09V180H104.64Z" fill="#010101"/><path d="M109.28,129v46.36h64.9V129L141.73,96.54Zm-4.64-1.92L141.73,90l37.09,37.09V180H104.64Z" fill="#010101"/><text transform="translate(128.19 160.61)" font-size="48" fill="#1d1d1b" font-family="HelveticaNeue-CondensedBlack, Helvetica Neue" font-weight="800">0</text><line x1="104.64" y1="186.73" x2="178.82" y2="187.25" fill="none" stroke="#1d1d1b" stroke-miterlimit="10" stroke-width="8"/><polyline points="101.64 124.06 141.73 83.97 181.83 124.06" fill="none" stroke="#010101" stroke-miterlimit="10" stroke-dasharray="2"/></svg>