<svg xmlns="http://www.w3.org/2000/svg" viewBox="0 0 91.71 91.71"><rect x="0.5" y="0.5" width="90.71" height="90.71" rx="45.35" fill="#99f"/><path d="M45.85,91.21h0A45.36,45.36,0,0,1,45.85.5h0a45.36,45.36,0,1,1,0,90.71Z" fill="none" stroke="#1d1d1b" stroke-linecap="round" stroke-linejoin="round" stroke-dasharray="5.09 5.09"/><polyline points="28.34 64.15 27.34 64.15 27.34 63.15" fill="none" stroke="#000" stroke-miterlimit="10"/><line x1="27.34" y1="61.27" x2="27.34" y2="39.61" fill="none" stroke="#000" stroke-miterlimit="10" stroke-dasharray="1.88 1.88"/><polyline points="27.34 38.66 27.34 37.66 28.05 36.96" fill="none" stroke="#000" stroke-miterlimit="10"/><line x1="29.36" y1="35.64" x2="44.49" y2="20.51" fill="none" stroke="#000" stroke-miterlimit="10" stroke-dasharray="1.86 1.86"/><polyline points="45.15 19.86 45.85 19.15 46.56 19.86" fill="none" stroke="#000" stroke-miterlimit="10"/><line x1="47.88" y1="21.17" x2="63.01" y2="36.3" fill="none" stroke="#000" stroke-miterlimit="10" stroke-dasharray="1.86 1.86"/><polyline points="63.66 36.96 64.37 37.66 64.37 38.66" fill="none" stroke="#000" stroke-miterlimit="10"/><line x1="64.37" y1="40.55" x2="64.37" y2="62.21" fill="none" stroke="#000" stroke-miterlimit="10" stroke-dasharray="1.88 1.88"/><polyline points="64.37 63.15 64.37 64.15 63.37 64.15" fill="none" stroke="#000" stroke-miterlimit="10"/><line x1="61.31" y1="64.15" x2="29.37" y2="64.15" fill="none" stroke="#000" stroke-miterlimit="10" stroke-dasharray="2.06 2.06"/><path d="M24.55,36.51V67H67.16V36.51L45.85,15.2ZM21.5,35.25,45.85,10.9,70.21,35.25V70H21.5Z"/><path d="M24.55,36.51V67H67.16V36.51L45.85,15.2ZM21.5,35.25,45.85,10.9,70.21,35.25V70H21.5Z"/><text transform="translate(36.96 57.27)" font-size="31.52" fill="#1d1d1b" font-family="HelveticaNeue-CondensedBlack, Helvetica Neue" font-weight="800">0</text><line x1="21.5" y1="74.42" x2="70.21" y2="74.76" fill="none" stroke="#000" stroke-miterlimit="10" stroke-width="5"/><polyline points="19.53 33.27 45.85 6.95 72.18 33.27" fill="none" stroke="#000" stroke-miterlimit="10" stroke-dasharray="2"/></svg>