<svg xmlns="http://www.w3.org/2000/svg" viewBox="0 0 283.46 283.46"><circle cx="141.73" cy="141.73" r="73.77" fill="none" stroke="#000" stroke-miterlimit="10" stroke-width="4"/><circle cx="141.73" cy="141.73" r="68.11" fill="none" stroke="#000" stroke-miterlimit="10" stroke-width="0.75" stroke-dasharray="2"/><polyline points="114.53 171.1 113.53 171.1 113.53 170.1" fill="none" stroke="#010101" stroke-miterlimit="10"/><polyline points="113.53 168.09 113.53 130.75 140.32 103.97" fill="none" stroke="#010101" stroke-miterlimit="10" stroke-dasharray="2.01 2.01"/><polyline points="141.03 103.26 141.73 102.55 142.44 103.26" fill="none" stroke="#010101" stroke-miterlimit="10"/><polyline points="143.86 104.67 169.93 130.75 169.93 169.09" fill="none" stroke="#010101" stroke-miterlimit="10" stroke-dasharray="2.01 2.01"/><polyline points="169.93 170.1 169.93 171.1 168.93 171.1" fill="none" stroke="#010101" stroke-miterlimit="10"/><line x1="166.92" y1="171.1" x2="115.54" y2="171.1" fill="none" stroke="#010101" stroke-miterlimit="10" stroke-dasharray="2.01 2.01"/><path d="M109.28,129v46.36h64.9V129L141.73,96.54Zm-4.64-1.92L141.73,90l37.09,37.09V180H104.64Z" fill="#010101"/><path d="M109.28,129v46.36h64.9V129L141.73,96.54Zm-4.64-1.92L141.73,90l37.09,37.09V180H104.64Z" fill="#010101"/><line x1="104.64" y1="186.73" x2="178.82" y2="187.25" fill="none" stroke="#1d1d1b" stroke-miterlimit="10" stroke-width="8"/><polyline points="101.64 124.06 141.73 83.97 181.83 124.06" fill="none" stroke="#010101" stroke-miterlimit="10" stroke-dasharray="2"/><polygon points="128.09 156.69 126.72 160.29 125.32 163.89 128.92 162.48 132.52 161.12 128.09 156.69"/><polygon points="151.88 132.87 150.77 133.97 129.18 155.57 133.6 160 155.2 138.4 156.31 137.29 151.88 132.87"/><path d="M159.08,134.55a2.39,2.39,0,0,0,0-3.33l-1.09-1.1a2.39,2.39,0,0,0-3.33,0L153,131.77l4.42,4.42Z"/><path d="M128.53,138.3l7.86,7.87,4.42-4.42L133,133.88a4.12,4.12,0,0,0-1.26-2.89,4.31,4.31,0,0,0-6.1,6.1A4.7,4.7,0,0,0,128.53,138.3Zm-1.8-6.26a2.74,2.74,0,1,1,0,3.88A2.69,2.69,0,0,1,126.73,132Z"/><path d="M158.81,156.15a5.66,5.66,0,0,0-5.12-1.57l-6.23-6.18L143,152.82l6.18,6.18a5.71,5.71,0,0,0,6.7,6.69l-3.49-3.48.51-2.15h0l.31-1.45,1.45-.31h0l2.15-.51,3.49,3.48A5.59,5.59,0,0,0,158.81,156.15Z"/></svg>