<svg xmlns="http://www.w3.org/2000/svg" viewBox="0 0 91.71 91.71"><rect x="0.5" y="0.5" width="90.71" height="90.71" rx="45.35" fill="#ff5757"/><path d="M45.85,91.21h0A45.36,45.36,0,0,1,45.85.5h0a45.36,45.36,0,1,1,0,90.71Z" fill="none" stroke="#1d1d1b" stroke-linecap="round" stroke-linejoin="round" stroke-dasharray="5.09 5.09"/><polyline points="28.34 65.15 27.34 65.15 27.34 64.15" fill="none" stroke="#000" stroke-miterlimit="10"/><polyline points="27.34 62.13 27.34 38.66 44.43 21.57" fill="none" stroke="#000" stroke-miterlimit="10" stroke-dasharray="2.03 2.03"/><polyline points="45.15 20.86 45.85 20.15 46.56 20.86" fill="none" stroke="#000" stroke-miterlimit="10"/><polyline points="47.99 22.29 64.37 38.66 64.37 63.14" fill="none" stroke="#000" stroke-miterlimit="10" stroke-dasharray="2.03 2.03"/><polyline points="64.37 64.15 64.37 65.15 63.37 65.15" fill="none" stroke="#000" stroke-miterlimit="10"/><line x1="61.31" y1="65.15" x2="29.37" y2="65.15" fill="none" stroke="#000" stroke-miterlimit="10" stroke-dasharray="2.06 2.06"/><path d="M24.55,37.51V68H67.16V37.51L45.85,16.2ZM21.5,36.25,45.85,11.9,70.21,36.25V71H21.5Z"/><path d="M24.55,37.51V68H67.16V37.51L45.85,16.2ZM21.5,36.25,45.85,11.9,70.21,36.25V71H21.5Z"/><line x1="21.5" y1="75.42" x2="70.21" y2="75.76" fill="none" stroke="#000" stroke-miterlimit="10" stroke-width="5"/><polyline points="19.53 34.27 45.85 7.95 72.18 34.27" fill="none" stroke="#000" stroke-miterlimit="10" stroke-dasharray="2"/><polygon points="36.9 55.7 36 58.06 35.08 60.42 37.44 59.5 39.8 58.6 36.9 55.7"/><polygon points="52.52 40.05 51.79 40.78 37.61 54.96 40.52 57.87 54.7 43.69 55.42 42.96 52.52 40.05"/><path d="M57.25,41.16a1.58,1.58,0,0,0,0-2.19l-.72-.72a1.58,1.58,0,0,0-2.19,0l-1.1,1.08,2.9,2.91Z"/><path d="M37.18,43.62l5.17,5.17,2.9-2.91-5.16-5.16a2.76,2.76,0,0,0-.83-1.9,2.83,2.83,0,0,0-4,4A3.07,3.07,0,0,0,37.18,43.62ZM36,39.51a1.8,1.8,0,1,1,0,2.55A1.78,1.78,0,0,1,36,39.51Z"/><path d="M57.07,55.34a3.72,3.72,0,0,0-3.37-1l-4.08-4.06-2.91,2.9,4.06,4.06a3.75,3.75,0,0,0,4.4,4.4l-2.29-2.29.33-1.41h0l.21-.95.95-.21h0l1.41-.33,2.29,2.28A3.66,3.66,0,0,0,57.07,55.34Z"/></svg>