<svg xmlns="http://www.w3.org/2000/svg" viewBox="0 0 91.71 91.71"><rect x="0.5" y="0.5" width="90.71" height="90.71" rx="45.35" fill="#33f"/><path d="M45.85,91.21h0A45.36,45.36,0,0,1,45.85.5h0a45.36,45.36,0,1,1,0,90.71Z" fill="none" stroke="#1d1d1b" stroke-linecap="round" stroke-linejoin="round" stroke-dasharray="5.09 5.09"/><path d="M37.62,47.07a.52.52,0,0,0-.52.51h0a24,24,0,0,0,.2,2.66c.18,1.42.45,3,1.33,3.91a3.93,3.93,0,0,0,4.57.71,9.68,9.68,0,0,0-2.68-2.18.51.51,0,0,1-.3-.66.52.52,0,0,1,.48-.33.45.45,0,0,1,.2,0A9.21,9.21,0,0,1,44,54.2a5.56,5.56,0,0,1,1.36,3.16v3.35a.52.52,0,1,0,1,0V57.36a5.56,5.56,0,0,1,1.36-3.16,9.21,9.21,0,0,1,3.08-2.46.45.45,0,0,1,.2,0,.51.51,0,0,1,.51.52.5.5,0,0,1-.33.47,9.68,9.68,0,0,0-2.68,2.18,3.94,3.94,0,0,0,4.57-.71c.88-.89,1.15-2.49,1.33-3.91s.2-2.66.2-2.66a.51.51,0,0,0-.51-.52h0a25.48,25.48,0,0,0-2.67.19c-1.42.18-3,.45-3.9,1.34A3.93,3.93,0,0,0,47,53.48a8.79,8.79,0,0,0-1.13,1.76,8.33,8.33,0,0,0-1.12-1.76,3.94,3.94,0,0,0-.54-4.88c-.89-.89-2.48-1.16-3.9-1.34A25.48,25.48,0,0,0,37.62,47.07Z"/><path d="M40,70.18H42V73.1a1,1,0,0,0,1,1h5.83a1,1,0,0,0,1-1V70.18h1.94V68.24H40Zm7.78,1.95H43.91V70.18H47.8Z"/><path d="M65.32,34.18H61.93a16.33,16.33,0,0,0-2-4.87l3.2-3.2a1,1,0,0,0,0-1.38l-3.89-3.89a1,1,0,0,0-1.37,0L54.61,24a16.35,16.35,0,0,0-4.86-2V18.61a1,1,0,0,0-1-1H42.94a1,1,0,0,0-1,1V22a16.25,16.25,0,0,0-4.86,2l-3.21-3.2a1,1,0,0,0-1.37,0l-3.9,3.89a1,1,0,0,0,0,1.38l3.21,3.2a16.33,16.33,0,0,0-2,4.87H26.39a1,1,0,0,0-1,1V41a1,1,0,0,0,1,1h3.39c.09.34.18.68.29,1a1,1,0,0,0-.76.93,16.5,16.5,0,0,0,7.53,13.85,2.84,2.84,0,0,1,1.23,2.38v4.2h-2v2h2v1.95h-2v1.94H55.59V68.24h-2V66.29h2v-2h-2v-4.2a2.84,2.84,0,0,1,1.23-2.38A16.5,16.5,0,0,0,62.4,43.91a1,1,0,0,0-.76-.93c.1-.34.2-.68.29-1h3.39a1,1,0,0,0,1-1V35.15A1,1,0,0,0,65.32,34.18ZM51.69,68.24H40V66.29H51.69ZM40,64.34V62.4H51.69v1.94Zm13.79-8.21a4.73,4.73,0,0,0-2.12,4v.31H40v-.31a4.73,4.73,0,0,0-2.12-4,14.55,14.55,0,0,1-6.61-11.25H60.42A14.55,14.55,0,0,1,53.81,56.13ZM35.15,38.07a10.71,10.71,0,1,1,20.22,4.87H50.61a6.82,6.82,0,1,0-9.51,0H36.34A10.71,10.71,0,0,1,35.15,38.07Zm5.84,0a4.87,4.87,0,1,1,4.86,4.87A4.87,4.87,0,0,1,41,38.07Zm23.35,2h-3.2a1,1,0,0,0-1,.79,14.69,14.69,0,0,1-.6,2.13H57.53a12.66,12.66,0,1,0-23.35,0H32.12a14.69,14.69,0,0,1-.6-2.13,1,1,0,0,0-.95-.79h-3.2v-3.9h3.2a1,1,0,0,0,.95-.79,14.56,14.56,0,0,1,2.36-5.59,1,1,0,0,0-.11-1.24l-3.08-3.08L33.2,22.9,36.28,26a1,1,0,0,0,1.25.11,14.33,14.33,0,0,1,5.59-2.35,1,1,0,0,0,.79-1v-3.2H47.8v3.2a1,1,0,0,0,.79,1,14.33,14.33,0,0,1,5.59,2.35A1,1,0,0,0,55.43,26L58.5,22.9,61,25.42,57.94,28.5a1,1,0,0,0-.11,1.24,14.5,14.5,0,0,1,2.36,5.59,1,1,0,0,0,1,.79h3.2Z"/></svg>