<svg xmlns="http://www.w3.org/2000/svg" viewBox="0 0 283.46 283.46"><circle cx="141.73" cy="141.73" r="73.77" fill="#d27ab0" stroke="#000" stroke-miterlimit="10" stroke-width="4"/><circle cx="141.73" cy="141.73" r="68.11" fill="none" stroke="#000" stroke-miterlimit="10" stroke-width="0.75" stroke-dasharray="2"/><path d="M129.2,143.58a.79.79,0,0,0-.8.78h0a38.66,38.66,0,0,0,.3,4.06c.28,2.17.68,4.6,2,5.95a6,6,0,0,0,6.95,1.09,14.39,14.39,0,0,0-4.09-3.32.79.79,0,0,1-.45-1,.79.79,0,0,1,1-.45,14.32,14.32,0,0,1,4.69,3.76,8.39,8.39,0,0,1,2.07,4.8v5.1a.79.79,0,1,0,1.57,0v-5.1a8.33,8.33,0,0,1,2.07-4.8,14.12,14.12,0,0,1,4.69-3.76.8.8,0,0,1,.3-.06.79.79,0,0,1,.28,1.52,14.39,14.39,0,0,0-4.09,3.32,6,6,0,0,0,7-1.09c1.35-1.35,1.76-3.78,2-5.95a38.66,38.66,0,0,0,.3-4.06.78.78,0,0,0-.78-.79h0a38.66,38.66,0,0,0-4.06.3c-2.16.27-4.59.68-5.94,2a6,6,0,0,0-.82,7.44,13.5,13.5,0,0,0-1.72,2.67,13.92,13.92,0,0,0-1.71-2.67,6,6,0,0,0-.82-7.44c-1.35-1.35-3.78-1.76-5.94-2A38.83,38.83,0,0,0,129.2,143.58Z" fill="#010101"/><path d="M132.84,178.78h3v4.45a1.49,1.49,0,0,0,1.49,1.48h8.89a1.48,1.48,0,0,0,1.48-1.48v-4.45h3v-3H132.84Zm11.86,3h-5.93v-3h5.93Z"/><path d="M171.37,124h-5.16a24.44,24.44,0,0,0-3.12-7.41l4.88-4.88a1.48,1.48,0,0,0,0-2.1l-5.92-5.93a1.48,1.48,0,0,0-2.1,0l-4.88,4.88a24.78,24.78,0,0,0-7.41-3.11v-5.17a1.48,1.48,0,0,0-1.48-1.48h-8.89a1.49,1.49,0,0,0-1.49,1.48v5.17a24.78,24.78,0,0,0-7.41,3.11l-4.88-4.88a1.47,1.47,0,0,0-2.09,0l-5.93,5.93a1.48,1.48,0,0,0,0,2.1l4.88,4.88a25,25,0,0,0-3.12,7.41h-5.16a1.48,1.48,0,0,0-1.48,1.48v8.89a1.48,1.48,0,0,0,1.48,1.48h5.16c.13.53.28,1,.44,1.55a1.48,1.48,0,0,0-1.15,1.42A25.09,25.09,0,0,0,128,159.86a4.35,4.35,0,0,1,1.88,3.63v6.4h-3v3h3v3h-3v3h29.64v-3h-3v-3h3v-3h-3v-6.4a4.33,4.33,0,0,1,1.87-3.62,25.13,25.13,0,0,0,11.47-21.1,1.48,1.48,0,0,0-1.15-1.42c.15-.51.3-1,.43-1.55h5.16a1.49,1.49,0,0,0,1.49-1.48v-8.89A1.49,1.49,0,0,0,171.37,124Zm-20.75,51.87H132.84v-3h17.78Zm-17.78-5.93v-3h17.78v3Zm21-12.51a7.22,7.22,0,0,0-3.23,6.11V164H132.84v-.47a7.22,7.22,0,0,0-3.22-6.11,22.14,22.14,0,0,1-10.07-17.13h44.36A22.16,22.16,0,0,1,153.85,157.38Zm-28.42-27.5a16.3,16.3,0,1,1,30.79,7.41H149a10.38,10.38,0,1,0-14.49,0h-7.24A16.17,16.17,0,0,1,125.43,129.88Zm8.89,0a7.41,7.41,0,1,1,7.41,7.41A7.42,7.42,0,0,1,134.32,129.88Zm35.57,3H165a1.48,1.48,0,0,0-1.45,1.2,22.66,22.66,0,0,1-.9,3.25h-3.14a19.27,19.27,0,1,0-35.57,0h-3.14a21.43,21.43,0,0,1-.9-3.25,1.5,1.5,0,0,0-1.46-1.2h-4.88v-5.93h4.88a1.5,1.5,0,0,0,1.46-1.2,21.84,21.84,0,0,1,3.58-8.52,1.47,1.47,0,0,0-.17-1.89l-4.69-4.69,3.84-3.83,4.68,4.68a1.49,1.49,0,0,0,1.9.17,22,22,0,0,1,8.51-3.58,1.48,1.48,0,0,0,1.21-1.46v-4.87h5.93v4.87a1.47,1.47,0,0,0,1.2,1.46,22,22,0,0,1,8.52,3.58,1.47,1.47,0,0,0,1.89-.17l4.69-4.68,3.83,3.83-4.69,4.69a1.47,1.47,0,0,0-.16,1.89,22.14,22.14,0,0,1,3.58,8.52,1.48,1.48,0,0,0,1.45,1.2h4.88Z"/></svg>