<svg xmlns="http://www.w3.org/2000/svg" viewBox="0 0 283.46 283.46"><circle cx="141.73" cy="141.73" r="73.77" fill="none" stroke="#000" stroke-miterlimit="10" stroke-width="4"/><circle cx="141.73" cy="141.73" r="68.11" fill="none" stroke="#000" stroke-miterlimit="10" stroke-width="0.75" stroke-dasharray="2"/><path d="M159.05,153.13l-5.7-9.6h4c.1,0,.2-.1.3-.1a.19.19,0,0,0,0-.3l-5.9-10h2.6c.1,0,.2-.1.3-.1a.19.19,0,0,0,0-.3l-10.2-19.5a.38.38,0,0,0-.6,0l-10.2,19.4c-.1.1,0,.2,0,.3a.37.37,0,0,0,.3.1h2.8l-5.9,10a.19.19,0,0,0,0,.3.37.37,0,0,0,.3.1H135l-5.7,9.6a.19.19,0,0,0,0,.3.37.37,0,0,0,.3.1H141V161h5.6v-7.4h12.1c.1,0,.2-.1.3-.1A.6.6,0,0,0,159.05,153.13Z" fill="#010101"/><path d="M174.25,149l-2.7-5.2h1.7c.1,0,.2-.1.3-.2a.19.19,0,0,0,0-.3l-2.8-5.4h1c.1,0,.2-.1.3-.2a.19.19,0,0,0,0-.3l-5.1-11a.37.37,0,0,0-.6,0l-5.1,11c-.1.1,0,.2,0,.3s.2.2.3.2h1.1l-2.8,5.4a.19.19,0,0,0,0,.3c.1.1.2.2.3.2h1.6l-2.7,5.2a.19.19,0,0,0,0,.3c.1.1.2.2.3.2h5.7v3.7h2.8v-3.7h6c.1,0,.2-.1.3-.2S174.25,149.13,174.25,149Z" fill="#010101"/><path d="M129.45,149.13l-2.7-5.2h1.7c.1,0,.2-.1.3-.2a.19.19,0,0,0,0-.3L126,138h1c.1,0,.2-.1.3-.2a.19.19,0,0,0,0-.3l-5.1-11a.37.37,0,0,0-.6,0l-5.1,11c-.1.1,0,.2,0,.3s.2.2.3.2h1.1l-2.8,5.4a.19.19,0,0,0,0,.3c.1.1.2.2.3.2H117l-2.7,5.2a.19.19,0,0,0,0,.3c.1.1.2.2.3.2h5.7v3.7h2.8v-3.7h6c.1,0,.2-.1.3-.2S129.55,149.23,129.45,149.13Z" fill="#010101"/><path d="M126.65,157.43h-10a.7.7,0,1,1,0-1.4h10.1a.68.68,0,0,1,.7.7A.77.77,0,0,1,126.65,157.43Z" fill="#010101"/><path d="M171.55,164.53h-54.8a.71.71,0,0,0-.8.7.77.77,0,0,0,.8.7h54.8a.71.71,0,0,0,.8-.7C172.45,164.83,172.05,164.53,171.55,164.53Z" fill="#010101"/><path d="M171.75,157.43h-10.1a.7.7,0,1,1,0-1.4h10.1a.7.7,0,1,1,0,1.4Z" fill="#010101"/><path d="M166.15,161.73h-10.1a.7.7,0,1,1,0-1.4h10.1a.7.7,0,0,1,0,1.4Z" fill="#010101"/><path d="M132.45,161.73h-10.1a.7.7,0,0,1,0-1.4h10.1a.68.68,0,0,1,.7.7A.75.75,0,0,1,132.45,161.73Z" fill="#010101"/><path d="M164.4,121.05l19.49,1.86,1.77-20.09-5.06-.45-1,11.36a45.68,45.68,0,1,0,2.68,52.2L178,163.24a40.63,40.63,0,1,1-2.18-46.14L164.84,116Z" fill="#010101"/></svg>