<svg xmlns="http://www.w3.org/2000/svg" viewBox="0 0 91.71 91.71"><rect x="0.5" y="0.5" width="90.71" height="90.71" rx="45.35" fill="#ff5757"/><rect x="0.5" y="0.5" width="90.71" height="90.71" rx="45.35" fill="none" stroke="#1d1d1b" stroke-linecap="round" stroke-linejoin="round" stroke-dasharray="5.09 5.09"/><path d="M57.23,53.33,53.49,47h2.62c.07,0,.13-.06.2-.06a.13.13,0,0,0,0-.2L52.43,40.2h1.71c.07,0,.13-.06.2-.06a.13.13,0,0,0,0-.2l-6.7-12.8a.24.24,0,0,0-.39,0l-6.7,12.73c-.07.07,0,.14,0,.2a.24.24,0,0,0,.2.07h1.84L38.71,46.7a.13.13,0,0,0,0,.2.24.24,0,0,0,.2.07H41.4l-3.74,6.3a.13.13,0,0,0,0,.2.26.26,0,0,0,.2.06h7.48v5H49V53.66H57c.06,0,.13-.06.19-.06A.39.39,0,0,0,57.23,53.33Z"/><path d="M67.21,50.64l-1.78-3.41h1.12c.07,0,.13-.07.2-.13a.13.13,0,0,0,0-.2l-1.84-3.55h.66a.31.31,0,0,0,.19-.13.11.11,0,0,0,0-.19L62.41,35.8a.24.24,0,0,0-.39,0L58.67,43c-.06.06,0,.13,0,.19s.13.13.2.13h.72L57.75,46.9a.13.13,0,0,0,0,.2c.07.06.13.13.2.13h1l-1.77,3.41a.12.12,0,0,0,0,.2.31.31,0,0,0,.19.13h3.75V53.4H63V51H67a.31.31,0,0,0,.19-.13C67.21,50.84,67.21,50.71,67.21,50.64Z"/><path d="M37.79,50.71,36,47.29h1.12a.31.31,0,0,0,.19-.13.11.11,0,0,0,0-.19l-1.84-3.55h.66c.07,0,.13-.07.2-.13a.13.13,0,0,0,0-.2L33,35.87a.24.24,0,0,0-.39,0l-3.35,7.22c-.07.07,0,.13,0,.2s.13.13.19.13h.73L28.34,47a.11.11,0,0,0,0,.19.31.31,0,0,0,.19.13h1.06l-1.78,3.42a.13.13,0,0,0,0,.2c.07.06.13.13.2.13h3.74v2.43h1.84V51h3.94c.07,0,.13-.07.2-.13S37.86,50.77,37.79,50.71Z"/><path d="M36,56.16H29.39a.46.46,0,0,1,0-.92H36a.45.45,0,0,1,.46.46A.51.51,0,0,1,36,56.16Z"/><path d="M65.43,60.82h-36a.47.47,0,0,0-.52.46.51.51,0,0,0,.52.46h36a.47.47,0,0,0,.53-.46C66,61,65.76,60.82,65.43,60.82Z"/><path d="M65.57,56.16H58.93a.46.46,0,0,1,0-.92h6.64a.46.46,0,1,1,0,.92Z"/><path d="M61.89,59H55.26a.46.46,0,0,1,0-.92h6.63a.46.46,0,1,1,0,.92Z"/><path d="M39.76,59H33.13a.46.46,0,0,1,0-.92h6.63a.45.45,0,0,1,.46.46A.49.49,0,0,1,39.76,59Z"/><path d="M60.74,32.28l12.79,1.21L74.69,20.3,71.37,20l-.66,7.46a30,30,0,1,0,1.76,34.27L69.64,60a26.67,26.67,0,1,1-1.43-30.29L61,29Z"/></svg>