<svg xmlns="http://www.w3.org/2000/svg" viewBox="0 0 91.71 91.71"><text transform="translate(45.14 67.43)" font-size="0.01" font-family="HelveticaNeue-Bold, Helvetica Neue" font-weight="700" style="isolation:isolate">Created by Olena Panasovska</text><text transform="translate(45.33 67.43)" font-size="0.01" font-family="HelveticaNeue-Bold, Helvetica Neue" font-weight="700" style="isolation:isolate">from the Noun Project</text><rect x="0.5" y="0.5" width="90.71" height="90.71" rx="45.35" fill="#ff9a9a" stroke="#1d1d1b" stroke-linecap="round" stroke-linejoin="round" stroke-dasharray="5"/><path d="M58.33,29.49l3-1.27c.09.07.2.14.29.22a6.22,6.22,0,0,1-.44,1.63c-1.49,2.61-3,5.19-4.61,7.75a1.38,1.38,0,0,1-1,.63q-4.74-.31-9.48-.77A3.73,3.73,0,0,1,45,37.19a7.75,7.75,0,0,1,.95-.95,11.71,11.71,0,0,1,1.48-.74c-1.9-3.43-3.62-6.88-5.69-10.1-.82-1.26-2.41-2-3.56-2.94a5.75,5.75,0,0,1,.67-.05c3.79,0,7.57.05,11.36,0,3.18-.07,5.51,1.06,6.7,4.17A31.89,31.89,0,0,0,58.33,29.49Z" fill-rule="evenodd"/><path d="M49,53.29c3.92,0,11.1.05,14.82,0a6.54,6.54,0,0,0,2.53-.79,19,19,0,0,0,2.29-1.57l-4.09,7.44c-1,1.77-2,3.53-2.92,5.34a4,4,0,0,1-3.91,2.38h-8c0,.87,0,1.63,0,2.39,0,.31-.21.78-.44.86a1,1,0,0,1-.91-.36q-2.78-4.14-5.45-8.36a1.17,1.17,0,0,1,.1-1q2.3-4.08,4.68-8.13c.17-.28.59-.43.89-.64a3.89,3.89,0,0,1,.41.94A12.57,12.57,0,0,1,49,53.29Z" fill-rule="evenodd"/><path d="M52.1,42,62.34,36c1.15,1.75,2.26,3.43,3.36,5.12l2.61,4A2.76,2.76,0,0,1,68.59,48a6.43,6.43,0,0,1-5.3,3.77,37.7,37.7,0,0,1-4.51,0,1.38,1.38,0,0,1-1-.45C55.89,48.27,54,45.18,52.1,42Z" fill-rule="evenodd"/><path d="M36.14,42.27l-9.91-6.64s2.85-4.37,3.73-5.77a39.88,39.88,0,0,0,2.42-3.93c1.38-2.93,4.86-2.59,6.6-1A17.45,17.45,0,0,1,43.05,31a1.1,1.1,0,0,1-.15.87C41.05,34.82,36.14,42.27,36.14,42.27Z" fill-rule="evenodd"/><path d="M25.89,46v.15h-2a1,1,0,0,0-1,1V67a1,1,0,0,0,1,1h9.68a1,1,0,0,0,1-1V47.09a1,1,0,0,0-1-1h-2V46a.92.92,0,0,0-1-.89H26.86A.93.93,0,0,0,25.89,46Zm4.58.13v1l3.06,0V67H23.85V47.09h3.06v-1ZM24.74,66v-4h7.9v4Z"/></svg>