<svg xmlns="http://www.w3.org/2000/svg" viewBox="0 0 91.71 91.71"><rect x="0.5" y="0.5" width="90.71" height="90.71" rx="45.35" fill="#99f"/><rect x="0.5" y="0.5" width="90.71" height="90.71" rx="45.35" fill="none" stroke="#1d1d1b" stroke-linecap="round" stroke-linejoin="round" stroke-dasharray="5.09 5.09"/><path d="M59,64.87H34a5,5,0,0,1-5-5V21A5,5,0,0,1,34,16H49.85L63.94,29.61v30.3A5,5,0,0,1,59,64.87Z" fill="none" stroke="#000" stroke-linecap="round" stroke-linejoin="round" stroke-width="2.87"/><path d="M63.94,29.61H54.12a4.27,4.27,0,0,1-4.27-4.27V16" fill="none" stroke="#000" stroke-linecap="round" stroke-linejoin="round" stroke-width="2.87"/><polyline points="50.01 44.19 55.24 40.8 50.01 37.41" fill="none" stroke="#000" stroke-linecap="round" stroke-linejoin="round" stroke-width="2.28"/><polyline points="41.7 44.17 36.47 40.77 41.7 37.38" fill="none" stroke="#000" stroke-linecap="round" stroke-linejoin="round" stroke-width="2.28"/><line x1="47.39" y1="35.46" x2="44.24" y2="46.2" fill="none" stroke="#000" stroke-linecap="round" stroke-linejoin="round" stroke-width="2.28"/><path d="M38.76,55A14,14,0,0,0,28.5,58l-9.38,7.58,8.15,10.08,6.32-5.12,20.86,2.22,17-13.71A3.07,3.07,0,0,0,72.1,55a3,3,0,0,0-4.37-.66L54.93,64.71,43.68,63.54a1,1,0,0,1,.21-2l9,.94a3,3,0,0,0,3.3-2.86,3,3,0,0,0-2.78-3.09Z"/></svg>