<svg xmlns="http://www.w3.org/2000/svg" viewBox="0 0 90.78 91.71"><rect x="0.5" y="0.5" width="89.78" height="90.71" rx="44.89" fill="#99f"/><rect x="0.5" y="0.5" width="89.78" height="90.71" rx="44.89" fill="none" stroke="#1d1d1b" stroke-linecap="round" stroke-linejoin="round" stroke-dasharray="5.07 5.07"/><path d="M45.67,66.79H28.46a5,5,0,0,1-5-5V22.89a5,5,0,0,1,5-4.95H44.27v9.31a4.28,4.28,0,0,0,4.27,4.28h9.83V51.3" fill="none" stroke="#000" stroke-linecap="round" stroke-linejoin="round" stroke-width="2.87"/><path d="M44.27,27.25V17.94l14.1,13.59H48.54A4.28,4.28,0,0,1,44.27,27.25Z" fill="none" stroke="#000" stroke-linecap="round" stroke-linejoin="round" stroke-width="2.87"/><line x1="28.46" y1="37.51" x2="53.41" y2="37.51" fill="none" stroke="#000" stroke-linecap="round" stroke-linejoin="round" stroke-width="2.28"/><line x1="28.46" y1="42.36" x2="53.41" y2="42.36" fill="none" stroke="#000" stroke-linecap="round" stroke-linejoin="round" stroke-width="2.28"/><line x1="28.46" y1="47.21" x2="48" y2="47.21" fill="none" stroke="#000" stroke-linecap="round" stroke-linejoin="round" stroke-width="2.28"/><path d="M60.88,65.65a10.62,10.62,0,1,0-1.73,1.72l6.4,6.4,1.73-1.72ZM52.6,67.22a8,8,0,0,1-2.6-.43,8.12,8.12,0,1,1,2.6.43Z"/><circle cx="52.6" cy="59.09" r="8.13" fill="none"/><text transform="translate(50.66 64.14)" font-size="13.35" font-family="AkkuratPro-Bold, Akkurat Pro" font-weight="700">i</text><text transform="translate(28.26 33.16)" font-size="13.2" font-family="AkkuratPro-Bold, Akkurat Pro" font-weight="700">€</text></svg>