<svg xmlns="http://www.w3.org/2000/svg" viewBox="0 0 283.46 283.46"><circle cx="141.73" cy="141.73" r="73.77" fill="none" stroke="#000" stroke-miterlimit="10" stroke-width="4"/><circle cx="141.73" cy="141.73" r="68.11" transform="translate(-43.45 65.03) rotate(-22.5)" fill="none" stroke="#000" stroke-miterlimit="10" stroke-width="0.75" stroke-dasharray="2"/><path d="M141.73,127.17a15.61,15.61,0,1,0-15.62-15.6A15.64,15.64,0,0,0,141.73,127.17Z" fill="none" stroke="#010101" stroke-miterlimit="10" stroke-width="2"/><path d="M145.84,113a1.44,1.44,0,0,1-.14,1.18l-4.61,7.29a1.41,1.41,0,0,1-1.18.66,1.44,1.44,0,0,1-.75-.21,1.41,1.41,0,0,1-.45-1.93l3.71-5.88-4-1.6a1.42,1.42,0,0,1-.81-.87,1.4,1.4,0,0,1,.15-1.18l5.56-8.75a1.4,1.4,0,0,1,2.36,1.52l-4.65,7.3,4,1.6A1.33,1.33,0,0,1,145.84,113Z" fill="#010101" stroke="#010101" stroke-miterlimit="10"/><path d="M119.74,111.57a1.38,1.38,0,0,0-1.4-1.4H106.47a1.4,1.4,0,0,0-1.41,1.4v10.08h14.68Z" fill="#010101"/><path d="M177,110.17H165.13a1.39,1.39,0,0,0-1.41,1.4v10.08H178.4V111.57A1.39,1.39,0,0,0,177,110.17Z" fill="#010101"/><path d="M163.72,150.85a22,22,0,0,1-44,0v-26.4H105.06v26.4a36.67,36.67,0,0,0,73.34,0v-26.4H163.72Z" fill="#010101"/></svg>