<svg xmlns="http://www.w3.org/2000/svg" viewBox="0 0 91.71 91.71"><rect x="0.5" y="0.5" width="90.71" height="90.71" rx="45.35" fill="#33f"/><rect x="0.5" y="0.5" width="90.71" height="90.71" rx="45.35" fill="none" stroke="#1d1d1b" stroke-linecap="round" stroke-linejoin="round" stroke-dasharray="5.09 5.09"/><path d="M45.85,37.81A10.25,10.25,0,1,0,35.6,27.57,10.26,10.26,0,0,0,45.85,37.81Z" fill="none" stroke="#000" stroke-miterlimit="10" stroke-width="2"/><path d="M48.55,28.48a.93.93,0,0,1-.09.78l-3,4.78a.91.91,0,0,1-.77.44,1,1,0,0,1-.49-.14.93.93,0,0,1-.3-1.27l2.44-3.86-2.62-1.05a.92.92,0,0,1-.54-.57,1,1,0,0,1,.1-.78l3.65-5.74a.94.94,0,0,1,1.28-.28.93.93,0,0,1,.27,1.28L45.4,26.86,48,27.91A.86.86,0,0,1,48.55,28.48Z" stroke="#000" stroke-miterlimit="10"/><path d="M31.42,27.57a.91.91,0,0,0-.93-.92H22.7a.91.91,0,0,0-.92.92v6.62h9.64Z"/><path d="M69,26.65h-7.8a.91.91,0,0,0-.92.92v6.62h9.64V27.57A.91.91,0,0,0,69,26.65Z"/><path d="M60.29,53.36a14.44,14.44,0,1,1-28.87,0V36H21.78V53.36a24.08,24.08,0,0,0,48.15,0V36H60.29Z"/></svg>