<svg xmlns="http://www.w3.org/2000/svg" viewBox="0 0 91.71 91.71"><rect x="0.5" y="0.5" width="90.71" height="90.71" rx="45.35" fill="#99f"/><path d="M45.85,91.21A45.36,45.36,0,0,1,.5,45.85h0a45.36,45.36,0,0,1,90.71,0h0A45.36,45.36,0,0,1,45.85,91.21Z" fill="none" stroke="#1d1d1b" stroke-linecap="round" stroke-linejoin="round" stroke-dasharray="5.09 5.09"/><text transform="translate(34.29 61.5)" font-size="13.79" font-family="HelveticaNeue-CondensedBlack, Helvetica Neue" font-weight="800">(3RI)</text><path d="M25.87,68.75V64.61a1.75,1.75,0,0,1,3.5,0V67H64.12V24.71H29.37V26.9a1.75,1.75,0,0,1-3.5,0V23a1.75,1.75,0,0,1,1.75-1.75H65.87A1.75,1.75,0,0,1,67.62,23V68.75a1.75,1.75,0,0,1-1.75,1.75H27.62A1.75,1.75,0,0,1,25.87,68.75Zm-1.79-9A1.76,1.76,0,0,1,25.83,58h3.89a1.75,1.75,0,0,1,0,3.5H25.83A1.75,1.75,0,0,1,24.08,59.75Zm0-5.6a1.76,1.76,0,0,1,1.75-1.75h3.89a1.75,1.75,0,1,1,0,3.5H25.83A1.75,1.75,0,0,1,24.08,54.15Zm0-5.6a1.76,1.76,0,0,1,1.75-1.75h3.89a1.75,1.75,0,0,1,0,3.5H25.83A1.75,1.75,0,0,1,24.08,48.55Zm0-5.6a1.76,1.76,0,0,1,1.75-1.75h3.89a1.75,1.75,0,0,1,0,3.5H25.83A1.75,1.75,0,0,1,24.08,43Zm0-5.6a1.76,1.76,0,0,1,1.75-1.75h3.89a1.75,1.75,0,0,1,0,3.5H25.83A1.75,1.75,0,0,1,24.08,37.35Zm0-5.6A1.76,1.76,0,0,1,25.83,30h3.89a1.75,1.75,0,0,1,0,3.5H25.83A1.75,1.75,0,0,1,24.08,31.75Z" fill-rule="evenodd"/><path d="M49.05,30.32v-.5h.46v-.54h-.23V27.94H46.15v1.34h-.23v.54h.46v.5a3.41,3.41,0,0,0-2.55,3.14h0v1.18a.64.64,0,0,0,.29.52v.31a.63.63,0,0,0-.29.52v.92a.64.64,0,0,0,.29.52v.31a.63.63,0,0,0-.29.52V47a.75.75,0,0,0,.8.69H50.8a.75.75,0,0,0,.8-.69h0V38.27a.63.63,0,0,0-.29-.52v-.31a.64.64,0,0,0,.29-.52V36a.63.63,0,0,0-.29-.52v-.31a.64.64,0,0,0,.29-.52V33.47h0A3.41,3.41,0,0,0,49.05,30.32Z"/></svg>