<svg xmlns="http://www.w3.org/2000/svg" viewBox="0 0 91.71 91.71"><rect x="0.5" y="0.5" width="90.71" height="90.71" rx="45.35" fill="#33f"/><path d="M45.85,91.21h0A45.36,45.36,0,0,1,45.85.5h0a45.36,45.36,0,1,1,0,90.71Z" fill="none" stroke="#1d1d1b" stroke-linecap="round" stroke-linejoin="round" stroke-dasharray="5.09 5.09"/><path d="M39.34,38.25h0v1.56a.83.83,0,0,1-.38.68v.42a.83.83,0,0,1,.38.67V42.8a.83.83,0,0,1-.38.68v.42a.83.83,0,0,1,.38.67v9.82c-.78.33-1.5.69-2.2,1A13.39,13.39,0,0,1,32.65,57h-2a8.12,8.12,0,0,1-1.23-.25.84.84,0,0,1-.32-.66V44.57a.83.83,0,0,1,.38-.67v-.42a.83.83,0,0,1-.38-.68V41.58a.83.83,0,0,1,.38-.67v-.42a.83.83,0,0,1-.38-.68V38.25h0a4.46,4.46,0,0,1,3.35-4.13v-.67h-.62v-.7h.32V31h4.11v1.77h.31v.7H36v.67A4.48,4.48,0,0,1,39.34,38.25Z"/><path d="M29.18,21.47a.32.32,0,0,0-.32.31h0A16.3,16.3,0,0,0,29,23.42a4.23,4.23,0,0,0,.82,2.39,2.42,2.42,0,0,0,2.8.44A5.92,5.92,0,0,0,31,24.91a.32.32,0,0,1,.11-.61.28.28,0,0,1,.13,0,5.63,5.63,0,0,1,1.88,1.51,3.37,3.37,0,0,1,.84,1.93v3.59a.32.32,0,1,0,.63,0V27.77a3.35,3.35,0,0,1,.83-1.93,5.56,5.56,0,0,1,1.89-1.51.27.27,0,0,1,.12,0,.32.32,0,0,1,.31.32.3.3,0,0,1-.2.29,5.78,5.78,0,0,0-1.64,1.34,2.41,2.41,0,0,0,2.79-.44,4.16,4.16,0,0,0,.82-2.39,16.3,16.3,0,0,0,.12-1.63.31.31,0,0,0-.31-.32h0a13.39,13.39,0,0,0-1.63.12,4.22,4.22,0,0,0-2.39.81,2.42,2.42,0,0,0-.33,3,5.28,5.28,0,0,0-.69,1.07,5.28,5.28,0,0,0-.69-1.07,2.42,2.42,0,0,0-.33-3,4.22,4.22,0,0,0-2.39-.81A13.39,13.39,0,0,0,29.18,21.47Z"/><path d="M41,19.23a.31.31,0,0,0-.32.31h0a16.4,16.4,0,0,0,.12,1.64,4.25,4.25,0,0,0,.82,2.39,2.42,2.42,0,0,0,2.8.44,5.74,5.74,0,0,0-1.65-1.34.32.32,0,0,1-.18-.41.31.31,0,0,1,.29-.2.28.28,0,0,1,.13,0,5.63,5.63,0,0,1,1.88,1.51,3.37,3.37,0,0,1,.84,1.93v6a.32.32,0,1,0,.63,0v-6a3.35,3.35,0,0,1,.83-1.93,5.56,5.56,0,0,1,1.89-1.51.27.27,0,0,1,.12,0,.32.32,0,0,1,.31.32.31.31,0,0,1-.2.29A5.6,5.6,0,0,0,47.69,24a2.41,2.41,0,0,0,2.79-.44,4.18,4.18,0,0,0,.82-2.39,13.49,13.49,0,0,0,.12-1.64.31.31,0,0,0-.31-.31h0a14.59,14.59,0,0,0-1.63.11,4.3,4.3,0,0,0-2.39.82,2.41,2.41,0,0,0-.33,3,5.64,5.64,0,0,0-.69,1.08,5.64,5.64,0,0,0-.69-1.08,2.41,2.41,0,0,0-.33-3,4.3,4.3,0,0,0-2.39-.82A14.59,14.59,0,0,0,41,19.23Z"/><path d="M52.45,23.32a.32.32,0,0,0-.32.32h0a13.39,13.39,0,0,0,.12,1.63,4.28,4.28,0,0,0,.81,2.4,2.43,2.43,0,0,0,2.8.44,5.6,5.6,0,0,0-1.64-1.34.31.31,0,0,1-.18-.41.3.3,0,0,1,.29-.2l.12,0a5.92,5.92,0,0,1,1.89,1.51,3.38,3.38,0,0,1,.83,1.94V31.2a.32.32,0,1,0,.63,0V29.63a3.38,3.38,0,0,1,.83-1.94,5.92,5.92,0,0,1,1.89-1.51l.12,0a.32.32,0,0,1,.12.61,5.74,5.74,0,0,0-1.65,1.34,2.43,2.43,0,0,0,2.8-.44,4.29,4.29,0,0,0,.82-2.4,16.3,16.3,0,0,0,.12-1.63.33.33,0,0,0-.32-.32h0a16.3,16.3,0,0,0-1.63.12,4.23,4.23,0,0,0-2.39.82,2.41,2.41,0,0,0-.33,3,5.64,5.64,0,0,0-.69,1.08,5.64,5.64,0,0,0-.69-1.08,2.41,2.41,0,0,0-.33-3,4.23,4.23,0,0,0-2.39-.82A16.3,16.3,0,0,0,52.45,23.32Z"/><path d="M51.18,38.25h0v1.56a.83.83,0,0,1-.38.68v.42a.83.83,0,0,1,.38.67V42.8a.83.83,0,0,1-.38.68v.42a.83.83,0,0,1,.38.67v9.32a16.6,16.6,0,0,0-10.24-.1V44.57a.8.8,0,0,1,.38-.67v-.42a.84.84,0,0,1-.39-.68V41.58a.84.84,0,0,1,.39-.67v-.42a.84.84,0,0,1-.39-.68V38.25a4.48,4.48,0,0,1,3.37-4.13v-.67h-.62v-.7H44V31h4.11v1.77h.31v.7h-.61v.67A4.48,4.48,0,0,1,51.18,38.25Z"/><path d="M62.6,38.25h0v1.56a.83.83,0,0,1-.38.68v.42a.83.83,0,0,1,.38.67V42.8a.83.83,0,0,1-.38.68v.42a.83.83,0,0,1,.38.67V56.13a.84.84,0,0,1-.4.71h0a7.08,7.08,0,0,1-1,.2h-2a13.49,13.49,0,0,1-4.51-1.61c-.72-.36-1.47-.74-2.3-1.09V44.57a.83.83,0,0,1,.38-.67v-.42a.83.83,0,0,1-.38-.68V41.58a.83.83,0,0,1,.38-.67v-.42a.83.83,0,0,1-.38-.68V38.25h0a4.47,4.47,0,0,1,3.36-4.13v-.67h-.61v-.7h.31V31h4.11v1.77h.32v.7h-.62v.67A4.47,4.47,0,0,1,62.6,38.25Z"/><path d="M76.3,66.38a2,2,0,0,1-2,2c-5.47,0-7.6,4.07-14.24,4.07s-8.83-4.07-14.25-4.07-7.55,4.07-14.24,4.07-8.77-4.07-14.24-4.07a2,2,0,0,1,0-4.06c6.71,0,8.85,4.06,14.24,4.06s7.57-4.06,14.24-4.06,8.83,4.06,14.25,4.06,7.51-4.06,14.24-4.06A2,2,0,0,1,76.3,66.38Z"/><path d="M76.3,58.24a2,2,0,0,1-2,2c-5.47,0-7.6,4.07-14.24,4.07s-8.83-4.07-14.25-4.07-7.55,4.07-14.24,4.07-8.77-4.07-14.24-4.07a2,2,0,0,1,0-4.07c6.71,0,8.85,4.07,14.24,4.07s7.57-4.07,14.24-4.07,8.83,4.07,14.25,4.07,7.51-4.07,14.24-4.07A2,2,0,0,1,76.3,58.24Z"/><path d="M76.3,58.24a2,2,0,0,1-2,2c-5.47,0-7.6,4.07-14.24,4.07s-8.83-4.07-14.25-4.07-7.55,4.07-14.24,4.07-8.77-4.07-14.24-4.07a2,2,0,0,1,0-4.07c6.71,0,8.85,4.07,14.24,4.07s7.57-4.07,14.24-4.07,8.83,4.07,14.25,4.07,7.51-4.07,14.24-4.07A2,2,0,0,1,76.3,58.24Z" fill="none" stroke="#000" stroke-miterlimit="10"/></svg>