<svg xmlns="http://www.w3.org/2000/svg" viewBox="0 0 283.46 283.46"><circle cx="141.73" cy="141.73" r="73.77" fill="none" stroke="#000" stroke-miterlimit="10" stroke-width="4"/><path d="M141.73,209.84a68.11,68.11,0,1,1,68.11-68.11A68.18,68.18,0,0,1,141.73,209.84Z" fill="none" stroke="#000" stroke-miterlimit="10" stroke-width="0.75" stroke-dasharray="2"/><path d="M131.81,130.15h0v2.37a1.29,1.29,0,0,1-.58,1v.63a1.27,1.27,0,0,1,.58,1v1.85a1.29,1.29,0,0,1-.58,1v.63a1.29,1.29,0,0,1,.58,1v14.95c-1.19.51-2.29,1.05-3.34,1.58a20.37,20.37,0,0,1-6.85,2.46h-3a12.38,12.38,0,0,1-1.87-.38,1.28,1.28,0,0,1-.49-1v-17.6a1.28,1.28,0,0,1,.57-1v-.63a1.28,1.28,0,0,1-.57-1v-1.85a1.26,1.26,0,0,1,.57-1v-.63a1.28,1.28,0,0,1-.57-1v-2.37h0a6.81,6.81,0,0,1,5.11-6.29v-1h-.94v-1.07h.47v-2.69h6.27v2.69h.47v1.07h-.93v1A6.84,6.84,0,0,1,131.81,130.15Z"/><path d="M116.34,104.59a.48.48,0,0,0-.49.48h0a23.5,23.5,0,0,0,.18,2.49,6.41,6.41,0,0,0,1.25,3.64,3.68,3.68,0,0,0,4.26.67,8.88,8.88,0,0,0-2.5-2,.48.48,0,0,1-.28-.62.48.48,0,0,1,.45-.31.39.39,0,0,1,.18,0,8.68,8.68,0,0,1,2.88,2.3,5.12,5.12,0,0,1,1.27,2.94v5.47a.48.48,0,1,0,1,0v-5.47a5.11,5.11,0,0,1,1.26-2.94,8.68,8.68,0,0,1,2.88-2.3.39.39,0,0,1,.18,0,.48.48,0,0,1,.17.93,8.88,8.88,0,0,0-2.5,2,3.68,3.68,0,0,0,4.26-.67,6.41,6.41,0,0,0,1.25-3.64,23.5,23.5,0,0,0,.18-2.49.48.48,0,0,0-.48-.48h0a23.4,23.4,0,0,0-2.48.18c-1.33.17-2.82.42-3.64,1.25a3.66,3.66,0,0,0-.5,4.55,8.15,8.15,0,0,0-1,1.64,8.66,8.66,0,0,0-1.06-1.64,3.66,3.66,0,0,0-.5-4.55c-.82-.83-2.31-1.08-3.64-1.25A23.4,23.4,0,0,0,116.34,104.59Z"/><path d="M134.37,101.18a.47.47,0,0,0-.48.47h0a23.66,23.66,0,0,0,.18,2.49,6.5,6.5,0,0,0,1.24,3.64,3.68,3.68,0,0,0,4.26.67,8.78,8.78,0,0,0-2.5-2,.48.48,0,0,1-.28-.62.49.49,0,0,1,.45-.3.42.42,0,0,1,.19,0,8.66,8.66,0,0,1,2.87,2.3,5.15,5.15,0,0,1,1.27,2.94v9.13a.48.48,0,1,0,1,0v-9.13a5.15,5.15,0,0,1,1.27-2.94,8.66,8.66,0,0,1,2.87-2.3.4.4,0,0,1,.19,0,.48.48,0,0,1,.17.92,8.92,8.92,0,0,0-2.51,2,3.67,3.67,0,0,0,4.26-.67,6.44,6.44,0,0,0,1.25-3.64,23.66,23.66,0,0,0,.18-2.49.47.47,0,0,0-.47-.48h0a23.66,23.66,0,0,0-2.49.18,6.5,6.5,0,0,0-3.64,1.24,3.68,3.68,0,0,0-.5,4.56,7.88,7.88,0,0,0-1,1.64,8.31,8.31,0,0,0-1.05-1.64,3.68,3.68,0,0,0-.5-4.56,6.5,6.5,0,0,0-3.64-1.24A23.66,23.66,0,0,0,134.37,101.18Z"/><path d="M151.77,107.42a.47.47,0,0,0-.48.47h0a23.66,23.66,0,0,0,.18,2.49,6.5,6.5,0,0,0,1.24,3.64,3.68,3.68,0,0,0,4.26.67,8.69,8.69,0,0,0-2.5-2,.48.48,0,0,1,.17-.93.63.63,0,0,1,.19,0,8.8,8.8,0,0,1,2.87,2.3A5.15,5.15,0,0,1,159,117v2.4a.48.48,0,1,0,1,0V117a5.15,5.15,0,0,1,1.27-2.94,8.8,8.8,0,0,1,2.87-2.3.58.58,0,0,1,.19,0,.49.49,0,0,1,.48.48.52.52,0,0,1-.31.45,8.69,8.69,0,0,0-2.5,2,3.66,3.66,0,0,0,4.25-.67,6.44,6.44,0,0,0,1.25-3.64,23.66,23.66,0,0,0,.18-2.49.48.48,0,0,0-.47-.48h0a23.66,23.66,0,0,0-2.49.18,6.5,6.5,0,0,0-3.64,1.24,3.68,3.68,0,0,0-.5,4.56,8.15,8.15,0,0,0-1.05,1.64,8.61,8.61,0,0,0-1-1.64,3.68,3.68,0,0,0-.5-4.56,6.5,6.5,0,0,0-3.64-1.24A23.66,23.66,0,0,0,151.77,107.42Z"/><path d="M149.85,130.15h0v2.37a1.29,1.29,0,0,1-.58,1v.63a1.27,1.27,0,0,1,.58,1v1.85a1.29,1.29,0,0,1-.58,1v.63a1.29,1.29,0,0,1,.58,1V154a25.37,25.37,0,0,0-15.6-.14v-14a1.26,1.26,0,0,1,.58-1v-.63a1.3,1.3,0,0,1-.59-1v-1.85a1.28,1.28,0,0,1,.59-1v-.63a1.3,1.3,0,0,1-.59-1v-2.38a6.83,6.83,0,0,1,5.12-6.29v-1h-.93v-1.07h.48v-2.69h6.27v2.69h.47v1.07h-.93v1A6.84,6.84,0,0,1,149.85,130.15Z"/><path d="M167.24,130.15h0v2.37a1.29,1.29,0,0,1-.58,1v.63a1.27,1.27,0,0,1,.58,1v1.85a1.29,1.29,0,0,1-.58,1v.63a1.29,1.29,0,0,1,.58,1v17.6a1.32,1.32,0,0,1-.61,1.09h0a11.18,11.18,0,0,1-1.57.3h-3a20.22,20.22,0,0,1-6.85-2.46c-1.11-.55-2.26-1.13-3.52-1.65V139.78a1.29,1.29,0,0,1,.58-1v-.63a1.29,1.29,0,0,1-.58-1v-1.85a1.27,1.27,0,0,1,.58-1v-.63a1.29,1.29,0,0,1-.58-1v-2.37h0c0-2.91,2.14-5.35,5.13-6.29v-1h-.93v-1.07h.46v-2.69h6.27v2.69h.48v1.07h-.94v1A6.83,6.83,0,0,1,167.24,130.15Z"/><path d="M188.11,173a3,3,0,0,1-3,3.1c-8.32,0-11.56,6.2-21.69,6.2s-13.43-6.2-21.69-6.2-11.51,6.2-21.69,6.2-13.36-6.2-21.69-6.2a3.1,3.1,0,0,1,0-6.2c10.22,0,13.47,6.2,21.69,6.2s11.53-6.2,21.69-6.2,13.44,6.2,21.69,6.2,11.44-6.2,21.69-6.2A3,3,0,0,1,188.11,173Z" fill="#010101"/><path d="M188.11,160.6a3,3,0,0,1-3,3.1c-8.32,0-11.56,6.19-21.69,6.19S150,163.7,141.73,163.7s-11.51,6.19-21.69,6.19-13.36-6.19-21.69-6.19a3.1,3.1,0,0,1,0-6.2c10.22,0,13.47,6.2,21.69,6.2s11.53-6.2,21.69-6.2,13.44,6.2,21.69,6.2,11.44-6.2,21.69-6.2A3,3,0,0,1,188.11,160.6Z" fill="#010101"/><path d="M188.11,160.6a3,3,0,0,1-3,3.1c-8.32,0-11.56,6.19-21.69,6.19S150,163.7,141.73,163.7s-11.51,6.19-21.69,6.19-13.36-6.19-21.69-6.19a3.1,3.1,0,0,1,0-6.2c10.22,0,13.47,6.2,21.69,6.2s11.53-6.2,21.69-6.2,13.44,6.2,21.69,6.2,11.44-6.2,21.69-6.2A3,3,0,0,1,188.11,160.6Z" fill="none" stroke="#010101" stroke-miterlimit="10"/></svg>