<svg xmlns="http://www.w3.org/2000/svg" viewBox="0 0 283.46 283.46"><circle cx="141.73" cy="141.73" r="73.77" fill="none" stroke="#000" stroke-miterlimit="10" stroke-width="4"/><path d="M141.73,209.84a68.11,68.11,0,1,1,68.11-68.11A68.18,68.18,0,0,1,141.73,209.84Z" fill="none" stroke="#000" stroke-miterlimit="10" stroke-width="0.75" stroke-dasharray="2"/><path d="M151,98.24H139.43a5.52,5.52,0,0,0-4.68,2.58l-1.53,2.46a2.1,2.1,0,0,1-1.76,1H111.05a5.52,5.52,0,0,0-5.51,5.52v1.48h-2.72a4.58,4.58,0,0,0-4.36,6l7.14,21.45a4.53,4.53,0,0,0,1.29,2,34.6,34.6,0,0,0,7.56,22.81l-2.06-.46a1.74,1.74,0,0,0-.75,3.4l7.57,1.66a1.76,1.76,0,0,0,2.1-1.81v0l-.59-7.73a1.74,1.74,0,0,0-3.47.27l.22,2.88a31.11,31.11,0,0,1-7.14-19.78H151a5.53,5.53,0,0,0,5.54-5.51V103.76A5.54,5.54,0,0,0,151,98.24Zm.77,39.82a1.23,1.23,0,0,1-1,.37H110a1.13,1.13,0,0,1-1.06-.81l-7.14-21.46a1.09,1.09,0,0,1,1-1.42h39.55a1.13,1.13,0,0,1,1.06.75L151.77,137A1.23,1.23,0,0,1,151.77,138.06Zm1.29-7.4-6.38-16.41a4.62,4.62,0,0,0-4.31-3H109v-1.48a2,2,0,0,1,2-2h20.41a5.61,5.61,0,0,0,4.7-2.59l1.54-2.48a2,2,0,0,1,1.73-1H151a2.06,2.06,0,0,1,2.06,2Z"/><path d="M160.15,147.57H139.74a5.52,5.52,0,0,0-5.51,5.52v1.47h-2.72a4.59,4.59,0,0,0-4.36,6L134.29,182a4.55,4.55,0,0,0,4.38,3.23h41a5.53,5.53,0,0,0,5.54-5.51V147.07a5.54,5.54,0,0,0-5.54-5.52h-3.06A34.79,34.79,0,0,0,169,120l2.08.45a1.74,1.74,0,0,0,.74-3.4l-7.56-1.66a1.78,1.78,0,0,0-2.11,1.84l.59,7.72a1.74,1.74,0,0,0,1.73,1.61h.14a1.75,1.75,0,0,0,1.6-1.87l-.22-2.86a31.31,31.31,0,0,1,7.16,19.76h-5C162.78,141.55,162.93,147.57,160.15,147.57Zm20.31,33.79a1.24,1.24,0,0,1-1,.38H138.67a1.12,1.12,0,0,1-1.07-.81l-7.14-21.46a1.08,1.08,0,0,1,.16-1,1.1,1.1,0,0,1,.89-.46h39.55a1.14,1.14,0,0,1,1.06.76l8.34,21.47A1.2,1.2,0,0,1,180.46,181.36ZM179.69,145a2,2,0,0,1,2.06,2V174l-6.38-16.41a4.63,4.63,0,0,0-4.31-3H137.71v-1.47a2,2,0,0,1,2-2h20.41c5.48,0,5-6,8-6Z"/><circle cx="155.4" cy="170.06" r="9.33" fill="#fff" stroke="#010101" stroke-miterlimit="10" stroke-width="2"/><circle cx="124.86" cy="126.59" r="9.33" fill="#fff" stroke="#010101" stroke-miterlimit="10" stroke-width="2"/><text transform="translate(119.44 132.01)" font-size="14.68" font-family="AkkuratPro-Bold, Akkurat Pro" font-weight="700">€</text><path d="M158.58,168.82V167a3,3,0,0,0-3-3h-.4a3,3,0,0,0-3,3v1.79A1.19,1.19,0,0,0,151,170v4a1.19,1.19,0,0,0,1.19,1.2h6.37a1.2,1.2,0,0,0,1.2-1.2v-4A1.19,1.19,0,0,0,158.58,168.82ZM153.41,167a1.79,1.79,0,0,1,1.79-1.79h.4a1.79,1.79,0,0,1,1.79,1.79v1.79h-4Zm2.39,5.26v.91a.4.4,0,0,1-.8,0v-.91a.79.79,0,0,1-.4-.68.8.8,0,0,1,.8-.8.8.8,0,0,1,.4,1.48Z" fill="#010101"/></svg>