<svg xmlns="http://www.w3.org/2000/svg" viewBox="0 0 91.71 91.71"><rect x="0.5" y="0.5" width="90.71" height="90.71" rx="45.35" fill="#99f"/><rect x="0.5" y="0.5" width="90.71" height="90.71" rx="45.35" fill="none" stroke="#1d1d1b" stroke-linecap="round" stroke-linejoin="round" stroke-dasharray="5.09 5.09"/><path d="M51.94,17.3h-7.6A3.63,3.63,0,0,0,41.27,19l-1,1.62a1.41,1.41,0,0,1-1.16.64H25.71a3.63,3.63,0,0,0-3.62,3.62v1H20.31a3,3,0,0,0-2.43,1.23,3,3,0,0,0-.44,2.69l4.69,14.08A3,3,0,0,0,23,45.17a22.69,22.69,0,0,0,5,15l-1.35-.29a1.14,1.14,0,0,0-.49,2.23l5,1.09A1.16,1.16,0,0,0,32.45,62v0l-.39-5.07a1.13,1.13,0,0,0-1.22-1,1.14,1.14,0,0,0-1.05,1.23L29.93,59a20.38,20.38,0,0,1-4.69-13h26.7a3.63,3.63,0,0,0,3.63-3.62V20.92A3.63,3.63,0,0,0,51.94,17.3Zm.5,26.14a.79.79,0,0,1-.67.25H25a.74.74,0,0,1-.7-.53L19.62,29.07a.69.69,0,0,1,.1-.64.74.74,0,0,1,.59-.3h26a.75.75,0,0,1,.7.49l5.47,14.1A.81.81,0,0,1,52.44,43.44Zm.85-4.85L49.1,27.81a3,3,0,0,0-2.83-2H24.37v-1a1.34,1.34,0,0,1,1.34-1.33h13.4a3.64,3.64,0,0,0,3.08-1.71l1-1.62a1.33,1.33,0,0,1,1.13-.63h7.6a1.35,1.35,0,0,1,1.35,1.34Z"/><path d="M58,49.69H44.55a3.62,3.62,0,0,0-3.62,3.62v1H39.15a3,3,0,0,0-2.87,3.92L41,72.28a3,3,0,0,0,2.87,2.13H70.78a3.63,3.63,0,0,0,3.63-3.62V49.36a3.64,3.64,0,0,0-3.63-3.63h-2a22.92,22.92,0,0,0-5-14.17l1.36.3A1.15,1.15,0,0,0,66.48,31a1.13,1.13,0,0,0-.87-1.36l-5-1.09a1.17,1.17,0,0,0-1.38,1.21l.39,5.07a1.13,1.13,0,0,0,1.13,1h.09a1.16,1.16,0,0,0,1.06-1.23l-.15-1.88a20.54,20.54,0,0,1,4.7,13H63.19C59.67,45.73,59.77,49.69,58,49.69ZM71.28,71.88a.82.82,0,0,1-.67.24H43.84a.73.73,0,0,1-.7-.53L38.45,57.5a.73.73,0,0,1,.7-.94h26a.76.76,0,0,1,.7.5l5.47,14.1A.81.81,0,0,1,71.28,71.88ZM70.78,48a1.35,1.35,0,0,1,1.35,1.34V67L67.94,56.24a3,3,0,0,0-2.83-2H43.21v-1A1.34,1.34,0,0,1,44.55,52H58c3.6,0,3.31-3.95,5.24-3.95Z"/><circle cx="54.83" cy="64.45" r="6.12" fill="none" stroke="#000" stroke-miterlimit="10" stroke-width="2"/><circle cx="34.77" cy="35.91" r="6.12" fill="none" stroke="#000" stroke-miterlimit="10" stroke-width="2"/><text transform="translate(31.22 39.47)" font-size="9.64" font-family="AkkuratPro-Bold, Akkurat Pro" font-weight="700">€</text><path d="M56.92,63.64V62.46a2,2,0,0,0-2-2H54.7a2,2,0,0,0-2,2v1.18a.78.78,0,0,0-.79.78V67a.78.78,0,0,0,.79.78h4.18A.78.78,0,0,0,57.7,67V64.42A.78.78,0,0,0,56.92,63.64Zm-3.4-1.18a1.18,1.18,0,0,1,1.18-1.17H55a1.17,1.17,0,0,1,1.17,1.17v1.18H53.52Zm1.57,3.46v.59a.27.27,0,0,1-.26.27.26.26,0,0,1-.26-.27v-.59a.52.52,0,0,1,.26-1,.52.52,0,0,1,.52.52A.53.53,0,0,1,55.09,65.92Z"/></svg>