<svg xmlns="http://www.w3.org/2000/svg" viewBox="0 0 283.46 283.46"><circle cx="141.73" cy="141.73" r="73.77" fill="#fadfd3" stroke="#000" stroke-miterlimit="10" stroke-width="4"/><circle cx="141.73" cy="141.73" r="68.1" transform="translate(-20.87 258.93) rotate(-80.78)" fill="none" stroke="#000" stroke-miterlimit="10" stroke-width="0.75" stroke-dasharray="2"/><path d="M160.73,178.93h-38a7.55,7.55,0,0,1-7.55-7.54V112.08a7.55,7.55,0,0,1,7.55-7.55h24.08l21.47,20.7v46.16A7.55,7.55,0,0,1,160.73,178.93Z" fill="#fadfd3" stroke="#000" stroke-miterlimit="10" stroke-width="4"/><path d="M168.28,125.23h-15a6.51,6.51,0,0,1-6.51-6.51V104.53" fill="#fadfd3" stroke="#000" stroke-miterlimit="10" stroke-width="4"/><line x1="122.73" y1="134.35" x2="160.73" y2="134.35" fill="none" stroke="#000" stroke-linecap="round" stroke-linejoin="round" stroke-width="2.28"/><line x1="122.73" y1="141.73" x2="160.73" y2="141.73" fill="none" stroke="#000" stroke-linecap="round" stroke-linejoin="round" stroke-width="2.28"/><line x1="122.73" y1="149.11" x2="152.48" y2="149.11" fill="none" stroke="#000" stroke-linecap="round" stroke-linejoin="round" stroke-width="2.28"/><path d="M175.59,167.22a16.09,16.09,0,1,0-6.11,12.6l9.75,9.75,2.62-2.63-9.75-9.74A16,16,0,0,0,175.59,167.22ZM159.5,179.59a12.38,12.38,0,1,1,12.37-12.37A12.37,12.37,0,0,1,159.5,179.59Z" fill="#010101"/><circle cx="159.5" cy="167.22" r="12.38" fill="#fadfd3" stroke="#000" stroke-miterlimit="10" stroke-width="4"/><text transform="translate(156.55 174.91)" font-size="20.33" font-family="AkkuratPro-Bold, Akkurat Pro" font-weight="700">i</text></svg>