<svg xmlns="http://www.w3.org/2000/svg" viewBox="0 0 91.71 91.71"><polygon points="40.79 40.79 40.79 50.92 46.55 50.92 47.44 50.92 48.34 50.92 50.92 50.92 50.92 49.53 50.92 48.64 50.92 47.74 50.92 40.79 40.79 40.79"/><rect x="0.5" y="0.5" width="90.71" height="90.71" rx="45.35" fill="#ffded1"/><circle cx="45.85" cy="45.85" r="45.35" fill="none" stroke="#1d1d1b" stroke-linecap="round" stroke-linejoin="round" stroke-dasharray="5.09 5.09"/><path d="M50.13,68.78H31.92a5,5,0,0,1-5-5V24.89a5,5,0,0,1,5-5H47.73v9.32A4.27,4.27,0,0,0,52,33.52h9.83l.3,19.9" fill="none" stroke="#000" stroke-linecap="round" stroke-linejoin="round" stroke-width="2.87"/><path d="M47.73,29.25V19.93l14.1,13.59H52A4.27,4.27,0,0,1,47.73,29.25Z" fill="none" stroke="#000" stroke-linecap="round" stroke-linejoin="round" stroke-width="2.87"/><line x1="31.92" y1="39.52" x2="56.88" y2="39.52" fill="none" stroke="#000" stroke-linecap="round" stroke-linejoin="round" stroke-width="2.28"/><line x1="31.92" y1="44.36" x2="56.88" y2="44.36" fill="none" stroke="#000" stroke-linecap="round" stroke-linejoin="round" stroke-width="2.28"/><line x1="31.92" y1="49.21" x2="51.46" y2="49.21" fill="none" stroke="#000" stroke-linecap="round" stroke-linejoin="round" stroke-width="2.28"/><path d="M64.34,67.65a10.62,10.62,0,1,0-1.73,1.72l6.4,6.4L70.74,74Zm-8.28,1.57a7.91,7.91,0,0,1-2.64-.44,8.13,8.13,0,1,1,2.64.44Z"/><circle cx="56.07" cy="61.1" r="8.13" fill="none"/><text transform="translate(54.13 66.14)" font-size="13.35" font-family="AkkuratPro-Bold, Akkurat Pro" font-weight="700">i</text></svg>