<svg xmlns="http://www.w3.org/2000/svg" viewBox="0 0 91.71 91.71"><rect x="0.5" y="0.5" width="90.71" height="90.71" rx="45.35" fill="#ff9a9a"/><path d="M45.85,91.21h0A45.36,45.36,0,0,1,45.85.5h0a45.36,45.36,0,1,1,0,90.71Z" fill="none" stroke="#1d1d1b" stroke-linecap="round" stroke-linejoin="round" stroke-dasharray="5.09 5.09"/><path d="M46.84,72.42H31.05a5,5,0,0,1-4.95-5V28.52a5,5,0,0,1,4.95-4.95H46.87L61,37.16V56.07" fill="none" stroke="#000" stroke-linecap="round" stroke-linejoin="round" stroke-width="2.87"/><path d="M61,37.16H51.14a4.27,4.27,0,0,1-4.27-4.27V23.57" fill="none" stroke="#000" stroke-linecap="round" stroke-linejoin="round" stroke-width="2.87"/><line x1="31.05" y1="43.15" x2="56" y2="43.15" fill="none" stroke="#000" stroke-linecap="round" stroke-linejoin="round" stroke-width="2.28"/><line x1="31.05" y1="48" x2="56" y2="48" fill="none" stroke="#000" stroke-linecap="round" stroke-linejoin="round" stroke-width="2.28"/><line x1="31.05" y1="52.84" x2="40.82" y2="52.84" fill="none" stroke="#000" stroke-linecap="round" stroke-linejoin="round" stroke-width="2.28"/><circle cx="55.1" cy="64.62" r="10.48" fill="none" stroke="#000" stroke-miterlimit="10"/><path d="M61.62,69c0-.06-.07-.06-.09,0l-.15.28a1,1,0,0,1-.12.17l-.2.26a.71.71,0,0,1-.15.15l-.31.27a1.5,1.5,0,0,0-.22.22.28.28,0,0,0,0,.2.87.87,0,0,0,0,.19.19.19,0,0,1,0,.18c-.07.09-.18.21-.21.26a.84.84,0,0,0-.14.26v.18a.1.1,0,0,0,.1.11h.11a.3.3,0,0,0,.18-.08l.14-.12.24-.26L61,71a.38.38,0,0,0,.09-.18l0-.2a.66.66,0,0,1,.06-.2l.07-.16a1.13,1.13,0,0,1,.12-.18l0,0a1,1,0,0,0,.12-.17l.06-.13.1-.26a.55.55,0,0,0,0-.41Z"/><path d="M55.16,61.84a.07.07,0,0,0,.06-.05.13.13,0,0,0,0-.12h0s0,0-.07,0a.17.17,0,0,0,0,.12v0A.07.07,0,0,0,55.16,61.84Z"/><path d="M53.5,59.32l-.06,0-.12.06a.57.57,0,0,0-.08.13v0a.1.1,0,0,1-.06.07s0,0,0,0,0,.06,0,.1,0,.07.08.06l.06,0,.07,0,.12,0s.06,0,.08-.06l0-.06,0-.06.07-.09a.1.1,0,0,0,0-.1.13.13,0,0,0-.07-.09h0A.13.13,0,0,0,53.5,59.32Z"/><path d="M53.8,59.26s0,.13,0,.15.13.07.13.09l-.08.11s-.08,0-.1,0a.14.14,0,0,0,0,.13s-.15.09-.15.1l.09,0c.05,0,.06,0,0,.05l0,0-.06.06s0,.06,0,0l.18,0h.24l.15,0a.12.12,0,0,0,.09-.08.81.81,0,0,1,0-.11s0-.07,0-.1l0-.05a.91.91,0,0,1-.07-.14l0,0a.32.32,0,0,0-.08-.12h0a.21.21,0,0,1-.07-.12.16.16,0,0,1,0-.12.53.53,0,0,0,.06-.1.05.05,0,0,0,0-.08h0l-.1-.08s-.06,0-.1,0l-.07,0a.17.17,0,0,0-.06.12h0a.35.35,0,0,0,0,.14A.41.41,0,0,1,53.8,59.26Z"/><path d="M53.1,58.07h.06a.35.35,0,0,0,.14,0l.1,0,.13-.07a.06.06,0,0,0,0-.09.47.47,0,0,0-.1-.1h0a.35.35,0,0,0-.14,0h-.08a.33.33,0,0,1-.14,0h0a.14.14,0,0,0-.11,0,.13.13,0,0,0,0,.08v.12A.18.18,0,0,0,53,58,.17.17,0,0,0,53.1,58.07Z"/><path d="M55.22,56.59l.11.06s.05,0,.07,0l0,0,0,0s.05,0,.08,0a.06.06,0,0,0,.08,0,.08.08,0,0,0,0-.09,0,0,0,0,1,0-.05s0,0,0-.06h0a.12.12,0,0,0-.13,0,.28.28,0,0,1-.13,0c-.05,0-.11,0-.11,0s0,.13,0,.14Z"/><path d="M56.11,56.27h.18l.14,0,.07,0s0,0,0-.06l-.06,0a.37.37,0,0,0-.15,0l-.2,0s0,.1,0,.12Z"/><path d="M57,56.71s.12.12.12.14l.07.06a.29.29,0,0,0,.14,0h.14s0,0,0-.06h0l-.12-.09h0a.34.34,0,0,1-.09-.12v0l0-.09a.19.19,0,0,1,0-.1v-.06a.35.35,0,0,0,0-.14l0,0a.07.07,0,0,0-.08-.05.1.1,0,0,0-.06.09s0,.08-.07.12,0,0,0,.07.11.13.11.16A.17.17,0,0,0,57,56.71Z"/><path d="M57.71,56.65l.07.06,0,0,.1.06s.07,0,.08,0a.08.08,0,0,0,0-.07s0-.06,0-.08l-.05,0-.1-.08-.05,0a.15.15,0,0,0-.11,0l0,0s0,.07,0,.08Z"/><path d="M46.14,62.8a.33.33,0,0,1,0-.14.21.21,0,0,0,0-.13l0-.06a.36.36,0,0,0-.11-.1h0a.19.19,0,0,1-.09-.11l0-.09a0,0,0,0,0-.08,0h0a.21.21,0,0,0,0,.13v.15a.45.45,0,0,0,.06.13,1.21,1.21,0,0,1,.05.14l0,.08.07.13L46,63a.35.35,0,0,1,0,.14l0,.23,0,.21s0,.05,0,0l0-.05a.84.84,0,0,0,.06-.14l0-.16a.77.77,0,0,0,0-.15v0s0-.11,0-.15Z"/><path d="M62.53,57.19a10.5,10.5,0,1,0,3.08,7.43A10.45,10.45,0,0,0,62.53,57.19ZM55.1,74.36a9.73,9.73,0,0,1-7.19-3.17.31.31,0,0,1-.06-.13l0-.15a.25.25,0,0,0-.06-.14l-.13-.13s-.06-.08,0-.11l.09-.11a.11.11,0,0,1,.12,0l.08,0a.15.15,0,0,0,.13,0l.09-.06a.16.16,0,0,0,.06-.12l0-.43,0-.5a.21.21,0,0,1,0-.13l.16-.19a.19.19,0,0,0,0-.13l-.07-.55a.33.33,0,0,0-.07-.13L48,67.9l-.2-.24-.12-.09-.26-.18-.12-.09-.33-.36a.54.54,0,0,1-.09-.12l-.13-.25a.58.58,0,0,1-.05-.14l0-.19-.11-.46a.78.78,0,0,0,0-.14l-.23-.41a.94.94,0,0,0-.09-.12S46,65,46,65s-.13-.59-.13-.59l-.17-.57a.84.84,0,0,0-.06-.14l-.19-.3a.35.35,0,0,1,0-.14,10.22,10.22,0,0,1,.46-1.85s0,0,0,0v.06l-.05.29a.16.16,0,0,0,0,.13l.05.06s.06,0,.07,0l0-.14a.4.4,0,0,0,0-.15v-.16a.89.89,0,0,0,0-.15l0-.1a.38.38,0,0,1,0-.15c.14-.34.3-.68.47-1a.16.16,0,0,1,.11-.07l.14,0,.08,0,.12-.09a1.64,1.64,0,0,0,.17-.2s.18-.11.18-.14a1.13,1.13,0,0,1,.24-.15.33.33,0,0,1,.14,0h.06a.2.2,0,0,0,.12-.06L48,59A.42.42,0,0,1,48.1,59a.05.05,0,0,1,.08.05v.07a.09.09,0,0,0,.09.07l.32,0,0-.07a.7.7,0,0,1,0-.14v-.06a.11.11,0,0,1,.06-.1h0a.37.37,0,0,0,.12-.07l.08-.09a.05.05,0,0,0,0-.09h0a.14.14,0,0,1-.07-.11s0-.06.08-.06l.08,0a.39.39,0,0,1,.14.05l.12.06.1.06s.05.07,0,.1l0,.07a.25.25,0,0,1-.12.08l-.13,0a.18.18,0,0,0-.1.09l0,.14a.13.13,0,0,0,0,.12l.12.13a.16.16,0,0,0,.13,0,1,1,0,0,0,.2-.06.68.68,0,0,0,0-.12.23.23,0,0,1,0-.14l.16-.31.12-.23a.48.48,0,0,1,.09-.11l.12-.11a.54.54,0,0,0,.09-.12,2.3,2.3,0,0,1,.17-.33l.22-.21a.22.22,0,0,0,.06-.13v-.07a.06.06,0,0,0-.07-.06l-.22,0s-.05,0,0,0l.12-.11.2-.22a.35.35,0,0,0,.08-.13l0-.1a.05.05,0,0,0,0-.07.21.21,0,0,0-.12,0l-.19.14-.3.23-.13.08-.09,0a.57.57,0,0,0-.13.08l-.29.2a.27.27,0,0,1-.14,0H49s-.06,0,0-.06l.12-.14.1-.11.3-.27.26-.23.3-.25.2-.15a.33.33,0,0,1,.13-.07h.08l.15,0h0s.06,0,0,.07l-.05.1a0,0,0,0,0,0,.07l.12,0a.06.06,0,0,1,.08,0h0a.19.19,0,0,1,0,.13v0l-.1.11-.07.07a.35.35,0,0,0-.08.13l0,.14s0,.05,0,0l.11,0,.14-.06A.42.42,0,0,1,51,57h.08a.4.4,0,0,0,.15,0l.16-.06a.54.54,0,0,0,.13-.07l.26-.18.22-.13a.58.58,0,0,0,.12-.1l0-.07a.05.05,0,0,0,0-.09h0s0-.06,0-.08a.83.83,0,0,0,.07-.13l.07-.14,0-.06s.05,0,.09,0l0,0a.15.15,0,0,0,.13,0l.1-.06.07-.05a.15.15,0,0,1,.13,0l.17.07s0,0,0,0l-.12,0a.31.31,0,0,0-.11.08.08.08,0,0,0,0,.11.05.05,0,0,1,0,.09l-.07,0a.57.57,0,0,0-.13.08l-.2.17-.17.16-.12.1-.16.09-.33.21-.11.1-.06.06-.1.12-.09.13-.12.17a.52.52,0,0,0-.06.13v.06a.1.1,0,0,0,0,.11l.1.06a.11.11,0,0,0,.12,0l.06-.06.11-.11,0,0a.32.32,0,0,1,.12-.08l.13,0,.13-.06.08-.05a.35.35,0,0,1,.14,0h.21a.33.33,0,0,0,.14,0l.19-.1a.22.22,0,0,1,.14,0H53a.22.22,0,0,0,.14,0l.1,0,.12-.09.08-.08.12-.09.2-.1a.36.36,0,0,0,.11-.1l.09-.14a.54.54,0,0,1,.09-.12l.11-.1a.15.15,0,0,0,0-.13l0-.18-.07-.2s0-.06,0,0l.13.05.3.12.14.07,0,0a.31.31,0,0,0,.13.06l.17,0a.26.26,0,0,0,.15,0l.12,0a.39.39,0,0,1,.15,0h.14a.24.24,0,0,0,.14,0l.15-.09L56,56l.11,0,.15,0h.14a.09.09,0,0,0,.08-.08v0a.23.23,0,0,1,.08-.12l0,0a.24.24,0,0,1,.14,0h.17a.16.16,0,0,0,.13,0l.08-.08a.05.05,0,0,0,0-.09L57,55.35a.36.36,0,0,1-.1-.11l0-.06s0-.06,0,0l.44.1a.74.74,0,0,1,.14,0l.14.06.12.09,0,0a.13.13,0,0,1,0,.12v.06a.07.07,0,0,1-.09,0h0a.38.38,0,0,0-.15,0l-.25,0s-.05,0,0,.07l.1.08.13.08.09,0a.32.32,0,0,1,.1.1l.07.15a.31.31,0,0,0,.09.11l.09.08a.36.36,0,0,1,.1.11l.09.13a.54.54,0,0,0,.09.12l.12.12s0,0,0,0l-.19,0H58l-.15,0c-.05,0-.05,0,0,0l.07,0s.08,0,.08.08,0,.06-.06.07l-.09,0a.33.33,0,0,0-.13.07l-.11.08a.14.14,0,0,0,0,.12l0,.07s0,.07-.06.07h-.06a.15.15,0,0,0-.11.06l0,.05a.78.78,0,0,0-.05.14v0a.05.05,0,0,1-.08.05l-.11,0a.35.35,0,0,1-.13-.08l-.06-.06s0-.06,0-.06l.15,0a.11.11,0,0,0,.08-.09h0a.13.13,0,0,0-.06-.11l-.09-.06-.14,0-.13,0h-.23l-.15,0-.08,0h-.15l-.27.08a.57.57,0,0,0-.13.08l-.14.15a.22.22,0,0,0-.06.13v0a.22.22,0,0,1-.06.13L55.3,58l-.09.12,0,.07a.36.36,0,0,1-.11.1l-.07,0a.27.27,0,0,0-.1.11l0,.07a.4.4,0,0,0,0,.15v.13a.11.11,0,0,0,.07.1l.07,0h.15l.12,0a.11.11,0,0,1,.11,0,.46.46,0,0,1,.07.14l0,.08a.23.23,0,0,0,.08.11l0,0a.09.09,0,0,0,.12,0c.07,0,.18-.09.18-.11a.73.73,0,0,0,0-.18.22.22,0,0,1,0-.14l0-.07a.23.23,0,0,0,0-.14l-.05-.1a.77.77,0,0,1,0-.15v-.15L56,58a.22.22,0,0,1,.12-.09.08.08,0,0,1,.09,0l0,0a.14.14,0,0,1,0,.12l0,0a.28.28,0,0,0,0,.13h0a.14.14,0,0,0,.08.11l.05,0a.37.37,0,0,0,.14,0h.25a.2.2,0,0,1,.13,0v0a.18.18,0,0,1,.06.1.06.06,0,0,1-.06,0h-.22s-.07,0,0,.07h0a.77.77,0,0,1,0,.15V59a.05.05,0,0,1-.07.05h0a.11.11,0,0,0-.11,0,.19.19,0,0,0,0,.11v.07a.23.23,0,0,1,0,.14l-.06.11a.07.07,0,0,1-.1,0l0,0a.15.15,0,0,0-.13,0l-.16.08a.17.17,0,0,1-.14,0l-.14-.06-.12,0a.11.11,0,0,1-.07-.1v0a.38.38,0,0,1,0-.15.1.1,0,0,0-.07-.09h0a.07.07,0,0,0-.09.05l0,.11a.37.37,0,0,0,0,.15v.09a.09.09,0,0,1-.08.09l-.18,0a.18.18,0,0,0-.11.08l-.05.11-.08.13-.08.08a.32.32,0,0,1-.12.08l-.25.09-.25.08-.24.07a0,0,0,0,0,0,.08l.21.26a.24.24,0,0,1,0,.14l0,.2a.08.08,0,0,1-.08.07h-.1l-.15,0L53.22,61h-.06a.09.09,0,0,0-.1,0l-.08.13a.15.15,0,0,0,0,.13l0,.11a.12.12,0,0,1,0,.12h0a.52.52,0,0,0-.11.1l0,.07a.08.08,0,0,0,0,.1.15.15,0,0,1,.06.11V62a.12.12,0,0,0,.07.11l.09,0,.14.07.07,0a.22.22,0,0,0,.14,0h.06a.23.23,0,0,1,.14,0h0a.11.11,0,0,0,.12,0l.13-.12.11-.11a.12.12,0,0,0,0-.13.88.88,0,0,1-.06-.17.35.35,0,0,1,.12-.09l.13-.06.09,0a.33.33,0,0,0,.13-.07l0,0a.29.29,0,0,0,.05-.13v0a.12.12,0,0,1,.07-.1.33.33,0,0,1,.14,0l.09.05a.15.15,0,0,0,.13,0l.12-.07.2-.1a.08.08,0,0,1,.1,0l0,.06a.24.24,0,0,0,.1.1l0,0a.5.5,0,0,1,.12.08l.1.09.14.1.12.08,0,0a.16.16,0,0,1,.06.12v.07a.14.14,0,0,1-.08.1l-.05,0-.14.07-.09,0s0,.05,0,.07l.07,0,.14,0h0a.12.12,0,0,0,.12,0l.07-.1.14-.18.09-.1a.13.13,0,0,0,0-.12l0,0a.47.47,0,0,0-.1-.1l-.07,0a.37.37,0,0,0-.14,0h0a.21.21,0,0,1-.11-.07l0,0-.1-.11-.1-.09a.22.22,0,0,1-.06-.13v-.09s0-.07,0-.05a.34.34,0,0,1,.11.07l.24.19.13.09.14.07.15.06a.08.08,0,0,1,.06.09.68.68,0,0,0,0,.14v.06a.57.57,0,0,0,.08.13l.06.07.1.12.05.07a.18.18,0,0,0,.11.08h0a.07.07,0,0,0,.09,0,.1.1,0,0,1,.09-.07h0s.05,0,0,0l0,0a.28.28,0,0,1-.09-.1.31.31,0,0,0-.05-.1.14.14,0,0,1,0-.11.22.22,0,0,1,.1-.09h0l.13,0a.17.17,0,0,1,.11.06v0a.22.22,0,0,1,.06.13.78.78,0,0,0,0,.14l0,0a.35.35,0,0,0,.08.13l0,0a.26.26,0,0,0,.12.09h0a.24.24,0,0,1,.1.06.09.09,0,0,0,.1,0h0a.18.18,0,0,0,.09-.08s0,0,.06,0h0l.1,0a.26.26,0,0,0,.19-.05h0a.28.28,0,0,1,.17-.07s.09,0,.09.06v0l0,.2,0,.19a.26.26,0,0,1,0,.15l-.05.17,0,.11a.09.09,0,0,1-.1,0l-.17,0a.23.23,0,0,0-.14,0l-.12.07a.32.32,0,0,1-.14,0h-.13l-.39,0-.22,0a.14.14,0,0,1-.1,0,.11.11,0,0,0-.09,0h0l-.15,0-.08,0a.11.11,0,0,0-.09.09v0a.19.19,0,0,0,0,.13h0a.05.05,0,0,1,0,.08l-.06,0a.15.15,0,0,1-.13,0h0l-.14-.05-.16,0a.16.16,0,0,1-.11-.07h0A.19.19,0,0,0,56,63l-.08,0a.37.37,0,0,0-.14,0l-.19,0a.42.42,0,0,1-.14-.06l-.08-.06a.08.08,0,0,1,0-.11l.07-.1s0-.08,0-.1a.11.11,0,0,1,0-.11s0-.07,0-.09l0,0a.22.22,0,0,0-.14,0l-.16,0-.15,0h-.58l-.15,0-.33.12-.21.07a.39.39,0,0,1-.15,0l-.14,0-.15,0h0a.12.12,0,0,0-.12,0l-.16.18-.12.09-.1,0a.54.54,0,0,0-.12.09l-.1.11a.29.29,0,0,0-.05.13v.1a.17.17,0,0,1,0,.12l-.16.13a.3.3,0,0,1-.14.06H52a.14.14,0,0,0-.12.07l0,.07a.38.38,0,0,1-.11.11l-.1.06a.23.23,0,0,0-.08.11l0,.07a.57.57,0,0,1-.08.13l-.17.19a.32.32,0,0,0-.08.12l0,.08a.15.15,0,0,0,0,.13l0,.07a.15.15,0,0,1,0,.13.33.33,0,0,0,0,.14v0a.38.38,0,0,1,0,.15l0,.15-.06.15-.07.15a.17.17,0,0,0,0,.14h0a.23.23,0,0,1,0,.14L51,66a.15.15,0,0,0,0,.13l.31.36a.57.57,0,0,1,.08.13l.2.36a.94.94,0,0,0,.09.12l.27.25a1.25,1.25,0,0,0,.12.09l.26.16a.23.23,0,0,0,.14,0l.29-.07h.15l.36.07a.23.23,0,0,0,.14,0l.21-.12.14,0,.32-.07a.16.16,0,0,1,.13,0l.11.09.11.1.13.14a.13.13,0,0,0,.12,0l.21,0h.15l.09,0a.31.31,0,0,1,.13.06l.09.08a.14.14,0,0,1,0,.12l0,.11a.78.78,0,0,1,0,.14l-.08.13a.29.29,0,0,1-.09.1.07.07,0,0,0,0,.1l.27.31a.55.55,0,0,0,.1.11l.2.18a.19.19,0,0,1,0,.13v.2a.58.58,0,0,0,0,.14l0,.09a.57.57,0,0,0,.08.13l0,0a.15.15,0,0,1,0,.13l0,.11a.31.31,0,0,1-.06.13l-.06.08a.57.57,0,0,0-.08.13l-.1.25a.4.4,0,0,0,0,.15v.15a.27.27,0,0,0,.05.14l.21.28.16.17a.29.29,0,0,1,0,.13v.27a.16.16,0,0,0,.06.12l.07.06a.48.48,0,0,1,.09.11l.12.25a.33.33,0,0,1,0,.14v.08a.07.07,0,0,0,.07.07h.14l.15,0,.25-.07a.66.66,0,0,1,.15,0l.39,0a.37.37,0,0,0,.14,0l.2-.1.12-.09.25-.18.1-.11.2-.26.11-.11.2-.16.1-.12.13-.21a.84.84,0,0,0,.06-.14l0-.22a.23.23,0,0,1,.08-.12l.3-.24a.54.54,0,0,1,.12-.09l.21-.11a.31.31,0,0,0,.09-.11l.07-.26a.77.77,0,0,0,0-.15v-.32a.76.76,0,0,0,0-.15c0-.08,0-.21,0-.24s0-.47,0-.51.1-.21.15-.31a.54.54,0,0,1,.09-.12,3.92,3.92,0,0,0,.26-.34c.06-.07.37-.5.37-.5l.21-.27a.83.83,0,0,0,.07-.13l.11-.27a.74.74,0,0,0,0-.14l.12-.61,0-.38s0-.06-.06-.05l-.24.08-.14.06-.24.13-.14.06h-.06a.12.12,0,0,1-.13,0l0,0-.11-.11-.09-.15a.14.14,0,0,0-.12-.06h0a.17.17,0,0,1-.12-.06l-.09-.11L60,65.25l-.08-.12a.54.54,0,0,0-.09-.12c-.07-.05-.17-.14-.2-.15s0,0-.08-.1,0-.09-.06-.13l0-.11s0-.11-.06-.14l-.06-.11a.54.54,0,0,0-.09-.12L59.08,64a.38.38,0,0,1-.09-.12l-.17-.38s0-.06,0-.06l.1,0a.27.27,0,0,1,.13.07l.28.34.12.1.22.13a.17.17,0,0,1,.06.12v.15a.2.2,0,0,0,.06.12l.2.15a.36.36,0,0,1,.1.11l.24.37.22.36a.09.09,0,0,0,.11,0l.26-.09.41-.14a.32.32,0,0,0,.12-.08l.25-.31a.58.58,0,0,1,.1-.12l.28-.28a.22.22,0,0,0,.06-.13c0-.19,0-.68,0-.71s0-.22,0-.33a.11.11,0,0,0-.07-.1L62,63.17a.09.09,0,0,0-.1,0,.08.08,0,0,1-.1,0l0,0-.12-.09h0s-.06,0-.08,0l0,0a.46.46,0,0,1-.07.14l0,0a.18.18,0,0,1-.11.08h-.05a0,0,0,0,1-.06-.06v0a.08.08,0,0,0-.07-.09h0l-.14,0a.11.11,0,0,1-.12,0l-.24-.3a.22.22,0,0,1,0-.14v-.15a.05.05,0,0,1,.07,0h0a.33.33,0,0,1,.11.09l0,.06.11.1.07,0,.07.05.14.06h.07a.15.15,0,0,0,.13,0h0a.29.29,0,0,1,.13-.05l.4,0a.37.37,0,0,0,.14,0l.28-.15a.12.12,0,0,1,.13,0l.12.11a.17.17,0,0,0,.14,0,.86.86,0,0,0,.3-.07,1,1,0,0,1,.16-.23s0,0,.06,0l.08.29s0,.11,0,.15l.15.36a.91.91,0,0,0,.07.14l.27.48a.52.52,0,0,1,.06.13l.15.45a.25.25,0,0,0,.08.12l.12.11s.06,0,.05,0a6.87,6.87,0,0,1-.13-1s-.1-.21-.17-.3a.24.24,0,0,1,0-.14c0-.19.08-.7.08-.73s-.1-.32-.14-.46A.26.26,0,0,1,64,62l.09-.28s0,0,.06,0l.37.59,0,.06s0,0,0,.08a9.51,9.51,0,0,1,.24,2.15A9.75,9.75,0,0,1,55.1,74.36Z"/><circle cx="33.81" cy="32.44" r="2.35"/><path d="M36.72,19.41l-.16.92-1.35,8H32.46l-1.27-8.08-.14-.87a2.84,2.84,0,0,1,5.67,0Z"/></svg>