<svg xmlns="http://www.w3.org/2000/svg" viewBox="0 0 283.46 283.46"><circle cx="141.73" cy="141.73" r="73.77" fill="#8e584d" stroke="#000" stroke-miterlimit="10" stroke-width="4"/><circle cx="141.73" cy="141.73" r="68.11" fill="#8d574c" stroke="#000" stroke-miterlimit="10" stroke-width="0.75" stroke-dasharray="2"/><path d="M160.73,178.93h-38a7.55,7.55,0,0,1-7.55-7.54V112.08a7.55,7.55,0,0,1,7.55-7.55h24.08l21.47,20.7v46.16A7.55,7.55,0,0,1,160.73,178.93Z" fill="#8e584d" stroke="#000" stroke-linecap="round" stroke-linejoin="round" stroke-width="2.87"/><path d="M168.28,125.23h-15a6.51,6.51,0,0,1-6.51-6.51V104.53" fill="none" stroke="#000" stroke-linecap="round" stroke-linejoin="round" stroke-width="2.87"/><line x1="122.73" y1="134.35" x2="160.73" y2="134.35" fill="none" stroke="#000" stroke-linecap="round" stroke-linejoin="round" stroke-width="2.28"/><line x1="122.73" y1="141.73" x2="160.73" y2="141.73" fill="none" stroke="#000" stroke-linecap="round" stroke-linejoin="round" stroke-width="2.28"/><line x1="122.73" y1="149.11" x2="137.61" y2="149.11" fill="none" stroke="#000" stroke-linecap="round" stroke-linejoin="round" stroke-width="2.28"/><circle cx="159.36" cy="167.06" r="15.97" fill="#8e584d" stroke="#000" stroke-miterlimit="10"/><path d="M169.29,173.7c0-.08-.1-.08-.15,0l-.22.42a2,2,0,0,1-.18.26l-.31.4a1.58,1.58,0,0,1-.22.23c-.16.13-.42.35-.47.41a2,2,0,0,0-.34.33.47.47,0,0,0,0,.31l.08.28a.34.34,0,0,1-.05.28c-.11.13-.28.32-.33.39a1.25,1.25,0,0,0-.22.4v.27a.18.18,0,0,0,.17.17h.16a.49.49,0,0,0,.28-.11l.2-.19.37-.41.28-.31a.67.67,0,0,0,.14-.28l.05-.3a1.81,1.81,0,0,1,.09-.31l.11-.24a1.59,1.59,0,0,1,.18-.27l0-.05a1.59,1.59,0,0,0,.18-.27l.09-.21.16-.38a1.2,1.2,0,0,0,.06-.32.82.82,0,0,0-.07-.31Z"/><path d="M159.44,162.82a.14.14,0,0,0,.1-.07.31.31,0,0,0,0-.19v0c0-.06-.07-.08-.11,0a.26.26,0,0,0-.06.19v0C159.38,162.77,159.41,162.82,159.44,162.82Z"/><path d="M156.91,159l-.08.08a1.08,1.08,0,0,1-.19.08,1.28,1.28,0,0,0-.11.2v.06s-.05.07-.1.09-.08,0-.08.07a.74.74,0,0,1,0,.16.09.09,0,0,0,.11.08l.1,0,.1,0a.31.31,0,0,1,.18,0,.15.15,0,0,0,.12-.09l0-.1,0-.09a.28.28,0,0,1,.1-.14.16.16,0,0,0,.06-.15.23.23,0,0,0-.11-.15h0A.19.19,0,0,0,156.91,159Z"/><path d="M157.38,158.89s0,.2,0,.23.21.1.21.13-.12.16-.12.17-.13-.06-.16,0a.18.18,0,0,0,0,.19s-.23.13-.24.16l.15,0c.06,0,.08.05,0,.09l-.07.07-.09.1s0,.08,0,.07l.27,0,.37,0,.22,0a.17.17,0,0,0,.14-.12,1.22,1.22,0,0,1,0-.17.17.17,0,0,0,0-.15l-.05-.08-.1-.21,0-.08a.33.33,0,0,0-.14-.17l0,0a.26.26,0,0,1-.12-.17.3.3,0,0,1,0-.19,1.19,1.19,0,0,0,.09-.15s0-.1-.06-.13h0a.74.74,0,0,1-.16-.12s-.09,0-.14,0l-.11.08a.25.25,0,0,0-.1.18h0a.59.59,0,0,0,.05.22Z"/><path d="M156.31,157.07h.08a.85.85,0,0,0,.23,0l.14-.06.21-.1a.11.11,0,0,0,0-.15.44.44,0,0,0-.16-.14h0a.57.57,0,0,0-.22,0l-.11,0a.42.42,0,0,1-.22,0h0a.17.17,0,0,0-.16,0,.18.18,0,0,0,0,.12v.17a.24.24,0,0,0,.26.26Z"/><path d="M159.54,154.82a.74.74,0,0,1,.16.1.07.07,0,0,0,.11,0l.06-.06,0-.05a.1.1,0,0,1,.13,0c.05,0,.11,0,.12,0a.12.12,0,0,0,0-.14s-.06-.06,0-.08,0-.06-.05-.09l0,0a.19.19,0,0,0-.19,0,.32.32,0,0,1-.2.06c-.08,0-.17,0-.18.05s0,.2,0,.22Z"/><path d="M160.89,154.33a.39.39,0,0,0,.19,0l.08,0,.22-.07.11,0c.06,0,.07-.06,0-.09l-.09,0a.42.42,0,0,0-.22,0,1.82,1.82,0,0,0-.32.07s-.05.15-.05.17S160.85,154.31,160.89,154.33Z"/><path d="M162.29,155a1.65,1.65,0,0,1,.19.2s.05.06.1.09a.4.4,0,0,0,.21.07h.06l.16,0s0,0,0-.08l0,0a1.18,1.18,0,0,1-.18-.13l0,0a.46.46,0,0,1-.13-.18v0a.45.45,0,0,0-.07-.14.26.26,0,0,1,0-.15v-.09a.57.57,0,0,0,0-.22l0,0a.12.12,0,0,0-.13-.08.2.2,0,0,0-.09.14.36.36,0,0,1-.1.18.12.12,0,0,0,0,.12c0,.11.16.19.16.24A.39.39,0,0,0,162.29,155Z"/><path d="M163.34,154.92l.1.08.06,0,.14.08c.05,0,.11,0,.13,0a.16.16,0,0,0,0-.12.23.23,0,0,0-.08-.11l-.07,0-.16-.11-.08-.07a.15.15,0,0,0-.15,0l-.08,0s0,.1,0,.12S163.34,154.92,163.34,154.92Z"/><path d="M145.71,164.29a.81.81,0,0,1,0-.22.42.42,0,0,0,0-.19l-.05-.1a.46.46,0,0,0-.16-.15l-.05,0a.3.3,0,0,1-.14-.17l0-.13c0-.06-.07-.08-.11,0l0,0a.27.27,0,0,0-.08.19v.23a1.27,1.27,0,0,0,.09.2,2,2,0,0,1,.08.22.37.37,0,0,1,0,.11,1.32,1.32,0,0,0,.12.2l.12.2a.33.33,0,0,1,.05.21l0,.35-.05.32c0,.06,0,.07.05,0l0-.09a.5.5,0,0,0,.09-.21l.07-.24a.85.85,0,0,0,0-.22v0a1.79,1.79,0,0,0,0-.23Z"/><path d="M170.68,155.74a16,16,0,1,0,4.68,11.32A15.94,15.94,0,0,0,170.68,155.74Zm-11.32,26.15a14.79,14.79,0,0,1-11-4.83.54.54,0,0,1-.1-.2l0-.23a.35.35,0,0,0-.1-.2,1.31,1.31,0,0,0-.2-.21c0-.05-.08-.12-.05-.17a1.07,1.07,0,0,1,.14-.16.15.15,0,0,1,.18,0l.12.06a.27.27,0,0,0,.2,0l.14-.1a.22.22,0,0,0,.08-.18l-.05-.66v-.75a.31.31,0,0,1,.07-.2l.23-.29a.25.25,0,0,0,.06-.2l-.12-.83a.52.52,0,0,0-.09-.2l-.39-.44-.31-.35a.8.8,0,0,0-.17-.15l-.4-.26a.9.9,0,0,1-.18-.15l-.51-.54a.85.85,0,0,1-.14-.19l-.2-.37a.81.81,0,0,1-.07-.22l-.06-.29-.16-.69a1.45,1.45,0,0,0-.09-.22l-.35-.62a1.27,1.27,0,0,0-.13-.19.87.87,0,0,1-.16-.22c0-.06-.19-.91-.19-.91l-.25-.87a1,1,0,0,0-.1-.21l-.29-.46a.38.38,0,0,1,0-.21,14.89,14.89,0,0,1,.69-2.82c0-.06,0-.07,0,0l0,.09-.07.43a.24.24,0,0,0,0,.2l.08.09c0,.05.09,0,.11,0l.07-.21a.83.83,0,0,0,0-.22v-.25a.83.83,0,0,0,0-.22l-.05-.17a.55.55,0,0,1,0-.22,16.44,16.44,0,0,1,.72-1.53.26.26,0,0,1,.17-.12.4.4,0,0,0,.21-.07l.12-.07a1.3,1.3,0,0,0,.18-.15,2.14,2.14,0,0,0,.26-.3s.27-.16.27-.2.23-.17.36-.24a.46.46,0,0,1,.22-.06h.09a.24.24,0,0,0,.19-.1l.11-.18s.13-.07.22-.1a.09.09,0,0,1,.13.07v.11a.12.12,0,0,0,.13.1l.5-.07s0-.06,0-.11a1.29,1.29,0,0,1-.06-.21v-.09a.16.16,0,0,1,.1-.15h0a.47.47,0,0,0,.19-.12l.12-.13c.05,0,0-.1,0-.13h0a.21.21,0,0,1-.1-.16.09.09,0,0,1,.11-.09l.13,0a.74.74,0,0,1,.21.07l.19.1.16.1a.1.1,0,0,1,0,.15l-.07.09a.4.4,0,0,1-.18.14l-.2.07a.26.26,0,0,0-.15.14l-.06.2a.21.21,0,0,0,0,.2l.18.19a.22.22,0,0,0,.19.06,1.2,1.2,0,0,0,.31-.09s0-.1,0-.18a.38.38,0,0,1,0-.21l.24-.49.17-.33a.62.62,0,0,1,.14-.18l.18-.16a.62.62,0,0,0,.14-.18c.08-.17.24-.49.26-.51l.34-.32a.35.35,0,0,0,.1-.19V156c0-.07,0-.11-.11-.09l-.34.08c-.06,0-.07,0,0-.06l.17-.17.31-.33a.47.47,0,0,0,.12-.19l.06-.15c0-.06,0-.11-.06-.11a.37.37,0,0,0-.2.07l-.28.21-.46.35a1.32,1.32,0,0,1-.2.12l-.14.07-.2.11-.44.32a.4.4,0,0,1-.21.07h-.1c-.06,0-.08,0,0-.09l.18-.22a1.21,1.21,0,0,1,.16-.16l.46-.41.39-.36.46-.38.3-.23a.52.52,0,0,1,.2-.09l.12,0,.23,0h.06c.07,0,.1,0,.07.1l-.08.16c0,.06,0,.1.06.11a.41.41,0,0,0,.19,0s.09,0,.11.06h0a.26.26,0,0,1,0,.21l0,0a.8.8,0,0,1-.15.17l-.11.11a.59.59,0,0,0-.11.19l-.07.21c0,.06,0,.09.07.07l.16-.06.22-.1a.87.87,0,0,1,.22-.05h.13l.22-.05.24-.09a1.39,1.39,0,0,0,.21-.11l.39-.27.35-.21a.75.75,0,0,0,.17-.14l.08-.11a.09.09,0,0,0,0-.14h0c-.06,0-.08-.09-.05-.13l.11-.19.11-.22a.37.37,0,0,1,0-.09c0-.05.08-.05.13,0l.08.07a.19.19,0,0,0,.19,0l.16-.09.1-.07a.31.31,0,0,1,.21,0l.26.12c.06,0,.06.06,0,.07l-.18.05a.35.35,0,0,0-.17.12.13.13,0,0,0,0,.17s0,.09,0,.12l-.11.05a1.27,1.27,0,0,0-.19.13l-.31.26-.25.25-.18.13-.26.14-.49.34a1.24,1.24,0,0,0-.18.14l-.09.1a1.41,1.41,0,0,0-.14.18l-.14.19-.18.26a.68.68,0,0,0-.1.21v.08a.15.15,0,0,0,.07.17l.16.09a.17.17,0,0,0,.18,0l.1-.1.15-.17,0-.05a.46.46,0,0,1,.18-.13l.19-.07.21-.09.12-.07a.54.54,0,0,1,.22-.05h.31a.55.55,0,0,0,.22-.06l.28-.15a.42.42,0,0,1,.22,0l.29,0a.38.38,0,0,0,.21,0l.15-.08a.85.85,0,0,0,.19-.14l.12-.12a.62.62,0,0,1,.18-.14l.31-.16a.46.46,0,0,0,.16-.15l.14-.21a2.2,2.2,0,0,1,.14-.18l.16-.16a.19.19,0,0,0,.05-.19l-.08-.28-.11-.3c0-.06,0-.09.07-.06l.2.07.46.19.2.11,0,0a.64.64,0,0,0,.21.09l.26.06a.34.34,0,0,0,.22,0l.19-.07a.85.85,0,0,1,.22,0h.21a.42.42,0,0,0,.22,0l.23-.13.21-.09.17-.06a.85.85,0,0,1,.23,0h.21a.14.14,0,0,0,.13-.12v-.07a.38.38,0,0,1,.12-.18l.08-.05a.42.42,0,0,1,.21-.06l.26,0a.26.26,0,0,0,.2-.07l.13-.12a.09.09,0,0,0,0-.14l-.21-.12a.41.41,0,0,1-.16-.16l-.05-.1c0-.06,0-.09.07-.08l.67.15.21.08.21.09a.88.88,0,0,1,.19.12l.05.05a.23.23,0,0,1,.07.19l0,.09a.11.11,0,0,1-.14.08l-.08,0a.41.41,0,0,0-.22,0l-.38.08c-.06,0-.08.06,0,.1l.16.13.19.12.13.06a.33.33,0,0,1,.16.15l.1.22a.62.62,0,0,0,.14.18l.14.11a.8.8,0,0,1,.15.17l.13.21c0,.05.1.13.15.18l.18.17c.05,0,0,.07,0,.06l-.29-.05a.6.6,0,0,0-.23,0l-.23,0c-.07,0-.07,0,0,.06l.11,0a.2.2,0,0,1,.12.12c0,.05,0,.09-.1.11l-.13,0a.81.81,0,0,0-.21.1l-.16.13a.18.18,0,0,0-.06.18l0,.1a.09.09,0,0,1-.08.12h-.1a.23.23,0,0,0-.17.1l0,.08a.54.54,0,0,0-.08.21v0a.09.09,0,0,1-.13.08l-.17,0a.45.45,0,0,1-.19-.11l-.09-.1s0-.09,0-.1l.23,0a.16.16,0,0,0,.12-.13h0a.21.21,0,0,0-.1-.18l-.13-.08a.83.83,0,0,0-.22-.08l-.19,0a.91.91,0,0,0-.23,0h-.13a.91.91,0,0,1-.23,0l-.12,0a.41.41,0,0,0-.22,0l-.42.13a.55.55,0,0,0-.19.12l-.21.23a.35.35,0,0,0-.1.2v0a.52.52,0,0,1-.09.2l-.14.17-.14.19-.06.1a.5.5,0,0,1-.17.15l-.1.05a.39.39,0,0,0-.15.16l0,.11a.59.59,0,0,0-.05.23v.2a.17.17,0,0,0,.11.15l.1,0a.41.41,0,0,0,.22,0l.19-.05a.14.14,0,0,1,.17.06.78.78,0,0,1,.11.2l0,.12a.46.46,0,0,0,.13.18l.06.05a.23.23,0,0,0,.2,0,1.64,1.64,0,0,0,.27-.17,1.3,1.3,0,0,0,0-.28.42.42,0,0,1,0-.22l.06-.1a.3.3,0,0,0,0-.21l-.07-.16a.85.85,0,0,1,0-.22c0-.1,0-.22,0-.24l.2-.29a.35.35,0,0,1,.17-.12.12.12,0,0,1,.15.07l0,.05a.21.21,0,0,1,0,.2l0,.05a.3.3,0,0,0-.06.2h0a.22.22,0,0,0,.11.17l.08,0a.59.59,0,0,0,.22.05h.37a.3.3,0,0,1,.2.06l0,0a.29.29,0,0,1,.09.16.09.09,0,0,1-.1.08h-.33a.08.08,0,0,0-.08.11h0a1.66,1.66,0,0,1,0,.22v.12a.06.06,0,0,1-.1.06h0a.13.13,0,0,0-.16,0,.22.22,0,0,0,0,.17l0,.1a.39.39,0,0,1,0,.21l-.09.17a.11.11,0,0,1-.15,0l-.07,0a.23.23,0,0,0-.2,0l-.24.13a.26.26,0,0,1-.21,0l-.23-.09-.17-.06a.17.17,0,0,1-.11-.15v-.27a.14.14,0,0,0-.1-.14h0a.12.12,0,0,0-.14.08l0,.16a1,1,0,0,0,0,.23v.15a.16.16,0,0,1-.12.14l-.28.06a.29.29,0,0,0-.16.13l-.08.17a.8.8,0,0,1-.13.19l-.11.13a.47.47,0,0,1-.19.12l-.38.13-.38.13-.36.11a.07.07,0,0,0,0,.12l.32.4a.3.3,0,0,1,.06.2l-.05.31a.14.14,0,0,1-.13.11h-.15l-.23,0-.47-.09-.09,0a.14.14,0,0,0-.15.07l-.13.2a.3.3,0,0,0,0,.21l0,.16a.2.2,0,0,1-.07.18l0,0a.49.49,0,0,0-.16.16l-.07.09a.11.11,0,0,0,0,.15.22.22,0,0,1,.09.17v.1a.17.17,0,0,0,.1.16l.15.07.2.1.11.06a.38.38,0,0,0,.21,0l.09,0a.38.38,0,0,1,.21,0h0a.15.15,0,0,0,.18,0l.21-.19.16-.16a.19.19,0,0,0,0-.19l-.09-.26s.1-.09.18-.15l.21-.09.14,0a.36.36,0,0,0,.18-.12l.05,0a.49.49,0,0,0,.08-.21V162a.18.18,0,0,1,.1-.15.3.3,0,0,1,.21,0l.15.07a.2.2,0,0,0,.2,0l.17-.1.31-.15a.11.11,0,0,1,.15,0l0,.08a.33.33,0,0,0,.16.15l.06,0a1.27,1.27,0,0,1,.19.13l.15.13.2.15.2.13.06,0a.22.22,0,0,1,.1.18v.11a.2.2,0,0,1-.12.16l-.08,0-.21.09-.14.09c-.06,0-.05.07,0,.1l.11,0a.94.94,0,0,0,.22.07h.07a.19.19,0,0,0,.18-.07l.11-.16.21-.27.13-.15a.14.14,0,0,0,0-.18l0-.08a.46.46,0,0,0-.16-.15l-.1-.06a.81.81,0,0,0-.22-.07h0a.25.25,0,0,1-.18-.11l0-.05a1.22,1.22,0,0,0-.15-.17l-.15-.14a.38.38,0,0,1-.1-.2v-.13c0-.07,0-.1.08-.08a1.06,1.06,0,0,1,.17.1l.37.3.2.13a1.28,1.28,0,0,0,.2.11l.23.09a.16.16,0,0,1,.1.14.55.55,0,0,0,0,.22l0,.09a.47.47,0,0,0,.12.19l.1.11.14.18.07.11a.44.44,0,0,0,.18.12h.06a.11.11,0,0,0,.13-.09.14.14,0,0,1,.14-.11h0c.06,0,.08,0,0-.08l0,0a.53.53,0,0,1-.12-.15c0-.05-.06-.12-.08-.16a.17.17,0,0,1,0-.17.53.53,0,0,1,.16-.13l0,0a.72.72,0,0,1,.19,0,.24.24,0,0,1,.17.09l0,0a.52.52,0,0,1,.09.2.86.86,0,0,0,.07.21l0,.05.13.19.05.07a.46.46,0,0,0,.18.13l0,0a.48.48,0,0,1,.16.09.13.13,0,0,0,.15,0h0a.26.26,0,0,0,.13-.12.09.09,0,0,1,.1-.07l.07,0,.16,0a.4.4,0,0,0,.29-.07l0,0a.49.49,0,0,1,.27-.11.14.14,0,0,1,.14.09v.08l0,.3.05.29a.44.44,0,0,1,0,.23l-.08.26-.06.16a.13.13,0,0,1-.16.08l-.25-.06a.39.39,0,0,0-.21,0l-.18.1a.43.43,0,0,1-.22.06h-.21l-.58,0-.34,0a.23.23,0,0,1-.15-.07s-.08-.07-.14-.07h-.07l-.22,0-.13,0a.19.19,0,0,0-.13.14v0a.3.3,0,0,0,0,.21h0a.08.08,0,0,1,0,.13l-.08,0a.26.26,0,0,1-.21,0h0a.54.54,0,0,0-.21-.08l-.25,0a.35.35,0,0,1-.17-.12h0a.41.41,0,0,0-.17-.15l-.11,0-.23-.06-.28-.05a.42.42,0,0,1-.21-.08l-.12-.1a.11.11,0,0,1,0-.16l.12-.15s0-.12,0-.16a.15.15,0,0,1,0-.16.11.11,0,0,0-.06-.14l-.07,0a.34.34,0,0,0-.22,0l-.24,0-.23,0h-.89a.85.85,0,0,0-.22,0l-.5.17-.33.12a.58.58,0,0,1-.23,0l-.21,0-.22,0-.07,0a.19.19,0,0,0-.19.05L156,164a.5.5,0,0,1-.19.13l-.14.07a.46.46,0,0,0-.18.13l-.15.17a.39.39,0,0,0-.08.2v.15a.28.28,0,0,1-.09.19l-.23.19a.56.56,0,0,1-.21.09h-.09a.34.34,0,0,0-.18.11l-.07.11a.61.61,0,0,1-.16.16l-.15.1a.38.38,0,0,0-.14.17l0,.11a.59.59,0,0,1-.11.19l-.26.29a.8.8,0,0,0-.13.19l0,.11a.26.26,0,0,0,0,.21l0,.1a.24.24,0,0,1,0,.2.56.56,0,0,0,0,.22l0,.07a.55.55,0,0,1,0,.22l-.06.24a1,1,0,0,1-.08.22l-.11.24a.23.23,0,0,0,0,.2h0a.26.26,0,0,1,0,.21l0,.13a.24.24,0,0,0,0,.2l.47.55a1.37,1.37,0,0,1,.13.2l.29.54a.62.62,0,0,0,.14.18l.41.38a1.1,1.1,0,0,0,.18.14l.4.25a.31.31,0,0,0,.21,0l.45-.1a.89.89,0,0,1,.23,0l.54.11a.43.43,0,0,0,.22,0l.31-.17a1,1,0,0,1,.22-.08l.48-.11a.3.3,0,0,1,.21.05l.17.14s.12.11.16.16l.19.21a.24.24,0,0,0,.19.07l.32-.07a.81.81,0,0,1,.22,0l.14,0a.47.47,0,0,1,.2.1l.14.12a.2.2,0,0,1,.06.18l0,.16a.83.83,0,0,1-.08.22l-.12.2a.53.53,0,0,1-.13.16.1.1,0,0,0,0,.14l.41.48a1.29,1.29,0,0,0,.16.17l.29.27a.33.33,0,0,1,.08.19v.31a.59.59,0,0,0,.05.22l.06.14a2,2,0,0,0,.12.19l0,.07a.24.24,0,0,1,0,.2l0,.16a.51.51,0,0,1-.1.21l-.09.12a.78.78,0,0,0-.11.2l-.16.39a.51.51,0,0,0-.05.22v.23a.44.44,0,0,0,.07.21l.34.42.23.26a.38.38,0,0,1,.07.21v.4a.28.28,0,0,0,.09.19l.11.08a.49.49,0,0,1,.14.18l.19.37a.59.59,0,0,1,0,.22v.12a.11.11,0,0,0,.12.11h.21a1,1,0,0,0,.23,0l.37-.11a.85.85,0,0,1,.23,0l.6-.06a.73.73,0,0,0,.21-.06l.3-.16a1.27,1.27,0,0,0,.19-.13l.38-.28a1.21,1.21,0,0,0,.16-.16l.3-.4a1.21,1.21,0,0,1,.16-.16l.31-.26.15-.17.2-.33a1.33,1.33,0,0,0,.09-.21l.06-.33a.47.47,0,0,1,.12-.19l.45-.37.19-.13.32-.18a.26.26,0,0,0,.13-.16l.11-.4a.85.85,0,0,0,0-.22v-.49a1.85,1.85,0,0,0,0-.23,3.52,3.52,0,0,1,0-.36c0-.08,0-.71,0-.77a4.47,4.47,0,0,1,.23-.48,1.27,1.27,0,0,1,.13-.19c.12-.14.35-.42.41-.51s.55-.77.55-.77l.32-.41a.78.78,0,0,0,.11-.2l.17-.4a1.8,1.8,0,0,0,.06-.22l.17-.92.09-.58c0-.07,0-.1-.09-.08l-.37.12-.21.09-.37.2-.22.09-.08,0a.25.25,0,0,1-.21,0l0,0a.61.61,0,0,1-.16-.16l-.14-.23a.27.27,0,0,0-.18-.1h0a.28.28,0,0,1-.19-.09l-.12-.16-.13-.19-.12-.19a.79.79,0,0,0-.14-.18c-.1-.08-.26-.21-.3-.23a.4.4,0,0,1-.12-.15,1.33,1.33,0,0,1-.09-.21l-.05-.17a1,1,0,0,0-.1-.21l-.08-.16a1.3,1.3,0,0,0-.15-.18l-.23-.22a.59.59,0,0,1-.13-.19l-.27-.58c0-.06,0-.1.06-.09l.16,0a.35.35,0,0,1,.19.1l.44.52a.83.83,0,0,0,.17.15l.33.2a.24.24,0,0,1,.1.18v.23a.26.26,0,0,0,.09.18l.3.23a.8.8,0,0,1,.15.17l.37.56.33.55a.15.15,0,0,0,.17.07l.4-.14.62-.21a.46.46,0,0,0,.18-.13l.38-.48.15-.17.44-.44a.42.42,0,0,0,.09-.19c0-.29.07-1,.07-1.08s0-.33,0-.5a.19.19,0,0,0-.1-.16l-.19-.08a.12.12,0,0,0-.16,0,.11.11,0,0,1-.15,0l-.05,0a.9.9,0,0,1-.18-.15v0a.08.08,0,0,0-.13,0l0,.05a2.12,2.12,0,0,1-.11.21l0,.05a.26.26,0,0,1-.17.12l-.08,0c-.06,0-.11,0-.09-.09V165a.12.12,0,0,0-.09-.14h-.06a.39.39,0,0,0-.21,0,.15.15,0,0,1-.17,0l-.38-.46a.39.39,0,0,1-.08-.21V164c0-.06,0-.09.11-.07h0a.62.62,0,0,1,.18.14l.06.08a.49.49,0,0,0,.16.16l.11.08.11.07.21.09.1,0a.27.27,0,0,0,.21,0h0a.58.58,0,0,1,.21-.07l.6,0a.94.94,0,0,0,.22-.07l.43-.23a.19.19,0,0,1,.19,0l.19.17a.25.25,0,0,0,.2.06c.17,0,.46-.07.46-.12a2.45,2.45,0,0,1,.24-.35s.08,0,.1,0l.12.45a.81.81,0,0,0,.07.22l.22.56a2,2,0,0,0,.1.21l.42.72a1,1,0,0,1,.1.21l.22.69a.44.44,0,0,0,.12.18l.19.16c.05,0,.08,0,.07,0a10,10,0,0,1-.19-1.44c0-.05-.15-.32-.26-.47a.31.31,0,0,1-.06-.21c0-.3.12-1.07.12-1.12s-.14-.48-.21-.7a.41.41,0,0,1,0-.22l.12-.43c0-.06.06-.07.1,0l.57.9c0,.05.06.1.07.09s0,.05.05.11a14.87,14.87,0,0,1-14.47,18.12Z"/><circle cx="126.93" cy="118.05" r="3.58" stroke="#fff" stroke-miterlimit="10" stroke-width="2"/><path d="M124,112.83l-2.29-14.56V98.2a5.32,5.32,0,1,1,10.63,0v.08l-2.45,14.55Z"/><path d="M127,93.88a4.32,4.32,0,0,1,4.32,4.32l-.24,1.4-2.05,12.23h-4.19l-1.94-12.31-.21-1.32A4.32,4.32,0,0,1,127,93.88m0-2a6.32,6.32,0,0,0-6.31,6.32v.15l0,.16.2,1.32,1.94,12.31.27,1.69h7.59l.28-1.67,2.05-12.23.24-1.4,0-.17V98.2A6.33,6.33,0,0,0,127,91.88Z" fill="#fff"/></svg>