<svg xmlns="http://www.w3.org/2000/svg" viewBox="0 0 90.78 91.71"><rect x="0.5" y="0.5" width="89.78" height="90.71" rx="44.89" fill="#ffded1"/><path d="M45.39,91.21A44.89,44.89,0,0,1,.5,46.32v-.93a44.89,44.89,0,0,1,89.78,0v.93A44.89,44.89,0,0,1,45.39,91.21Z" fill="none" stroke="#1d1d1b" stroke-linecap="round" stroke-linejoin="round" stroke-dasharray="5.07 5.07"/><path d="M51.32,12.76v0a6.07,6.07,0,0,1-2,4.5,4.46,4.46,0,0,0-1.1,1.52,4.5,4.5,0,0,0-.39,1.84v.14a.48.48,0,0,1,.3.44V23a.48.48,0,0,1-.47.47h-.49a1.91,1.91,0,0,1-3.67,0h-.38a.47.47,0,0,1-.47-.47v-1.8a.47.47,0,0,1,.29-.43v-.15a4.49,4.49,0,0,0-1.5-3.36,6.11,6.11,0,0,1-2-4.5v0A6.06,6.06,0,0,1,45.37,6.7h0a6,6,0,0,1,5.91,6.06Zm-1,0a5,5,0,1,0-9.9,0v0a5.09,5.09,0,0,0,1.67,3.77,5.46,5.46,0,0,1,1.34,1.86,5.36,5.36,0,0,1,.48,2.23v.11h2.93v-.11a5.51,5.51,0,0,1,.47-2.23,5.74,5.74,0,0,1,1.34-1.86,5.05,5.05,0,0,0,1.67-3.77v0Zm-7.5.82a2.66,2.66,0,0,0,1.87,2.53v2.06a.39.39,0,1,0,.78,0V9.54S42.84,12.11,42.84,13.58Zm5.3,0c0-1-1.28-2.58-2.06-3.43v2.16l.31-.32a.3.3,0,1,1,.42.42l-.73.73v1.19l.89-.89a.29.29,0,0,1,.42,0,.3.3,0,0,1,0,.41l-1.31,1.31v1A2.65,2.65,0,0,0,48.14,13.58Z"/><path d="M43.08,42.84v0a6.07,6.07,0,0,1-2,4.49A4.52,4.52,0,0,0,40,48.88a4.64,4.64,0,0,0-.39,1.84v.14a.47.47,0,0,1,.3.44v1.79a.47.47,0,0,1-.47.47h-.48a1.91,1.91,0,0,1-3.67,0h-.38a.47.47,0,0,1-.47-.47V51.3a.47.47,0,0,1,.29-.44v-.14a4.64,4.64,0,0,0-.39-1.84,4.52,4.52,0,0,0-1.11-1.53,6.07,6.07,0,0,1-2-4.49v0a6.08,6.08,0,0,1,5.91-6.07h0a6.08,6.08,0,0,1,5.91,6.07Zm-1,0a5,5,0,1,0-9.9,0v0a5.1,5.1,0,0,0,1.67,3.77,5.48,5.48,0,0,1,1.81,4.09v.1h2.94v-.1a5.55,5.55,0,0,1,.47-2.24,5.46,5.46,0,0,1,1.34-1.85,5.1,5.1,0,0,0,1.67-3.77v0Zm-7.5.81a2.64,2.64,0,0,0,1.87,2.53v2.07a.39.39,0,0,0,.39.39.4.4,0,0,0,.39-.39V39.62S34.6,42.19,34.6,43.65Zm5.3,0c0-1-1.29-2.57-2.07-3.42v2.16l.32-.32a.29.29,0,0,1,.42,0,.3.3,0,0,1,0,.41l-.74.74v1.19l.9-.9a.3.3,0,0,1,.41,0,.29.29,0,0,1,0,.42l-1.31,1.31v1A2.65,2.65,0,0,0,39.9,43.65Z"/><path d="M59.56,42.84v0a6,6,0,0,1-2,4.49,4.63,4.63,0,0,0-1.1,1.53,4.47,4.47,0,0,0-.39,1.84v.14a.48.48,0,0,1,.3.44v1.79a.47.47,0,0,1-.47.47h-.49a1.91,1.91,0,0,1-3.67,0h-.38a.47.47,0,0,1-.47-.47V51.3a.47.47,0,0,1,.29-.44v-.14a4.47,4.47,0,0,0-.39-1.84,4.63,4.63,0,0,0-1.1-1.53,6,6,0,0,1-2-4.49v0a6.08,6.08,0,0,1,5.92-6.07h0a6.06,6.06,0,0,1,5.91,6.07Zm-1,0a5,5,0,1,0-9.91,0v0a5.1,5.1,0,0,0,1.67,3.77,5.33,5.33,0,0,1,1.34,1.85,5.4,5.4,0,0,1,.48,2.24v.1H55.1v-.1a5.58,5.58,0,0,1,1.81-4.09,5.08,5.08,0,0,0,1.68-3.77v0Zm-7.51.81A2.65,2.65,0,0,0,53,46.18v2.07a.4.4,0,0,0,.39.39.39.39,0,0,0,.39-.39V39.62S51.08,42.19,51.08,43.65Zm5.3,0c0-1-1.28-2.57-2.06-3.42v2.16l.32-.32a.29.29,0,0,1,.41.41l-.73.74v1.19l.89-.9a.3.3,0,0,1,.42.42l-1.31,1.31v1A2.64,2.64,0,0,0,56.38,43.65Z"/><path d="M34.87,72.91v0a6.07,6.07,0,0,1-2,4.5A4.6,4.6,0,0,0,31.78,79a4.47,4.47,0,0,0-.39,1.84v.14a.48.48,0,0,1,.3.44v1.8a.47.47,0,0,1-.47.47h-.49a1.91,1.91,0,0,1-3.67,0h-.38a.47.47,0,0,1-.47-.47v-1.8a.47.47,0,0,1,.29-.43v-.15A4.47,4.47,0,0,0,26.11,79,4.6,4.6,0,0,0,25,77.43a6.08,6.08,0,0,1-2-4.5v0a6.06,6.06,0,0,1,5.92-6.06h0a6,6,0,0,1,5.91,6.06Zm-1,0a5,5,0,1,0-9.91,0v0a5.09,5.09,0,0,0,1.67,3.77,5.59,5.59,0,0,1,1.82,4.09v.11h2.93v-.11a5.51,5.51,0,0,1,.47-2.23,5.64,5.64,0,0,1,1.34-1.86,5.08,5.08,0,0,0,1.68-3.77v0Zm-7.51.81a2.66,2.66,0,0,0,1.87,2.54v2.06a.39.39,0,1,0,.78,0V69.69S26.39,72.26,26.39,73.72Zm5.3,0c0-1-1.28-2.57-2.06-3.42v2.16l.32-.32a.3.3,0,0,1,.41,0,.31.31,0,0,1,0,.42l-.73.73v1.19l.89-.9a.3.3,0,1,1,.42.42l-1.31,1.31v1A2.65,2.65,0,0,0,31.69,73.72Z"/><path d="M51.32,72.91v0a6.07,6.07,0,0,1-2,4.5,4.53,4.53,0,0,0-1.49,3.36v.14a.48.48,0,0,1,.3.44v1.8a.48.48,0,0,1-.47.47h-.49a1.91,1.91,0,0,1-3.67,0h-.38a.47.47,0,0,1-.47-.47v-1.8a.47.47,0,0,1,.29-.43v-.15a4.49,4.49,0,0,0-1.5-3.36,6.11,6.11,0,0,1-2-4.5v0a6.06,6.06,0,0,1,5.91-6.06h0a6,6,0,0,1,5.91,6.06Zm-1,0a5,5,0,1,0-9.9,0v0a5.09,5.09,0,0,0,1.67,3.77,5.59,5.59,0,0,1,1.82,4.09v.11h2.93v-.11a5.51,5.51,0,0,1,.47-2.23,5.64,5.64,0,0,1,1.34-1.86,5.07,5.07,0,0,0,1.67-3.77v0Zm-7.5.81a2.66,2.66,0,0,0,1.87,2.54v2.06a.39.39,0,0,0,.78,0V69.69S42.84,72.26,42.84,73.72Zm5.3,0c0-1-1.28-2.57-2.06-3.42v2.16l.31-.32a.3.3,0,1,1,.42.42l-.73.73v1.19l.89-.9a.3.3,0,1,1,.42.42l-1.31,1.31v1A2.65,2.65,0,0,0,48.14,73.72Z"/><path d="M67.77,72.91v0a6.11,6.11,0,0,1-2,4.5A4.33,4.33,0,0,0,64.68,79a4.47,4.47,0,0,0-.39,1.84v.14a.47.47,0,0,1,.29.44v1.8a.47.47,0,0,1-.47.47h-.48a1.91,1.91,0,0,1-3.67,0h-.38a.47.47,0,0,1-.47-.47v-1.8a.47.47,0,0,1,.29-.43v-.15a4.49,4.49,0,0,0-1.5-3.36,6.11,6.11,0,0,1-2-4.5v0a6.06,6.06,0,0,1,5.91-6.06h0a6.06,6.06,0,0,1,5.91,6.06Zm-1,0a5,5,0,1,0-9.9,0v0a5.09,5.09,0,0,0,1.67,3.77,5.37,5.37,0,0,1,1.34,1.86,5.51,5.51,0,0,1,.47,2.23v.11h2.94v-.11a5.51,5.51,0,0,1,.47-2.23,5.64,5.64,0,0,1,1.34-1.86,5.1,5.1,0,0,0,1.67-3.77v0Zm-7.5.81a2.65,2.65,0,0,0,1.87,2.54v2.06a.38.38,0,0,0,.39.39.39.39,0,0,0,.39-.39V69.69S59.29,72.26,59.29,73.72Zm5.3,0c0-1-1.28-2.57-2.06-3.42v2.16l.31-.32a.3.3,0,1,1,.42.42l-.73.73v1.19l.89-.9a.3.3,0,1,1,.42.42l-1.31,1.31v1A2.65,2.65,0,0,0,64.59,73.72Z"/><line x1="37.17" y1="36.77" x2="37.73" y2="35.95" fill="none" stroke="#000" stroke-miterlimit="10" stroke-width="0.75"/><line x1="38.74" y1="34.48" x2="44.27" y2="26.42" fill="none" stroke="#000" stroke-miterlimit="10" stroke-width="0.75" stroke-dasharray="1.78 1.78"/><polyline points="44.78 25.69 45.34 24.86 45.91 25.68" fill="none" stroke="#000" stroke-miterlimit="10" stroke-width="0.75"/><line x1="46.93" y1="27.15" x2="52.54" y2="35.22" fill="none" stroke="#000" stroke-miterlimit="10" stroke-width="0.75" stroke-dasharray="1.79 1.79"/><line x1="53.05" y1="35.95" x2="53.62" y2="36.77" fill="none" stroke="#000" stroke-miterlimit="10" stroke-width="0.75"/><line x1="29.02" y1="66.85" x2="29.59" y2="66.02" fill="none" stroke="#000" stroke-miterlimit="10" stroke-width="0.75"/><line x1="30.6" y1="64.56" x2="36.13" y2="56.5" fill="none" stroke="#000" stroke-miterlimit="10" stroke-width="0.75" stroke-dasharray="1.78 1.78"/><polyline points="36.63 55.76 37.2 54.94 37.77 55.76" fill="none" stroke="#000" stroke-miterlimit="10" stroke-width="0.75"/><line x1="38.79" y1="57.23" x2="44.39" y2="65.29" fill="none" stroke="#000" stroke-miterlimit="10" stroke-width="0.75" stroke-dasharray="1.79 1.79"/><line x1="44.9" y1="66.02" x2="45.47" y2="66.85" fill="none" stroke="#000" stroke-miterlimit="10" stroke-width="0.75"/><line x1="45.39" y1="66.85" x2="45.96" y2="66.02" fill="none" stroke="#000" stroke-miterlimit="10" stroke-width="0.75"/><line x1="46.96" y1="64.56" x2="52.5" y2="56.5" fill="none" stroke="#000" stroke-miterlimit="10" stroke-width="0.75" stroke-dasharray="1.78 1.78"/><polyline points="53 55.76 53.57 54.94 54.14 55.76" fill="none" stroke="#000" stroke-miterlimit="10" stroke-width="0.75"/><line x1="55.16" y1="57.23" x2="60.76" y2="65.29" fill="none" stroke="#000" stroke-miterlimit="10" stroke-width="0.75" stroke-dasharray="1.79 1.79"/><line x1="61.27" y1="66.02" x2="61.84" y2="66.85" fill="none" stroke="#000" stroke-miterlimit="10" stroke-width="0.75"/></svg>