<svg xmlns="http://www.w3.org/2000/svg" viewBox="0 0 91.71 91.71"><rect x="0.5" y="0.5" width="90.71" height="90.71" rx="45.35" fill="#fff"/><path d="M45.85,91.21h0A45.36,45.36,0,0,1,45.85.5h0a45.36,45.36,0,1,1,0,90.71Z" fill="none" stroke="#1d1d1b" stroke-linecap="round" stroke-linejoin="round" stroke-dasharray="5.09 5.09"/><path d="M57.47,21.36a.65.65,0,0,0-.6-.06l-.06.06a.49.49,0,0,0-.26.27L55.1,24.06a.69.69,0,0,0-.06.52.56.56,0,0,0,.26.39A.57.57,0,0,0,56,25a.51.51,0,0,0,.26-.26l1.44-2.43a.69.69,0,0,0,.07-.52A1.51,1.51,0,0,0,57.47,21.36Z"/><path d="M44.27,21.36a.63.63,0,0,1,.59-.06l.07.06a.53.53,0,0,1,.26.27l1.44,2.43a.69.69,0,0,1,.07.52c-.07.2-.13.33-.26.39a.57.57,0,0,1-.66,0,.47.47,0,0,1-.26-.26l-1.45-2.43a.69.69,0,0,1-.06-.52A1.3,1.3,0,0,1,44.27,21.36Z"/><path d="M41.31,27.93a.23.23,0,0,0,.2-.07.56.56,0,0,0,.39-.26.57.57,0,0,0-.26-.85L39.21,25.3c-.13-.06-.19-.13-.33-.13h-.06a.67.67,0,0,0-.53.33.71.71,0,0,0-.06.53.61.61,0,0,0,.26.39l2.43,1.44C41.05,27.86,41.18,27.93,41.31,27.93Z"/><path d="M63.7,25.57a.57.57,0,0,0-.52-.33h-.07c-.13,0-.19.06-.33.13l-2.43,1.44a.66.66,0,0,0-.32.4.5.5,0,0,0,.06.52.68.68,0,0,0,.59.33c.13,0,.2-.07.33-.07l2.43-1.44a.45.45,0,0,0,.26-.39C63.77,25.83,63.77,25.7,63.7,25.57Z"/><path d="M51,20a.83.83,0,0,0-.53.27l-.07.06a.65.65,0,0,0-.06.33l-.07,2.82a.6.6,0,0,0,.2.46.57.57,0,0,0,.46.2.68.68,0,0,0,.59-.33.62.62,0,0,0,.13-.33l.07-2.82a.6.6,0,0,0-.2-.46A.9.9,0,0,0,51,20Z"/><path d="M43,42.64v3.67H59.37V42.64a3.87,3.87,0,0,0-3.94-3.94H47A3.92,3.92,0,0,0,43,42.64Z"/><path d="M51.23,37a4.61,4.61,0,0,0,4.59-4.6,4.6,4.6,0,0,0-9.19,0A4.62,4.62,0,0,0,51.23,37Z"/><path d="M40.53,37.71a3.64,3.64,0,0,0,3.61-3.61,3.6,3.6,0,0,0-3.61-3.61,3.61,3.61,0,1,0,0,7.22Z"/><path d="M61.93,37.71a3.61,3.61,0,1,0-3.61-3.61A3.64,3.64,0,0,0,61.93,37.71Z"/><path d="M37.24,39a3.07,3.07,0,0,0-3.08,3.08V45h7.68V42.64A4.69,4.69,0,0,1,43.55,39H37.24Z"/><path d="M65.21,39H59a4.61,4.61,0,0,1,1.64,3.67v2.37h7.69v-3A3.09,3.09,0,0,0,65.21,39Z"/><path d="M38.76,51a14,14,0,0,0-10.26,3l-9.38,7.58,8.15,10.07,6.32-5.11,20.86,2.21,17-13.71a3.06,3.06,0,0,0,.69-4,3,3,0,0,0-4.37-.66L54.93,60.75,43.68,59.57a1,1,0,1,1,.21-2l9,.93a3,3,0,0,0,3.3-2.85,3.06,3.06,0,0,0-2.78-3.1Z"/></svg>