<svg xmlns="http://www.w3.org/2000/svg" viewBox="0 0 283.46 283.46"><circle cx="141.73" cy="141.73" r="73.77" fill="#8e67a9" stroke="#000" stroke-miterlimit="10" stroke-width="4"/><circle cx="141.73" cy="141.73" r="68.11" fill="none" stroke="#000" stroke-miterlimit="10" stroke-width="0.75" stroke-dasharray="2"/><path d="M96.08,138.55a1,1,0,0,0-.79,1.18l0,.2a1,1,0,0,0,1,.81l.2,0a1,1,0,0,0,.79-1.18l0-.2A1,1,0,0,0,96.08,138.55Z" fill="#010101"/><path d="M96.12,143.87l0,.19a1,1,0,0,0,1,.81.68.68,0,0,0,.2,0,1,1,0,0,0,.79-1.18l0-.2a1,1,0,0,0-2,.4Z" fill="#010101"/><path d="M95.25,134.42a1,1,0,0,0-.79,1.18l0,.19a1,1,0,0,0,1,.81.62.62,0,0,0,.19,0,1,1,0,0,0,.79-1.18l0-.2A1,1,0,0,0,95.25,134.42Z" fill="#010101"/><path d="M155,119.34l-.07.19a1,1,0,0,0,.93,1.24,1.15,1.15,0,0,0,1-.76,1,1,0,1,0-1.89-.67Z" fill="#010101"/><path d="M158.36,112.77a.93.93,0,0,0,.29,0,1.16,1.16,0,0,0,1-.76,1,1,0,0,0-1.9-.66l-.07.19A.92.92,0,0,0,158.36,112.77Z" fill="#010101"/><path d="M153.54,123.32l-.06.19a.91.91,0,0,0,.65,1.18.66.66,0,0,0,.28,0,1.14,1.14,0,0,0,1-.75,1,1,0,1,0-1.9-.67Z" fill="#010101"/><path d="M156.37,115.37l-.07.19a.94.94,0,0,0,.65,1.19.9.9,0,0,0,.28,0,1.14,1.14,0,0,0,1-.75,1,1,0,1,0-1.89-.67Z" fill="#010101"/><path d="M184.07,149a1.11,1.11,0,0,0,1-1,1,1,0,1,0-2-.18l0,.2a.92.92,0,0,0,.92,1Z" fill="#010101"/><path d="M182.69,152l0,.2a1,1,0,0,0,.9,1.1h.1a1,1,0,0,0,1-.9l0-.2a1,1,0,0,0-.9-1.1A1,1,0,0,0,182.69,152Z" fill="#010101"/><path d="M169.94,109a1,1,0,0,0,.82.41,1,1,0,0,0,.58-.19,1,1,0,0,0,.23-1.4l-.12-.16a1,1,0,1,0-1.63,1.17Z" fill="#010101"/><path d="M174.88,115.85a1,1,0,0,0,1.4.22,1,1,0,0,0,.23-1.4l-.12-.16a1,1,0,1,0-1.63,1.17Z" fill="#010101"/><path d="M172.52,110.86a1,1,0,0,0-.23,1.4l.12.17a1,1,0,0,0,.82.41,1,1,0,0,0,.58-.19,1,1,0,0,0,.23-1.4l-.12-.16A1,1,0,0,0,172.52,110.86Z" fill="#010101"/><path d="M134.24,172.11l-.08.18a1,1,0,0,0,.52,1.32.93.93,0,0,0,.4.09,1,1,0,0,0,.92-.61l.08-.18a1,1,0,1,0-1.84-.8Z" fill="#010101"/><path d="M136.4,169.65a.85.85,0,0,0,.35.08,1.15,1.15,0,0,0,1-.68,1,1,0,1,0-1.84-.81l-.08.18A.92.92,0,0,0,136.4,169.65Z" fill="#010101"/><path d="M118.26,176.59a1,1,0,0,0,.65-1.77l-.16-.13a.91.91,0,0,0-1.33.18,1.1,1.1,0,0,0,.19,1.48A1,1,0,0,0,118.26,176.59Z" fill="#010101"/><path d="M115,173.87a1,1,0,0,0,.65-1.77l-.15-.13a.93.93,0,0,0-1.34.18,1.09,1.09,0,0,0,.19,1.48A1,1,0,0,0,115,173.87Z" fill="#010101"/><path d="M112.66,114.5a1.11,1.11,0,0,0,.5-.12,1,1,0,1,0-.9-1.8l-.18.09a.92.92,0,0,0-.35,1.3A1,1,0,0,0,112.66,114.5Z" fill="#010101"/><path d="M108.76,116.46a1.06,1.06,0,0,0,.45-.11l.18-.09a1,1,0,1,0-.9-1.8l-.18.09a1,1,0,0,0-.45,1.35A1,1,0,0,0,108.76,116.46Z" fill="#010101"/><path d="M105,118.34a1,1,0,0,0,.44-.1l.18-.09a1,1,0,1,0-.89-1.8l-.18.08a1,1,0,0,0-.46,1.35A1,1,0,0,0,105,118.34Z" fill="#010101"/><path d="M114.37,133.58a.93.93,0,0,0,.4.09,1.19,1.19,0,0,0,1-.62,1,1,0,0,0-1.8-.91l-.09.18A.93.93,0,0,0,114.37,133.58Z" fill="#010101"/><path d="M116.79,129.84a1,1,0,0,0,.89-.54l.1-.18a1,1,0,0,0-1.79-.92l-.09.18a1,1,0,0,0,.43,1.35A1,1,0,0,0,116.79,129.84Z" fill="#010101"/><path d="M113.31,135.63a1,1,0,0,0-1.35.44l-.09.18a.92.92,0,0,0,.49,1.26.89.89,0,0,0,.39.09,1.15,1.15,0,0,0,1-.62A1,1,0,0,0,113.31,135.63Z" fill="#010101"/><path d="M108.28,145.46a.92.92,0,0,0,.46.11,1,1,0,0,0,.89-.54l.09-.18a1,1,0,1,0-1.78-.92l-.1.18A1,1,0,0,0,108.28,145.46Z" fill="#010101"/><path d="M121.37,119.9a1,1,0,0,0-1.35.43l-.09.18a1,1,0,0,0,.43,1.36,1.07,1.07,0,0,0,.46.11,1,1,0,0,0,.89-.55l.09-.17A1,1,0,0,0,121.37,119.9Z" fill="#010101"/><path d="M119.36,123.83a1,1,0,0,0-1.35.44l-.1.17a1,1,0,0,0,.43,1.36,1.12,1.12,0,0,0,.47.11,1,1,0,0,0,.89-.54l.09-.18A1,1,0,0,0,119.36,123.83Z" fill="#010101"/><path d="M110.29,141.53a1.11,1.11,0,0,0,.46.11,1,1,0,0,0,.89-.55l.1-.17a1,1,0,0,0-.44-1.36A1,1,0,0,0,110,140l-.09.18A1,1,0,0,0,110.29,141.53Z" fill="#010101"/><path d="M121.4,154.38a1,1,0,0,0,1.26.67l.19-.06a.92.92,0,0,0,.57-1.22,1.09,1.09,0,0,0-1.34-.64A1,1,0,0,0,121.4,154.38Z" fill="#010101"/><path d="M118,154.34a1,1,0,0,0,.58,1.92l.19-.06a.92.92,0,0,0,.57-1.22A1.09,1.09,0,0,0,118,154.34Z" fill="#010101"/><path d="M168.66,138.4a1.14,1.14,0,0,0,.4-.08l.18-.08a.93.93,0,0,0,.44-1.28,1.11,1.11,0,0,0-1.42-.49,1,1,0,0,0-.52,1.32A1,1,0,0,0,168.66,138.4Z" fill="#010101"/><path d="M161,120.29a1,1,0,0,0,.92-.61,1,1,0,0,0-.52-1.32l-.19-.07a.92.92,0,0,0-1.23.56,1.09,1.09,0,0,0,1,1.44Z" fill="#010101"/><path d="M168.32,123.53a1,1,0,0,0,.4.08,1,1,0,0,0,.92-.6,1,1,0,0,0-.52-1.32l-.19-.08a.91.91,0,0,0-1.22.56A1.09,1.09,0,0,0,168.32,123.53Z" fill="#010101"/><path d="M164.45,121.87a.92.92,0,0,0,.4.08,1,1,0,0,0,.39-1.93l-.19-.08a1,1,0,0,0-.79,1.85Z" fill="#010101"/><path d="M145.56,113.77a1,1,0,0,0,.4.09,1,1,0,0,0,.92-.61,1,1,0,0,0-.52-1.32l-.19-.08a.93.93,0,0,0-1.23.57A1.09,1.09,0,0,0,145.56,113.77Z" fill="#010101"/><path d="M149.44,115.44a1.1,1.1,0,0,0,.4.08,1,1,0,0,0,.92-.61,1,1,0,0,0-.53-1.32l-.18-.08a.93.93,0,0,0-1.23.57A1.1,1.1,0,0,0,149.44,115.44Z" fill="#010101"/><path d="M167,147a20.83,20.83,0,1,0-20.83,20.83A20.85,20.85,0,0,0,167,147Zm-39.65,0a18.82,18.82,0,1,1,18.82,18.82A18.84,18.84,0,0,1,127.39,147Z" fill="#010101"/><path d="M128.76,120.64a15.14,15.14,0,0,0,13.93-9.19,14.91,14.91,0,0,0,1.23-6,15.17,15.17,0,1,0-15.16,15.16Zm0-28.32a13.16,13.16,0,1,1-13.16,13.16A13.17,13.17,0,0,1,128.76,92.32Z" fill="#010101"/><path d="M170.65,129.29a15.17,15.17,0,1,0,15.16-15.16A15.18,15.18,0,0,0,170.65,129.29Zm15.16-13.16a13.16,13.16,0,1,1-13.15,13.16A13.17,13.17,0,0,1,185.81,116.13Z" fill="#010101"/><path d="M85.35,160.64a15.16,15.16,0,1,0,15.16-15.16A15.18,15.18,0,0,0,85.35,160.64Zm15.16-13.15a13.15,13.15,0,1,1-13.16,13.15A13.17,13.17,0,0,1,100.51,147.49Z" fill="#010101"/><path d="M129.59,195.66a10.54,10.54,0,1,0-10.53-10.54A10.55,10.55,0,0,0,129.59,195.66Z" fill="#010101"/><path d="M163.49,108.88A10.54,10.54,0,1,0,153,98.34,10.55,10.55,0,0,0,163.49,108.88Z" fill="#010101"/><path d="M171.65,166.49A10.54,10.54,0,1,0,182.19,156,10.55,10.55,0,0,0,171.65,166.49Zm19.06,0a8.53,8.53,0,1,1-8.52-8.53A8.54,8.54,0,0,1,190.71,166.49Z" fill="#010101"/><path d="M93,133.84A10.54,10.54,0,1,0,82.49,123.3,10.55,10.55,0,0,0,93,133.84Zm0-19.06a8.53,8.53,0,1,1-8.52,8.52A8.54,8.54,0,0,1,93,114.78Z" fill="#010101"/><path d="M158.64,140.23H135.46a2.64,2.64,0,0,0-2.64,2.64h0V152a.33.33,0,0,0,.33.33h2.44a3.19,3.19,0,0,1,6.38,0h9.44a3.19,3.19,0,0,1,6.38,0H161a.33.33,0,0,0,.33-.32v-9.11a2.64,2.64,0,0,0-2.63-2.64Zm-17.06,6.83h-6.39v-4.69h6.39Zm8.85,0h-6.38v-4.69h6.38Zm8.47,0h-6.38v-4.69h6.38Z" fill="#010101"/><path d="M138.78,150.29a2,2,0,1,0,2,2h0A2,2,0,0,0,138.78,150.29Z" fill="#010101"/><path d="M154.6,150.29a2,2,0,1,0,2,2h0A2,2,0,0,0,154.6,150.29Z" fill="#010101"/><path d="M134.85,103.39a3,3,0,0,0-.42,0l-1.37-4.62a.62.62,0,0,0-.6-.46h-1.92a.65.65,0,1,0,0,1.3H132l.51,1.7H126l.35-1a.65.65,0,0,0-.06-.59.67.67,0,0,0-.53-.28h-2.16a.66.66,0,0,0,0,1.31h1.22l-.36.94-.82,1.81a4.17,4.17,0,0,0-1-.13,3.94,3.94,0,0,0-4,3.95,4,4,0,0,0,7.94.32h1.45a.64.64,0,0,0,.49-.23l4.26-5,.38,1.26a4,4,0,1,0,1.66-.36Zm-12.21,6.68a2.69,2.69,0,1,1,0-5.38,3.08,3.08,0,0,1,.46,0l-.94,2.06a.63.63,0,0,0,.59.9h2.56A2.69,2.69,0,0,1,122.64,110.07Zm2.52-3.65h-1.4l.52-1.16A2.41,2.41,0,0,1,125.16,106.42Zm2.61,0h-1.26a4,4,0,0,0-1.66-2.36l.65-1.45H131Zm7.08,3.65a2.69,2.69,0,0,1-1.28-5.06l.78,2.67a.64.64,0,0,0,.61.46.55.55,0,0,0,.18,0,.68.68,0,0,0,.45-.8l-.78-2.63h0a2.69,2.69,0,0,1,0,5.38Z" fill="#010101"/><path d="M108.42,158.7a1,1,0,0,0-1-1h-1l-.85-2.3a1.55,1.55,0,0,0-.83-.82,14,14,0,0,0-4.23-.43,14,14,0,0,0-4.24.43,1.58,1.58,0,0,0-.83.82l-.85,2.3h-1a1,1,0,0,0,0,1.94h.31l-.25.69a4.06,4.06,0,0,0-.23,1.25v4.2a1.3,1.3,0,0,0,2.59,0v-.65h9v.65a1.29,1.29,0,1,0,2.58,0v-4.2a4.38,4.38,0,0,0-.22-1.25l-.26-.69h.32A1,1,0,0,0,108.42,158.7Zm-11.63-2.9h7.43l1,2.9H95.83Zm-1.13,6.78a1,1,0,1,1,1-1A1,1,0,0,1,95.66,162.58Zm9.69,0a1,1,0,1,1,1-1A1,1,0,0,1,105.35,162.58Z" fill="#010101"/><polygon points="187.67 120.95 186.74 128.75 187.18 128.75 189.37 128.75 183.91 137.62 184.89 129.82 184.4 129.82 182.26 129.82 187.67 120.95" fill="#010101" fill-rule="evenodd"/></svg>