<svg xmlns="http://www.w3.org/2000/svg" viewBox="0 0 90.78 91.71"><rect x="0.5" y="0.5" width="89.78" height="90.71" rx="44.89" fill="#fff"/><path d="M45.39,91.21A44.89,44.89,0,0,1,.5,46.32v-.93a44.89,44.89,0,0,1,89.78,0v.93A44.89,44.89,0,0,1,45.39,91.21Z" fill="none" stroke="#1d1d1b" stroke-linecap="round" stroke-linejoin="round" stroke-dasharray="5.07 5.07"/><path d="M15.42,43.77a.65.65,0,0,0-.52.77l0,.13a.65.65,0,0,0,.64.53h.13a.66.66,0,0,0,.52-.78l0-.13A.65.65,0,0,0,15.42,43.77Z"/><path d="M15.44,47.26l0,.13a.66.66,0,0,0,.64.53l.13,0a.65.65,0,0,0,.52-.77l0-.13a.66.66,0,1,0-1.3.26Z"/><path d="M14.87,41.05a.66.66,0,0,0-.51.78l0,.13a.66.66,0,0,0,.65.53l.13,0a.65.65,0,0,0,.51-.77l0-.13A.67.67,0,0,0,14.87,41.05Z"/><path d="M54.07,31.15l0,.13a.61.61,0,0,0,.43.78l.18,0a.75.75,0,0,0,.68-.5.66.66,0,0,0-.4-.84A.67.67,0,0,0,54.07,31.15Z"/><path d="M56.31,26.84a.58.58,0,0,0,.19,0,.74.74,0,0,0,.67-.5.66.66,0,0,0-.4-.84.65.65,0,0,0-.84.41l0,.12A.6.6,0,0,0,56.31,26.84Z"/><path d="M53.15,33.76l0,.13a.61.61,0,0,0,.43.78.58.58,0,0,0,.19,0,.75.75,0,0,0,.67-.5.66.66,0,0,0-1.24-.44Z"/><path d="M55,28.55l0,.12a.61.61,0,0,0,.42.78.63.63,0,0,0,.19,0,.75.75,0,0,0,.68-.5A.66.66,0,0,0,55,28.55Z"/><path d="M73.19,50.61a.74.74,0,0,0,.68-.67.66.66,0,0,0-1.32-.11V50a.61.61,0,0,0,.6.65Z"/><path d="M72.28,52.58v.13a.67.67,0,0,0,.59.72h.07a.65.65,0,0,0,.65-.59l0-.13A.66.66,0,0,0,73,52,.67.67,0,0,0,72.28,52.58Z"/><path d="M63.91,24.37A.66.66,0,1,0,65,23.6l-.07-.11a.67.67,0,0,0-.93-.15.66.66,0,0,0-.14.92Z"/><path d="M67.16,28.86a.64.64,0,0,0,.53.27.71.71,0,0,0,.39-.12.66.66,0,0,0,.14-.92L68.15,28a.66.66,0,0,0-.92-.15.65.65,0,0,0-.15.92Z"/><path d="M65.61,25.59a.65.65,0,0,0-.15.92l.08.1a.64.64,0,0,0,.92.15.65.65,0,0,0,.14-.92l-.07-.11A.66.66,0,0,0,65.61,25.59Z"/><path d="M40.47,65.8l0,.12a.66.66,0,0,0,.34.87.75.75,0,0,0,.26,0,.67.67,0,0,0,.61-.39l0-.13a.66.66,0,0,0-1.21-.52Z"/><path d="M41.89,64.19a.59.59,0,0,0,.23,0,.77.77,0,0,0,.67-.44.66.66,0,1,0-1.21-.53l-.06.12A.62.62,0,0,0,41.89,64.19Z"/><path d="M30,68.74a.66.66,0,0,0,.43-1.16l-.1-.09a.61.61,0,0,0-.88.12.71.71,0,0,0,.12,1A.66.66,0,0,0,30,68.74Z"/><path d="M27.86,67a.63.63,0,0,0,.5-.24.65.65,0,0,0-.07-.93l-.1-.08a.6.6,0,0,0-.88.12A.71.71,0,0,0,27.86,67Z"/><path d="M26.3,28a.64.64,0,0,0,.33-.08A.66.66,0,1,0,26,26.72l-.11.05a.61.61,0,0,0-.24.86A.67.67,0,0,0,26.3,28Z"/><path d="M23.74,29.26a.66.66,0,0,0,.3-.07l.12-.06A.66.66,0,0,0,23.57,28l-.12.06a.66.66,0,0,0,.29,1.25Z"/><path d="M21.26,30.49a.8.8,0,0,0,.3-.06l.11-.06a.66.66,0,1,0-.58-1.18l-.12,0a.68.68,0,0,0-.3.89A.66.66,0,0,0,21.26,30.49Z"/><path d="M27.43,40.5a.58.58,0,0,0,.26.06.76.76,0,0,0,.65-.41.66.66,0,1,0-1.17-.59l-.06.11A.6.6,0,0,0,27.43,40.5Z"/><path d="M29,38.05a.65.65,0,0,0,.58-.36l.06-.12a.66.66,0,1,0-1.17-.6l-.06.12a.65.65,0,0,0,.28.88A.68.68,0,0,0,29,38.05Z"/><path d="M26.73,41.85a.65.65,0,0,0-.89.29l-.06.11a.64.64,0,0,0,.58.89.74.74,0,0,0,.66-.41A.65.65,0,0,0,26.73,41.85Z"/><path d="M23.42,48.3a.68.68,0,0,0,.31.08.64.64,0,0,0,.58-.36l.06-.12a.66.66,0,1,0-1.17-.6l-.06.11A.66.66,0,0,0,23.42,48.3Z"/><path d="M32,31.52a.66.66,0,0,0-.88.28l-.06.12a.65.65,0,0,0,.58,1,.67.67,0,0,0,.59-.35l.06-.12A.67.67,0,0,0,32,31.52Z"/><path d="M30.7,34.1a.67.67,0,0,0-.89.29l-.06.11a.66.66,0,0,0,.29.89.63.63,0,0,0,.88-.28L31,35A.68.68,0,0,0,30.7,34.1Z"/><path d="M24.75,45.72a.66.66,0,0,0,.3.07.67.67,0,0,0,.59-.35l.06-.12a.66.66,0,0,0-1.18-.6l-.06.11A.67.67,0,0,0,24.75,45.72Z"/><path d="M32,54.16a.68.68,0,0,0,.64.47l.19,0,.12,0a.6.6,0,0,0,.38-.8.71.71,0,0,0-.88-.42A.66.66,0,0,0,32,54.16Z"/><path d="M29.83,54.13A.66.66,0,0,0,30,55.42a.58.58,0,0,0,.19,0l.13,0a.62.62,0,0,0,.38-.81A.73.73,0,0,0,29.83,54.13Z"/><path d="M63.07,43.67a.58.58,0,0,0,.26-.06l.13,0a.61.61,0,0,0,.28-.84.72.72,0,0,0-.93-.32.66.66,0,0,0-.34.87A.65.65,0,0,0,63.07,43.67Z"/><path d="M58,31.78a.66.66,0,0,0,.26-1.27l-.12-.05a.6.6,0,0,0-.8.37.71.71,0,0,0,.4.89A.62.62,0,0,0,58,31.78Z"/><path d="M62.85,33.9a.62.62,0,0,0,.26.06.66.66,0,0,0,.26-1.27l-.12,0a.61.61,0,0,0-.8.37A.71.71,0,0,0,62.85,33.9Z"/><path d="M60.31,32.81a.58.58,0,0,0,.26.06.65.65,0,0,0,.6-.4.66.66,0,0,0-.34-.87l-.13-.05a.66.66,0,0,0-.51,1.21Z"/><path d="M47.91,27.5a.75.75,0,0,0,.26.05.66.66,0,0,0,.26-1.26l-.12-.06a.61.61,0,0,0-.81.38A.72.72,0,0,0,47.91,27.5Z"/><path d="M50.45,28.59a.85.85,0,0,0,.26.05.66.66,0,0,0,.61-.4.65.65,0,0,0-.35-.86l-.12-.05a.59.59,0,0,0-.8.37A.72.72,0,0,0,50.45,28.59Z"/><path d="M62,49.29A13.68,13.68,0,1,0,48.33,63,13.69,13.69,0,0,0,62,49.29Zm-26,0A12.36,12.36,0,1,1,48.33,61.65,12.37,12.37,0,0,1,36,49.29Z"/><path d="M36.87,32A9.93,9.93,0,0,0,46,26a9.76,9.76,0,0,0,.81-3.92,10,10,0,1,0-10,10Zm0-18.59a8.64,8.64,0,1,1-8.63,8.64A8.66,8.66,0,0,1,36.87,13.41Z"/><path d="M64.38,37.68a10,10,0,1,0,10-9.95A10,10,0,0,0,64.38,37.68Zm10-8.63a8.64,8.64,0,1,1-8.64,8.63A8.64,8.64,0,0,1,74.34,29.05Z"/><path d="M8.37,58.27a10,10,0,1,0,10-10A10,10,0,0,0,8.37,58.27Zm10-8.64a8.64,8.64,0,1,1-8.63,8.64A8.66,8.66,0,0,1,18.32,49.63Z"/><path d="M37.42,81.26a6.92,6.92,0,1,0-6.92-6.92A6.92,6.92,0,0,0,37.42,81.26Z"/><path d="M59.67,24.28a6.92,6.92,0,1,0-6.91-6.91A6.92,6.92,0,0,0,59.67,24.28Z"/><path d="M65,62.11A6.92,6.92,0,1,0,72,55.19,6.93,6.93,0,0,0,65,62.11Zm12.51,0a5.6,5.6,0,1,1-5.6-5.6A5.6,5.6,0,0,1,77.55,62.11Z"/><path d="M13.41,40.67a6.92,6.92,0,1,0-6.92-6.92A6.93,6.93,0,0,0,13.41,40.67Zm0-12.52a5.6,5.6,0,1,1-5.6,5.6A5.61,5.61,0,0,1,13.41,28.15Z"/><path d="M56.49,44.87H41.27a1.72,1.72,0,0,0-1.73,1.73h0v6a.22.22,0,0,0,.22.22h1.6a2.1,2.1,0,1,1,4.19,0h6.19a2.1,2.1,0,0,1,4.19,0H58a.21.21,0,0,0,.21-.22v-6a1.72,1.72,0,0,0-1.72-1.73Zm-11.2,4.48H41.1V46.27h4.19Zm5.81,0H46.91V46.27H51.1Zm5.56,0H52.47V46.27h4.19Z"/><path d="M43.45,51.48a1.33,1.33,0,1,0,0,2.65,1.33,1.33,0,0,0,1.33-1.32h0A1.32,1.32,0,0,0,43.45,51.48Z"/><path d="M53.84,51.48a1.33,1.33,0,1,0,1.32,1.32h0A1.32,1.32,0,0,0,53.84,51.48Z"/><path d="M40.87,20.68H40.6l-.9-3a.41.41,0,0,0-.4-.3H38.05a.43.43,0,1,0,0,.85H39l.33,1.12H35.08l.23-.64a.4.4,0,0,0,0-.38.42.42,0,0,0-.34-.18H33.51a.43.43,0,1,0,0,.85h.8l-.24.62-.54,1.19a2.84,2.84,0,0,0-.66-.08,2.57,2.57,0,0,0-2.62,2.59,2.61,2.61,0,0,0,2.61,2.61,2.64,2.64,0,0,0,2.61-2.4h1a.42.42,0,0,0,.31-.15l2.81-3.27.24.83a2.62,2.62,0,1,0,1.09-.24Zm-8,4.39a1.77,1.77,0,1,1,0-3.53l.3,0-.62,1.36a.44.44,0,0,0,0,.4.41.41,0,0,0,.36.19h1.68A1.76,1.76,0,0,1,32.86,25.07Zm1.65-2.4h-.92l.34-.76A1.52,1.52,0,0,1,34.51,22.67Zm1.71,0H35.4a2.68,2.68,0,0,0-1.09-1.55l.42-.95h3.63Zm4.65,2.4a1.76,1.76,0,0,1-1.76-1.77A1.79,1.79,0,0,1,40,21.74l.51,1.75a.44.44,0,0,0,.4.31.3.3,0,0,0,.13,0,.44.44,0,0,0,.29-.52l-.51-1.72h0a1.77,1.77,0,1,1,0,3.53Z"/><path d="M23.52,57a.64.64,0,0,0-.64-.64h-.67l-.56-1.51a1.05,1.05,0,0,0-.54-.54A9.31,9.31,0,0,0,18.32,54a9.26,9.26,0,0,0-2.78.28,1,1,0,0,0-.54.54l-.56,1.51h-.67a.64.64,0,0,0-.64.64.64.64,0,0,0,.64.63H14l-.16.45a2.89,2.89,0,0,0-.15.82v2.76a.85.85,0,0,0,1.7,0v-.42h5.93v.42a.85.85,0,0,0,1.7,0V58.9a2.89,2.89,0,0,0-.15-.82l-.17-.45h.21A.64.64,0,0,0,23.52,57Zm-7.63-1.91h4.87L21.4,57H15.25Zm-.75,4.45a.64.64,0,1,1,.64-.64A.63.63,0,0,1,15.14,59.54Zm6.36,0a.64.64,0,1,1,.64-.64A.64.64,0,0,1,21.5,59.54Z"/><polygon points="75.55 32.21 74.94 37.33 75.23 37.33 76.67 37.33 73.09 43.16 73.73 38.03 73.41 38.03 72 38.03 75.55 32.21" fill-rule="evenodd"/></svg>