<svg width="1492" height="58" viewBox="0 0 1492 58" fill="none" xmlns="http://www.w3.org/2000/svg">
<line y1="0.5" x2="1492" y2="0.5" stroke="black"/>
<line x1="124.5" y1="1" x2="124.5" y2="28" stroke="black"/>
<line x1="504.5" y1="1" x2="504.5" y2="28" stroke="black"/>
<line x1="884.5" y1="1" x2="884.5" y2="28" stroke="black"/>
<line x1="1314.5" y1="1" x2="1314.5" y2="28" stroke="black"/>
<path d="M103.164 37.06C103.164 36.316 102.924 35.704 102.516 35.26C102.06 34.768 101.352 34.492 100.356 34.492H97.2V43H98.268V39.7H100.368C101.304 39.7 102 39.448 102.456 38.992C102.912 38.536 103.164 37.888 103.164 37.06ZM102.06 37.06C102.06 38.2 101.484 38.728 100.344 38.728H98.268V35.464H100.332C101.388 35.464 102.06 35.98 102.06 37.06ZM109.274 43V36.928H108.254V40.084C108.254 40.708 108.134 41.368 107.75 41.764C107.486 42.04 107.15 42.22 106.742 42.22C105.782 42.22 105.446 41.68 105.446 40.768V36.928H104.426V40.912C104.426 42.316 105.122 43.144 106.502 43.144C107.21 43.144 107.99 42.772 108.302 42.076L108.386 43H109.274ZM114.783 37.924V36.928C114.627 36.904 114.459 36.892 114.303 36.892C113.535 36.892 112.803 37.252 112.491 37.996L112.407 36.928H111.507V43H112.515V40.3C112.515 39.664 112.575 38.824 113.067 38.356C113.343 38.092 113.739 37.876 114.219 37.876C114.399 37.876 114.603 37.888 114.783 37.924ZM120.891 39.688C120.903 38.872 120.615 38.092 120.123 37.552C119.679 37.072 119.055 36.772 118.275 36.772C117.219 36.772 116.415 37.312 115.983 38.044C115.647 38.608 115.515 39.256 115.515 39.988C115.515 40.852 115.767 41.656 116.271 42.244C116.739 42.796 117.435 43.156 118.287 43.156C118.863 43.156 119.403 42.988 119.835 42.7C120.327 42.364 120.687 41.8 120.771 41.2H119.775C119.691 41.524 119.583 41.692 119.415 41.86C119.163 42.124 118.767 42.256 118.287 42.256C117.819 42.256 117.447 42.1 117.171 41.824C116.799 41.452 116.583 40.852 116.583 40.3H120.879L120.891 39.688ZM119.847 39.424H116.607C116.631 38.536 117.171 37.636 118.275 37.636C118.815 37.636 119.223 37.852 119.475 38.188C119.715 38.512 119.847 38.968 119.847 39.424ZM130.086 40.96H129.054C129.006 41.356 128.862 41.632 128.646 41.86C128.406 42.112 128.034 42.268 127.614 42.268C127.146 42.268 126.822 42.1 126.558 41.872C126.078 41.464 125.946 40.708 125.946 39.964C125.946 39.22 126.078 38.464 126.558 38.056C126.822 37.828 127.146 37.66 127.614 37.66C128.01 37.66 128.358 37.804 128.598 38.032C128.826 38.26 128.982 38.56 129.03 38.98H130.062C130.014 38.32 129.75 37.816 129.342 37.42C128.922 37.012 128.334 36.772 127.614 36.772C126.522 36.772 125.838 37.276 125.406 37.912C125.082 38.392 124.902 39.052 124.902 39.964C124.902 40.876 125.082 41.536 125.406 42.016C125.838 42.652 126.534 43.156 127.626 43.156C128.37 43.156 128.946 42.916 129.378 42.496C129.786 42.1 130.038 41.608 130.086 40.96ZM133.713 43V42.136C133.713 42.136 133.629 42.148 133.293 42.148C132.873 42.148 132.741 41.932 132.741 41.524V34.336H131.721V41.584C131.721 42.544 132.105 43.072 132.993 43.072C133.485 43.072 133.713 43 133.713 43ZM136.365 35.536V34.336H135.177V35.536H136.365ZM136.293 43V36.928H135.249V43H136.293ZM146.93 43V39.004C146.93 37.66 146.282 36.772 144.902 36.772C144.134 36.772 143.354 37.168 143.03 37.924C142.766 37.18 142.118 36.772 141.218 36.772C140.534 36.772 139.838 37.108 139.514 37.792L139.418 36.928H138.53V43H139.55V39.772C139.55 39.268 139.658 38.62 139.958 38.236C140.21 37.912 140.558 37.696 140.99 37.696C141.962 37.696 142.214 38.284 142.214 39.136V43H143.234V39.772C143.234 39.136 143.342 38.524 143.75 38.104C143.99 37.852 144.29 37.696 144.674 37.696C145.634 37.696 145.91 38.284 145.91 39.136V43H146.93ZM154.153 42.94V42.184C154.153 42.184 153.997 42.22 153.889 42.22C153.685 42.22 153.553 42.136 153.553 41.812V38.872C153.553 38.524 153.493 38.212 153.373 37.936C153.085 37.276 152.413 36.772 151.237 36.772C150.493 36.772 149.773 36.988 149.365 37.42C149.053 37.744 148.849 38.14 148.837 38.692H149.833C149.833 38.392 149.941 38.152 150.133 37.96C150.337 37.756 150.685 37.6 151.237 37.6C151.729 37.6 152.029 37.72 152.233 37.912C152.509 38.164 152.545 38.536 152.545 38.836V39.28L150.697 39.388C149.041 39.484 148.537 40.504 148.537 41.284C148.537 42.22 149.233 43.156 150.625 43.156C151.477 43.156 152.233 42.772 152.581 42.16H152.605C152.605 42.676 152.941 43.084 153.481 43.084C153.733 43.084 153.937 43.048 154.153 42.94ZM152.545 40.432C152.545 40.936 152.389 41.44 152.029 41.812C151.705 42.148 151.249 42.304 150.781 42.304C149.917 42.304 149.581 41.8 149.581 41.26C149.581 40.492 150.301 40.204 150.913 40.168L152.545 40.072V40.432ZM158.854 42.916V42.04C158.854 42.04 158.242 42.148 157.81 42.148C157.246 42.148 156.994 41.908 156.994 41.32V37.804H158.794V36.928H156.994V35.14L155.974 35.38V36.928H154.798V37.804H155.974V41.44C155.974 42.256 156.334 43.084 157.642 43.084C158.206 43.084 158.578 42.988 158.854 42.916ZM165.106 39.688C165.118 38.872 164.83 38.092 164.338 37.552C163.894 37.072 163.27 36.772 162.49 36.772C161.434 36.772 160.63 37.312 160.198 38.044C159.862 38.608 159.73 39.256 159.73 39.988C159.73 40.852 159.982 41.656 160.486 42.244C160.954 42.796 161.65 43.156 162.502 43.156C163.078 43.156 163.618 42.988 164.05 42.7C164.542 42.364 164.902 41.8 164.986 41.2H163.99C163.906 41.524 163.798 41.692 163.63 41.86C163.378 42.124 162.982 42.256 162.502 42.256C162.034 42.256 161.662 42.1 161.386 41.824C161.014 41.452 160.798 40.852 160.798 40.3H165.094L165.106 39.688ZM164.062 39.424H160.822C160.846 38.536 161.386 37.636 162.49 37.636C163.03 37.636 163.438 37.852 163.69 38.188C163.93 38.512 164.062 38.968 164.062 39.424Z" fill="black"/>
<path d="M483.327 37.288H482.223C482.211 37.756 482.031 38.2 481.755 38.512C481.419 38.884 480.855 39.16 480.207 39.16C479.631 39.16 479.067 38.932 478.659 38.512C477.963 37.792 477.939 36.64 477.939 35.752C477.939 34.864 477.963 33.712 478.659 32.992C479.067 32.572 479.631 32.344 480.207 32.344C480.855 32.344 481.407 32.596 481.743 32.968C482.019 33.28 482.199 33.688 482.211 34.156H483.315C483.279 33.364 482.967 32.716 482.475 32.212C481.959 31.696 481.131 31.336 480.207 31.336C479.355 31.336 478.515 31.648 477.903 32.248C476.979 33.148 476.835 34.396 476.835 35.752C476.835 37.108 476.979 38.356 477.903 39.256C478.515 39.856 479.355 40.168 480.207 40.168C481.131 40.168 481.971 39.772 482.487 39.256C482.979 38.752 483.291 38.08 483.327 37.288ZM486.877 40V39.136C486.877 39.136 486.793 39.148 486.457 39.148C486.037 39.148 485.905 38.932 485.905 38.524V31.336H484.885V38.584C484.885 39.544 485.269 40.072 486.157 40.072C486.649 40.072 486.877 40 486.877 40ZM489.529 32.536V31.336H488.341V32.536H489.529ZM489.457 40V33.928H488.413V40H489.457ZM500.094 40V36.004C500.094 34.66 499.446 33.772 498.066 33.772C497.298 33.772 496.518 34.168 496.194 34.924C495.93 34.18 495.282 33.772 494.382 33.772C493.698 33.772 493.002 34.108 492.678 34.792L492.582 33.928H491.694V40H492.714V36.772C492.714 36.268 492.822 35.62 493.122 35.236C493.374 34.912 493.722 34.696 494.154 34.696C495.126 34.696 495.378 35.284 495.378 36.136V40H496.398V36.772C496.398 36.136 496.506 35.524 496.914 35.104C497.154 34.852 497.454 34.696 497.838 34.696C498.798 34.696 499.074 35.284 499.074 36.136V40H500.094ZM507.317 39.94V39.184C507.317 39.184 507.161 39.22 507.053 39.22C506.849 39.22 506.717 39.136 506.717 38.812V35.872C506.717 35.524 506.657 35.212 506.537 34.936C506.249 34.276 505.577 33.772 504.401 33.772C503.657 33.772 502.937 33.988 502.529 34.42C502.217 34.744 502.013 35.14 502.001 35.692H502.997C502.997 35.392 503.105 35.152 503.297 34.96C503.501 34.756 503.849 34.6 504.401 34.6C504.893 34.6 505.193 34.72 505.397 34.912C505.673 35.164 505.709 35.536 505.709 35.836V36.28L503.861 36.388C502.205 36.484 501.701 37.504 501.701 38.284C501.701 39.22 502.397 40.156 503.789 40.156C504.641 40.156 505.397 39.772 505.745 39.16H505.769C505.769 39.676 506.105 40.084 506.645 40.084C506.897 40.084 507.101 40.048 507.317 39.94ZM505.709 37.432C505.709 37.936 505.553 38.44 505.193 38.812C504.869 39.148 504.413 39.304 503.945 39.304C503.081 39.304 502.745 38.8 502.745 38.26C502.745 37.492 503.465 37.204 504.077 37.168L505.709 37.072V37.432ZM512.018 39.916V39.04C512.018 39.04 511.406 39.148 510.974 39.148C510.41 39.148 510.158 38.908 510.158 38.32V34.804H511.958V33.928H510.158V32.14L509.138 32.38V33.928H507.962V34.804H509.138V38.44C509.138 39.256 509.498 40.084 510.806 40.084C511.37 40.084 511.742 39.988 512.018 39.916ZM518.27 36.688C518.282 35.872 517.994 35.092 517.502 34.552C517.058 34.072 516.434 33.772 515.654 33.772C514.598 33.772 513.794 34.312 513.362 35.044C513.026 35.608 512.894 36.256 512.894 36.988C512.894 37.852 513.146 38.656 513.65 39.244C514.118 39.796 514.814 40.156 515.666 40.156C516.242 40.156 516.782 39.988 517.214 39.7C517.706 39.364 518.066 38.8 518.15 38.2H517.154C517.07 38.524 516.962 38.692 516.794 38.86C516.542 39.124 516.146 39.256 515.666 39.256C515.198 39.256 514.826 39.1 514.55 38.824C514.178 38.452 513.962 37.852 513.962 37.3H518.258L518.27 36.688ZM517.226 36.424H513.986C514.01 35.536 514.55 34.636 515.654 34.636C516.194 34.636 516.602 34.852 516.854 35.188C517.094 35.512 517.226 35.968 517.226 36.424ZM529.025 36.784V35.956H526.133V32.992H525.293V35.956H522.413V36.784H525.293V39.94H526.133V36.784H529.025ZM473.097 54V53.016H468.477V50.076H472.533V49.068H468.477V46.476H473.097V45.492H467.409V54H473.097ZM479.733 54V50.004C479.733 48.6 479.013 47.772 477.633 47.772C476.949 47.772 476.109 48.144 475.797 48.84L475.713 47.928H474.825V54H475.845V51.18C475.845 50.712 475.857 50.076 476.061 49.632C476.325 49.08 476.793 48.696 477.381 48.696C478.341 48.696 478.713 49.236 478.713 50.148V54H479.733ZM486.299 47.928H485.267L483.575 52.8L481.823 47.928H480.755L482.999 54H484.103L486.299 47.928ZM488.679 46.536V45.336H487.491V46.536H488.679ZM488.607 54V47.928H487.563V54H488.607ZM494.121 48.924V47.928C493.965 47.904 493.797 47.892 493.641 47.892C492.873 47.892 492.141 48.252 491.829 48.996L491.745 47.928H490.845V54H491.853V51.3C491.853 50.664 491.913 49.824 492.405 49.356C492.681 49.092 493.077 48.876 493.557 48.876C493.737 48.876 493.941 48.888 494.121 48.924ZM500.171 50.964C500.171 50.004 499.967 49.128 499.307 48.48C498.863 48.048 498.239 47.772 497.471 47.772C496.703 47.772 496.079 48.048 495.635 48.48C494.975 49.128 494.771 50.004 494.771 50.964C494.771 51.924 494.975 52.8 495.635 53.448C496.079 53.88 496.703 54.156 497.471 54.156C498.239 54.156 498.863 53.88 499.307 53.448C499.967 52.8 500.171 51.924 500.171 50.964ZM499.127 50.964C499.127 51.672 498.995 52.404 498.563 52.848C498.311 53.1 497.951 53.28 497.471 53.28C496.991 53.28 496.631 53.1 496.379 52.848C495.947 52.404 495.815 51.672 495.815 50.964C495.815 50.256 495.947 49.524 496.379 49.08C496.631 48.828 496.991 48.648 497.471 48.648C497.951 48.648 498.311 48.828 498.563 49.08C498.995 49.524 499.127 50.256 499.127 50.964ZM510.33 54V50.004C510.33 48.66 509.682 47.772 508.302 47.772C507.534 47.772 506.754 48.168 506.43 48.924C506.166 48.18 505.518 47.772 504.618 47.772C503.934 47.772 503.238 48.108 502.914 48.792L502.818 47.928H501.93V54H502.95V50.772C502.95 50.268 503.058 49.62 503.358 49.236C503.61 48.912 503.958 48.696 504.39 48.696C505.362 48.696 505.614 49.284 505.614 50.136V54H506.634V50.772C506.634 50.136 506.742 49.524 507.15 49.104C507.39 48.852 507.69 48.696 508.074 48.696C509.034 48.696 509.31 49.284 509.31 50.136V54H510.33ZM517.362 50.688C517.374 49.872 517.086 49.092 516.594 48.552C516.15 48.072 515.526 47.772 514.746 47.772C513.69 47.772 512.886 48.312 512.454 49.044C512.118 49.608 511.986 50.256 511.986 50.988C511.986 51.852 512.238 52.656 512.742 53.244C513.21 53.796 513.906 54.156 514.758 54.156C515.334 54.156 515.874 53.988 516.306 53.7C516.798 53.364 517.158 52.8 517.242 52.2H516.246C516.162 52.524 516.054 52.692 515.886 52.86C515.634 53.124 515.238 53.256 514.758 53.256C514.29 53.256 513.918 53.1 513.642 52.824C513.27 52.452 513.054 51.852 513.054 51.3H517.35L517.362 50.688ZM516.318 50.424H513.078C513.102 49.536 513.642 48.636 514.746 48.636C515.286 48.636 515.694 48.852 515.946 49.188C516.186 49.512 516.318 49.968 516.318 50.424ZM523.983 54V50.004C523.983 48.6 523.263 47.772 521.883 47.772C521.199 47.772 520.359 48.144 520.047 48.84L519.963 47.928H519.075V54H520.095V51.18C520.095 50.712 520.107 50.076 520.311 49.632C520.575 49.08 521.043 48.696 521.631 48.696C522.591 48.696 522.963 49.236 522.963 50.148V54H523.983ZM529.239 53.916V53.04C529.239 53.04 528.627 53.148 528.195 53.148C527.631 53.148 527.379 52.908 527.379 52.32V48.804H529.179V47.928H527.379V46.14L526.359 46.38V47.928H525.183V48.804H526.359V52.44C526.359 53.256 526.719 54.084 528.027 54.084C528.591 54.084 528.963 53.988 529.239 53.916ZM535.8 53.94V53.184C535.8 53.184 535.644 53.22 535.536 53.22C535.332 53.22 535.2 53.136 535.2 52.812V49.872C535.2 49.524 535.14 49.212 535.02 48.936C534.732 48.276 534.06 47.772 532.884 47.772C532.14 47.772 531.42 47.988 531.012 48.42C530.7 48.744 530.496 49.14 530.484 49.692H531.48C531.48 49.392 531.588 49.152 531.78 48.96C531.984 48.756 532.332 48.6 532.884 48.6C533.376 48.6 533.676 48.72 533.88 48.912C534.156 49.164 534.192 49.536 534.192 49.836V50.28L532.344 50.388C530.688 50.484 530.184 51.504 530.184 52.284C530.184 53.22 530.88 54.156 532.272 54.156C533.124 54.156 533.88 53.772 534.228 53.16H534.252C534.252 53.676 534.588 54.084 535.128 54.084C535.38 54.084 535.584 54.048 535.8 53.94ZM534.192 51.432C534.192 51.936 534.036 52.44 533.676 52.812C533.352 53.148 532.896 53.304 532.428 53.304C531.564 53.304 531.228 52.8 531.228 52.26C531.228 51.492 531.948 51.204 532.56 51.168L534.192 51.072V51.432ZM539.371 54V53.136C539.371 53.136 539.287 53.148 538.951 53.148C538.531 53.148 538.399 52.932 538.399 52.524V45.336H537.379V52.584C537.379 53.544 537.763 54.072 538.651 54.072C539.143 54.072 539.371 54 539.371 54Z" fill="black"/>
<path d="M823.187 35.288H822.083C822.071 35.756 821.891 36.2 821.615 36.512C821.279 36.884 820.715 37.16 820.067 37.16C819.491 37.16 818.927 36.932 818.519 36.512C817.823 35.792 817.799 34.64 817.799 33.752C817.799 32.864 817.823 31.712 818.519 30.992C818.927 30.572 819.491 30.344 820.067 30.344C820.715 30.344 821.267 30.596 821.603 30.968C821.879 31.28 822.059 31.688 822.071 32.156H823.175C823.139 31.364 822.827 30.716 822.335 30.212C821.819 29.696 820.991 29.336 820.067 29.336C819.215 29.336 818.375 29.648 817.763 30.248C816.839 31.148 816.695 32.396 816.695 33.752C816.695 35.108 816.839 36.356 817.763 37.256C818.375 37.856 819.215 38.168 820.067 38.168C820.991 38.168 821.831 37.772 822.347 37.256C822.839 36.752 823.151 36.08 823.187 35.288ZM826.736 38V37.136C826.736 37.136 826.652 37.148 826.316 37.148C825.896 37.148 825.764 36.932 825.764 36.524V29.336H824.744V36.584C824.744 37.544 825.128 38.072 826.016 38.072C826.508 38.072 826.736 38 826.736 38ZM829.388 30.536V29.336H828.2V30.536H829.388ZM829.316 38V31.928H828.272V38H829.316ZM839.954 38V34.004C839.954 32.66 839.306 31.772 837.926 31.772C837.158 31.772 836.378 32.168 836.054 32.924C835.79 32.18 835.142 31.772 834.242 31.772C833.558 31.772 832.862 32.108 832.538 32.792L832.442 31.928H831.554V38H832.574V34.772C832.574 34.268 832.682 33.62 832.982 33.236C833.234 32.912 833.582 32.696 834.014 32.696C834.986 32.696 835.238 33.284 835.238 34.136V38H836.258V34.772C836.258 34.136 836.366 33.524 836.773 33.104C837.014 32.852 837.314 32.696 837.698 32.696C838.658 32.696 838.934 33.284 838.934 34.136V38H839.954ZM847.177 37.94V37.184C847.177 37.184 847.021 37.22 846.913 37.22C846.709 37.22 846.577 37.136 846.577 36.812V33.872C846.577 33.524 846.517 33.212 846.397 32.936C846.109 32.276 845.437 31.772 844.261 31.772C843.517 31.772 842.797 31.988 842.389 32.42C842.077 32.744 841.873 33.14 841.861 33.692H842.857C842.857 33.392 842.965 33.152 843.157 32.96C843.361 32.756 843.709 32.6 844.261 32.6C844.753 32.6 845.053 32.72 845.257 32.912C845.533 33.164 845.569 33.536 845.569 33.836V34.28L843.721 34.388C842.065 34.484 841.561 35.504 841.561 36.284C841.561 37.22 842.257 38.156 843.649 38.156C844.501 38.156 845.257 37.772 845.605 37.16H845.629C845.629 37.676 845.965 38.084 846.505 38.084C846.757 38.084 846.961 38.048 847.177 37.94ZM845.569 35.432C845.569 35.936 845.413 36.44 845.053 36.812C844.729 37.148 844.273 37.304 843.805 37.304C842.941 37.304 842.605 36.8 842.605 36.26C842.605 35.492 843.325 35.204 843.937 35.168L845.569 35.072V35.432ZM851.877 37.916V37.04C851.877 37.04 851.265 37.148 850.833 37.148C850.269 37.148 850.017 36.908 850.017 36.32V32.804H851.817V31.928H850.017V30.14L848.997 30.38V31.928H847.821V32.804H848.997V36.44C848.997 37.256 849.357 38.084 850.665 38.084C851.229 38.084 851.601 37.988 851.877 37.916ZM858.129 34.688C858.141 33.872 857.853 33.092 857.361 32.552C856.917 32.072 856.293 31.772 855.513 31.772C854.457 31.772 853.653 32.312 853.221 33.044C852.885 33.608 852.753 34.256 852.753 34.988C852.753 35.852 853.005 36.656 853.509 37.244C853.977 37.796 854.673 38.156 855.525 38.156C856.101 38.156 856.641 37.988 857.073 37.7C857.565 37.364 857.925 36.8 858.009 36.2H857.013C856.929 36.524 856.821 36.692 856.653 36.86C856.401 37.124 856.005 37.256 855.525 37.256C855.057 37.256 854.685 37.1 854.409 36.824C854.037 36.452 853.821 35.852 853.821 35.3H858.117L858.129 34.688ZM857.085 34.424H853.845C853.869 33.536 854.409 32.636 855.513 32.636C856.053 32.636 856.461 32.852 856.713 33.188C856.953 33.512 857.085 33.968 857.085 34.424ZM868.884 34.784V33.956H865.992V30.992H865.152V33.956H862.272V34.784H865.152V37.94H865.992V34.784H868.884ZM879.314 38V37.016H874.694V34.076H878.75V33.068H874.694V30.476H879.314V29.492H873.626V38H879.314ZM885.95 38V34.004C885.95 32.6 885.23 31.772 883.85 31.772C883.166 31.772 882.326 32.144 882.014 32.84L881.93 31.928H881.042V38H882.062V35.18C882.062 34.712 882.074 34.076 882.278 33.632C882.542 33.08 883.01 32.696 883.598 32.696C884.558 32.696 884.93 33.236 884.93 34.148V38H885.95ZM892.516 31.928H891.484L889.792 36.8L888.04 31.928H886.972L889.216 38H890.32L892.516 31.928ZM894.896 30.536V29.336H893.708V30.536H894.896ZM894.824 38V31.928H893.78V38H894.824ZM900.337 32.924V31.928C900.181 31.904 900.013 31.892 899.857 31.892C899.089 31.892 898.357 32.252 898.045 32.996L897.961 31.928H897.061V38H898.069V35.3C898.069 34.664 898.129 33.824 898.621 33.356C898.897 33.092 899.293 32.876 899.773 32.876C899.953 32.876 900.157 32.888 900.337 32.924ZM906.388 34.964C906.388 34.004 906.184 33.128 905.524 32.48C905.08 32.048 904.456 31.772 903.688 31.772C902.92 31.772 902.296 32.048 901.852 32.48C901.192 33.128 900.988 34.004 900.988 34.964C900.988 35.924 901.192 36.8 901.852 37.448C902.296 37.88 902.92 38.156 903.688 38.156C904.456 38.156 905.08 37.88 905.524 37.448C906.184 36.8 906.388 35.924 906.388 34.964ZM905.344 34.964C905.344 35.672 905.212 36.404 904.78 36.848C904.528 37.1 904.168 37.28 903.688 37.28C903.208 37.28 902.848 37.1 902.596 36.848C902.164 36.404 902.032 35.672 902.032 34.964C902.032 34.256 902.164 33.524 902.596 33.08C902.848 32.828 903.208 32.648 903.688 32.648C904.168 32.648 904.528 32.828 904.78 33.08C905.212 33.524 905.344 34.256 905.344 34.964ZM916.547 38V34.004C916.547 32.66 915.899 31.772 914.519 31.772C913.751 31.772 912.971 32.168 912.647 32.924C912.383 32.18 911.735 31.772 910.835 31.772C910.151 31.772 909.455 32.108 909.131 32.792L909.035 31.928H908.147V38H909.167V34.772C909.167 34.268 909.275 33.62 909.575 33.236C909.827 32.912 910.175 32.696 910.607 32.696C911.579 32.696 911.831 33.284 911.831 34.136V38H912.851V34.772C912.851 34.136 912.959 33.524 913.367 33.104C913.607 32.852 913.907 32.696 914.291 32.696C915.251 32.696 915.527 33.284 915.527 34.136V38H916.547ZM923.578 34.688C923.59 33.872 923.302 33.092 922.81 32.552C922.366 32.072 921.742 31.772 920.962 31.772C919.906 31.772 919.102 32.312 918.67 33.044C918.334 33.608 918.202 34.256 918.202 34.988C918.202 35.852 918.454 36.656 918.958 37.244C919.426 37.796 920.122 38.156 920.974 38.156C921.55 38.156 922.09 37.988 922.522 37.7C923.014 37.364 923.374 36.8 923.458 36.2H922.462C922.378 36.524 922.27 36.692 922.102 36.86C921.85 37.124 921.454 37.256 920.974 37.256C920.506 37.256 920.134 37.1 919.858 36.824C919.486 36.452 919.27 35.852 919.27 35.3H923.566L923.578 34.688ZM922.534 34.424H919.294C919.318 33.536 919.858 32.636 920.962 32.636C921.502 32.636 921.91 32.852 922.162 33.188C922.402 33.512 922.534 33.968 922.534 34.424ZM930.2 38V34.004C930.2 32.6 929.48 31.772 928.1 31.772C927.416 31.772 926.576 32.144 926.264 32.84L926.18 31.928H925.292V38H926.312V35.18C926.312 34.712 926.324 34.076 926.528 33.632C926.792 33.08 927.26 32.696 927.848 32.696C928.808 32.696 929.18 33.236 929.18 34.148V38H930.2ZM935.455 37.916V37.04C935.455 37.04 934.843 37.148 934.411 37.148C933.847 37.148 933.595 36.908 933.595 36.32V32.804H935.395V31.928H933.595V30.14L932.575 30.38V31.928H931.399V32.804H932.575V36.44C932.575 37.256 932.935 38.084 934.243 38.084C934.807 38.084 935.179 37.988 935.455 37.916ZM942.017 37.94V37.184C942.017 37.184 941.861 37.22 941.753 37.22C941.549 37.22 941.417 37.136 941.417 36.812V33.872C941.417 33.524 941.357 33.212 941.237 32.936C940.949 32.276 940.277 31.772 939.101 31.772C938.357 31.772 937.637 31.988 937.229 32.42C936.917 32.744 936.713 33.14 936.701 33.692H937.697C937.697 33.392 937.805 33.152 937.997 32.96C938.201 32.756 938.549 32.6 939.101 32.6C939.593 32.6 939.893 32.72 940.097 32.912C940.373 33.164 940.409 33.536 940.409 33.836V34.28L938.561 34.388C936.905 34.484 936.401 35.504 936.401 36.284C936.401 37.22 937.097 38.156 938.489 38.156C939.34 38.156 940.097 37.772 940.445 37.16H940.469C940.469 37.676 940.805 38.084 941.345 38.084C941.597 38.084 941.801 38.048 942.017 37.94ZM940.409 35.432C940.409 35.936 940.253 36.44 939.893 36.812C939.569 37.148 939.113 37.304 938.645 37.304C937.781 37.304 937.445 36.8 937.445 36.26C937.445 35.492 938.165 35.204 938.777 35.168L940.409 35.072V35.432ZM945.588 38V37.136C945.588 37.136 945.504 37.148 945.168 37.148C944.748 37.148 944.616 36.932 944.616 36.524V29.336H943.596V36.584C943.596 37.544 943.98 38.072 944.868 38.072C945.36 38.072 945.588 38 945.588 38ZM956.165 34.784V33.956H953.273V30.992H952.433V33.956H949.553V34.784H952.433V37.94H953.273V34.784H956.165ZM866.171 52V51.016H861.551V48.076H865.607V47.068H861.551V44.476H866.171V43.492H860.483V52H866.171ZM872.557 49.96H871.525C871.477 50.356 871.333 50.632 871.117 50.86C870.877 51.112 870.505 51.268 870.085 51.268C869.617 51.268 869.293 51.1 869.029 50.872C868.549 50.464 868.417 49.708 868.417 48.964C868.417 48.22 868.549 47.464 869.029 47.056C869.293 46.828 869.617 46.66 870.085 46.66C870.481 46.66 870.829 46.804 871.069 47.032C871.297 47.26 871.453 47.56 871.501 47.98H872.533C872.485 47.32 872.221 46.816 871.813 46.42C871.393 46.012 870.805 45.772 870.085 45.772C868.993 45.772 868.309 46.276 867.877 46.912C867.553 47.392 867.373 48.052 867.373 48.964C867.373 49.876 867.553 50.536 867.877 51.016C868.309 51.652 869.005 52.156 870.097 52.156C870.841 52.156 871.417 51.916 871.849 51.496C872.257 51.1 872.509 50.608 872.557 49.96ZM879.159 48.964C879.159 48.004 878.955 47.128 878.295 46.48C877.851 46.048 877.227 45.772 876.459 45.772C875.691 45.772 875.067 46.048 874.623 46.48C873.963 47.128 873.759 48.004 873.759 48.964C873.759 49.924 873.963 50.8 874.623 51.448C875.067 51.88 875.691 52.156 876.459 52.156C877.227 52.156 877.851 51.88 878.295 51.448C878.955 50.8 879.159 49.924 879.159 48.964ZM878.115 48.964C878.115 49.672 877.983 50.404 877.551 50.848C877.299 51.1 876.939 51.28 876.459 51.28C875.979 51.28 875.619 51.1 875.367 50.848C874.935 50.404 874.803 49.672 874.803 48.964C874.803 48.256 874.935 47.524 875.367 47.08C875.619 46.828 875.979 46.648 876.459 46.648C876.939 46.648 877.299 46.828 877.551 47.08C877.983 47.524 878.115 48.256 878.115 48.964ZM885.827 52V48.004C885.827 46.6 885.107 45.772 883.727 45.772C883.043 45.772 882.203 46.144 881.891 46.84L881.807 45.928H880.919V52H881.939V49.18C881.939 48.712 881.951 48.076 882.155 47.632C882.419 47.08 882.887 46.696 883.475 46.696C884.435 46.696 884.807 47.236 884.807 48.148V52H885.827ZM892.87 48.964C892.87 48.004 892.666 47.128 892.006 46.48C891.562 46.048 890.938 45.772 890.17 45.772C889.402 45.772 888.778 46.048 888.334 46.48C887.674 47.128 887.47 48.004 887.47 48.964C887.47 49.924 887.674 50.8 888.334 51.448C888.778 51.88 889.402 52.156 890.17 52.156C890.938 52.156 891.562 51.88 892.006 51.448C892.666 50.8 892.87 49.924 892.87 48.964ZM891.826 48.964C891.826 49.672 891.694 50.404 891.262 50.848C891.01 51.1 890.65 51.28 890.17 51.28C889.69 51.28 889.33 51.1 889.078 50.848C888.646 50.404 888.514 49.672 888.514 48.964C888.514 48.256 888.646 47.524 889.078 47.08C889.33 46.828 889.69 46.648 890.17 46.648C890.65 46.648 891.01 46.828 891.262 47.08C891.694 47.524 891.826 48.256 891.826 48.964ZM903.03 52V48.004C903.03 46.66 902.382 45.772 901.002 45.772C900.234 45.772 899.454 46.168 899.13 46.924C898.866 46.18 898.218 45.772 897.318 45.772C896.634 45.772 895.938 46.108 895.614 46.792L895.518 45.928H894.63V52H895.65V48.772C895.65 48.268 895.758 47.62 896.058 47.236C896.31 46.912 896.658 46.696 897.09 46.696C898.062 46.696 898.314 47.284 898.314 48.136V52H899.334V48.772C899.334 48.136 899.442 47.524 899.85 47.104C900.09 46.852 900.39 46.696 900.774 46.696C901.734 46.696 902.01 47.284 902.01 48.136V52H903.03ZM906.281 44.536V43.336H905.093V44.536H906.281ZM906.209 52V45.928H905.165V52H906.209ZM913.162 49.96H912.13C912.082 50.356 911.938 50.632 911.722 50.86C911.482 51.112 911.11 51.268 910.69 51.268C910.222 51.268 909.898 51.1 909.634 50.872C909.154 50.464 909.022 49.708 909.022 48.964C909.022 48.22 909.154 47.464 909.634 47.056C909.898 46.828 910.222 46.66 910.69 46.66C911.086 46.66 911.434 46.804 911.674 47.032C911.902 47.26 912.058 47.56 912.106 47.98H913.138C913.09 47.32 912.826 46.816 912.418 46.42C911.998 46.012 911.41 45.772 910.69 45.772C909.598 45.772 908.914 46.276 908.482 46.912C908.158 47.392 907.978 48.052 907.978 48.964C907.978 49.876 908.158 50.536 908.482 51.016C908.914 51.652 909.61 52.156 910.702 52.156C911.446 52.156 912.022 51.916 912.454 51.496C912.862 51.1 913.114 50.608 913.162 49.96Z" fill="black"/>
<path d="M1257.19 37.288H1256.08C1256.07 37.756 1255.89 38.2 1255.61 38.512C1255.28 38.884 1254.71 39.16 1254.07 39.16C1253.49 39.16 1252.93 38.932 1252.52 38.512C1251.82 37.792 1251.8 36.64 1251.8 35.752C1251.8 34.864 1251.82 33.712 1252.52 32.992C1252.93 32.572 1253.49 32.344 1254.07 32.344C1254.71 32.344 1255.27 32.596 1255.6 32.968C1255.88 33.28 1256.06 33.688 1256.07 34.156H1257.17C1257.14 33.364 1256.83 32.716 1256.33 32.212C1255.82 31.696 1254.99 31.336 1254.07 31.336C1253.21 31.336 1252.37 31.648 1251.76 32.248C1250.84 33.148 1250.69 34.396 1250.69 35.752C1250.69 37.108 1250.84 38.356 1251.76 39.256C1252.37 39.856 1253.21 40.168 1254.07 40.168C1254.99 40.168 1255.83 39.772 1256.35 39.256C1256.84 38.752 1257.15 38.08 1257.19 37.288ZM1260.74 40V39.136C1260.74 39.136 1260.65 39.148 1260.32 39.148C1259.9 39.148 1259.76 38.932 1259.76 38.524V31.336H1258.74V38.584C1258.74 39.544 1259.13 40.072 1260.02 40.072C1260.51 40.072 1260.74 40 1260.74 40ZM1263.39 32.536V31.336H1262.2V32.536H1263.39ZM1263.32 40V33.928H1262.27V40H1263.32ZM1273.95 40V36.004C1273.95 34.66 1273.31 33.772 1271.93 33.772C1271.16 33.772 1270.38 34.168 1270.05 34.924C1269.79 34.18 1269.14 33.772 1268.24 33.772C1267.56 33.772 1266.86 34.108 1266.54 34.792L1266.44 33.928H1265.55V40H1266.57V36.772C1266.57 36.268 1266.68 35.62 1266.98 35.236C1267.23 34.912 1267.58 34.696 1268.01 34.696C1268.99 34.696 1269.24 35.284 1269.24 36.136V40H1270.26V36.772C1270.26 36.136 1270.37 35.524 1270.77 35.104C1271.01 34.852 1271.31 34.696 1271.7 34.696C1272.66 34.696 1272.93 35.284 1272.93 36.136V40H1273.95ZM1281.18 39.94V39.184C1281.18 39.184 1281.02 39.22 1280.91 39.22C1280.71 39.22 1280.58 39.136 1280.58 38.812V35.872C1280.58 35.524 1280.52 35.212 1280.4 34.936C1280.11 34.276 1279.44 33.772 1278.26 33.772C1277.52 33.772 1276.8 33.988 1276.39 34.42C1276.08 34.744 1275.87 35.14 1275.86 35.692H1276.86C1276.86 35.392 1276.96 35.152 1277.16 34.96C1277.36 34.756 1277.71 34.6 1278.26 34.6C1278.75 34.6 1279.05 34.72 1279.26 34.912C1279.53 35.164 1279.57 35.536 1279.57 35.836V36.28L1277.72 36.388C1276.06 36.484 1275.56 37.504 1275.56 38.284C1275.56 39.22 1276.26 40.156 1277.65 40.156C1278.5 40.156 1279.26 39.772 1279.6 39.16H1279.63C1279.63 39.676 1279.96 40.084 1280.5 40.084C1280.76 40.084 1280.96 40.048 1281.18 39.94ZM1279.57 37.432C1279.57 37.936 1279.41 38.44 1279.05 38.812C1278.73 39.148 1278.27 39.304 1277.8 39.304C1276.94 39.304 1276.6 38.8 1276.6 38.26C1276.6 37.492 1277.32 37.204 1277.94 37.168L1279.57 37.072V37.432ZM1285.88 39.916V39.04C1285.88 39.04 1285.27 39.148 1284.83 39.148C1284.27 39.148 1284.02 38.908 1284.02 38.32V34.804H1285.82V33.928H1284.02V32.14L1283 32.38V33.928H1281.82V34.804H1283V38.44C1283 39.256 1283.36 40.084 1284.67 40.084C1285.23 40.084 1285.6 39.988 1285.88 39.916ZM1292.13 36.688C1292.14 35.872 1291.85 35.092 1291.36 34.552C1290.92 34.072 1290.29 33.772 1289.51 33.772C1288.46 33.772 1287.65 34.312 1287.22 35.044C1286.89 35.608 1286.75 36.256 1286.75 36.988C1286.75 37.852 1287.01 38.656 1287.51 39.244C1287.98 39.796 1288.67 40.156 1289.53 40.156C1290.1 40.156 1290.64 39.988 1291.07 39.7C1291.57 39.364 1291.93 38.8 1292.01 38.2H1291.01C1290.93 38.524 1290.82 38.692 1290.65 38.86C1290.4 39.124 1290.01 39.256 1289.53 39.256C1289.06 39.256 1288.69 39.1 1288.41 38.824C1288.04 38.452 1287.82 37.852 1287.82 37.3H1292.12L1292.13 36.688ZM1291.09 36.424H1287.85C1287.87 35.536 1288.41 34.636 1289.51 34.636C1290.05 34.636 1290.46 34.852 1290.71 35.188C1290.95 35.512 1291.09 35.968 1291.09 36.424ZM1302.88 36.784V35.956H1299.99V32.992H1299.15V35.956H1296.27V36.784H1299.15V39.94H1299.99V36.784H1302.88ZM1313.31 40V39.016H1308.69V36.076H1312.75V35.068H1308.69V32.476H1313.31V31.492H1307.63V40H1313.31ZM1319.95 40V36.004C1319.95 34.6 1319.23 33.772 1317.85 33.772C1317.17 33.772 1316.33 34.144 1316.01 34.84L1315.93 33.928H1315.04V40H1316.06V37.18C1316.06 36.712 1316.07 36.076 1316.28 35.632C1316.54 35.08 1317.01 34.696 1317.6 34.696C1318.56 34.696 1318.93 35.236 1318.93 36.148V40H1319.95ZM1326.52 33.928H1325.48L1323.79 38.8L1322.04 33.928H1320.97L1323.22 40H1324.32L1326.52 33.928ZM1328.9 32.536V31.336H1327.71V32.536H1328.9ZM1328.82 40V33.928H1327.78V40H1328.82ZM1334.34 34.924V33.928C1334.18 33.904 1334.01 33.892 1333.86 33.892C1333.09 33.892 1332.36 34.252 1332.05 34.996L1331.96 33.928H1331.06V40H1332.07V37.3C1332.07 36.664 1332.13 35.824 1332.62 35.356C1332.9 35.092 1333.29 34.876 1333.77 34.876C1333.95 34.876 1334.16 34.888 1334.34 34.924ZM1340.39 36.964C1340.39 36.004 1340.18 35.128 1339.52 34.48C1339.08 34.048 1338.46 33.772 1337.69 33.772C1336.92 33.772 1336.3 34.048 1335.85 34.48C1335.19 35.128 1334.99 36.004 1334.99 36.964C1334.99 37.924 1335.19 38.8 1335.85 39.448C1336.3 39.88 1336.92 40.156 1337.69 40.156C1338.46 40.156 1339.08 39.88 1339.52 39.448C1340.18 38.8 1340.39 37.924 1340.39 36.964ZM1339.34 36.964C1339.34 37.672 1339.21 38.404 1338.78 38.848C1338.53 39.1 1338.17 39.28 1337.69 39.28C1337.21 39.28 1336.85 39.1 1336.6 38.848C1336.16 38.404 1336.03 37.672 1336.03 36.964C1336.03 36.256 1336.16 35.524 1336.6 35.08C1336.85 34.828 1337.21 34.648 1337.69 34.648C1338.17 34.648 1338.53 34.828 1338.78 35.08C1339.21 35.524 1339.34 36.256 1339.34 36.964ZM1350.55 40V36.004C1350.55 34.66 1349.9 33.772 1348.52 33.772C1347.75 33.772 1346.97 34.168 1346.65 34.924C1346.38 34.18 1345.74 33.772 1344.84 33.772C1344.15 33.772 1343.46 34.108 1343.13 34.792L1343.04 33.928H1342.15V40H1343.17V36.772C1343.17 36.268 1343.28 35.62 1343.58 35.236C1343.83 34.912 1344.18 34.696 1344.61 34.696C1345.58 34.696 1345.83 35.284 1345.83 36.136V40H1346.85V36.772C1346.85 36.136 1346.96 35.524 1347.37 35.104C1347.61 34.852 1347.91 34.696 1348.29 34.696C1349.25 34.696 1349.53 35.284 1349.53 36.136V40H1350.55ZM1357.58 36.688C1357.59 35.872 1357.3 35.092 1356.81 34.552C1356.37 34.072 1355.74 33.772 1354.96 33.772C1353.91 33.772 1353.1 34.312 1352.67 35.044C1352.33 35.608 1352.2 36.256 1352.2 36.988C1352.2 37.852 1352.45 38.656 1352.96 39.244C1353.43 39.796 1354.12 40.156 1354.97 40.156C1355.55 40.156 1356.09 39.988 1356.52 39.7C1357.01 39.364 1357.37 38.8 1357.46 38.2H1356.46C1356.38 38.524 1356.27 38.692 1356.1 38.86C1355.85 39.124 1355.45 39.256 1354.97 39.256C1354.51 39.256 1354.13 39.1 1353.86 38.824C1353.49 38.452 1353.27 37.852 1353.27 37.3H1357.57L1357.58 36.688ZM1356.53 36.424H1353.29C1353.32 35.536 1353.86 34.636 1354.96 34.636C1355.5 34.636 1355.91 34.852 1356.16 35.188C1356.4 35.512 1356.53 35.968 1356.53 36.424ZM1364.2 40V36.004C1364.2 34.6 1363.48 33.772 1362.1 33.772C1361.42 33.772 1360.58 34.144 1360.26 34.84L1360.18 33.928H1359.29V40H1360.31V37.18C1360.31 36.712 1360.32 36.076 1360.53 35.632C1360.79 35.08 1361.26 34.696 1361.85 34.696C1362.81 34.696 1363.18 35.236 1363.18 36.148V40H1364.2ZM1369.46 39.916V39.04C1369.46 39.04 1368.84 39.148 1368.41 39.148C1367.85 39.148 1367.6 38.908 1367.6 38.32V34.804H1369.4V33.928H1367.6V32.14L1366.58 32.38V33.928H1365.4V34.804H1366.58V38.44C1366.58 39.256 1366.94 40.084 1368.24 40.084C1368.81 40.084 1369.18 39.988 1369.46 39.916ZM1376.02 39.94V39.184C1376.02 39.184 1375.86 39.22 1375.75 39.22C1375.55 39.22 1375.42 39.136 1375.42 38.812V35.872C1375.42 35.524 1375.36 35.212 1375.24 34.936C1374.95 34.276 1374.28 33.772 1373.1 33.772C1372.36 33.772 1371.64 33.988 1371.23 34.42C1370.92 34.744 1370.71 35.14 1370.7 35.692H1371.7C1371.7 35.392 1371.8 35.152 1372 34.96C1372.2 34.756 1372.55 34.6 1373.1 34.6C1373.59 34.6 1373.89 34.72 1374.1 34.912C1374.37 35.164 1374.41 35.536 1374.41 35.836V36.28L1372.56 36.388C1370.9 36.484 1370.4 37.504 1370.4 38.284C1370.4 39.22 1371.1 40.156 1372.49 40.156C1373.34 40.156 1374.1 39.772 1374.44 39.16H1374.47C1374.47 39.676 1374.8 40.084 1375.34 40.084C1375.6 40.084 1375.8 40.048 1376.02 39.94ZM1374.41 37.432C1374.41 37.936 1374.25 38.44 1373.89 38.812C1373.57 39.148 1373.11 39.304 1372.64 39.304C1371.78 39.304 1371.44 38.8 1371.44 38.26C1371.44 37.492 1372.16 37.204 1372.78 37.168L1374.41 37.072V37.432ZM1379.59 40V39.136C1379.59 39.136 1379.5 39.148 1379.17 39.148C1378.75 39.148 1378.62 38.932 1378.62 38.524V31.336H1377.6V38.584C1377.6 39.544 1377.98 40.072 1378.87 40.072C1379.36 40.072 1379.59 40 1379.59 40ZM1390.17 36.784V35.956H1387.27V32.992H1386.43V35.956H1383.55V36.784H1386.43V39.94H1387.27V36.784H1390.17ZM1276.24 54V53.016H1271.62V50.076H1275.67V49.068H1271.62V46.476H1276.24V45.492H1270.55V54H1276.24ZM1282.62 51.96H1281.59C1281.54 52.356 1281.4 52.632 1281.18 52.86C1280.94 53.112 1280.57 53.268 1280.15 53.268C1279.68 53.268 1279.36 53.1 1279.09 52.872C1278.61 52.464 1278.48 51.708 1278.48 50.964C1278.48 50.22 1278.61 49.464 1279.09 49.056C1279.36 48.828 1279.68 48.66 1280.15 48.66C1280.55 48.66 1280.89 48.804 1281.13 49.032C1281.36 49.26 1281.52 49.56 1281.57 49.98H1282.6C1282.55 49.32 1282.29 48.816 1281.88 48.42C1281.46 48.012 1280.87 47.772 1280.15 47.772C1279.06 47.772 1278.37 48.276 1277.94 48.912C1277.62 49.392 1277.44 50.052 1277.44 50.964C1277.44 51.876 1277.62 52.536 1277.94 53.016C1278.37 53.652 1279.07 54.156 1280.16 54.156C1280.91 54.156 1281.48 53.916 1281.91 53.496C1282.32 53.1 1282.57 52.608 1282.62 51.96ZM1289.22 50.964C1289.22 50.004 1289.02 49.128 1288.36 48.48C1287.92 48.048 1287.29 47.772 1286.52 47.772C1285.76 47.772 1285.13 48.048 1284.69 48.48C1284.03 49.128 1283.82 50.004 1283.82 50.964C1283.82 51.924 1284.03 52.8 1284.69 53.448C1285.13 53.88 1285.76 54.156 1286.52 54.156C1287.29 54.156 1287.92 53.88 1288.36 53.448C1289.02 52.8 1289.22 51.924 1289.22 50.964ZM1288.18 50.964C1288.18 51.672 1288.05 52.404 1287.62 52.848C1287.36 53.1 1287 53.28 1286.52 53.28C1286.04 53.28 1285.68 53.1 1285.43 52.848C1285 52.404 1284.87 51.672 1284.87 50.964C1284.87 50.256 1285 49.524 1285.43 49.08C1285.68 48.828 1286.04 48.648 1286.52 48.648C1287 48.648 1287.36 48.828 1287.62 49.08C1288.05 49.524 1288.18 50.256 1288.18 50.964ZM1295.89 54V50.004C1295.89 48.6 1295.17 47.772 1293.79 47.772C1293.11 47.772 1292.27 48.144 1291.96 48.84L1291.87 47.928H1290.98V54H1292V51.18C1292 50.712 1292.02 50.076 1292.22 49.632C1292.48 49.08 1292.95 48.696 1293.54 48.696C1294.5 48.696 1294.87 49.236 1294.87 50.148V54H1295.89ZM1302.93 50.964C1302.93 50.004 1302.73 49.128 1302.07 48.48C1301.63 48.048 1301 47.772 1300.23 47.772C1299.47 47.772 1298.84 48.048 1298.4 48.48C1297.74 49.128 1297.53 50.004 1297.53 50.964C1297.53 51.924 1297.74 52.8 1298.4 53.448C1298.84 53.88 1299.47 54.156 1300.23 54.156C1301 54.156 1301.63 53.88 1302.07 53.448C1302.73 52.8 1302.93 51.924 1302.93 50.964ZM1301.89 50.964C1301.89 51.672 1301.76 52.404 1301.33 52.848C1301.07 53.1 1300.71 53.28 1300.23 53.28C1299.75 53.28 1299.39 53.1 1299.14 52.848C1298.71 52.404 1298.58 51.672 1298.58 50.964C1298.58 50.256 1298.71 49.524 1299.14 49.08C1299.39 48.828 1299.75 48.648 1300.23 48.648C1300.71 48.648 1301.07 48.828 1301.33 49.08C1301.76 49.524 1301.89 50.256 1301.89 50.964ZM1313.09 54V50.004C1313.09 48.66 1312.45 47.772 1311.07 47.772C1310.3 47.772 1309.52 48.168 1309.19 48.924C1308.93 48.18 1308.28 47.772 1307.38 47.772C1306.7 47.772 1306 48.108 1305.68 48.792L1305.58 47.928H1304.69V54H1305.71V50.772C1305.71 50.268 1305.82 49.62 1306.12 49.236C1306.37 48.912 1306.72 48.696 1307.15 48.696C1308.13 48.696 1308.38 49.284 1308.38 50.136V54H1309.4V50.772C1309.4 50.136 1309.51 49.524 1309.91 49.104C1310.15 48.852 1310.45 48.696 1310.84 48.696C1311.8 48.696 1312.07 49.284 1312.07 50.136V54H1313.09ZM1316.35 46.536V45.336H1315.16V46.536H1316.35ZM1316.27 54V47.928H1315.23V54H1316.27ZM1323.23 51.96H1322.19C1322.15 52.356 1322 52.632 1321.79 52.86C1321.55 53.112 1321.17 53.268 1320.75 53.268C1320.29 53.268 1319.96 53.1 1319.7 52.872C1319.22 52.464 1319.09 51.708 1319.09 50.964C1319.09 50.22 1319.22 49.464 1319.7 49.056C1319.96 48.828 1320.29 48.66 1320.75 48.66C1321.15 48.66 1321.5 48.804 1321.74 49.032C1321.97 49.26 1322.12 49.56 1322.17 49.98H1323.2C1323.15 49.32 1322.89 48.816 1322.48 48.42C1322.06 48.012 1321.47 47.772 1320.75 47.772C1319.66 47.772 1318.98 48.276 1318.55 48.912C1318.22 49.392 1318.04 50.052 1318.04 50.964C1318.04 51.876 1318.22 52.536 1318.55 53.016C1318.98 53.652 1319.67 54.156 1320.77 54.156C1321.51 54.156 1322.09 53.916 1322.52 53.496C1322.93 53.1 1323.18 52.608 1323.23 51.96ZM1333.94 50.784V49.956H1331.05V46.992H1330.21V49.956H1327.33V50.784H1330.21V53.94H1331.05V50.784H1333.94ZM1344.5 51.66C1344.5 50.316 1343.55 49.452 1342.14 49.248C1341.67 49.176 1341.2 49.092 1340.72 49.032C1340.08 48.948 1339.45 48.6 1339.45 47.832C1339.45 47.448 1339.58 47.16 1339.8 46.908C1340.17 46.488 1340.7 46.32 1341.31 46.32C1341.97 46.32 1342.48 46.536 1342.81 46.908C1343.05 47.184 1343.2 47.556 1343.23 47.976H1344.34C1344.32 47.256 1344.04 46.644 1343.53 46.152C1342.96 45.612 1342.15 45.336 1341.32 45.336C1340.43 45.336 1339.68 45.624 1339.09 46.176C1338.63 46.608 1338.34 47.22 1338.34 47.856C1338.34 49.212 1339.34 49.92 1340.61 50.112L1341.96 50.316C1342.96 50.472 1343.38 51.024 1343.38 51.684C1343.38 52.14 1343.22 52.44 1342.95 52.68C1342.57 53.04 1342.02 53.172 1341.37 53.172C1340.77 53.172 1340.12 53.016 1339.74 52.644C1339.39 52.308 1339.14 51.804 1339.14 51.3H1338.02C1338.02 52.104 1338.39 52.836 1338.93 53.34C1339.51 53.868 1340.34 54.156 1341.37 54.156C1342.28 54.156 1343.19 53.88 1343.78 53.304C1344.2 52.896 1344.5 52.368 1344.5 51.66ZM1351.15 50.964C1351.15 50.004 1350.94 49.128 1350.28 48.48C1349.84 48.048 1349.21 47.772 1348.45 47.772C1347.68 47.772 1347.05 48.048 1346.61 48.48C1345.95 49.128 1345.75 50.004 1345.75 50.964C1345.75 51.924 1345.95 52.8 1346.61 53.448C1347.05 53.88 1347.68 54.156 1348.45 54.156C1349.21 54.156 1349.84 53.88 1350.28 53.448C1350.94 52.8 1351.15 51.924 1351.15 50.964ZM1350.1 50.964C1350.1 51.672 1349.97 52.404 1349.54 52.848C1349.29 53.1 1348.93 53.28 1348.45 53.28C1347.97 53.28 1347.61 53.1 1347.35 52.848C1346.92 52.404 1346.79 51.672 1346.79 50.964C1346.79 50.256 1346.92 49.524 1347.35 49.08C1347.61 48.828 1347.97 48.648 1348.45 48.648C1348.93 48.648 1349.29 48.828 1349.54 49.08C1349.97 49.524 1350.1 50.256 1350.1 50.964ZM1357.62 51.96H1356.59C1356.54 52.356 1356.4 52.632 1356.18 52.86C1355.94 53.112 1355.57 53.268 1355.15 53.268C1354.68 53.268 1354.36 53.1 1354.09 52.872C1353.61 52.464 1353.48 51.708 1353.48 50.964C1353.48 50.22 1353.61 49.464 1354.09 49.056C1354.36 48.828 1354.68 48.66 1355.15 48.66C1355.55 48.66 1355.89 48.804 1356.13 49.032C1356.36 49.26 1356.52 49.56 1356.57 49.98H1357.6C1357.55 49.32 1357.29 48.816 1356.88 48.42C1356.46 48.012 1355.87 47.772 1355.15 47.772C1354.06 47.772 1353.37 48.276 1352.94 48.912C1352.62 49.392 1352.44 50.052 1352.44 50.964C1352.44 51.876 1352.62 52.536 1352.94 53.016C1353.37 53.652 1354.07 54.156 1355.16 54.156C1355.91 54.156 1356.48 53.916 1356.91 53.496C1357.32 53.1 1357.57 52.608 1357.62 51.96ZM1360.41 46.536V45.336H1359.22V46.536H1360.41ZM1360.34 54V47.928H1359.29V54H1360.34ZM1367.66 53.94V53.184C1367.66 53.184 1367.51 53.22 1367.4 53.22C1367.19 53.22 1367.06 53.136 1367.06 52.812V49.872C1367.06 49.524 1367 49.212 1366.88 48.936C1366.59 48.276 1365.92 47.772 1364.75 47.772C1364 47.772 1363.28 47.988 1362.87 48.42C1362.56 48.744 1362.36 49.14 1362.35 49.692H1363.34C1363.34 49.392 1363.45 49.152 1363.64 48.96C1363.85 48.756 1364.19 48.6 1364.75 48.6C1365.24 48.6 1365.54 48.72 1365.74 48.912C1366.02 49.164 1366.05 49.536 1366.05 49.836V50.28L1364.21 50.388C1362.55 50.484 1362.05 51.504 1362.05 52.284C1362.05 53.22 1362.74 54.156 1364.13 54.156C1364.99 54.156 1365.74 53.772 1366.09 53.16H1366.11C1366.11 53.676 1366.45 54.084 1366.99 54.084C1367.24 54.084 1367.45 54.048 1367.66 53.94ZM1366.05 51.432C1366.05 51.936 1365.9 52.44 1365.54 52.812C1365.21 53.148 1364.76 53.304 1364.29 53.304C1363.43 53.304 1363.09 52.8 1363.09 52.26C1363.09 51.492 1363.81 51.204 1364.42 51.168L1366.05 51.072V51.432ZM1371.23 54V53.136C1371.23 53.136 1371.15 53.148 1370.81 53.148C1370.39 53.148 1370.26 52.932 1370.26 52.524V45.336H1369.24V52.584C1369.24 53.544 1369.62 54.072 1370.51 54.072C1371 54.072 1371.23 54 1371.23 54Z" fill="black"/>
</svg>
