<svg xmlns="http://www.w3.org/2000/svg" width="2802.7" height="181.46" viewBox="0 0 2802.7 181.46"><path d="M997.53,60.44a3.63,3.63,0,0,0,1.36-.23,2.94,2.94,0,0,0,1-.65,3.51,3.51,0,0,0,.7-1,7.71,7.71,0,0,0,.46-1.28l.05-.22h1.51l-.05.22a10.37,10.37,0,0,1-.68,1.93,4.77,4.77,0,0,1-1,1.44,3.93,3.93,0,0,1-1.46.89,6,6,0,0,1-2,.31,4.54,4.54,0,0,1-1.55-.25,3.13,3.13,0,0,1-1.13-.72A3,3,0,0,1,994,59.8a3.94,3.94,0,0,1-.23-1.41,7.51,7.51,0,0,1,0-.8c0-.28.08-.58.14-.89l.59-2.81A7.34,7.34,0,0,1,996.4,50a4.88,4.88,0,0,1,3.54-1.3,4.36,4.36,0,0,1,1.54.26,3,3,0,0,1,1.13.69,2.85,2.85,0,0,1,.7,1.06,3.51,3.51,0,0,1,.25,1.34,5,5,0,0,1-.17,1.23l0,.21h-1.51l0-.21a4.18,4.18,0,0,0,.15-1.12,2.11,2.11,0,0,0-.55-1.52,2.39,2.39,0,0,0-1.78-.57,3,3,0,0,0-1.31.29,3.41,3.41,0,0,0-1.06.8,4.86,4.86,0,0,0-.8,1.22A7.32,7.32,0,0,0,996,54l-.55,2.59c-.06.28-.11.54-.14.78a5.38,5.38,0,0,0,0,.68,2.62,2.62,0,0,0,.54,1.8A2.19,2.19,0,0,0,997.53,60.44Z" fill="#231f20"/><path d="M1009.55,50.54a.33.33,0,0,0,0-.33.32.32,0,0,0-.27-.12.48.48,0,0,0-.27.09l-2.11,1.44-.72-1.06,2.12-1.44a2.21,2.21,0,0,1,.6-.29,2.15,2.15,0,0,1,.61-.09,1.63,1.63,0,0,1,1,.36,1.33,1.33,0,0,1,.46,1.12,2.2,2.2,0,0,1-.07.58L1008.72,60a.38.38,0,0,0,0,.34.29.29,0,0,0,.26.13.54.54,0,0,0,.27-.09l2.07-1.41.72,1.07-2.07,1.4a2.21,2.21,0,0,1-1.21.38,1.65,1.65,0,0,1-1-.36,1.32,1.32,0,0,1-.46-1.12,2.12,2.12,0,0,1,.07-.57Z" fill="#231f20"/><path d="M1020.26,54.23a.41.41,0,0,0,0-.31.28.28,0,0,0-.27-.14.5.5,0,0,0-.27.08l-2.11,1.44-.72-1.07,2.12-1.44a2.15,2.15,0,0,1,1.21-.37,1.64,1.64,0,0,1,1.06.36,1.34,1.34,0,0,1,.45,1.11,2.3,2.3,0,0,1-.07.58L1020.28,60a.38.38,0,0,0,0,.34.32.32,0,0,0,.26.13.48.48,0,0,0,.27-.09l2.07-1.41.72,1.07-2.07,1.4a2.16,2.16,0,0,1-1.2.38,1.62,1.62,0,0,1-1.06-.36,1.35,1.35,0,0,1-.46-1.12,2.24,2.24,0,0,1,.08-.57Zm.29-4.23a1.26,1.26,0,0,1,1.26-1.26,1.26,1.26,0,0,1,1.26,1.26,1.26,1.26,0,0,1-1.26,1.26,1.26,1.26,0,0,1-1.26-1.26Z" fill="#231f20"/><path d="M1034.68,54.9a1,1,0,0,0,0-.16.81.81,0,0,0,0-.16.92.92,0,0,0-.19-.6.8.8,0,0,0-.62-.23,1,1,0,0,0-.82.36,2.5,2.5,0,0,0-.44,1l-1.38,6.48h-1.41l1.42-6.7a1.58,1.58,0,0,0,0-.38.92.92,0,0,0-.17-.55.73.73,0,0,0-.62-.22,1,1,0,0,0-.87.41,2.76,2.76,0,0,0-.41,1l-1.39,6.48h-1.38l1.89-8.93h1.4l-.16.75h.22a1.42,1.42,0,0,1,.61-.76,1.78,1.78,0,0,1,.92-.24,1.47,1.47,0,0,1,.91.27,1.18,1.18,0,0,1,.44.73h.21a2,2,0,0,1,.65-.74,1.67,1.67,0,0,1,1-.26,1.58,1.58,0,0,1,1.23.47,1.88,1.88,0,0,1,.41,1.25c0,.11,0,.23,0,.36a2.88,2.88,0,0,1-.05.33L1035,60.19a.23.23,0,0,0,0,.22.24.24,0,0,0,.18.07.31.31,0,0,0,.2-.07l.76-.56.75,1.06-.81.61a1.49,1.49,0,0,1-.49.24,2.08,2.08,0,0,1-.6.09,2.26,2.26,0,0,1-.53-.07,1.53,1.53,0,0,1-.46-.23,1.09,1.09,0,0,1-.33-.4,1.33,1.33,0,0,1-.13-.6c0-.06,0-.12,0-.18l0-.18Z" fill="#231f20"/><path d="M1043.37,60.19a3.07,3.07,0,0,1-1.32,1.31,3.89,3.89,0,0,1-1.61.35,3.18,3.18,0,0,1-1.3-.26,2.82,2.82,0,0,1-1-.73,3.15,3.15,0,0,1-.61-1.13,4.41,4.41,0,0,1-.22-1.45,7.69,7.69,0,0,1,.32-2.19,6,6,0,0,1,.95-1.87,4.76,4.76,0,0,1,1.54-1.31,4.39,4.39,0,0,1,2.12-.49,2.83,2.83,0,0,1,1.57.42,2,2,0,0,1,.84,1.23h.22l.29-1.4h1.4L1045,60.08a.29.29,0,0,0,0,.25.28.28,0,0,0,.2.08.4.4,0,0,0,.25-.09l.65-.47.76,1.06-.81.61a1.55,1.55,0,0,1-.5.24,2,2,0,0,1-.6.09,2.25,2.25,0,0,1-.52-.07,1.53,1.53,0,0,1-.46-.23,1,1,0,0,1-.33-.4,1.21,1.21,0,0,1-.13-.6,1.09,1.09,0,0,1,0-.18.57.57,0,0,1,0-.18Zm-2.5.33a2.83,2.83,0,0,0,1.36-.34,3.45,3.45,0,0,0,1.11-.91,4.21,4.21,0,0,0,.75-1.35,5.24,5.24,0,0,0,.27-1.71,3,3,0,0,0-.5-1.79,1.83,1.83,0,0,0-1.57-.67,3,3,0,0,0-1.48.36,3.45,3.45,0,0,0-1.09,1,4.25,4.25,0,0,0-.68,1.4,5.88,5.88,0,0,0-.22,1.63,2.67,2.67,0,0,0,.52,1.8A1.9,1.9,0,0,0,1040.87,60.52Z" fill="#231f20"/><path d="M1049.67,52.67h3.1l.82-3.93H1055l-.83,3.93h3.17V54h-3.46L1052.6,60a.38.38,0,0,0,.05.34.3.3,0,0,0,.26.13.54.54,0,0,0,.27-.09l2.39-1.62.72,1.06-2.39,1.62a2.15,2.15,0,0,1-1.19.38,1.64,1.64,0,0,1-1.08-.38,1.39,1.39,0,0,1-.45-1.13,2.65,2.65,0,0,1,0-.27,2.56,2.56,0,0,1,0-.27l1.23-5.84h-2.81Z" fill="#231f20"/><path d="M1061.17,57.56a2.88,2.88,0,0,0-.05.33c0,.12,0,.24,0,.38a2.28,2.28,0,0,0,.58,1.62,2.32,2.32,0,0,0,1.83.64,3.93,3.93,0,0,0,1.13-.14,2.69,2.69,0,0,0,.85-.41,2.91,2.91,0,0,0,.62-.59,3.49,3.49,0,0,0,.44-.71l1.16.65a5.1,5.1,0,0,1-.63,1,4.6,4.6,0,0,1-.9.8,4.32,4.32,0,0,1-1.21.54,5.75,5.75,0,0,1-1.57.2,4.14,4.14,0,0,1-1.48-.25,3.16,3.16,0,0,1-1.16-.7,3,3,0,0,1-.76-1.12,4,4,0,0,1-.27-1.51,6.71,6.71,0,0,1,.36-2.19,5.68,5.68,0,0,1,1.05-1.86,5,5,0,0,1,4-1.8,4.16,4.16,0,0,1,1.57.27,3.13,3.13,0,0,1,1.1.76,3.32,3.32,0,0,1,.65,1.08,3.77,3.77,0,0,1,.21,1.25,3.61,3.61,0,0,1-.11.94l-.19.84Zm3.76-3.81a3.52,3.52,0,0,0-1.18.19,3.38,3.38,0,0,0-1,.53,3.7,3.7,0,0,0-.78.8,3.9,3.9,0,0,0-.5,1h5.72a2.62,2.62,0,0,0,.06-.54,1.76,1.76,0,0,0-.67-1.48A2.71,2.71,0,0,0,1064.93,53.75Z" fill="#231f20"/><path d="M1082.93,54.65h3.22l.67-3.12h1.33l-.66,3.12h3v1.29h-3.24l-.67,3.12h-1.33l.67-3.12h-3Z" fill="#231f20"/><path d="M906.27,72.1h15.47v4.41H910.9v5.6h10.42v4.41H910.9v5.67h11.26V96.6H906.27Z" fill="#231f20"/><path d="M938.86,94.29h.63V72.1h4.62V96.6h-9l-2.87-22.19h-.63V96.6H927V72.1h9Z" fill="#231f20"/><path d="M947.08,72.1h4.76l4.8,22.19h.63l4.79-22.19h4.76l-5.53,24.5h-8.68Z" fill="#231f20"/><path d="M970.18,72.1h16.38v4.41h-5.88V92.19h5.88V96.6H970.18V92.19h5.88V76.51h-5.88Z" fill="#231f20"/><path d="M1008.09,96.6h-4.62V89.25a2.09,2.09,0,0,0-.44-1.37,1.78,1.78,0,0,0-1.45-.52h-5.32V96.6h-4.62V72.1H1001a9.6,9.6,0,0,1,3.32.52,6.82,6.82,0,0,1,2.4,1.45,6.38,6.38,0,0,1,1.47,2.16,6.72,6.72,0,0,1,.51,2.62v.84a5.3,5.3,0,0,1-.81,2.82,5.1,5.1,0,0,1-2.48,2v.63a2.86,2.86,0,0,1,2.66,3ZM996.26,83h4.41a3.71,3.71,0,0,0,2.55-.79,2.83,2.83,0,0,0,.88-2.22v-.42a2.89,2.89,0,0,0-.88-2.12,3.38,3.38,0,0,0-2.55-.89h-4.41Z" fill="#231f20"/><path d="M1012.18,81.62q0-4.77,2.4-7.39a9.71,9.71,0,0,1,13.27,0q2.39,2.63,2.39,7.39v5.46c0,3.26-.8,5.75-2.39,7.45a9.88,9.88,0,0,1-13.27,0c-1.6-1.7-2.4-4.19-2.4-7.45Zm9,11.27a4.82,4.82,0,0,0,2.1-.41,3.52,3.52,0,0,0,1.37-1.13,4.6,4.6,0,0,0,.73-1.75,11.15,11.15,0,0,0,.21-2.24v-6a9.37,9.37,0,0,0-.24-2.17,4.91,4.91,0,0,0-.77-1.75,3.93,3.93,0,0,0-1.37-1.18,5,5,0,0,0-4.06,0,3.9,3.9,0,0,0-1.36,1.18,4.91,4.91,0,0,0-.77,1.75,9.36,9.36,0,0,0-.25,2.17v6a11.15,11.15,0,0,0,.21,2.24,4.61,4.61,0,0,0,.74,1.75,3.49,3.49,0,0,0,1.36,1.13A4.82,4.82,0,0,0,1021.21,92.89Z" fill="#231f20"/><path d="M1046,94.29h.63V72.1h4.62V96.6h-9l-2.87-22.19h-.63V96.6h-4.62V72.1h9Z" fill="#231f20"/><path d="M1054.11,72.1h8.12l1.4,18.41v3.57h.84V90.51l1.4-18.41H1074V96.6h-4.2V80.22l.42-5.6h-.84l-1.82,22h-6.93l-1.89-22h-.84l.42,5.6V96.6h-4.2Z" fill="#231f20"/><path d="M1077.63,72.1h15.47v4.41h-10.85v5.6h10.43v4.41h-10.43v5.67h11.27V96.6h-15.89Z" fill="#231f20"/><path d="M1110.22,94.29h.63V72.1h4.62V96.6h-9l-2.87-22.19h-.63V96.6h-4.62V72.1h9Z" fill="#231f20"/><path d="M1119.49,72.1h17.64v4.41h-6.51V96.6H1126V76.51h-6.51Z" fill="#231f20"/><path d="M1153.9,91.35h-8.33l-1.19,5.25h-4.83l5.84-24.5h8.68l5.85,24.5h-4.83Zm-7.35-4.41h6.33l-2.83-12.53h-.63Z" fill="#231f20"/><path d="M1163.31,72.1h4.62V92.19h11.13V96.6h-15.75Z" fill="#231f20"/><path d="M300.43,56.41l-1.1,5.19h-1.51L300.5,49h4.1a4.33,4.33,0,0,1,1.45.22,3.16,3.16,0,0,1,1.08.62,2.78,2.78,0,0,1,.69,1,3,3,0,0,1,.24,1.2,4.78,4.78,0,0,1-.32,1.75,4,4,0,0,1-.95,1.4,4.23,4.23,0,0,1-1.5.93,5.63,5.63,0,0,1-2,.33Zm.3-1.4h2.7a4.08,4.08,0,0,0,1.24-.19,2.94,2.94,0,0,0,1-.54,2.52,2.52,0,0,0,.64-.86,2.88,2.88,0,0,0,.23-1.15,1.73,1.73,0,0,0-.55-1.41,2.35,2.35,0,0,0-1.57-.46h-2.68Z" fill="#231f20"/><path d="M315.19,60.08H315a3.44,3.44,0,0,1-1.24,1.32,3.53,3.53,0,0,1-1.84.45,2.73,2.73,0,0,1-1.92-.68,2.59,2.59,0,0,1-.74-2,5.07,5.07,0,0,1,0-.55,3,3,0,0,1,.11-.62l1.19-5.33H312l-1.16,5.15a5,5,0,0,0-.12,1c0,1.1.59,1.66,1.78,1.66a2.88,2.88,0,0,0,2.11-.88,4.52,4.52,0,0,0,1.2-2.33l1.05-4.64h1.4l-1.64,7.41a.27.27,0,0,0,0,.24.24.24,0,0,0,.2.09.45.45,0,0,0,.25-.09l.77-.56.76,1-.9.69a1.47,1.47,0,0,1-.53.27,2.35,2.35,0,0,1-.64.09,2.18,2.18,0,0,1-.52-.07,1.22,1.22,0,0,1-.45-.24,1.13,1.13,0,0,1-.32-.4,1.35,1.35,0,0,1-.12-.59c0-.06,0-.12,0-.18l0-.18Z" fill="#231f20"/><path d="M323.13,54.22a.38.38,0,0,0-.06-.34.33.33,0,0,0-.27-.11.46.46,0,0,0-.27.09L320.89,55l-.72-1.06,1.6-1.08a2.19,2.19,0,0,1,1.25-.41,1.56,1.56,0,0,1,1,.31,1.34,1.34,0,0,1,.47,1h.21a3.07,3.07,0,0,1,1.17-1,3.19,3.19,0,0,1,1.35-.29,2.78,2.78,0,0,1,2,.74,2.7,2.7,0,0,1,.74,2,4.56,4.56,0,0,1-.11,1l-1.53.11a4,4,0,0,0,.09-.76,1.6,1.6,0,0,0-.48-1.28,1.84,1.84,0,0,0-1.23-.41,2.24,2.24,0,0,0-1,.21,2.36,2.36,0,0,0-.77.55,3.67,3.67,0,0,0-.55.82,4.27,4.27,0,0,0-.33,1l-.85,4h2.13v1.3h-5.73V60.3h2.2Z" fill="#231f20"/><path d="M332.66,57.56a2.88,2.88,0,0,0-.05.33c0,.12,0,.24,0,.38a2.28,2.28,0,0,0,.58,1.62,2.33,2.33,0,0,0,1.84.64,3.86,3.86,0,0,0,1.12-.14A2.69,2.69,0,0,0,337,60a3,3,0,0,0,.63-.59,4,4,0,0,0,.44-.71l1.15.65a5.1,5.1,0,0,1-.63,1,4.09,4.09,0,0,1-.9.8,4.32,4.32,0,0,1-1.21.54,5.68,5.68,0,0,1-1.56.2,4.2,4.2,0,0,1-1.49-.25,3.16,3.16,0,0,1-1.16-.7,3.31,3.31,0,0,1-.76-1.12,4,4,0,0,1-.26-1.51,7,7,0,0,1,.35-2.19,5.68,5.68,0,0,1,1.05-1.86,5,5,0,0,1,4-1.8,4.11,4.11,0,0,1,1.56.27,3,3,0,0,1,1.1.76,3.32,3.32,0,0,1,.65,1.08,3.78,3.78,0,0,1,.22,1.25,4.1,4.1,0,0,1-.11.94l-.2.84Zm3.77-3.81a3.48,3.48,0,0,0-1.18.19,3.31,3.31,0,0,0-1,.53,3.44,3.44,0,0,0-.77.8,3.63,3.63,0,0,0-.51,1h5.72a2.62,2.62,0,0,0,.06-.54,1.73,1.73,0,0,0-.67-1.48A2.68,2.68,0,0,0,336.43,53.75Z" fill="#231f20"/><path d="M255.44,92.89a5.12,5.12,0,0,0,2.19-.41A3.27,3.27,0,0,0,259,91.4a4.13,4.13,0,0,0,.65-1.58,9.16,9.16,0,0,0,.17-1.83v-.63h4.62V88c0,2.91-.76,5.16-2.29,6.73s-3.75,2.37-6.67,2.37a8.82,8.82,0,0,1-6.65-2.56c-1.63-1.7-2.45-4.19-2.45-7.45V81.62A13.18,13.18,0,0,1,247,77.4a8.71,8.71,0,0,1,1.82-3.15,8,8,0,0,1,2.87-2,9.87,9.87,0,0,1,3.78-.68,10.91,10.91,0,0,1,3.85.63,7.39,7.39,0,0,1,2.82,1.82,7.75,7.75,0,0,1,1.72,2.87,11.72,11.72,0,0,1,.57,3.78v.63h-4.62v-.63a7.41,7.41,0,0,0-.21-1.75,4.52,4.52,0,0,0-.7-1.58,3.64,3.64,0,0,0-1.33-1.14,4.54,4.54,0,0,0-2.1-.43,4.26,4.26,0,0,0-2,.43,4.14,4.14,0,0,0-1.4,1.19,5.13,5.13,0,0,0-.82,1.75,8,8,0,0,0-.27,2.09v6.16a9.26,9.26,0,0,0,.25,2.18,4.93,4.93,0,0,0,.77,1.74,3.48,3.48,0,0,0,1.38,1.13A4.85,4.85,0,0,0,255.44,92.89Z" fill="#231f20"/><path d="M269,72.1h4.62V92.19H284.7V96.6H269Z" fill="#231f20"/><path d="M290,72.1H306.4v4.41h-5.88V92.19h5.88V96.6H290V92.19h5.88V76.51H290Z" fill="#231f20"/><path d="M309.69,72.1h8.12l1.4,18.41v3.57h.84V90.51l1.4-18.41h8.12V96.6h-4.2V80.22l.42-5.6H325l-1.82,22H316.2l-1.89-22h-.84l.42,5.6V96.6h-4.2Z" fill="#231f20"/><path d="M345.22,91.35h-8.33L335.7,96.6h-4.83l5.84-24.5h8.68l5.85,24.5h-4.83Zm-7.35-4.41h6.33l-2.83-12.53h-.63Z" fill="#231f20"/><path d="M353.65,72.1h17.64v4.41h-6.51V96.6h-4.62V76.51h-6.51Z" fill="#231f20"/><path d="M376.05,72.1h15.47v4.41H380.67v5.6H391.1v4.41H380.67v5.67h11.27V96.6H376.05Z" fill="#231f20"/><path d="M1632.4,60.44a3.59,3.59,0,0,0,1.36-.23,3,3,0,0,0,1-.65,3.69,3.69,0,0,0,.69-1,6.9,6.9,0,0,0,.46-1.28l0-.22h1.51l0,.22a9.69,9.69,0,0,1-.68,1.93,4.74,4.74,0,0,1-1,1.44,4,4,0,0,1-1.47.89,6,6,0,0,1-2,.31,4.54,4.54,0,0,1-1.55-.25,3.09,3.09,0,0,1-1.12-.72,2.92,2.92,0,0,1-.7-1.08,4.17,4.17,0,0,1-.23-1.41,7.51,7.51,0,0,1,0-.8c0-.28.08-.58.14-.89l.59-2.81a7.34,7.34,0,0,1,1.88-3.85,4.92,4.92,0,0,1,3.54-1.3,4.32,4.32,0,0,1,1.54.26,3,3,0,0,1,1.84,1.75,3.71,3.71,0,0,1,.24,1.34,5.54,5.54,0,0,1-.16,1.23l-.06.21h-1.51l0-.21a4.18,4.18,0,0,0,.15-1.12,2.07,2.07,0,0,0-.55-1.52,2.38,2.38,0,0,0-1.77-.57,3,3,0,0,0-1.32.29,3.53,3.53,0,0,0-1.06.8,4.86,4.86,0,0,0-.8,1.22,7.32,7.32,0,0,0-.51,1.58l-.56,2.59c-.06.28-.11.54-.14.78a5.38,5.38,0,0,0,0,.68,2.62,2.62,0,0,0,.54,1.8A2.19,2.19,0,0,0,1632.4,60.44Z" fill="#231f20"/><path d="M1644.42,50.54a.36.36,0,0,0,0-.33.35.35,0,0,0-.28-.12.48.48,0,0,0-.27.09l-2.11,1.44-.72-1.06,2.13-1.44a2.06,2.06,0,0,1,1.2-.38,1.63,1.63,0,0,1,1.05.36,1.33,1.33,0,0,1,.46,1.12,2.2,2.2,0,0,1-.07.58L1643.59,60a.38.38,0,0,0,.05.34.29.29,0,0,0,.26.13.54.54,0,0,0,.27-.09l2.07-1.41.72,1.07-2.07,1.4a2.19,2.19,0,0,1-1.21.38,1.67,1.67,0,0,1-1-.36,1.32,1.32,0,0,1-.46-1.12,2.62,2.62,0,0,1,.07-.57Z" fill="#231f20"/><path d="M1655.13,54.23a.46.46,0,0,0,0-.31.31.31,0,0,0-.28-.14.5.5,0,0,0-.27.08l-2.11,1.44-.72-1.07,2.13-1.44a2.1,2.1,0,0,1,1.2-.37,1.64,1.64,0,0,1,1.06.36,1.34,1.34,0,0,1,.45,1.11,2.3,2.3,0,0,1-.07.58L1655.15,60a.38.38,0,0,0,0,.34.32.32,0,0,0,.27.13.54.54,0,0,0,.27-.09L1657.8,59l.72,1.07-2.07,1.4a2.21,2.21,0,0,1-1.21.38,1.64,1.64,0,0,1-1.06-.36,1.34,1.34,0,0,1-.45-1.12,2.22,2.22,0,0,1,.07-.57Zm.29-4.23a1.26,1.26,0,0,1,1.26-1.26,1.24,1.24,0,0,1,.89.37,1.22,1.22,0,0,1,.37.89,1.19,1.19,0,0,1-.37.89,1.2,1.2,0,0,1-.89.37,1.26,1.26,0,0,1-1.26-1.26Z" fill="#231f20"/><path d="M1669.55,54.9l0-.16v-.16a.92.92,0,0,0-.19-.6.8.8,0,0,0-.62-.23,1,1,0,0,0-.81.36,2.25,2.25,0,0,0-.44,1l-1.39,6.48h-1.4l1.42-6.7a2.34,2.34,0,0,0,0-.38A.86.86,0,0,0,1666,54a.73.73,0,0,0-.62-.22,1,1,0,0,0-.86.41,2.78,2.78,0,0,0-.42,1l-1.38,6.48h-1.39l1.89-8.93h1.41l-.17.75h.22a1.42,1.42,0,0,1,.61-.76,1.8,1.8,0,0,1,.92-.24,1.47,1.47,0,0,1,.91.27,1.18,1.18,0,0,1,.44.73h.21a2,2,0,0,1,.65-.74,1.7,1.7,0,0,1,1-.26,1.58,1.58,0,0,1,1.23.47,1.88,1.88,0,0,1,.41,1.25,2.3,2.3,0,0,1,0,.36,2.88,2.88,0,0,1,0,.33l-1.15,5.36a.23.23,0,0,0,0,.22.24.24,0,0,0,.18.07.29.29,0,0,0,.2-.07l.76-.56.75,1.06-.8.61a1.66,1.66,0,0,1-.5.24,2.08,2.08,0,0,1-.6.09,2.33,2.33,0,0,1-.53-.07,1.47,1.47,0,0,1-.45-.23,1.12,1.12,0,0,1-.34-.4,1.34,1.34,0,0,1-.12-.6,1.09,1.09,0,0,1,0-.18,1.1,1.1,0,0,1,0-.18Z" fill="#231f20"/><path d="M1678.24,60.19a3.07,3.07,0,0,1-1.32,1.31,3.89,3.89,0,0,1-1.61.35,3.21,3.21,0,0,1-1.3-.26,2.82,2.82,0,0,1-1-.73,3.31,3.31,0,0,1-.61-1.13,4.41,4.41,0,0,1-.22-1.45,7.36,7.36,0,0,1,.33-2.19,5.77,5.77,0,0,1,.94-1.87,4.87,4.87,0,0,1,1.54-1.31,4.41,4.41,0,0,1,2.13-.49,2.8,2.8,0,0,1,1.56.42,2,2,0,0,1,.85,1.23h.21l.29-1.4h1.4l-1.58,7.41a.29.29,0,0,0,0,.25.24.24,0,0,0,.19.08.45.45,0,0,0,.26-.09l.64-.47.76,1.06-.81.61a1.6,1.6,0,0,1-.49.24,2.1,2.1,0,0,1-.61.09,2.25,2.25,0,0,1-.52-.07,1.53,1.53,0,0,1-.46-.23,1,1,0,0,1-.33-.4,1.21,1.21,0,0,1-.13-.6c0-.06,0-.12,0-.18l0-.18Zm-2.5.33a2.83,2.83,0,0,0,1.36-.34,3.49,3.49,0,0,0,1.12-.91,4.39,4.39,0,0,0,.74-1.35,5.24,5.24,0,0,0,.27-1.71,3,3,0,0,0-.5-1.79,1.83,1.83,0,0,0-1.57-.67,3,3,0,0,0-1.48.36,3.45,3.45,0,0,0-1.09,1,4.25,4.25,0,0,0-.68,1.4,5.88,5.88,0,0,0-.22,1.63,2.67,2.67,0,0,0,.52,1.8A1.9,1.9,0,0,0,1675.74,60.52Z" fill="#231f20"/><path d="M1684.54,52.67h3.1l.83-3.93h1.4l-.83,3.93h3.17V54h-3.46L1687.48,60a.38.38,0,0,0,0,.34.3.3,0,0,0,.26.13.48.48,0,0,0,.27-.09l2.4-1.62.72,1.06-2.4,1.62a2.15,2.15,0,0,1-1.19.38,1.64,1.64,0,0,1-1.08-.38,1.39,1.39,0,0,1-.45-1.13,2.65,2.65,0,0,1,0-.27,1.31,1.31,0,0,1,.06-.27l1.22-5.84h-2.81Z" fill="#231f20"/><path d="M1696,57.56a2.88,2.88,0,0,0,0,.33c0,.12,0,.24,0,.38a2.28,2.28,0,0,0,.58,1.62,2.32,2.32,0,0,0,1.83.64,3.93,3.93,0,0,0,1.13-.14,2.69,2.69,0,0,0,.85-.41,2.91,2.91,0,0,0,.62-.59,3.54,3.54,0,0,0,.45-.71l1.15.65a5.1,5.1,0,0,1-.63,1,4.09,4.09,0,0,1-.9.8,4.32,4.32,0,0,1-1.21.54,5.68,5.68,0,0,1-1.56.2,4.2,4.2,0,0,1-1.49-.25,3.16,3.16,0,0,1-1.92-1.82,4,4,0,0,1-.27-1.51,6.71,6.71,0,0,1,.36-2.19,5.68,5.68,0,0,1,1-1.86,5,5,0,0,1,4-1.8,4.11,4.11,0,0,1,1.56.27,3,3,0,0,1,1.1.76,3.32,3.32,0,0,1,.65,1.08,3.77,3.77,0,0,1,.21,1.25,4.11,4.11,0,0,1-.1.94l-.2.84Zm3.77-3.81a3.48,3.48,0,0,0-1.18.19,3.31,3.31,0,0,0-1,.53,3.7,3.7,0,0,0-.78.8,3.9,3.9,0,0,0-.5,1h5.72a2.62,2.62,0,0,0,.06-.54,1.73,1.73,0,0,0-.67-1.48A2.68,2.68,0,0,0,1699.81,53.75Z" fill="#231f20"/><path d="M1717.81,54.65H1721l.66-3.12H1723l-.66,3.12h3v1.29h-3.24l-.67,3.12h-1.33l.67-3.12h-3Z" fill="#231f20"/><path d="M1740.11,57.56a1.61,1.61,0,0,0-.06.33c0,.12,0,.24,0,.38a2.13,2.13,0,0,0,2.42,2.26,3.86,3.86,0,0,0,1.12-.14,2.74,2.74,0,0,0,.86-.41,3.16,3.16,0,0,0,.62-.59,4,4,0,0,0,.44-.71l1.15.65a5.1,5.1,0,0,1-.63,1,4.09,4.09,0,0,1-.9.8,4.32,4.32,0,0,1-1.21.54,5.63,5.63,0,0,1-1.56.2,4.2,4.2,0,0,1-1.49-.25,3.25,3.25,0,0,1-1.16-.7,3.15,3.15,0,0,1-.75-1.12,4,4,0,0,1-.27-1.51,6.71,6.71,0,0,1,.36-2.19,5.65,5.65,0,0,1,1-1.86,5.23,5.23,0,0,1,1.69-1.31,5.13,5.13,0,0,1,2.29-.49,4.11,4.11,0,0,1,1.56.27,3,3,0,0,1,1.1.76,3.15,3.15,0,0,1,.65,1.08,3.78,3.78,0,0,1,.22,1.25,4.1,4.1,0,0,1-.11.94l-.2.84Zm3.76-3.81a3.52,3.52,0,0,0-1.18.19,3.31,3.31,0,0,0-1,.53,3.44,3.44,0,0,0-.77.8,3.63,3.63,0,0,0-.51,1h5.73a3.5,3.5,0,0,0,0-.54,1.73,1.73,0,0,0-.67-1.48A2.68,2.68,0,0,0,1743.87,53.75Z" fill="#231f20"/><path d="M1756.54,56.23a3,3,0,0,0,.07-.42c0-.12,0-.23,0-.35a1.57,1.57,0,0,0-.51-1.29,2.21,2.21,0,0,0-1.43-.42,2.54,2.54,0,0,0-2,.87,4.7,4.7,0,0,0-1.06,2.22l-1,4.76h-1.41l1.91-8.93h1.41l-.27,1.29h.21a2.72,2.72,0,0,1,1.18-1.17,3.33,3.33,0,0,1,1.54-.37,3.38,3.38,0,0,1,1.1.18,2.53,2.53,0,0,1,1.52,1.44,3,3,0,0,1,.22,1.2,4.75,4.75,0,0,1-.1,1l-.87,4a.23.23,0,0,0,0,.22.24.24,0,0,0,.18.07.31.31,0,0,0,.2-.07l.75-.56.76,1.06-.7.52a1.94,1.94,0,0,1-1.21.42,2.24,2.24,0,0,1-.52-.06,1.35,1.35,0,0,1-.45-.22,1.24,1.24,0,0,1-.33-.41,1.41,1.41,0,0,1-.12-.63,2.73,2.73,0,0,1,.07-.57Z" fill="#231f20"/><path d="M1764.68,61h.21l4.18-8.28,1.31.66-4.32,8.27h-2.73l-.69-7.53a.28.28,0,0,0-.3-.29.4.4,0,0,0-.33.17l-.88,1.11-1-.81.87-1.11a1.88,1.88,0,0,1,.66-.54,1.78,1.78,0,0,1,.78-.18,1.7,1.7,0,0,1,1.07.37,1.62,1.62,0,0,1,.55,1.14Z" fill="#231f20"/><path d="M1776.3,54.23a.41.41,0,0,0,0-.31.31.31,0,0,0-.28-.14.5.5,0,0,0-.27.08l-2.11,1.44-.72-1.07,2.13-1.44a2.1,2.1,0,0,1,1.2-.37,1.62,1.62,0,0,1,1.06.36,1.34,1.34,0,0,1,.46,1.11,2.32,2.32,0,0,1-.08.58L1776.32,60a.38.38,0,0,0,0,.34.29.29,0,0,0,.26.13.54.54,0,0,0,.27-.09L1779,59l.72,1.07-2.07,1.4a2.21,2.21,0,0,1-1.21.38,1.64,1.64,0,0,1-1.06-.36,1.34,1.34,0,0,1-.45-1.12,2.22,2.22,0,0,1,.07-.57Zm.29-4.23a1.22,1.22,0,0,1,.37-.89,1.24,1.24,0,0,1,.89-.37,1.26,1.26,0,0,1,1.26,1.26,1.26,1.26,0,0,1-1.26,1.26,1.2,1.2,0,0,1-.89-.37A1.19,1.19,0,0,1,1776.59,50Z" fill="#231f20"/><path d="M1785.65,54.22a.38.38,0,0,0-.06-.34.33.33,0,0,0-.27-.11.46.46,0,0,0-.27.09L1783.41,55l-.72-1.06,1.6-1.08a2.19,2.19,0,0,1,1.25-.41,1.56,1.56,0,0,1,1,.31,1.37,1.37,0,0,1,.47,1h.21a3.07,3.07,0,0,1,1.17-1,3.15,3.15,0,0,1,1.35-.29,2.78,2.78,0,0,1,2,.74,2.7,2.7,0,0,1,.73,2,4.54,4.54,0,0,1-.1,1l-1.53.11a4,4,0,0,0,.09-.76,1.6,1.6,0,0,0-.48-1.28,1.84,1.84,0,0,0-1.23-.41,2.24,2.24,0,0,0-1,.21,2.36,2.36,0,0,0-.77.55,3.67,3.67,0,0,0-.55.82,4.27,4.27,0,0,0-.33,1l-.85,4h2.13v1.3h-5.73V60.3h2.2Z" fill="#231f20"/><path d="M1799.09,52.42a3.77,3.77,0,0,1,1.44.27,3.47,3.47,0,0,1,1.15.75,3.56,3.56,0,0,1,.77,1.16,4,4,0,0,1,.28,1.49,6.52,6.52,0,0,1-.37,2.15,5.61,5.61,0,0,1-1.08,1.83,5.28,5.28,0,0,1-1.75,1.29,5.37,5.37,0,0,1-2.35.49,3.93,3.93,0,0,1-1.42-.26,3.74,3.74,0,0,1-1.16-.73,3.25,3.25,0,0,1-.78-1.15,3.65,3.65,0,0,1-.29-1.5,6.29,6.29,0,0,1,.44-2.37,5.37,5.37,0,0,1,1.21-1.82,5.5,5.5,0,0,1,3.91-1.6Zm-1.6,8.1a3.32,3.32,0,0,0,1.53-.37,3.81,3.81,0,0,0,1.2-1,4.54,4.54,0,0,0,.79-1.37,4.85,4.85,0,0,0,.28-1.6,2.32,2.32,0,0,0-2.51-2.45,3.16,3.16,0,0,0-1.45.34,3.77,3.77,0,0,0-1.2.94,4.58,4.58,0,0,0-.82,1.37,4.63,4.63,0,0,0-.31,1.67,2.45,2.45,0,0,0,.65,1.76A2.41,2.41,0,0,0,1797.49,60.52Z" fill="#231f20"/><path d="M1811.62,56.23c0-.17.06-.31.07-.42s0-.23,0-.35a1.55,1.55,0,0,0-.52-1.29,2.18,2.18,0,0,0-1.43-.42,2.53,2.53,0,0,0-2,.87,4.81,4.81,0,0,0-1.07,2.22l-1,4.76h-1.41l1.91-8.93h1.4l-.27,1.29h.22a2.72,2.72,0,0,1,1.18-1.17,3.33,3.33,0,0,1,1.54-.37,3.38,3.38,0,0,1,1.1.18,2.66,2.66,0,0,1,.9.55,2.59,2.59,0,0,1,.62.89,3,3,0,0,1,.22,1.2,4.16,4.16,0,0,1-.11,1l-.86,4a.23.23,0,0,0,0,.22.21.21,0,0,0,.18.07.28.28,0,0,0,.19-.07l.76-.56.76,1.06-.71.52a1.91,1.91,0,0,1-1.2.42,2.18,2.18,0,0,1-.52-.06,1.35,1.35,0,0,1-.45-.22,1.13,1.13,0,0,1-.33-.41,1.41,1.41,0,0,1-.12-.63,2.73,2.73,0,0,1,.07-.57Z" fill="#231f20"/><path d="M1823.77,54.9a1,1,0,0,0,0-.16.81.81,0,0,0,0-.16.92.92,0,0,0-.19-.6.8.8,0,0,0-.62-.23,1,1,0,0,0-.82.36,2.5,2.5,0,0,0-.44,1l-1.38,6.48h-1.41l1.43-6.7a2.34,2.34,0,0,0,0-.38.92.92,0,0,0-.17-.55.73.73,0,0,0-.62-.22,1,1,0,0,0-.86.41,2.78,2.78,0,0,0-.42,1L1817,61.6h-1.39l1.89-8.93h1.4l-.16.75h.22a1.42,1.42,0,0,1,.61-.76,1.8,1.8,0,0,1,.92-.24,1.47,1.47,0,0,1,.91.27,1.18,1.18,0,0,1,.44.73h.21a2,2,0,0,1,.65-.74,1.7,1.7,0,0,1,1-.26,1.58,1.58,0,0,1,1.23.47,1.88,1.88,0,0,1,.41,1.25,2.3,2.3,0,0,1,0,.36,2.88,2.88,0,0,1,0,.33L1824,60.19a.23.23,0,0,0,0,.22.24.24,0,0,0,.18.07.29.29,0,0,0,.2-.07l.76-.56.75,1.06-.81.61a1.49,1.49,0,0,1-.49.24,2.08,2.08,0,0,1-.6.09,2.33,2.33,0,0,1-.53-.07,1.65,1.65,0,0,1-.46-.23,1.2,1.2,0,0,1-.33-.4,1.34,1.34,0,0,1-.12-.6v-.18l0-.18Z" fill="#231f20"/><path d="M1828.23,57.56a2.88,2.88,0,0,0,0,.33c0,.12,0,.24,0,.38a2.32,2.32,0,0,0,.57,1.62,2.36,2.36,0,0,0,1.84.64,3.93,3.93,0,0,0,1.13-.14,2.69,2.69,0,0,0,.85-.41,2.91,2.91,0,0,0,.62-.59,3.49,3.49,0,0,0,.44-.71l1.16.65a5.1,5.1,0,0,1-.63,1,4.39,4.39,0,0,1-.91.8,4.25,4.25,0,0,1-1.2.54,5.75,5.75,0,0,1-1.57.2,4.14,4.14,0,0,1-1.48-.25,3.16,3.16,0,0,1-1.16-.7,3,3,0,0,1-.76-1.12,4,4,0,0,1-.27-1.51,6.71,6.71,0,0,1,.36-2.19,5.68,5.68,0,0,1,1-1.86,5,5,0,0,1,4-1.8,4.16,4.16,0,0,1,1.57.27,3,3,0,0,1,1.74,1.84,3.54,3.54,0,0,1,.22,1.25,3.61,3.61,0,0,1-.11.94l-.19.84Zm3.76-3.81a3.52,3.52,0,0,0-1.18.19,3.43,3.43,0,0,0-1,.53,3.7,3.7,0,0,0-1.27,1.8h5.72a2.59,2.59,0,0,0,0-.54,1.75,1.75,0,0,0-.66-1.48A2.71,2.71,0,0,0,1832,53.75Z" fill="#231f20"/><path d="M1844.66,56.23a3.3,3.3,0,0,0,.08-.42c0-.12,0-.23,0-.35a1.58,1.58,0,0,0-.52-1.29,2.2,2.2,0,0,0-1.43-.42,2.56,2.56,0,0,0-2,.87,4.8,4.8,0,0,0-1.06,2.22l-1,4.76h-1.4l1.91-8.93h1.4l-.27,1.29h.22a2.72,2.72,0,0,1,1.18-1.17,3.26,3.26,0,0,1,1.53-.37,3.34,3.34,0,0,1,1.1.18,2.7,2.7,0,0,1,.91.55,2.57,2.57,0,0,1,.61.89,3,3,0,0,1,.23,1.2,4.79,4.79,0,0,1-.11,1l-.86,4a.23.23,0,0,0,0,.22.24.24,0,0,0,.18.07.29.29,0,0,0,.2-.07l.76-.56.75,1.06-.7.52a1.91,1.91,0,0,1-1.21.42,2.24,2.24,0,0,1-.52-.06,1.45,1.45,0,0,1-.45-.22,1.11,1.11,0,0,1-.32-.41,1.28,1.28,0,0,1-.13-.63,3.63,3.63,0,0,1,.07-.57Z" fill="#231f20"/><path d="M1849.78,52.67h3.09l.83-3.93h1.4l-.82,3.93h3.16V54H1854L1852.71,60a.35.35,0,0,0,0,.34.29.29,0,0,0,.26.13.54.54,0,0,0,.27-.09l2.39-1.62.72,1.06L1854,61.47a2.17,2.17,0,0,1-1.19.38,1.64,1.64,0,0,1-1.08-.38,1.39,1.39,0,0,1-.45-1.13,1.27,1.27,0,0,1,0-.27,2.56,2.56,0,0,1,0-.27l1.22-5.84h-2.8Z" fill="#231f20"/><path d="M1865.51,60.19a3.12,3.12,0,0,1-1.32,1.31,3.9,3.9,0,0,1-1.62.35,3.13,3.13,0,0,1-1.29-.26,2.73,2.73,0,0,1-1-.73,3.33,3.33,0,0,1-.62-1.13,4.7,4.7,0,0,1-.21-1.45,7.69,7.69,0,0,1,.32-2.19,5.79,5.79,0,0,1,1-1.87,4.66,4.66,0,0,1,1.54-1.31,4.39,4.39,0,0,1,2.12-.49,2.85,2.85,0,0,1,1.57.42,2,2,0,0,1,.84,1.23h.22l.29-1.4h1.4l-1.58,7.41a.26.26,0,0,0,0,.25.28.28,0,0,0,.2.08.43.43,0,0,0,.25-.09l.65-.47.76,1.06-.81.61a1.66,1.66,0,0,1-.5.24,2.08,2.08,0,0,1-.6.09,2.18,2.18,0,0,1-.52-.07,1.42,1.42,0,0,1-.46-.23,1.12,1.12,0,0,1-.34-.4,1.34,1.34,0,0,1-.12-.6,1.09,1.09,0,0,1,0-.18,1.1,1.1,0,0,1,0-.18Zm-2.5.33a2.76,2.76,0,0,0,1.35-.34,3.49,3.49,0,0,0,1.12-.91,4.21,4.21,0,0,0,.75-1.35,5.24,5.24,0,0,0,.27-1.71,2.9,2.9,0,0,0-.51-1.79,1.8,1.8,0,0,0-1.56-.67,3,3,0,0,0-1.49.36,3.56,3.56,0,0,0-1.09,1,4.23,4.23,0,0,0-.67,1.4,5.89,5.89,0,0,0-.23,1.63,2.67,2.67,0,0,0,.53,1.8A1.88,1.88,0,0,0,1863,60.52Z" fill="#231f20"/><path d="M1875.75,50.54a.33.33,0,0,0,0-.33.32.32,0,0,0-.27-.12.48.48,0,0,0-.27.09l-2.11,1.44-.72-1.06,2.12-1.44a2.21,2.21,0,0,1,.6-.29,2.15,2.15,0,0,1,.61-.09,1.63,1.63,0,0,1,1,.36,1.33,1.33,0,0,1,.46,1.12,2.2,2.2,0,0,1-.07.58L1874.92,60a.38.38,0,0,0,0,.34.29.29,0,0,0,.26.13.54.54,0,0,0,.27-.09l2.07-1.41.72,1.07-2.07,1.4a2.21,2.21,0,0,1-1.21.38,1.67,1.67,0,0,1-1-.36,1.32,1.32,0,0,1-.46-1.12,2.12,2.12,0,0,1,.07-.57Z" fill="#231f20"/><path d="M1894.06,54.65h3.22l.66-3.12h1.33l-.66,3.12h3v1.29h-3.24l-.67,3.12h-1.33l.67-3.12h-3Z" fill="#231f20"/><path d="M1682.82,72.1h15.47v4.41h-10.85v5.6h10.43v4.41h-10.43v5.67h11.27V96.6h-15.89Z" fill="#231f20"/><path d="M1712.15,92.89a5.12,5.12,0,0,0,2.19-.41,3.27,3.27,0,0,0,1.33-1.08,4.13,4.13,0,0,0,.65-1.58,9.16,9.16,0,0,0,.17-1.83v-.63h4.62V88c0,2.91-.76,5.16-2.29,6.73s-3.75,2.37-6.67,2.37a8.81,8.81,0,0,1-6.65-2.56c-1.63-1.7-2.45-4.19-2.45-7.45V81.62a13.18,13.18,0,0,1,.63-4.22,8.56,8.56,0,0,1,1.82-3.15,8,8,0,0,1,2.87-2,9.87,9.87,0,0,1,3.78-.68,10.91,10.91,0,0,1,3.85.63,7.39,7.39,0,0,1,2.82,1.82,7.75,7.75,0,0,1,1.72,2.87,11.72,11.72,0,0,1,.57,3.78v.63h-4.62v-.63a7.41,7.41,0,0,0-.21-1.75,4.52,4.52,0,0,0-.7-1.58,3.64,3.64,0,0,0-1.33-1.14,4.54,4.54,0,0,0-2.1-.43,4.26,4.26,0,0,0-2,.43,4.14,4.14,0,0,0-1.4,1.19,5.13,5.13,0,0,0-.82,1.75,8,8,0,0,0-.27,2.09v6.16a9.26,9.26,0,0,0,.25,2.18,4.93,4.93,0,0,0,.77,1.74,3.48,3.48,0,0,0,1.38,1.13A4.85,4.85,0,0,0,1712.15,92.89Z" fill="#231f20"/><path d="M1724.47,81.62q0-4.77,2.4-7.39a9.71,9.71,0,0,1,13.27,0q2.38,2.63,2.39,7.39v5.46c0,3.26-.8,5.75-2.39,7.45a9.88,9.88,0,0,1-13.27,0c-1.6-1.7-2.4-4.19-2.4-7.45Zm9,11.27a4.82,4.82,0,0,0,2.1-.41,3.52,3.52,0,0,0,1.37-1.13,4.6,4.6,0,0,0,.73-1.75,11.15,11.15,0,0,0,.21-2.24v-6a9.37,9.37,0,0,0-.24-2.17,4.91,4.91,0,0,0-.77-1.75,3.93,3.93,0,0,0-1.37-1.18,5,5,0,0,0-4.06,0,3.9,3.9,0,0,0-1.36,1.18,4.91,4.91,0,0,0-.77,1.75,9.36,9.36,0,0,0-.25,2.17v6a11.15,11.15,0,0,0,.21,2.24,4.61,4.61,0,0,0,.74,1.75,3.49,3.49,0,0,0,1.36,1.13A4.82,4.82,0,0,0,1733.5,92.89Z" fill="#231f20"/><path d="M1758.25,94.29h.63V72.1h4.62V96.6h-9l-2.87-22.19H1751V96.6h-4.62V72.1h9Z" fill="#231f20"/><path d="M1767.31,81.62q0-4.77,2.4-7.39a9.71,9.71,0,0,1,13.27,0q2.38,2.63,2.39,7.39v5.46c0,3.26-.8,5.75-2.39,7.45a9.88,9.88,0,0,1-13.27,0c-1.6-1.7-2.4-4.19-2.4-7.45Zm9,11.27a4.82,4.82,0,0,0,2.1-.41,3.52,3.52,0,0,0,1.37-1.13,4.6,4.6,0,0,0,.73-1.75,11.15,11.15,0,0,0,.21-2.24v-6a9.37,9.37,0,0,0-.24-2.17,4.91,4.91,0,0,0-.77-1.75,3.93,3.93,0,0,0-1.37-1.18,5,5,0,0,0-4.06,0,3.9,3.9,0,0,0-1.36,1.18,4.91,4.91,0,0,0-.77,1.75,9.36,9.36,0,0,0-.25,2.17v6a11.15,11.15,0,0,0,.21,2.24,4.61,4.61,0,0,0,.74,1.75,3.49,3.49,0,0,0,1.36,1.13A4.82,4.82,0,0,0,1776.34,92.89Z" fill="#231f20"/><path d="M1787.82,72.1h8.12l1.4,18.41v3.57h.84V90.51l1.4-18.41h8.12V96.6h-4.2V80.22l.42-5.6h-.84l-1.82,22h-6.93l-1.89-22h-.84l.42,5.6V96.6h-4.2Z" fill="#231f20"/><path d="M1811,72.1h16.38v4.41h-5.88V92.19h5.88V96.6H1811V92.19h5.88V76.51H1811Z" fill="#231f20"/><path d="M1840.67,92.89a5.12,5.12,0,0,0,2.19-.41,3.27,3.27,0,0,0,1.33-1.08,4.13,4.13,0,0,0,.65-1.58A9.16,9.16,0,0,0,1845,88v-.63h4.62V88c0,2.91-.76,5.16-2.29,6.73s-3.75,2.37-6.67,2.37a8.81,8.81,0,0,1-6.65-2.56c-1.63-1.7-2.45-4.19-2.45-7.45V81.62a13.18,13.18,0,0,1,.63-4.22,8.56,8.56,0,0,1,1.82-3.15,8,8,0,0,1,2.87-2,9.87,9.87,0,0,1,3.78-.68,10.91,10.91,0,0,1,3.85.63,7.39,7.39,0,0,1,2.82,1.82,7.75,7.75,0,0,1,1.72,2.87,11.72,11.72,0,0,1,.57,3.78v.63H1845v-.63a7.41,7.41,0,0,0-.21-1.75,4.52,4.52,0,0,0-.7-1.58,3.64,3.64,0,0,0-1.33-1.14,4.54,4.54,0,0,0-2.1-.43,4.26,4.26,0,0,0-2,.43,4.14,4.14,0,0,0-1.4,1.19,5.13,5.13,0,0,0-.82,1.75,8,8,0,0,0-.27,2.09v6.16a9.26,9.26,0,0,0,.25,2.18,4.93,4.93,0,0,0,.77,1.74,3.48,3.48,0,0,0,1.38,1.13A4.85,4.85,0,0,0,1840.67,92.89Z" fill="#231f20"/><path d="M2294.81,60.44a3.56,3.56,0,0,0,1.36-.23,3,3,0,0,0,1-.65,3.69,3.69,0,0,0,.69-1,6.9,6.9,0,0,0,.46-1.28l0-.22h1.52l-.06.22a10.37,10.37,0,0,1-.67,1.93,5,5,0,0,1-1,1.44,3.89,3.89,0,0,1-1.47.89,6,6,0,0,1-2,.31,4.58,4.58,0,0,1-1.55-.25,3.09,3.09,0,0,1-1.12-.72,2.92,2.92,0,0,1-.7-1.08,4.17,4.17,0,0,1-.23-1.41,7.51,7.51,0,0,1,0-.8c0-.28.08-.58.14-.89l.59-2.81a7.34,7.34,0,0,1,1.88-3.85,4.92,4.92,0,0,1,3.54-1.3,4.32,4.32,0,0,1,1.54.26,3,3,0,0,1,1.84,1.75,3.71,3.71,0,0,1,.24,1.34,5,5,0,0,1-.16,1.23l-.06.21h-1.51l.06-.21a4.19,4.19,0,0,0,.11-.61,4.36,4.36,0,0,0,0-.51,2.07,2.07,0,0,0-.55-1.52,2.38,2.38,0,0,0-1.77-.57,3,3,0,0,0-1.32.29,3.53,3.53,0,0,0-1.06.8,4.86,4.86,0,0,0-.8,1.22,7.32,7.32,0,0,0-.51,1.58l-.56,2.59c-.06.28-.11.54-.14.78a5.38,5.38,0,0,0,0,.68,2.62,2.62,0,0,0,.54,1.8A2.19,2.19,0,0,0,2294.81,60.44Z" fill="#231f20"/><path d="M2306.83,50.54a.36.36,0,0,0,0-.33.35.35,0,0,0-.28-.12.48.48,0,0,0-.27.09l-2.11,1.44-.72-1.06,2.13-1.44a2.06,2.06,0,0,1,1.2-.38,1.68,1.68,0,0,1,1.06.36,1.36,1.36,0,0,1,.45,1.12,2.2,2.2,0,0,1-.07.58L2306,60a.38.38,0,0,0,.05.34.3.3,0,0,0,.26.13.48.48,0,0,0,.27-.09l2.07-1.41.72,1.07-2.07,1.4a2.16,2.16,0,0,1-1.2.38,1.68,1.68,0,0,1-1.06-.36,1.35,1.35,0,0,1-.46-1.12,2.12,2.12,0,0,1,.08-.57Z" fill="#231f20"/><path d="M2317.54,54.23a.41.41,0,0,0,0-.31.31.31,0,0,0-.28-.14.5.5,0,0,0-.27.08l-2.11,1.44-.72-1.07,2.13-1.44a2.1,2.1,0,0,1,1.2-.37,1.64,1.64,0,0,1,1.06.36,1.34,1.34,0,0,1,.45,1.11,2.3,2.3,0,0,1-.07.58L2317.56,60a.38.38,0,0,0,.05.34.29.29,0,0,0,.26.13.54.54,0,0,0,.27-.09l2.07-1.41.72,1.07-2.07,1.4a2.21,2.21,0,0,1-1.21.38,1.64,1.64,0,0,1-1.06-.36,1.34,1.34,0,0,1-.45-1.12,2.22,2.22,0,0,1,.07-.57Zm.29-4.23a1.22,1.22,0,0,1,.37-.89,1.24,1.24,0,0,1,.89-.37,1.26,1.26,0,0,1,1.26,1.26,1.26,1.26,0,0,1-1.26,1.26,1.2,1.2,0,0,1-.89-.37A1.19,1.19,0,0,1,2317.83,50Z" fill="#231f20"/><path d="M2332,54.9l0-.16c0-.05,0-.1,0-.16a.92.92,0,0,0-.2-.6.78.78,0,0,0-.61-.23,1,1,0,0,0-.82.36,2.25,2.25,0,0,0-.44,1l-1.39,6.48h-1.4l1.42-6.7a2.34,2.34,0,0,0,0-.38.86.86,0,0,0-.17-.55.73.73,0,0,0-.62-.22,1,1,0,0,0-.86.41,3,3,0,0,0-.42,1l-1.38,6.48h-1.39l1.89-8.93h1.41l-.17.75h.22a1.47,1.47,0,0,1,.61-.76,1.8,1.8,0,0,1,.92-.24,1.45,1.45,0,0,1,.91.27,1.18,1.18,0,0,1,.44.73h.22a1.87,1.87,0,0,1,.64-.74,1.71,1.71,0,0,1,1-.26,1.55,1.55,0,0,1,1.22.47,1.83,1.83,0,0,1,.41,1.25c0,.11,0,.23,0,.36a2.79,2.79,0,0,1-.06.33l-1.15,5.36a.21.21,0,0,0,.22.29.28.28,0,0,0,.19-.07l.76-.56.76,1.06-.81.61a1.66,1.66,0,0,1-.5.24,2.08,2.08,0,0,1-.6.09,2.18,2.18,0,0,1-.52-.07,1.53,1.53,0,0,1-.46-.23,1.12,1.12,0,0,1-.34-.4,1.34,1.34,0,0,1-.12-.6,1.09,1.09,0,0,1,0-.18,1.1,1.1,0,0,1,0-.18Z" fill="#231f20"/><path d="M2340.65,60.19a3.07,3.07,0,0,1-1.32,1.31,3.89,3.89,0,0,1-1.61.35,3.21,3.21,0,0,1-1.3-.26,2.92,2.92,0,0,1-1-.73,3.31,3.31,0,0,1-.61-1.13,4.69,4.69,0,0,1-.22-1.45,7.36,7.36,0,0,1,.33-2.19,5.77,5.77,0,0,1,.94-1.87,4.87,4.87,0,0,1,1.54-1.31,4.41,4.41,0,0,1,2.13-.49,2.8,2.8,0,0,1,1.56.42,2,2,0,0,1,.85,1.23h.21l.29-1.4h1.41l-1.59,7.41a.29.29,0,0,0,0,.25.26.26,0,0,0,.2.08.45.45,0,0,0,.25-.09l.65-.47.75,1.06-.81.61a1.49,1.49,0,0,1-.49.24,2.1,2.1,0,0,1-.61.09,2.25,2.25,0,0,1-.52-.07,1.53,1.53,0,0,1-.46-.23,1.09,1.09,0,0,1-.33-.4,1.33,1.33,0,0,1-.13-.6c0-.06,0-.12,0-.18l0-.18Zm-2.5.33a2.83,2.83,0,0,0,1.36-.34,3.49,3.49,0,0,0,1.12-.91,4.19,4.19,0,0,0,.74-1.35,5.24,5.24,0,0,0,.27-1.71,2.9,2.9,0,0,0-.5-1.79,1.83,1.83,0,0,0-1.57-.67,3,3,0,0,0-1.48.36,3.45,3.45,0,0,0-1.09,1,4.23,4.23,0,0,0-.67,1.4,5.54,5.54,0,0,0-.23,1.63,2.67,2.67,0,0,0,.52,1.8A1.9,1.9,0,0,0,2338.15,60.52Z" fill="#231f20"/><path d="M2347,52.67h3.1l.83-3.93h1.4l-.83,3.93h3.17V54h-3.45L2349.89,60a.38.38,0,0,0,0,.34.32.32,0,0,0,.26.13.48.48,0,0,0,.27-.09l2.4-1.62.72,1.06-2.4,1.62a2.14,2.14,0,0,1-1.18.38,1.64,1.64,0,0,1-1.08-.38,1.39,1.39,0,0,1-.45-1.13,2.53,2.53,0,0,1,0-.27,2.61,2.61,0,0,1,.06-.27l1.22-5.84H2347Z" fill="#231f20"/><path d="M2358.46,57.56a1.61,1.61,0,0,0-.06.33c0,.12,0,.24,0,.38a2.13,2.13,0,0,0,2.42,2.26,3.86,3.86,0,0,0,1.12-.14,2.74,2.74,0,0,0,.86-.41,3.16,3.16,0,0,0,.62-.59,4,4,0,0,0,.44-.71l1.15.65a5.1,5.1,0,0,1-.63,1,4.09,4.09,0,0,1-.9.8,4.32,4.32,0,0,1-1.21.54,5.63,5.63,0,0,1-1.56.2,4.2,4.2,0,0,1-1.49-.25,3.25,3.25,0,0,1-1.16-.7,3.15,3.15,0,0,1-.75-1.12,4,4,0,0,1-.27-1.51,6.71,6.71,0,0,1,.36-2.19,5.65,5.65,0,0,1,1-1.86,5.23,5.23,0,0,1,1.69-1.31,5.1,5.1,0,0,1,2.29-.49,4.11,4.11,0,0,1,1.56.27,3,3,0,0,1,1.1.76,3.15,3.15,0,0,1,.65,1.08,3.78,3.78,0,0,1,.22,1.25,4.1,4.1,0,0,1-.11.94l-.2.84Zm3.76-3.81a3.48,3.48,0,0,0-1.18.19,3.31,3.31,0,0,0-1,.53,3.44,3.44,0,0,0-.77.8,3.63,3.63,0,0,0-.51,1h5.73a3.5,3.5,0,0,0,.05-.54,1.73,1.73,0,0,0-.67-1.48A2.68,2.68,0,0,0,2362.22,53.75Z" fill="#231f20"/><path d="M2380.22,54.65h3.22l.66-3.12h1.34l-.67,3.12h3v1.29h-3.24l-.67,3.12h-1.33l.67-3.12h-3Z" fill="#231f20"/><path d="M2402.52,57.56a2.79,2.79,0,0,0-.06.33c0,.12,0,.24,0,.38a2.32,2.32,0,0,0,.57,1.62,2.36,2.36,0,0,0,1.84.64,3.86,3.86,0,0,0,1.12-.14,2.74,2.74,0,0,0,.86-.41,2.91,2.91,0,0,0,.62-.59,4,4,0,0,0,.44-.71l1.15.65a5.1,5.1,0,0,1-.63,1,4.09,4.09,0,0,1-.9.8,4.39,4.39,0,0,1-1.2.54,5.75,5.75,0,0,1-1.57.2,4.2,4.2,0,0,1-1.49-.25,3.34,3.34,0,0,1-1.16-.7,3.15,3.15,0,0,1-.75-1.12,4,4,0,0,1-.27-1.51,6.71,6.71,0,0,1,.36-2.19,5.84,5.84,0,0,1,1-1.86,5.23,5.23,0,0,1,1.69-1.31,5.16,5.16,0,0,1,2.29-.49,4.2,4.2,0,0,1,1.57.27,3,3,0,0,1,1.09.76,3.15,3.15,0,0,1,.65,1.08,3.54,3.54,0,0,1,.22,1.25,4.1,4.1,0,0,1-.11.94l-.2.84Zm3.76-3.81a3.52,3.52,0,0,0-1.18.19,3.31,3.31,0,0,0-1,.53,3.44,3.44,0,0,0-.77.8,3.63,3.63,0,0,0-.51,1h5.73a3.5,3.5,0,0,0,0-.54,1.75,1.75,0,0,0-.66-1.48A2.73,2.73,0,0,0,2406.28,53.75Z" fill="#231f20"/><path d="M2419,56.23a3,3,0,0,0,.07-.42,2.06,2.06,0,0,0,0-.35,1.57,1.57,0,0,0-.51-1.29,2.2,2.2,0,0,0-1.43-.42,2.56,2.56,0,0,0-2,.87,4.7,4.7,0,0,0-1.06,2.22l-1,4.76h-1.4l1.9-8.93h1.41l-.27,1.29h.21a2.77,2.77,0,0,1,1.18-1.17,3.41,3.41,0,0,1,2.64-.19,2.7,2.7,0,0,1,.91.55,2.57,2.57,0,0,1,.61.89,3,3,0,0,1,.23,1.2,4.79,4.79,0,0,1-.11,1l-.87,4a.23.23,0,0,0,0,.22.24.24,0,0,0,.18.07.31.31,0,0,0,.2-.07l.75-.56.76,1.06-.7.52a1.91,1.91,0,0,1-1.21.42,2.24,2.24,0,0,1-.52-.06,1.35,1.35,0,0,1-.45-.22,1.11,1.11,0,0,1-.32-.41,1.28,1.28,0,0,1-.13-.63,2.73,2.73,0,0,1,.07-.57Z" fill="#231f20"/><path d="M2427.09,61h.21l4.18-8.28,1.31.66-4.32,8.27h-2.73l-.69-7.53a.28.28,0,0,0-.3-.29.42.42,0,0,0-.33.17l-.88,1.11-1-.81.87-1.11a1.88,1.88,0,0,1,.66-.54,1.81,1.81,0,0,1,.78-.18,1.7,1.7,0,0,1,1.07.37,1.58,1.58,0,0,1,.55,1.14Z" fill="#231f20"/><path d="M2438.71,54.23a.41.41,0,0,0,0-.31.3.3,0,0,0-.28-.14.53.53,0,0,0-.27.08L2436,55.3l-.72-1.07,2.13-1.44a2.1,2.1,0,0,1,1.2-.37,1.67,1.67,0,0,1,1.07.36,1.34,1.34,0,0,1,.45,1.11,2.32,2.32,0,0,1-.08.58L2438.73,60a.38.38,0,0,0,.05.34.29.29,0,0,0,.26.13.54.54,0,0,0,.27-.09l2.07-1.41.72,1.07-2.07,1.4a2.21,2.21,0,0,1-1.21.38,1.66,1.66,0,0,1-1.06-.36,1.34,1.34,0,0,1-.45-1.12,2.22,2.22,0,0,1,.07-.57ZM2439,50a1.26,1.26,0,0,1,1.26-1.26,1.26,1.26,0,0,1,1.26,1.26,1.26,1.26,0,0,1-1.26,1.26A1.26,1.26,0,0,1,2439,50Z" fill="#231f20"/><path d="M2448.06,54.22a.38.38,0,0,0-.06-.34.33.33,0,0,0-.27-.11.48.48,0,0,0-.27.09L2445.82,55l-.72-1.06,1.61-1.08a2.14,2.14,0,0,1,1.24-.41,1.56,1.56,0,0,1,1,.31,1.34,1.34,0,0,1,.47,1h.21a3.07,3.07,0,0,1,1.17-1,3.22,3.22,0,0,1,1.35-.29,2.76,2.76,0,0,1,2,.74,2.7,2.7,0,0,1,.74,2,4.56,4.56,0,0,1-.11,1l-1.53.11a4,4,0,0,0,.09-.76,1.6,1.6,0,0,0-.48-1.28,1.84,1.84,0,0,0-1.23-.41,2.24,2.24,0,0,0-1,.21,2.36,2.36,0,0,0-.77.55,3.67,3.67,0,0,0-.55.82,4.27,4.27,0,0,0-.33,1l-.85,4h2.13v1.3h-5.73V60.3h2.2Z" fill="#231f20"/><path d="M2461.5,52.42a3.77,3.77,0,0,1,1.44.27,3.37,3.37,0,0,1,1.15.75,3.56,3.56,0,0,1,.77,1.16,4,4,0,0,1,.28,1.49,6.52,6.52,0,0,1-.37,2.15,5.61,5.61,0,0,1-1.08,1.83,5.28,5.28,0,0,1-1.75,1.29,5.37,5.37,0,0,1-2.35.49,4,4,0,0,1-1.42-.26,3.74,3.74,0,0,1-1.16-.73,3.25,3.25,0,0,1-.78-1.15,3.82,3.82,0,0,1-.29-1.5,6.29,6.29,0,0,1,.44-2.37,5.37,5.37,0,0,1,1.21-1.82,5.44,5.44,0,0,1,1.77-1.18A5.52,5.52,0,0,1,2461.5,52.42Zm-1.6,8.1a3.32,3.32,0,0,0,1.53-.37,4,4,0,0,0,1.21-1,4.74,4.74,0,0,0,.78-1.37,4.61,4.61,0,0,0,.28-1.6,2.45,2.45,0,0,0-.66-1.76,2.42,2.42,0,0,0-1.84-.69,3.17,3.17,0,0,0-1.46.34,3.77,3.77,0,0,0-1.2.94,4.8,4.8,0,0,0-.82,1.37,4.62,4.62,0,0,0-.3,1.67,2.29,2.29,0,0,0,2.48,2.45Z" fill="#231f20"/><path d="M2474,56.23a3,3,0,0,0,.07-.42c0-.12,0-.23,0-.35a1.57,1.57,0,0,0-.51-1.29,2.21,2.21,0,0,0-1.43-.42,2.54,2.54,0,0,0-2,.87,4.7,4.7,0,0,0-1.06,2.22l-1,4.76h-1.41l1.91-8.93H2470l-.27,1.29h.21a2.72,2.72,0,0,1,1.18-1.17,3.33,3.33,0,0,1,1.54-.37,3.38,3.38,0,0,1,1.1.18A2.53,2.53,0,0,1,2475.3,54a3,3,0,0,1,.22,1.2,4.75,4.75,0,0,1-.1,1l-.87,4a.23.23,0,0,0,0,.22.24.24,0,0,0,.18.07.31.31,0,0,0,.2-.07l.75-.56.76,1.06-.7.52a1.94,1.94,0,0,1-1.21.42,2.24,2.24,0,0,1-.52-.06,1.35,1.35,0,0,1-.45-.22,1.24,1.24,0,0,1-.33-.41,1.41,1.41,0,0,1-.12-.63,2.73,2.73,0,0,1,.07-.57Z" fill="#231f20"/><path d="M2486.18,54.9l0-.16v-.16a.92.92,0,0,0-.19-.6.79.79,0,0,0-.61-.23,1,1,0,0,0-.82.36,2.25,2.25,0,0,0-.44,1l-1.39,6.48h-1.4l1.42-6.7a2.34,2.34,0,0,0,0-.38.86.86,0,0,0-.17-.55.73.73,0,0,0-.62-.22,1,1,0,0,0-.86.41,2.78,2.78,0,0,0-.42,1l-1.38,6.48H2478l1.89-8.93h1.41l-.17.75h.22a1.47,1.47,0,0,1,.61-.76,1.8,1.8,0,0,1,.92-.24,1.47,1.47,0,0,1,.91.27,1.18,1.18,0,0,1,.44.73h.22a1.87,1.87,0,0,1,.64-.74,1.71,1.71,0,0,1,1-.26,1.55,1.55,0,0,1,1.22.47,1.83,1.83,0,0,1,.41,1.25c0,.11,0,.23,0,.36l-.06.33-1.15,5.36a.2.2,0,0,0,0,.22.21.21,0,0,0,.18.07.28.28,0,0,0,.19-.07l.76-.56.76,1.06-.81.61a1.66,1.66,0,0,1-.5.24,2.08,2.08,0,0,1-.6.09,2.18,2.18,0,0,1-.52-.07,1.42,1.42,0,0,1-.46-.23,1.12,1.12,0,0,1-.34-.4,1.34,1.34,0,0,1-.12-.6,1.09,1.09,0,0,1,0-.18,1.1,1.1,0,0,1,0-.18Z" fill="#231f20"/><path d="M2490.64,57.56a2.88,2.88,0,0,0,0,.33c0,.12,0,.24,0,.38a2.28,2.28,0,0,0,.58,1.62,2.32,2.32,0,0,0,1.83.64,3.93,3.93,0,0,0,1.13-.14A2.69,2.69,0,0,0,2495,60a2.91,2.91,0,0,0,.62-.59,3.54,3.54,0,0,0,.45-.71l1.15.65a5.1,5.1,0,0,1-.63,1,4.14,4.14,0,0,1-2.11,1.34,5.73,5.73,0,0,1-1.56.2,4.16,4.16,0,0,1-1.49-.25,3.16,3.16,0,0,1-1.92-1.82,4,4,0,0,1-.27-1.51,6.71,6.71,0,0,1,.36-2.19,5.68,5.68,0,0,1,1.05-1.86,5,5,0,0,1,4-1.8,4.16,4.16,0,0,1,1.57.27,3.13,3.13,0,0,1,1.1.76,3.32,3.32,0,0,1,.65,1.08,3.77,3.77,0,0,1,.21,1.25,3.61,3.61,0,0,1-.11.94l-.19.84Zm3.77-3.81a3.44,3.44,0,0,0-1.18.19,3.31,3.31,0,0,0-1,.53,3.7,3.7,0,0,0-.78.8,3.9,3.9,0,0,0-.5,1h5.72a2.62,2.62,0,0,0,.06-.54,1.76,1.76,0,0,0-.67-1.48A2.7,2.7,0,0,0,2494.41,53.75Z" fill="#231f20"/><path d="M2507.08,56.23c0-.17.06-.31.07-.42s0-.23,0-.35a1.55,1.55,0,0,0-.52-1.29,2.2,2.2,0,0,0-1.43-.42,2.57,2.57,0,0,0-2,.87,4.8,4.8,0,0,0-1.06,2.22l-1,4.76h-1.4l1.91-8.93h1.4l-.27,1.29h.22a2.72,2.72,0,0,1,1.18-1.17,3.39,3.39,0,0,1,2.63-.19,2.58,2.58,0,0,1,1.53,1.44,3,3,0,0,1,.22,1.2,4.79,4.79,0,0,1-.11,1l-.86,4a.23.23,0,0,0,0,.22.24.24,0,0,0,.18.07.29.29,0,0,0,.2-.07l.76-.56.75,1.06-.7.52a1.91,1.91,0,0,1-1.2.42,2.33,2.33,0,0,1-.53-.06,1.57,1.57,0,0,1-.45-.22,1.11,1.11,0,0,1-.32-.41,1.41,1.41,0,0,1-.13-.63,2.85,2.85,0,0,1,.08-.57Z" fill="#231f20"/><path d="M2512.19,52.67h3.09l.83-3.93h1.41l-.83,3.93h3.17V54h-3.46L2515.12,60a.38.38,0,0,0,.05.34.29.29,0,0,0,.26.13.54.54,0,0,0,.27-.09l2.39-1.62.72,1.06-2.39,1.62a2.17,2.17,0,0,1-1.19.38,1.64,1.64,0,0,1-1.08-.38,1.39,1.39,0,0,1-.45-1.13,2.65,2.65,0,0,1,0-.27,2.56,2.56,0,0,1,.05-.27L2515,54h-2.81Z" fill="#231f20"/><path d="M2527.92,60.19a3.07,3.07,0,0,1-1.32,1.31,3.89,3.89,0,0,1-1.61.35,3.18,3.18,0,0,1-1.3-.26,2.82,2.82,0,0,1-1-.73,3.15,3.15,0,0,1-.61-1.13,4.41,4.41,0,0,1-.22-1.45,7.69,7.69,0,0,1,.32-2.19,6,6,0,0,1,.95-1.87,4.76,4.76,0,0,1,1.54-1.31,4.39,4.39,0,0,1,2.12-.49,2.83,2.83,0,0,1,1.57.42,2,2,0,0,1,.84,1.23h.22l.29-1.4h1.4l-1.58,7.41a.29.29,0,0,0,0,.25.28.28,0,0,0,.2.08.4.4,0,0,0,.25-.09l.65-.47.76,1.06-.81.61a1.55,1.55,0,0,1-.5.24,2,2,0,0,1-.6.09,2.25,2.25,0,0,1-.52-.07,1.53,1.53,0,0,1-.46-.23,1,1,0,0,1-.33-.4,1.21,1.21,0,0,1-.13-.6,1.09,1.09,0,0,1,0-.18.57.57,0,0,1,0-.18Zm-2.5.33a2.83,2.83,0,0,0,1.36-.34,3.45,3.45,0,0,0,1.11-.91,4.21,4.21,0,0,0,.75-1.35,5.24,5.24,0,0,0,.27-1.71,3,3,0,0,0-.5-1.79,1.83,1.83,0,0,0-1.57-.67,3,3,0,0,0-1.49.36,3.53,3.53,0,0,0-1.08,1,4.25,4.25,0,0,0-.68,1.4,5.88,5.88,0,0,0-.22,1.63,2.67,2.67,0,0,0,.52,1.8A1.9,1.9,0,0,0,2525.42,60.52Z" fill="#231f20"/><path d="M2538.16,50.54a.36.36,0,0,0,0-.33.35.35,0,0,0-.28-.12.48.48,0,0,0-.27.09l-2.11,1.44-.72-1.06,2.13-1.44a2,2,0,0,1,.59-.29,2.15,2.15,0,0,1,.61-.09,1.63,1.63,0,0,1,1,.36,1.33,1.33,0,0,1,.46,1.12,2.2,2.2,0,0,1-.07.58L2537.33,60a.38.38,0,0,0,.05.34.29.29,0,0,0,.26.13.54.54,0,0,0,.27-.09L2540,59l.72,1.07-2.07,1.4a2.19,2.19,0,0,1-1.21.38,1.67,1.67,0,0,1-1.05-.36,1.32,1.32,0,0,1-.46-1.12,2.62,2.62,0,0,1,.07-.57Z" fill="#231f20"/><path d="M2556.47,54.65h3.22l.66-3.12h1.34l-.67,3.12h3v1.29h-3.24l-.67,3.12h-1.33l.67-3.12h-3Z" fill="#231f20"/><path d="M2578.77,57.56a2.79,2.79,0,0,0-.06.33c0,.12,0,.24,0,.38a2.32,2.32,0,0,0,.57,1.62,2.36,2.36,0,0,0,1.84.64,3.86,3.86,0,0,0,1.12-.14,2.74,2.74,0,0,0,.86-.41,2.91,2.91,0,0,0,.62-.59,4,4,0,0,0,.44-.71l1.15.65a5.1,5.1,0,0,1-.63,1,4.09,4.09,0,0,1-.9.8,4.39,4.39,0,0,1-1.2.54,5.75,5.75,0,0,1-1.57.2,4.2,4.2,0,0,1-1.49-.25,3.34,3.34,0,0,1-1.16-.7,3.15,3.15,0,0,1-.75-1.12,4,4,0,0,1-.27-1.51,6.71,6.71,0,0,1,.36-2.19,5.84,5.84,0,0,1,1-1.86,5.23,5.23,0,0,1,1.69-1.31,5.16,5.16,0,0,1,2.29-.49,4.2,4.2,0,0,1,1.57.27,3,3,0,0,1,1.09.76,3.15,3.15,0,0,1,.65,1.08,3.54,3.54,0,0,1,.22,1.25,4.1,4.1,0,0,1-.11.94l-.2.84Zm3.76-3.81a3.52,3.52,0,0,0-1.18.19,3.31,3.31,0,0,0-1,.53,3.44,3.44,0,0,0-.77.8,3.63,3.63,0,0,0-.51,1h5.73a3.5,3.5,0,0,0,0-.54,1.75,1.75,0,0,0-.66-1.48A2.73,2.73,0,0,0,2582.53,53.75Z" fill="#231f20"/><path d="M2597,58.54a5.32,5.32,0,0,1-.65,1.28,4.36,4.36,0,0,1-1,1.06,5.09,5.09,0,0,1-1.44.71,6.15,6.15,0,0,1-1.84.26,4.44,4.44,0,0,1-1.54-.26,3.5,3.5,0,0,1-1.18-.75,3.36,3.36,0,0,1-.75-1.17,4.17,4.17,0,0,1-.27-1.53,6,6,0,0,1,.4-2.21,5.55,5.55,0,0,1,1.14-1.83,5.39,5.39,0,0,1,1.79-1.23,5.78,5.78,0,0,1,2.32-.45,4.36,4.36,0,0,1,1.49.23,3.29,3.29,0,0,1,1.14.66,2.88,2.88,0,0,1,.72,1,3.41,3.41,0,0,1,.25,1.29v.08s0,.1,0,.19l-1.44.22c0-.07,0-.13,0-.16V55.8a2.32,2.32,0,0,0-.14-.8,1.64,1.64,0,0,0-.43-.65,2.24,2.24,0,0,0-.76-.44,3.15,3.15,0,0,0-1.08-.16,3.5,3.5,0,0,0-1.56.34,3.93,3.93,0,0,0-1.24.93,4.18,4.18,0,0,0-.83,1.36,4.4,4.4,0,0,0-.3,1.62,2.4,2.4,0,0,0,.69,1.89,2.65,2.65,0,0,0,1.87.63,3.5,3.5,0,0,0,2.25-.75,3.11,3.11,0,0,0,.68-.77,3.69,3.69,0,0,0,.42-.9Z" fill="#231f20"/><path d="M2604.71,52.42a3.84,3.84,0,0,1,1.44.27,3.58,3.58,0,0,1,1.15.75,3.54,3.54,0,0,1,.76,1.16,3.8,3.8,0,0,1,.28,1.49,6.27,6.27,0,0,1-.37,2.15,5.28,5.28,0,0,1-1.08,1.83,5.14,5.14,0,0,1-1.74,1.29,5.4,5.4,0,0,1-2.35.49,3.9,3.9,0,0,1-1.42-.26,3.68,3.68,0,0,1-1.17-.73,3.25,3.25,0,0,1-.78-1.15,3.82,3.82,0,0,1-.29-1.5,6.29,6.29,0,0,1,.44-2.37,5.52,5.52,0,0,1,1.21-1.82,5.44,5.44,0,0,1,1.77-1.18A5.57,5.57,0,0,1,2604.71,52.42Zm-1.61,8.1a3.26,3.26,0,0,0,1.53-.37,4,4,0,0,0,1.21-1,4.52,4.52,0,0,0,.78-1.37,4.61,4.61,0,0,0,.28-1.6,2.45,2.45,0,0,0-.66-1.76,2.41,2.41,0,0,0-1.84-.69,3.2,3.2,0,0,0-1.46.34,4,4,0,0,0-1.2.94,4.8,4.8,0,0,0-.82,1.37,4.62,4.62,0,0,0-.3,1.67,2.41,2.41,0,0,0,.65,1.76A2.38,2.38,0,0,0,2603.1,60.52Z" fill="#231f20"/><path d="M2617.23,56.23a3,3,0,0,0,.07-.42,2.06,2.06,0,0,0,0-.35,1.57,1.57,0,0,0-.51-1.29,2.2,2.2,0,0,0-1.43-.42,2.56,2.56,0,0,0-2,.87,4.7,4.7,0,0,0-1.06,2.22l-1,4.76h-1.4l1.9-8.93h1.41L2613,54h.22a2.7,2.7,0,0,1,1.17-1.17,3.41,3.41,0,0,1,2.64-.19,2.7,2.7,0,0,1,.91.55,2.57,2.57,0,0,1,.61.89,3,3,0,0,1,.23,1.2,4.79,4.79,0,0,1-.11,1l-.87,4a.23.23,0,0,0,0,.22.24.24,0,0,0,.18.07.31.31,0,0,0,.2-.07l.75-.56.76,1.06-.7.52a1.91,1.91,0,0,1-1.21.42,2.24,2.24,0,0,1-.52-.06,1.35,1.35,0,0,1-.45-.22,1.11,1.11,0,0,1-.32-.41,1.28,1.28,0,0,1-.13-.63,3.63,3.63,0,0,1,.07-.57Z" fill="#231f20"/><path d="M2626.74,52.42a3.84,3.84,0,0,1,1.44.27,3.58,3.58,0,0,1,1.15.75,3.54,3.54,0,0,1,.76,1.16,3.8,3.8,0,0,1,.28,1.49,6.27,6.27,0,0,1-.37,2.15,5.28,5.28,0,0,1-1.08,1.83,5.14,5.14,0,0,1-1.74,1.29,5.4,5.4,0,0,1-2.35.49,3.9,3.9,0,0,1-1.42-.26,3.63,3.63,0,0,1-1.16-.73,3.27,3.27,0,0,1-.79-1.15,3.82,3.82,0,0,1-.29-1.5,6.1,6.1,0,0,1,.45-2.37,5.35,5.35,0,0,1,1.2-1.82,5.44,5.44,0,0,1,1.77-1.18A5.57,5.57,0,0,1,2626.74,52.42Zm-1.61,8.1a3.26,3.26,0,0,0,1.53-.37,4,4,0,0,0,1.21-1,4.32,4.32,0,0,0,.78-1.37,4.61,4.61,0,0,0,.28-1.6,2.48,2.48,0,0,0-.65-1.76,2.44,2.44,0,0,0-1.85-.69,3.2,3.2,0,0,0-1.46.34,3.84,3.84,0,0,0-1.19.94,4.66,4.66,0,0,0-1.13,3,2.45,2.45,0,0,0,.65,1.76A2.38,2.38,0,0,0,2625.13,60.52Z" fill="#231f20"/><path d="M2640.4,54.9a1,1,0,0,0,0-.16.81.81,0,0,0,0-.16.92.92,0,0,0-.19-.6.8.8,0,0,0-.62-.23,1,1,0,0,0-.82.36,2.5,2.5,0,0,0-.44,1L2637,61.6h-1.41l1.43-6.7a2.34,2.34,0,0,0,0-.38.92.92,0,0,0-.17-.55.73.73,0,0,0-.62-.22,1,1,0,0,0-.86.41,2.78,2.78,0,0,0-.42,1l-1.38,6.48h-1.39l1.89-8.93h1.4l-.16.75h.22a1.42,1.42,0,0,1,.61-.76,1.8,1.8,0,0,1,.92-.24,1.47,1.47,0,0,1,.91.27,1.18,1.18,0,0,1,.44.73h.21a2,2,0,0,1,.65-.74,1.7,1.7,0,0,1,1-.26,1.58,1.58,0,0,1,1.23.47,1.88,1.88,0,0,1,.41,1.25,2.3,2.3,0,0,1,0,.36,2.88,2.88,0,0,1,0,.33l-1.15,5.36a.23.23,0,0,0,0,.22.24.24,0,0,0,.18.07.29.29,0,0,0,.2-.07l.76-.56.75,1.06-.81.61a1.49,1.49,0,0,1-.49.24,2.08,2.08,0,0,1-.6.09,2.33,2.33,0,0,1-.53-.07,1.47,1.47,0,0,1-.45-.23,1.12,1.12,0,0,1-.34-.4,1.34,1.34,0,0,1-.12-.6v-.18l0-.18Z" fill="#231f20"/><path d="M2648,54.23a.41.41,0,0,0,0-.31.31.31,0,0,0-.28-.14.5.5,0,0,0-.27.08l-2.11,1.44-.72-1.07,2.13-1.44a2.1,2.1,0,0,1,1.2-.37,1.64,1.64,0,0,1,1.06.36,1.34,1.34,0,0,1,.45,1.11,2.3,2.3,0,0,1-.07.58L2648,60a.38.38,0,0,0,0,.34.32.32,0,0,0,.27.13.54.54,0,0,0,.27-.09l2.07-1.41.72,1.07-2.07,1.4a2.21,2.21,0,0,1-1.21.38,1.64,1.64,0,0,1-1.06-.36,1.34,1.34,0,0,1-.45-1.12,2.22,2.22,0,0,1,.07-.57Zm.29-4.23a1.26,1.26,0,0,1,2.52,0,1.26,1.26,0,0,1-2.52,0Z" fill="#231f20"/><path d="M2663,58.54a5.32,5.32,0,0,1-.65,1.28,4.31,4.31,0,0,1-1,1.06,5.37,5.37,0,0,1-1.44.71,6.22,6.22,0,0,1-1.85.26,4.48,4.48,0,0,1-1.54-.26,3.36,3.36,0,0,1-1.17-.75,3.25,3.25,0,0,1-.76-1.17,4.17,4.17,0,0,1-.27-1.53,6,6,0,0,1,.4-2.21,5.41,5.41,0,0,1,1.15-1.83,5.25,5.25,0,0,1,1.78-1.23,5.82,5.82,0,0,1,2.32-.45,4.46,4.46,0,0,1,1.5.23,3.24,3.24,0,0,1,1.13.66,2.88,2.88,0,0,1,.72,1,3.23,3.23,0,0,1,.25,1.29v.08a.84.84,0,0,1,0,.19l-1.44.22c0-.07,0-.13,0-.16V55.8a2.32,2.32,0,0,0-.13-.8,1.67,1.67,0,0,0-.44-.65,2.19,2.19,0,0,0-.75-.44,3.25,3.25,0,0,0-1.09-.16,3.56,3.56,0,0,0-1.56.34,4,4,0,0,0-1.24.93,4.39,4.39,0,0,0-1.12,3,2.4,2.4,0,0,0,.68,1.89,2.66,2.66,0,0,0,1.87.63,3.5,3.5,0,0,0,2.25-.75,2.75,2.75,0,0,0,.68-.77,3.36,3.36,0,0,0,.42-.9Z" fill="#231f20"/><path d="M2677.64,54.65h3.22l.67-3.12h1.33l-.67,3.12h3v1.29h-3.24l-.66,3.12h-1.34l.67-3.12h-3Z" fill="#231f20"/><path d="M2439.28,79.59a3.45,3.45,0,0,0-1.13-2.56,4.48,4.48,0,0,0-3.21-1.08,4.78,4.78,0,0,0-2.76.71,2.27,2.27,0,0,0-1,2,2.57,2.57,0,0,0,.25,1.13,2.31,2.31,0,0,0,.86.91,6.26,6.26,0,0,0,1.61.72,21.78,21.78,0,0,0,2.53.6,12.82,12.82,0,0,1,5.88,2.34,5.88,5.88,0,0,1,2,4.87v.42a7.51,7.51,0,0,1-.61,3.09,6.57,6.57,0,0,1-1.77,2.37,8.07,8.07,0,0,1-2.8,1.5,13.35,13.35,0,0,1-8-.16,8.44,8.44,0,0,1-3.06-1.89,7.92,7.92,0,0,1-1.86-2.83,9.78,9.78,0,0,1-.63-3.55v-1h4.62v.84a4.81,4.81,0,0,0,1.28,3.51,5.31,5.31,0,0,0,4,1.32,4.61,4.61,0,0,0,3.12-.91,2.81,2.81,0,0,0,1-2.17,3.12,3.12,0,0,0-.21-1.14,2.4,2.4,0,0,0-.73-1,5.05,5.05,0,0,0-1.44-.79,12.38,12.38,0,0,0-2.31-.59,23.36,23.36,0,0,1-3.39-.83,9.47,9.47,0,0,1-2.68-1.34,5.79,5.79,0,0,1-1.77-2.1,6.85,6.85,0,0,1-.63-3.08v-.21a6.34,6.34,0,0,1,.62-2.79,6.69,6.69,0,0,1,1.71-2.22,8,8,0,0,1,2.66-1.47,10.87,10.87,0,0,1,3.48-.52,11.15,11.15,0,0,1,3.85.61,8.32,8.32,0,0,1,2.82,1.66,7,7,0,0,1,1.72,2.42,7.35,7.35,0,0,1,.57,2.87v1.26h-4.62Z" fill="#231f20"/><path d="M2447.47,81.62q0-4.77,2.4-7.39a9.71,9.71,0,0,1,13.27,0q2.39,2.63,2.39,7.39v5.46c0,3.26-.8,5.75-2.39,7.45a9.88,9.88,0,0,1-13.27,0c-1.6-1.7-2.4-4.19-2.4-7.45Zm9,11.27a4.82,4.82,0,0,0,2.1-.41,3.52,3.52,0,0,0,1.37-1.13,4.6,4.6,0,0,0,.73-1.75,11.15,11.15,0,0,0,.21-2.24v-6a9.37,9.37,0,0,0-.24-2.17,4.91,4.91,0,0,0-.77-1.75,3.93,3.93,0,0,0-1.37-1.18,5,5,0,0,0-4.06,0,3.9,3.9,0,0,0-1.36,1.18,4.91,4.91,0,0,0-.77,1.75,9.36,9.36,0,0,0-.25,2.17v6a11.15,11.15,0,0,0,.21,2.24,4.61,4.61,0,0,0,.74,1.75,3.49,3.49,0,0,0,1.36,1.13A4.82,4.82,0,0,0,2456.5,92.89Z" fill="#231f20"/><path d="M2478,92.89a5.12,5.12,0,0,0,2.19-.41,3.27,3.27,0,0,0,1.33-1.08,4.13,4.13,0,0,0,.65-1.58,9.16,9.16,0,0,0,.17-1.83v-.63H2487V88c0,2.91-.76,5.16-2.29,6.73s-3.75,2.37-6.67,2.37a8.81,8.81,0,0,1-6.65-2.56c-1.63-1.7-2.45-4.19-2.45-7.45V81.62a13.18,13.18,0,0,1,.63-4.22,8.56,8.56,0,0,1,1.82-3.15,8,8,0,0,1,2.87-2,9.87,9.87,0,0,1,3.78-.68,10.91,10.91,0,0,1,3.85.63,7.39,7.39,0,0,1,2.82,1.82,7.75,7.75,0,0,1,1.72,2.87,11.72,11.72,0,0,1,.57,3.78v.63h-4.62v-.63a7.41,7.41,0,0,0-.21-1.75,4.52,4.52,0,0,0-.7-1.58,3.64,3.64,0,0,0-1.33-1.14,4.54,4.54,0,0,0-2.1-.43,4.26,4.26,0,0,0-2,.43,4.14,4.14,0,0,0-1.4,1.19,5.13,5.13,0,0,0-.82,1.75,8,8,0,0,0-.27,2.09v6.16a9.26,9.26,0,0,0,.25,2.18,4.93,4.93,0,0,0,.77,1.74,3.48,3.48,0,0,0,1.38,1.13A4.85,4.85,0,0,0,2478,92.89Z" fill="#231f20"/><path d="M2491.15,72.1h16.38v4.41h-5.88V92.19h5.88V96.6h-16.38V92.19H2497V76.51h-5.88Z" fill="#231f20"/><path d="M2524.93,91.35h-8.33l-1.19,5.25h-4.83l5.84-24.5h8.68L2531,96.6h-4.83Zm-7.35-4.41h6.33l-2.83-12.53h-.63Z" fill="#231f20"/><path d="M2534.34,72.1H2539V92.19h11.13V96.6h-15.75Z" fill="#231f20"/><path d="M1001.91,151.5l4.13,10h.84l4.13-10h5l-5,11.9V164l5,12h-5l-4.13-10.08H1006L1001.91,176h-5l5-12v-.63l-5-11.9Z" fill="#231f20"/><path d="M1031.2,161.48a3.19,3.19,0,0,1-.26,1.31,3,3,0,0,1-.72,1.05,3.49,3.49,0,0,1-1.06.7,3.15,3.15,0,0,1-1.28.26,3.11,3.11,0,0,1-1.3-.26,3.71,3.71,0,0,1-1-.7,3.09,3.09,0,0,1-.71-1.05,3.2,3.2,0,0,1-.27-1.31,3.17,3.17,0,0,1,.27-1.31,3.09,3.09,0,0,1,.71-1,3.51,3.51,0,0,1,1-.7,3.12,3.12,0,0,1,1.3-.27,3.16,3.16,0,0,1,1.28.27,3.32,3.32,0,0,1,1.06.7,3,3,0,0,1,.72,1A3.16,3.16,0,0,1,1031.2,161.48Zm0,11.69a3.23,3.23,0,0,1-.26,1.31,3,3,0,0,1-.72,1.05,3.49,3.49,0,0,1-1.06.7,3.15,3.15,0,0,1-1.28.26,3.11,3.11,0,0,1-1.3-.26,3.71,3.71,0,0,1-1-.7,3.09,3.09,0,0,1-.71-1.05,3.23,3.23,0,0,1-.27-1.31,3.17,3.17,0,0,1,.27-1.31,3.09,3.09,0,0,1,.71-1.05,3.51,3.51,0,0,1,1-.7,3.12,3.12,0,0,1,1.3-.27,3.16,3.16,0,0,1,1.28.27,3.32,3.32,0,0,1,1.06.7,3,3,0,0,1,.72,1.05A3.16,3.16,0,0,1,1031.2,173.17Z" fill="#231f20"/><path d="M1074.92,159a3.4,3.4,0,0,0-1.14-2.55,4.43,4.43,0,0,0-3.2-1.09,4.72,4.72,0,0,0-2.77.72,2.28,2.28,0,0,0-1,1.94,2.64,2.64,0,0,0,.24,1.14,2.38,2.38,0,0,0,.86.91,6.59,6.59,0,0,0,1.61.72,20.3,20.3,0,0,0,2.54.59,13,13,0,0,1,5.88,2.35,5.9,5.9,0,0,1,2,4.86V169a7.69,7.69,0,0,1-.61,3.1,6.53,6.53,0,0,1-1.77,2.36,8,8,0,0,1-2.8,1.51,12.23,12.23,0,0,1-3.71.52,12,12,0,0,1-4.25-.68,8.4,8.4,0,0,1-3.07-1.89,8,8,0,0,1-1.85-2.83,9.79,9.79,0,0,1-.63-3.56v-1.05h4.62v.84a4.79,4.79,0,0,0,1.28,3.52,5.29,5.29,0,0,0,4,1.31,4.51,4.51,0,0,0,3.11-.91,2.8,2.8,0,0,0,1-2.17,3.1,3.1,0,0,0-.21-1.13,2.37,2.37,0,0,0-.74-1,4.88,4.88,0,0,0-1.43-.79,12.73,12.73,0,0,0-2.31-.6,23.22,23.22,0,0,1-3.4-.82,9.43,9.43,0,0,1-2.67-1.35,5.79,5.79,0,0,1-1.77-2.1,6.82,6.82,0,0,1-.63-3.08V158a6.32,6.32,0,0,1,.61-2.78,6.72,6.72,0,0,1,1.72-2.22,7.86,7.86,0,0,1,2.66-1.47,10.78,10.78,0,0,1,3.48-.53,11.18,11.18,0,0,1,3.85.62,8.16,8.16,0,0,1,2.82,1.66,7,7,0,0,1,1.71,2.41,7.22,7.22,0,0,1,.58,2.87v1.26h-4.62Z" fill="#231f20"/><path d="M1084,151.5h16.38v4.41h-5.88v15.68h5.88V176H1084v-4.41h5.88V155.91H1084Z" fill="#231f20"/><path d="M1116.88,173.69h.63V151.5h4.62V176h-9l-2.87-22.19h-.63V176H1105V151.5h9Z" fill="#231f20"/><path d="M1133.37,163.61h10.5V176h-4.2v-2.73H1139a4.61,4.61,0,0,1-1.61,2.3,5.83,5.83,0,0,1-3.57.92,7.91,7.91,0,0,1-3.15-.63,7.09,7.09,0,0,1-2.56-1.87,9.13,9.13,0,0,1-1.71-3.08,13.19,13.19,0,0,1-.63-4.29v-5.74a12.15,12.15,0,0,1,.68-4.21,9,9,0,0,1,1.89-3.1,7.89,7.89,0,0,1,2.89-1.91A10.25,10.25,0,0,1,1135,151a9.56,9.56,0,0,1,3.74.69,8,8,0,0,1,4.55,4.72,10,10,0,0,1,.6,3.48v.42h-4.62v-.42a4.52,4.52,0,0,0-1.14-3.34,4.33,4.33,0,0,0-3.2-1.14,4.25,4.25,0,0,0-3.22,1.32c-.84.87-1.26,2.37-1.26,4.49v5.18q0,5.67,4.62,5.67a4.15,4.15,0,0,0,3.13-1.1,4.07,4.07,0,0,0,1.07-3h-5.88Z" fill="#231f20"/><path d="M1148.56,151.5h4.62v20.09h11.13V176h-15.75Z" fill="#231f20"/><path d="M1170,151.5h15.47v4.41H1174.6v5.6H1185v4.41H1174.6v5.67h11.27V176H1170Z" fill="#231f20"/><path d="M1210.79,151.5h4.76l4.79,22.19h.63l4.8-22.19h4.76L1225,176h-8.68Z" fill="#231f20"/><path d="M1246.28,159a3.4,3.4,0,0,0-1.14-2.55,4.43,4.43,0,0,0-3.2-1.09,4.72,4.72,0,0,0-2.77.72,2.28,2.28,0,0,0-1,1.94,2.64,2.64,0,0,0,.24,1.14,2.38,2.38,0,0,0,.86.91,6.59,6.59,0,0,0,1.61.72,20.3,20.3,0,0,0,2.54.59,13,13,0,0,1,5.88,2.35,5.9,5.9,0,0,1,2,4.86V169a7.69,7.69,0,0,1-.61,3.1,6.53,6.53,0,0,1-1.77,2.36,8,8,0,0,1-2.8,1.51,12.23,12.23,0,0,1-3.71.52,12,12,0,0,1-4.25-.68,8.4,8.4,0,0,1-3.07-1.89,8,8,0,0,1-1.85-2.83,9.79,9.79,0,0,1-.63-3.56v-1.05h4.62v.84a4.83,4.83,0,0,0,1.27,3.52,5.33,5.33,0,0,0,4,1.31,4.51,4.51,0,0,0,3.11-.91,2.8,2.8,0,0,0,1-2.17,3.1,3.1,0,0,0-.21-1.13,2.37,2.37,0,0,0-.74-1,4.88,4.88,0,0,0-1.43-.79,12.73,12.73,0,0,0-2.31-.6,23.22,23.22,0,0,1-3.4-.82,9.62,9.62,0,0,1-2.68-1.35,5.86,5.86,0,0,1-1.76-2.1,6.82,6.82,0,0,1-.63-3.08V158a6.32,6.32,0,0,1,.61-2.78,6.72,6.72,0,0,1,1.72-2.22,7.86,7.86,0,0,1,2.66-1.47,10.78,10.78,0,0,1,3.48-.53,11.18,11.18,0,0,1,3.85.62,8,8,0,0,1,2.81,1.66,6.86,6.86,0,0,1,1.72,2.41,7.22,7.22,0,0,1,.58,2.87v1.26h-4.62Z" fill="#231f20"/><path d="M1275,151.5h8.12l1.4,18.41v3.57h.84v-3.57l1.4-18.41h8.12V176h-4.2V159.62l.42-5.6h-.84l-1.82,22h-6.93l-1.89-22h-.84l.42,5.6V176H1275Z" fill="#231f20"/><path d="M1315.16,151.5v16a9.26,9.26,0,0,1-2.22,6.58q-2.24,2.38-6.6,2.38t-6.6-2.38a9.26,9.26,0,0,1-2.22-6.58v-16h4.62v16a5.22,5.22,0,0,0,1,3.4,4.77,4.77,0,0,0,6.37,0,5.17,5.17,0,0,0,1-3.4v-16Z" fill="#231f20"/><path d="M1319.92,151.5h4.62v20.09h11.13V176h-15.75Z" fill="#231f20"/><path d="M1340.36,151.5H1358v4.41h-6.51V176h-4.62V155.91h-6.51Z" fill="#231f20"/><path d="M1362.41,151.5h16.38v4.41h-5.88v15.68h5.88V176h-16.38v-4.41h5.88V155.91h-5.88Z" fill="#231f20"/><path d="M1388.45,166.76V176h-4.62V151.5h9.59a8.15,8.15,0,0,1,3.29.62,6.65,6.65,0,0,1,2.32,1.61,6.77,6.77,0,0,1,1.41,2.27,7.57,7.57,0,0,1,.47,2.61v.84a8,8,0,0,1-.47,2.68,7.18,7.18,0,0,1-1.41,2.34,6.76,6.76,0,0,1-2.32,1.66,8,8,0,0,1-3.29.63Zm0-4.41H1393a3.43,3.43,0,0,0,2.44-.84,2.86,2.86,0,0,0,.89-2.17v-.42a2.87,2.87,0,0,0-.89-2.17,3.43,3.43,0,0,0-2.44-.84h-4.51Z" fill="#231f20"/><path d="M1405.6,151.5h4.62v20.09h11.13V176H1405.6Z" fill="#231f20"/><path d="M1427,151.5h15.47v4.41h-10.85v5.6h10.43v4.41h-10.43v5.67h11.27V176H1427Z" fill="#231f20"/><path d="M1470.07,151.5h15.68v4.41h-11.06v5.6h10.85v4.41h-10.85V176h-4.62Z" fill="#231f20"/><path d="M1490.09,161q0-4.76,2.39-7.38a9.68,9.68,0,0,1,13.27,0q2.4,2.63,2.4,7.38v5.46q0,4.91-2.4,7.46a9.91,9.91,0,0,1-13.27,0q-2.38-2.55-2.39-7.46Zm9,11.27a4.83,4.83,0,0,0,2.1-.4,3.52,3.52,0,0,0,1.36-1.14,4.54,4.54,0,0,0,.74-1.75,11,11,0,0,0,.21-2.24v-6a9.42,9.42,0,0,0-.25-2.17,5,5,0,0,0-.77-1.75,3.77,3.77,0,0,0-1.36-1.17,4.9,4.9,0,0,0-4.06,0,3.8,3.8,0,0,0-1.37,1.17,5,5,0,0,0-.77,1.75,9.43,9.43,0,0,0-.24,2.17v6a11,11,0,0,0,.21,2.24,4.53,4.53,0,0,0,.73,1.75,3.55,3.55,0,0,0,1.37,1.14A4.83,4.83,0,0,0,1499.12,172.29Z" fill="#231f20"/><path d="M1520.61,172.29a5.12,5.12,0,0,0,2.18-.4,3.21,3.21,0,0,0,1.33-1.08,4.13,4.13,0,0,0,.65-1.58,9.26,9.26,0,0,0,.18-1.84v-.63h4.62v.63q0,4.38-2.3,6.74c-1.52,1.58-3.75,2.36-6.66,2.36a8.78,8.78,0,0,1-6.65-2.55c-1.64-1.7-2.45-4.19-2.45-7.46V161a13.11,13.11,0,0,1,.63-4.21,8.43,8.43,0,0,1,1.82-3.15,7.77,7.77,0,0,1,2.87-2,9.87,9.87,0,0,1,3.78-.69,11,11,0,0,1,3.85.63,7.39,7.39,0,0,1,2.81,1.82,7.83,7.83,0,0,1,1.72,2.87,11.72,11.72,0,0,1,.58,3.78v.63H1525v-.63a7.54,7.54,0,0,0-.21-1.75,4.66,4.66,0,0,0-.7-1.57,3.62,3.62,0,0,0-1.33-1.14,4.54,4.54,0,0,0-2.1-.44,4.31,4.31,0,0,0-2,.44,4,4,0,0,0-1.4,1.19,5,5,0,0,0-.82,1.75,8,8,0,0,0-.26,2.08v6.16a9.3,9.3,0,0,0,.24,2.19,4.88,4.88,0,0,0,.77,1.73,3.51,3.51,0,0,0,1.38,1.14A4.9,4.9,0,0,0,1520.61,172.29Z" fill="#231f20"/><path d="M1550.78,151.5v16a9.22,9.22,0,0,1-2.23,6.58q-2.22,2.38-6.59,2.38t-6.6-2.38a9.26,9.26,0,0,1-2.22-6.58v-16h4.62v16a5.16,5.16,0,0,0,1,3.4,4.77,4.77,0,0,0,6.37,0,5.17,5.17,0,0,0,1-3.4v-16Z" fill="#231f20"/><path d="M1567.58,159a3.4,3.4,0,0,0-1.14-2.55,4.43,4.43,0,0,0-3.2-1.09,4.72,4.72,0,0,0-2.77.72,2.25,2.25,0,0,0-1,1.94,2.64,2.64,0,0,0,.24,1.14,2.31,2.31,0,0,0,.86.91,6.42,6.42,0,0,0,1.61.72,19.88,19.88,0,0,0,2.54.59,13,13,0,0,1,5.88,2.35,5.9,5.9,0,0,1,2,4.86V169a7.53,7.53,0,0,1-.62,3.1,6.39,6.39,0,0,1-1.76,2.36,8,8,0,0,1-2.8,1.51,13.6,13.6,0,0,1-8-.16,8.44,8.44,0,0,1-3.06-1.89,7.9,7.9,0,0,1-1.85-2.83,9.79,9.79,0,0,1-.63-3.56v-1.05h4.62v.84a4.83,4.83,0,0,0,1.27,3.52,5.33,5.33,0,0,0,4,1.31,4.53,4.53,0,0,0,3.11-.91,2.8,2.8,0,0,0,1-2.17,3.1,3.1,0,0,0-.21-1.13,2.37,2.37,0,0,0-.74-1,4.88,4.88,0,0,0-1.43-.79,12.73,12.73,0,0,0-2.31-.6,23.22,23.22,0,0,1-3.4-.82,9.49,9.49,0,0,1-2.68-1.35,5.86,5.86,0,0,1-1.76-2.1,6.82,6.82,0,0,1-.63-3.08V158a6.32,6.32,0,0,1,.61-2.78,6.82,6.82,0,0,1,1.71-2.22,8.06,8.06,0,0,1,2.66-1.47,10.88,10.88,0,0,1,3.49-.53,11.18,11.18,0,0,1,3.85.62,8,8,0,0,1,2.81,1.66,7,7,0,0,1,1.72,2.41,7.4,7.4,0,0,1,.58,2.87v1.26h-4.62Z" fill="#231f20"/><path d="M1615.46,177.05v4.41H1614a15.93,15.93,0,0,1-4.92-.75,11.05,11.05,0,0,1-4.08-2.34,11.27,11.27,0,0,1-2.78-4.08,15.37,15.37,0,0,1-1-5.92v-9.24a15.35,15.35,0,0,1,1-5.91,11.19,11.19,0,0,1,2.78-4.08,11.05,11.05,0,0,1,4.08-2.34A15.64,15.64,0,0,1,1614,146h1.47v4.41h-1.26a11.18,11.18,0,0,0-3.36.49,6.91,6.91,0,0,0-2.68,1.58,7.5,7.5,0,0,0-1.79,2.78,11.6,11.6,0,0,0-.64,4.11v8.68a11.69,11.69,0,0,0,.64,4.12,7.59,7.59,0,0,0,1.79,2.78,6.77,6.77,0,0,0,2.68,1.57,10.87,10.87,0,0,0,3.36.49Z" fill="#231f20"/><path d="M1619.45,151.5h16.38v4.41H1630v15.68h5.88V176h-16.38v-4.41h5.88V155.91h-5.88Z" fill="#231f20"/><path d="M1639.12,151.5h8.12l1.4,18.41v3.57h.84v-3.57l1.4-18.41H1659V176h-4.2V159.62l.42-5.6h-.84l-1.82,22h-6.93l-1.89-22h-.84l.42,5.6V176h-4.2Z" fill="#231f20"/><path d="M1666.91,166.76V176h-4.62V151.5h9.59a8.15,8.15,0,0,1,3.29.62,6.72,6.72,0,0,1,3.72,3.88,7.35,7.35,0,0,1,.48,2.61v.84a7.77,7.77,0,0,1-.48,2.68,7,7,0,0,1-1.4,2.34,6.76,6.76,0,0,1-2.32,1.66,8,8,0,0,1-3.29.63Zm0-4.41h4.51a3.39,3.39,0,0,0,2.43-.84,2.83,2.83,0,0,0,.9-2.17v-.42a2.84,2.84,0,0,0-.9-2.17,3.39,3.39,0,0,0-2.43-.84h-4.51Z" fill="#231f20"/><path d="M1696.06,170.75h-8.33l-1.19,5.25h-4.83l5.85-24.5h8.68l5.84,24.5h-4.83Zm-7.35-4.41h6.34l-2.84-12.53h-.63Z" fill="#231f20"/><path d="M1713.39,172.29a5.12,5.12,0,0,0,2.18-.4,3.21,3.21,0,0,0,1.33-1.08,4.13,4.13,0,0,0,.65-1.58,9.26,9.26,0,0,0,.18-1.84v-.63h4.62v.63q0,4.38-2.3,6.74c-1.53,1.58-3.75,2.36-6.66,2.36a8.78,8.78,0,0,1-6.65-2.55c-1.64-1.7-2.45-4.19-2.45-7.46V161a13.11,13.11,0,0,1,.63-4.21,8.43,8.43,0,0,1,1.82-3.15,7.77,7.77,0,0,1,2.87-2,9.87,9.87,0,0,1,3.78-.69,11,11,0,0,1,3.85.63,7.39,7.39,0,0,1,2.81,1.82,7.83,7.83,0,0,1,1.72,2.87,11.72,11.72,0,0,1,.58,3.78v.63h-4.62v-.63a7.54,7.54,0,0,0-.21-1.75,4.66,4.66,0,0,0-.7-1.57,3.62,3.62,0,0,0-1.33-1.14,4.54,4.54,0,0,0-2.1-.44,4.31,4.31,0,0,0-2,.44,4,4,0,0,0-1.4,1.19,5,5,0,0,0-.82,1.75,8,8,0,0,0-.26,2.08v6.16a9.3,9.3,0,0,0,.24,2.19,4.88,4.88,0,0,0,.77,1.73,3.51,3.51,0,0,0,1.38,1.14A4.87,4.87,0,0,0,1713.39,172.29Z" fill="#231f20"/><path d="M1725.92,151.5h17.64v4.41h-6.51V176h-4.62V155.91h-6.51Z" fill="#231f20"/><path d="M1760.36,159a3.4,3.4,0,0,0-1.14-2.55,4.43,4.43,0,0,0-3.2-1.09,4.72,4.72,0,0,0-2.77.72,2.25,2.25,0,0,0-1,1.94,2.64,2.64,0,0,0,.24,1.14,2.31,2.31,0,0,0,.86.91,6.42,6.42,0,0,0,1.61.72,19.88,19.88,0,0,0,2.54.59,13,13,0,0,1,5.88,2.35,5.9,5.9,0,0,1,2,4.86V169a7.53,7.53,0,0,1-.62,3.1,6.5,6.5,0,0,1-1.76,2.36,8,8,0,0,1-2.8,1.51,13.6,13.6,0,0,1-8-.16,8.44,8.44,0,0,1-3.06-1.89,7.9,7.9,0,0,1-1.85-2.83,9.79,9.79,0,0,1-.63-3.56v-1.05h4.62v.84a4.83,4.83,0,0,0,1.27,3.52,5.32,5.32,0,0,0,4,1.31,4.53,4.53,0,0,0,3.11-.91,2.8,2.8,0,0,0,1-2.17,3.1,3.1,0,0,0-.21-1.13,2.37,2.37,0,0,0-.74-1,4.88,4.88,0,0,0-1.43-.79,12.73,12.73,0,0,0-2.31-.6,23.22,23.22,0,0,1-3.4-.82,9.49,9.49,0,0,1-2.68-1.35,5.86,5.86,0,0,1-1.76-2.1,6.82,6.82,0,0,1-.63-3.08V158a6.32,6.32,0,0,1,.61-2.78,6.82,6.82,0,0,1,1.71-2.22,8,8,0,0,1,2.66-1.47A10.88,10.88,0,0,1,1756,151a11.18,11.18,0,0,1,3.85.62,8.12,8.12,0,0,1,2.81,1.66,7,7,0,0,1,1.72,2.41,7.4,7.4,0,0,1,.58,2.87v1.26h-4.62Z" fill="#231f20"/><path d="M1769.6,177.05a11,11,0,0,0,3.36-.49,6.8,6.8,0,0,0,2.67-1.57,7.46,7.46,0,0,0,1.79-2.78,11.68,11.68,0,0,0,.65-4.12v-8.68a11.58,11.58,0,0,0-.65-4.11,7.38,7.38,0,0,0-1.79-2.78,6.94,6.94,0,0,0-2.67-1.58,11.27,11.27,0,0,0-3.36-.49h-1.26V146h1.47a15.62,15.62,0,0,1,4.91.76,10.76,10.76,0,0,1,6.86,6.42,15.34,15.34,0,0,1,1,5.91v9.24a15.36,15.36,0,0,1-1,5.92,10.76,10.76,0,0,1-6.86,6.42,15.91,15.91,0,0,1-4.91.75h-1.47v-4.41Z" fill="#231f20"/><line x1="319.61" y1="2.5" x2="319.61" y2="32.5" fill="none" stroke="#231f20" stroke-linecap="round" stroke-linejoin="round" stroke-width="5"/><line x1="1765.61" y1="3.25" x2="1765.61" y2="33.25" fill="none" stroke="#231f20" stroke-linecap="round" stroke-linejoin="round" stroke-width="5"/><line x1="1042.61" y1="3.5" x2="1042.61" y2="33.5" fill="none" stroke="#231f20" stroke-linecap="round" stroke-linejoin="round" stroke-width="5"/><line x1="2488.61" y1="3.25" x2="2488.61" y2="33.25" fill="none" stroke="#231f20" stroke-linecap="round" stroke-linejoin="round" stroke-width="5"/><line x1="2800.2" y1="2.75" x2="2.5" y2="2.75" fill="none" stroke="#231f20" stroke-linecap="round" stroke-linejoin="round" stroke-width="5"/></svg>