<svg width="151" height="753" viewBox="0 0 151 753" fill="none" xmlns="http://www.w3.org/2000/svg">
<path d="M13.9145 53.1604C13.9145 51.8164 12.9665 50.9524 11.5505 50.7484C11.0825 50.6764 10.6145 50.5924 10.1345 50.5324C9.49853 50.4484 8.86253 50.1004 8.86253 49.3324C8.86253 48.9484 8.99453 48.6604 9.21053 48.4084C9.58253 47.9884 10.1105 47.8204 10.7225 47.8204C11.3825 47.8204 11.8985 48.0364 12.2225 48.4084C12.4625 48.6844 12.6185 49.0564 12.6425 49.4764H13.7585C13.7345 48.7564 13.4585 48.1444 12.9425 47.6524C12.3785 47.1124 11.5625 46.8364 10.7345 46.8364C9.84653 46.8364 9.09053 47.1244 8.50253 47.6764C8.04653 48.1084 7.75853 48.7204 7.75853 49.3564C7.75853 50.7124 8.75453 51.4204 10.0265 51.6124L11.3705 51.8164C12.3785 51.9724 12.7985 52.5244 12.7985 53.1844C12.7985 53.6404 12.6305 53.9404 12.3665 54.1804C11.9825 54.5404 11.4305 54.6724 10.7825 54.6724C10.1825 54.6724 9.53453 54.5164 9.15053 54.1444C8.80253 53.8084 8.55053 53.3044 8.55053 52.8004H7.43453C7.43453 53.6044 7.80653 54.3364 8.34653 54.8404C8.92253 55.3684 9.75053 55.6564 10.7825 55.6564C11.6945 55.6564 12.6065 55.3804 13.1945 54.8044C13.6145 54.3964 13.9145 53.8684 13.9145 53.1604ZM20.5597 52.4644C20.5597 51.5044 20.3557 50.6284 19.6957 49.9804C19.2517 49.5484 18.6277 49.2724 17.8597 49.2724C17.0917 49.2724 16.4677 49.5484 16.0237 49.9804C15.3637 50.6284 15.1597 51.5044 15.1597 52.4644C15.1597 53.4244 15.3637 54.3004 16.0237 54.9484C16.4677 55.3804 17.0917 55.6564 17.8597 55.6564C18.6277 55.6564 19.2517 55.3804 19.6957 54.9484C20.3557 54.3004 20.5597 53.4244 20.5597 52.4644ZM19.5157 52.4644C19.5157 53.1724 19.3837 53.9044 18.9517 54.3484C18.6997 54.6004 18.3397 54.7804 17.8597 54.7804C17.3797 54.7804 17.0197 54.6004 16.7677 54.3484C16.3357 53.9044 16.2037 53.1724 16.2037 52.4644C16.2037 51.7564 16.3357 51.0244 16.7677 50.5804C17.0197 50.3284 17.3797 50.1484 17.8597 50.1484C18.3397 50.1484 18.6997 50.3284 18.9517 50.5804C19.3837 51.0244 19.5157 51.7564 19.5157 52.4644ZM27.0351 53.4604H26.0031C25.9551 53.8564 25.8111 54.1324 25.5951 54.3604C25.3551 54.6124 24.9831 54.7684 24.5631 54.7684C24.0951 54.7684 23.7711 54.6004 23.5071 54.3724C23.0271 53.9644 22.8951 53.2084 22.8951 52.4644C22.8951 51.7204 23.0271 50.9644 23.5071 50.5564C23.7711 50.3284 24.0951 50.1604 24.5631 50.1604C24.9591 50.1604 25.3071 50.3044 25.5471 50.5324C25.7751 50.7604 25.9311 51.0604 25.9791 51.4804H27.0111C26.9631 50.8204 26.6991 50.3164 26.2911 49.9204C25.8711 49.5124 25.2831 49.2724 24.5631 49.2724C23.4711 49.2724 22.7871 49.7764 22.3551 50.4124C22.0311 50.8924 21.8511 51.5524 21.8511 52.4644C21.8511 53.3764 22.0311 54.0364 22.3551 54.5164C22.7871 55.1524 23.4831 55.6564 24.5751 55.6564C25.3191 55.6564 25.8951 55.4164 26.3271 54.9964C26.7351 54.6004 26.9871 54.1084 27.0351 53.4604ZM29.8218 48.0364V46.8364H28.6338V48.0364H29.8218ZM29.7498 55.5004V49.4284H28.7058V55.5004H29.7498ZM36.9191 52.4644C36.9191 51.5044 36.7151 50.6284 36.0551 49.9804C35.6111 49.5484 34.9871 49.2724 34.2191 49.2724C33.4511 49.2724 32.8271 49.5484 32.3831 49.9804C31.7231 50.6284 31.5191 51.5044 31.5191 52.4644C31.5191 53.4244 31.7231 54.3004 32.3831 54.9484C32.8271 55.3804 33.4511 55.6564 34.2191 55.6564C34.9871 55.6564 35.6111 55.3804 36.0551 54.9484C36.7151 54.3004 36.9191 53.4244 36.9191 52.4644ZM35.8751 52.4644C35.8751 53.1724 35.7431 53.9044 35.3111 54.3484C35.0591 54.6004 34.6991 54.7804 34.2191 54.7804C33.7391 54.7804 33.3791 54.6004 33.1271 54.3484C32.6951 53.9044 32.5631 53.1724 32.5631 52.4644C32.5631 51.7564 32.6951 51.0244 33.1271 50.5804C33.3791 50.3284 33.7391 50.1484 34.2191 50.1484C34.6991 50.1484 35.0591 50.3284 35.3111 50.5804C35.7431 51.0244 35.8751 51.7564 35.8751 52.4644ZM41.9665 52.3564V51.4084H38.4025V52.3564H41.9665ZM48.0813 47.9884V46.9924H41.9373V47.9884H44.4693V55.5004H45.5493V47.9884H48.0813ZM53.1722 52.1884C53.1842 51.3724 52.8962 50.5924 52.4042 50.0524C51.9602 49.5724 51.3362 49.2724 50.5562 49.2724C49.5002 49.2724 48.6962 49.8124 48.2642 50.5444C47.9282 51.1084 47.7962 51.7564 47.7962 52.4884C47.7962 53.3524 48.0482 54.1564 48.5522 54.7444C49.0202 55.2964 49.7162 55.6564 50.5682 55.6564C51.1442 55.6564 51.6842 55.4884 52.1162 55.2004C52.6082 54.8644 52.9682 54.3004 53.0522 53.7004H52.0562C51.9722 54.0244 51.8642 54.1924 51.6962 54.3604C51.4442 54.6244 51.0482 54.7564 50.5682 54.7564C50.1002 54.7564 49.7282 54.6004 49.4522 54.3244C49.0802 53.9524 48.8642 53.3524 48.8642 52.8004H53.1602L53.1722 52.1884ZM52.1282 51.9244H48.8882C48.9122 51.0364 49.4522 50.1364 50.5562 50.1364C51.0962 50.1364 51.5042 50.3524 51.7562 50.6884C51.9962 51.0124 52.1282 51.4684 52.1282 51.9244ZM59.6015 53.4604H58.5695C58.5215 53.8564 58.3775 54.1324 58.1615 54.3604C57.9215 54.6124 57.5495 54.7684 57.1295 54.7684C56.6615 54.7684 56.3375 54.6004 56.0735 54.3724C55.5935 53.9644 55.4615 53.2084 55.4615 52.4644C55.4615 51.7204 55.5935 50.9644 56.0735 50.5564C56.3375 50.3284 56.6615 50.1604 57.1295 50.1604C57.5255 50.1604 57.8735 50.3044 58.1135 50.5324C58.3415 50.7604 58.4975 51.0604 58.5455 51.4804H59.5775C59.5295 50.8204 59.2655 50.3164 58.8575 49.9204C58.4375 49.5124 57.8495 49.2724 57.1295 49.2724C56.0375 49.2724 55.3535 49.7764 54.9215 50.4124C54.5975 50.8924 54.4175 51.5524 54.4175 52.4644C54.4175 53.3764 54.5975 54.0364 54.9215 54.5164C55.3535 55.1524 56.0495 55.6564 57.1415 55.6564C57.8855 55.6564 58.4615 55.4164 58.8935 54.9964C59.3015 54.6004 59.5535 54.1084 59.6015 53.4604ZM66.0982 55.5004V51.5044C66.0982 50.1004 65.3662 49.2724 63.9862 49.2724C63.3022 49.2724 62.5702 49.6084 62.2102 50.2324V46.8364H61.1902V55.5004H62.2102V52.6804C62.2102 52.2124 62.2222 51.5764 62.4262 51.1324C62.6902 50.5804 63.1582 50.1964 63.7462 50.1964C64.7062 50.1964 65.0782 50.7364 65.0782 51.6484V55.5004H66.0982ZM73.1412 55.5004V51.5044C73.1412 50.1004 72.4212 49.2724 71.0412 49.2724C70.3572 49.2724 69.5172 49.6444 69.2052 50.3404L69.1212 49.4284H68.2332V55.5004H69.2532V52.6804C69.2532 52.2124 69.2652 51.5764 69.4692 51.1324C69.7332 50.5804 70.2012 50.1964 70.7892 50.1964C71.7492 50.1964 72.1212 50.7364 72.1212 51.6484V55.5004H73.1412ZM76.3687 48.0364V46.8364H75.1807V48.0364H76.3687ZM76.2967 55.5004V49.4284H75.2527V55.5004H76.2967ZM83.25 53.4604H82.218C82.17 53.8564 82.026 54.1324 81.81 54.3604C81.57 54.6124 81.198 54.7684 80.778 54.7684C80.31 54.7684 79.986 54.6004 79.722 54.3724C79.242 53.9644 79.11 53.2084 79.11 52.4644C79.11 51.7204 79.242 50.9644 79.722 50.5564C79.986 50.3284 80.31 50.1604 80.778 50.1604C81.174 50.1604 81.522 50.3044 81.762 50.5324C81.99 50.7604 82.146 51.0604 82.194 51.4804H83.226C83.178 50.8204 82.914 50.3164 82.506 49.9204C82.086 49.5124 81.498 49.2724 80.778 49.2724C79.686 49.2724 79.002 49.7764 78.57 50.4124C78.246 50.8924 78.066 51.5524 78.066 52.4644C78.066 53.3764 78.246 54.0364 78.57 54.5164C79.002 55.1524 79.698 55.6564 80.79 55.6564C81.534 55.6564 82.11 55.4164 82.542 54.9964C82.95 54.6004 83.202 54.1084 83.25 53.4604ZM90.0087 55.4404V54.6844C90.0087 54.6844 89.8527 54.7204 89.7447 54.7204C89.5407 54.7204 89.4087 54.6364 89.4087 54.3124V51.3724C89.4087 51.0244 89.3487 50.7124 89.2287 50.4364C88.9407 49.7764 88.2687 49.2724 87.0927 49.2724C86.3487 49.2724 85.6287 49.4884 85.2207 49.9204C84.9087 50.2444 84.7047 50.6404 84.6927 51.1924H85.6887C85.6887 50.8924 85.7967 50.6524 85.9887 50.4604C86.1927 50.2564 86.5407 50.1004 87.0927 50.1004C87.5847 50.1004 87.8847 50.2204 88.0887 50.4124C88.3647 50.6644 88.4007 51.0364 88.4007 51.3364V51.7804L86.5527 51.8884C84.8967 51.9844 84.3927 53.0044 84.3927 53.7844C84.3927 54.7204 85.0887 55.6564 86.4807 55.6564C87.3327 55.6564 88.0887 55.2724 88.4367 54.6604H88.4607C88.4607 55.1764 88.7967 55.5844 89.3367 55.5844C89.5887 55.5844 89.7927 55.5484 90.0087 55.4404ZM88.4007 52.9324C88.4007 53.4364 88.2447 53.9404 87.8847 54.3124C87.5607 54.6484 87.1047 54.8044 86.6367 54.8044C85.7727 54.8044 85.4367 54.3004 85.4367 53.7604C85.4367 52.9924 86.1567 52.7044 86.7687 52.6684L88.4007 52.5724V52.9324ZM93.5798 55.5004V54.6364C93.5798 54.6364 93.4958 54.6484 93.1598 54.6484C92.7398 54.6484 92.6078 54.4324 92.6078 54.0244V46.8364H91.5878V54.0844C91.5878 55.0444 91.9718 55.5724 92.8598 55.5724C93.3518 55.5724 93.5798 55.5004 93.5798 55.5004ZM39.8795 69.5004V68.5044H35.7875V60.9924H34.7195V69.5004H39.8795ZM46.2509 69.4404V68.6844C46.2509 68.6844 46.0949 68.7204 45.9869 68.7204C45.7829 68.7204 45.6509 68.6364 45.6509 68.3124V65.3724C45.6509 65.0244 45.5909 64.7124 45.4709 64.4364C45.1829 63.7764 44.5109 63.2724 43.3349 63.2724C42.5909 63.2724 41.8709 63.4884 41.4629 63.9204C41.1509 64.2444 40.9469 64.6404 40.9349 65.1924H41.9309C41.9309 64.8924 42.0389 64.6524 42.2309 64.4604C42.4349 64.2564 42.7829 64.1004 43.3349 64.1004C43.8269 64.1004 44.1269 64.2204 44.3309 64.4124C44.6069 64.6644 44.6429 65.0364 44.6429 65.3364V65.7804L42.7949 65.8884C41.1389 65.9844 40.6349 67.0044 40.6349 67.7844C40.6349 68.7204 41.3309 69.6564 42.7229 69.6564C43.5749 69.6564 44.3309 69.2724 44.6789 68.6604H44.7029C44.7029 69.1764 45.0389 69.5844 45.5789 69.5844C45.8309 69.5844 46.0349 69.5484 46.2509 69.4404ZM44.6429 66.9324C44.6429 67.4364 44.4869 67.9404 44.1269 68.3124C43.8029 68.6484 43.3469 68.8044 42.8789 68.8044C42.0149 68.8044 41.6789 68.3004 41.6789 67.7604C41.6789 66.9924 42.3989 66.7044 43.0109 66.6684L44.6429 66.5724V66.9324ZM52.774 69.5004V65.5044C52.774 64.1004 52.054 63.2724 50.674 63.2724C49.99 63.2724 49.15 63.6444 48.838 64.3404L48.754 63.4284H47.866V69.5004H48.886V66.6804C48.886 66.2124 48.898 65.5764 49.102 65.1324C49.366 64.5804 49.834 64.1964 50.422 64.1964C51.382 64.1964 51.754 64.7364 51.754 65.6484V69.5004H52.774ZM59.7935 69.5004V60.8364H58.7735V64.1364C58.4495 63.5844 57.6695 63.2724 57.0095 63.2724C56.3015 63.2724 55.7375 63.5124 55.3415 63.8844C54.7295 64.4724 54.4175 65.4324 54.4175 66.4764C54.4175 67.4844 54.7175 68.4084 55.2935 68.9964C55.6895 69.4044 56.2655 69.6564 57.0095 69.6564C57.6935 69.6564 58.4735 69.3204 58.8215 68.7084L58.8935 69.5004H59.7935ZM58.8335 66.4644C58.8335 67.2204 58.6655 67.9524 58.1615 68.3964C57.9215 68.6124 57.6215 68.7924 57.1775 68.7924C55.8215 68.7924 55.4615 67.5804 55.4615 66.4644C55.4615 65.3484 55.8215 64.1364 57.1775 64.1364C57.6215 64.1364 57.9215 64.3164 58.1615 64.5324C58.6655 64.9764 58.8335 65.7084 58.8335 66.4644ZM66.5223 67.7364C66.5223 66.8244 65.8383 66.2004 64.9743 66.0564C64.3263 65.9484 63.8463 65.9004 63.5103 65.8524C63.0063 65.7804 62.6943 65.5644 62.6943 65.0604C62.6943 64.7244 62.9223 64.4004 63.3063 64.2444C63.5943 64.1244 63.7743 64.1244 64.0143 64.1244C64.4223 64.1244 64.7583 64.2204 65.0103 64.4484C65.1903 64.6044 65.3463 64.8924 65.3583 65.2044H66.3783C66.3783 64.7124 66.2103 64.3644 65.9463 64.0404C65.5383 63.5244 64.8183 63.2724 64.0143 63.2724C63.2583 63.2724 62.6223 63.5364 62.2263 63.9444C61.9503 64.2204 61.7223 64.6644 61.7223 65.1324C61.7223 66.0564 62.2983 66.6204 63.2103 66.7644L64.5783 66.9444C65.2023 67.0284 65.5263 67.3524 65.5263 67.8084C65.5263 68.0844 65.3943 68.3364 65.2263 68.4684C64.9143 68.7324 64.5303 68.8044 64.1103 68.8044C63.7263 68.8044 63.2943 68.7324 63.0183 68.5284C62.7303 68.3124 62.5383 68.0004 62.5263 67.5804H61.5063C61.5063 68.0964 61.7223 68.6124 62.0943 68.9724C62.6103 69.4764 63.3063 69.6564 64.0623 69.6564C64.8543 69.6564 65.5743 69.4524 66.0423 68.9724C66.3303 68.6724 66.5223 68.2644 66.5223 67.7364ZM72.9961 67.4604H71.9641C71.9161 67.8564 71.7721 68.1324 71.5561 68.3604C71.3161 68.6124 70.9441 68.7684 70.5241 68.7684C70.0561 68.7684 69.7321 68.6004 69.4681 68.3724C68.9881 67.9644 68.8561 67.2084 68.8561 66.4644C68.8561 65.7204 68.9881 64.9644 69.4681 64.5564C69.7321 64.3284 70.0561 64.1604 70.5241 64.1604C70.9201 64.1604 71.2681 64.3044 71.5081 64.5324C71.7361 64.7604 71.8921 65.0604 71.9401 65.4804H72.9721C72.9241 64.8204 72.6601 64.3164 72.2521 63.9204C71.8321 63.5124 71.2441 63.2724 70.5241 63.2724C69.4321 63.2724 68.7481 63.7764 68.3161 64.4124C67.9921 64.8924 67.8121 65.5524 67.8121 66.4644C67.8121 67.3764 67.9921 68.0364 68.3161 68.5164C68.7481 69.1524 69.4441 69.6564 70.5361 69.6564C71.2801 69.6564 71.8561 69.4164 72.2881 68.9964C72.6961 68.6004 72.9481 68.1084 72.9961 67.4604ZM79.7548 69.4404V68.6844C79.7548 68.6844 79.5988 68.7204 79.4908 68.7204C79.2868 68.7204 79.1548 68.6364 79.1548 68.3124V65.3724C79.1548 65.0244 79.0948 64.7124 78.9748 64.4364C78.6868 63.7764 78.0148 63.2724 76.8388 63.2724C76.0948 63.2724 75.3748 63.4884 74.9668 63.9204C74.6548 64.2444 74.4508 64.6404 74.4388 65.1924H75.4348C75.4348 64.8924 75.5428 64.6524 75.7348 64.4604C75.9388 64.2564 76.2868 64.1004 76.8388 64.1004C77.3308 64.1004 77.6308 64.2204 77.8348 64.4124C78.1108 64.6644 78.1468 65.0364 78.1468 65.3364V65.7804L76.2988 65.8884C74.6428 65.9844 74.1388 67.0044 74.1388 67.7844C74.1388 68.7204 74.8348 69.6564 76.2268 69.6564C77.0788 69.6564 77.8348 69.2724 78.1828 68.6604H78.2068C78.2068 69.1764 78.5428 69.5844 79.0828 69.5844C79.3348 69.5844 79.5388 69.5484 79.7548 69.4404ZM78.1468 66.9324C78.1468 67.4364 77.9908 67.9404 77.6308 68.3124C77.3068 68.6484 76.8508 68.8044 76.3828 68.8044C75.5188 68.8044 75.1828 68.3004 75.1828 67.7604C75.1828 66.9924 75.9028 66.7044 76.5148 66.6684L78.1468 66.5724V66.9324ZM86.7459 66.4644C86.7459 65.4564 86.4459 64.5324 85.8699 63.9444C85.4739 63.5364 84.8979 63.2844 84.1539 63.2844C83.4699 63.2844 82.6899 63.6204 82.3419 64.2324L82.2699 63.4404H81.3699V72.1044H82.3899V68.8044C82.7139 69.3564 83.4939 69.6684 84.1539 69.6684C84.8619 69.6684 85.4259 69.4284 85.8219 69.0564C86.4339 68.4684 86.7459 67.5084 86.7459 66.4644ZM85.7019 66.4764C85.7019 67.5924 85.3419 68.8044 83.9859 68.8044C83.5419 68.8044 83.2419 68.6244 83.0019 68.4084C82.4979 67.9644 82.3299 67.2324 82.3299 66.4764C82.3299 65.7204 82.4979 64.9884 83.0019 64.5444C83.2419 64.3284 83.5419 64.1484 83.9859 64.1484C85.3419 64.1484 85.7019 65.3604 85.7019 66.4764ZM93.4026 66.1884C93.4146 65.3724 93.1266 64.5924 92.6346 64.0524C92.1906 63.5724 91.5666 63.2724 90.7866 63.2724C89.7306 63.2724 88.9266 63.8124 88.4946 64.5444C88.1586 65.1084 88.0266 65.7564 88.0266 66.4884C88.0266 67.3524 88.2786 68.1564 88.7826 68.7444C89.2506 69.2964 89.9466 69.6564 90.7986 69.6564C91.3746 69.6564 91.9146 69.4884 92.3466 69.2004C92.8386 68.8644 93.1986 68.3004 93.2826 67.7004H92.2866C92.2026 68.0244 92.0946 68.1924 91.9266 68.3604C91.6746 68.6244 91.2786 68.7564 90.7986 68.7564C90.3306 68.7564 89.9586 68.6004 89.6826 68.3244C89.3106 67.9524 89.0946 67.3524 89.0946 66.8004H93.3906L93.4026 66.1884ZM92.3586 65.9244H89.1186C89.1426 65.0364 89.6826 64.1364 90.7866 64.1364C91.3266 64.1364 91.7346 64.3524 91.9866 64.6884C92.2266 65.0124 92.3586 65.4684 92.3586 65.9244Z" fill="black"/>
<path d="M51.8853 446.42V437.912H50.8533V444.776L46.6773 437.912H45.4773V446.42H46.5093V439.58L50.6853 446.42H51.8853ZM59.1018 443.108C59.1138 442.292 58.8258 441.512 58.3338 440.972C57.8898 440.492 57.2658 440.192 56.4858 440.192C55.4298 440.192 54.6258 440.732 54.1938 441.464C53.8578 442.028 53.7258 442.676 53.7258 443.408C53.7258 444.272 53.9778 445.076 54.4818 445.664C54.9498 446.216 55.6458 446.576 56.4978 446.576C57.0738 446.576 57.6138 446.408 58.0458 446.12C58.5378 445.784 58.8978 445.22 58.9818 444.62H57.9858C57.9018 444.944 57.7938 445.112 57.6258 445.28C57.3738 445.544 56.9778 445.676 56.4978 445.676C56.0298 445.676 55.6578 445.52 55.3818 445.244C55.0098 444.872 54.7938 444.272 54.7938 443.72H59.0898L59.1018 443.108ZM58.0578 442.844H54.8178C54.8418 441.956 55.3818 441.056 56.4858 441.056C57.0258 441.056 57.4338 441.272 57.6858 441.608C57.9258 441.932 58.0578 442.388 58.0578 442.844ZM63.9006 446.336V445.46C63.9006 445.46 63.2886 445.568 62.8566 445.568C62.2926 445.568 62.0406 445.328 62.0406 444.74V441.224H63.8406V440.348H62.0406V438.56L61.0206 438.8V440.348H59.8446V441.224H61.0206V444.86C61.0206 445.676 61.3806 446.504 62.6886 446.504C63.2526 446.504 63.6246 446.408 63.9006 446.336ZM73.0058 440.348H72.0098L70.8338 444.932L69.3098 440.42H68.4338L66.8858 444.932L65.7218 440.348H64.7138L66.2738 446.42H67.2458L68.8658 441.776L70.4498 446.42H71.4338L73.0058 440.348ZM79.4464 443.384C79.4464 442.424 79.2424 441.548 78.5824 440.9C78.1384 440.468 77.5144 440.192 76.7464 440.192C75.9784 440.192 75.3544 440.468 74.9104 440.9C74.2504 441.548 74.0464 442.424 74.0464 443.384C74.0464 444.344 74.2504 445.22 74.9104 445.868C75.3544 446.3 75.9784 446.576 76.7464 446.576C77.5144 446.576 78.1384 446.3 78.5824 445.868C79.2424 445.22 79.4464 444.344 79.4464 443.384ZM78.4024 443.384C78.4024 444.092 78.2704 444.824 77.8384 445.268C77.5864 445.52 77.2264 445.7 76.7464 445.7C76.2664 445.7 75.9064 445.52 75.6544 445.268C75.2224 444.824 75.0904 444.092 75.0904 443.384C75.0904 442.676 75.2224 441.944 75.6544 441.5C75.9064 441.248 76.2664 441.068 76.7464 441.068C77.2264 441.068 77.5864 441.248 77.8384 441.5C78.2704 441.944 78.4024 442.676 78.4024 443.384ZM84.4818 441.344V440.348C84.3258 440.324 84.1578 440.312 84.0018 440.312C83.2338 440.312 82.5018 440.672 82.1898 441.416L82.1058 440.348H81.2058V446.42H82.2138V443.72C82.2138 443.084 82.2738 442.244 82.7658 441.776C83.0418 441.512 83.4378 441.296 83.9178 441.296C84.0978 441.296 84.3018 441.308 84.4818 441.344ZM91.0433 446.42L88.6553 442.748L90.8153 440.348H89.5793L86.8313 443.408V437.756H85.8113V446.42H86.8313V444.788L87.9953 443.492L89.8913 446.42H91.0433ZM29.0498 460.42V451.912H27.9578V460.42H29.0498ZM36.274 460.42V456.424C36.274 455.02 35.554 454.192 34.174 454.192C33.49 454.192 32.65 454.564 32.338 455.26L32.254 454.348H31.366V460.42H32.386V457.6C32.386 457.132 32.398 456.496 32.602 456.052C32.866 455.5 33.334 455.116 33.922 455.116C34.882 455.116 35.254 455.656 35.254 456.568V460.42H36.274ZM41.5295 460.336V459.46C41.5295 459.46 40.9175 459.568 40.4855 459.568C39.9215 459.568 39.6695 459.328 39.6695 458.74V455.224H41.4695V454.348H39.6695V452.56L38.6495 452.8V454.348H37.4735V455.224H38.6495V458.86C38.6495 459.676 39.0095 460.504 40.3175 460.504C40.8815 460.504 41.2535 460.408 41.5295 460.336ZM47.7815 457.108C47.7935 456.292 47.5055 455.512 47.0135 454.972C46.5695 454.492 45.9455 454.192 45.1655 454.192C44.1095 454.192 43.3055 454.732 42.8735 455.464C42.5375 456.028 42.4055 456.676 42.4055 457.408C42.4055 458.272 42.6575 459.076 43.1615 459.664C43.6295 460.216 44.3255 460.576 45.1775 460.576C45.7535 460.576 46.2935 460.408 46.7255 460.12C47.2175 459.784 47.5775 459.22 47.6615 458.62H46.6655C46.5815 458.944 46.4735 459.112 46.3055 459.28C46.0535 459.544 45.6575 459.676 45.1775 459.676C44.7095 459.676 44.3375 459.52 44.0615 459.244C43.6895 458.872 43.4735 458.272 43.4735 457.72H47.7695L47.7815 457.108ZM46.7375 456.844H43.4975C43.5215 455.956 44.0615 455.056 45.1655 455.056C45.7055 455.056 46.1135 455.272 46.3655 455.608C46.6055 455.932 46.7375 456.388 46.7375 456.844ZM52.7709 455.344V454.348C52.6149 454.324 52.4469 454.312 52.2909 454.312C51.5229 454.312 50.7909 454.672 50.4789 455.416L50.3949 454.348H49.4949V460.42H50.5029V457.72C50.5029 457.084 50.5629 456.244 51.0549 455.776C51.3309 455.512 51.7269 455.296 52.2069 455.296C52.3869 455.296 52.5909 455.308 52.7709 455.344ZM58.6724 454.348H57.6404L55.9484 459.22L54.1964 454.348H53.1284L55.3724 460.42H56.4764L58.6724 454.348ZM64.7737 457.108C64.7857 456.292 64.4977 455.512 64.0057 454.972C63.5617 454.492 62.9377 454.192 62.1577 454.192C61.1017 454.192 60.2977 454.732 59.8657 455.464C59.5297 456.028 59.3977 456.676 59.3977 457.408C59.3977 458.272 59.6497 459.076 60.1537 459.664C60.6217 460.216 61.3177 460.576 62.1697 460.576C62.7457 460.576 63.2857 460.408 63.7177 460.12C64.2097 459.784 64.5697 459.22 64.6537 458.62H63.6577C63.5737 458.944 63.4657 459.112 63.2977 459.28C63.0457 459.544 62.6497 459.676 62.1697 459.676C61.7017 459.676 61.3297 459.52 61.0537 459.244C60.6817 458.872 60.4657 458.272 60.4657 457.72H64.7617L64.7737 457.108ZM63.7297 456.844H60.4897C60.5137 455.956 61.0537 455.056 62.1577 455.056C62.6977 455.056 63.1057 455.272 63.3577 455.608C63.5977 455.932 63.7297 456.388 63.7297 456.844ZM71.3951 460.42V456.424C71.3951 455.02 70.6751 454.192 69.2951 454.192C68.6111 454.192 67.7711 454.564 67.4591 455.26L67.3751 454.348H66.4871V460.42H67.5071V457.6C67.5071 457.132 67.5191 456.496 67.7231 456.052C67.9871 455.5 68.4551 455.116 69.0431 455.116C70.0031 455.116 70.3751 455.656 70.3751 456.568V460.42H71.3951ZM76.6506 460.336V459.46C76.6506 459.46 76.0386 459.568 75.6066 459.568C75.0426 459.568 74.7906 459.328 74.7906 458.74V455.224H76.5906V454.348H74.7906V452.56L73.7706 452.8V454.348H72.5946V455.224H73.7706V458.86C73.7706 459.676 74.1306 460.504 75.4386 460.504C76.0026 460.504 76.3746 460.408 76.6506 460.336ZM79.2398 452.956V451.756H78.0518V452.956H79.2398ZM79.1678 460.42V454.348H78.1238V460.42H79.1678ZM86.3371 457.384C86.3371 456.424 86.1331 455.548 85.4731 454.9C85.0291 454.468 84.4051 454.192 83.6371 454.192C82.8691 454.192 82.2451 454.468 81.8011 454.9C81.1411 455.548 80.9371 456.424 80.9371 457.384C80.9371 458.344 81.1411 459.22 81.8011 459.868C82.2451 460.3 82.8691 460.576 83.6371 460.576C84.4051 460.576 85.0291 460.3 85.4731 459.868C86.1331 459.22 86.3371 458.344 86.3371 457.384ZM85.2931 457.384C85.2931 458.092 85.1611 458.824 84.7291 459.268C84.4771 459.52 84.1171 459.7 83.6371 459.7C83.1571 459.7 82.7971 459.52 82.5451 459.268C82.1131 458.824 81.9811 458.092 81.9811 457.384C81.9811 456.676 82.1131 455.944 82.5451 455.5C82.7971 455.248 83.1571 455.068 83.6371 455.068C84.1171 455.068 84.4771 455.248 84.7291 455.5C85.1611 455.944 85.2931 456.676 85.2931 457.384ZM93.0045 460.42V456.424C93.0045 455.02 92.2845 454.192 90.9045 454.192C90.2205 454.192 89.3805 454.564 89.0685 455.26L88.9845 454.348H88.0965V460.42H89.1165V457.6C89.1165 457.132 89.1285 456.496 89.3325 456.052C89.5965 455.5 90.0645 455.116 90.6525 455.116C91.6125 455.116 91.9845 455.656 91.9845 456.568V460.42H93.0045Z" fill="black"/>
<path d="M8.53769 723.908V715.4H7.50569V722.264L3.32969 715.4H2.12969V723.908H3.16169V717.068L7.33769 723.908H8.53769ZM11.9742 716.444V715.244H10.7862V716.444H11.9742ZM11.9022 723.908V717.836H10.8582V723.908H11.9022ZM18.8554 721.868H17.8234C17.7754 722.264 17.6314 722.54 17.4154 722.768C17.1754 723.02 16.8034 723.176 16.3834 723.176C15.9154 723.176 15.5914 723.008 15.3274 722.78C14.8474 722.372 14.7154 721.616 14.7154 720.872C14.7154 720.128 14.8474 719.372 15.3274 718.964C15.5914 718.736 15.9154 718.568 16.3834 718.568C16.7794 718.568 17.1274 718.712 17.3674 718.94C17.5954 719.168 17.7514 719.468 17.7994 719.888H18.8314C18.7834 719.228 18.5194 718.724 18.1114 718.328C17.6914 717.92 17.1034 717.68 16.3834 717.68C15.2914 717.68 14.6074 718.184 14.1754 718.82C13.8514 719.3 13.6714 719.96 13.6714 720.872C13.6714 721.784 13.8514 722.444 14.1754 722.924C14.6074 723.56 15.3034 724.064 16.3954 724.064C17.1394 724.064 17.7154 723.824 18.1474 723.404C18.5554 723.008 18.8074 722.516 18.8554 721.868ZM25.3521 723.908V719.912C25.3521 718.508 24.6201 717.68 23.2401 717.68C22.5561 717.68 21.8241 718.016 21.4641 718.64V715.244H20.4441V723.908H21.4641V721.088C21.4641 720.62 21.4761 719.984 21.6801 719.54C21.9441 718.988 22.4121 718.604 23.0001 718.604C23.9601 718.604 24.3321 719.144 24.3321 720.056V723.908H25.3521ZM32.3831 720.596C32.3951 719.78 32.1071 719 31.6151 718.46C31.1711 717.98 30.5471 717.68 29.7671 717.68C28.7111 717.68 27.9071 718.22 27.4751 718.952C27.1391 719.516 27.0071 720.164 27.0071 720.896C27.0071 721.76 27.2591 722.564 27.7631 723.152C28.2311 723.704 28.9271 724.064 29.7791 724.064C30.3551 724.064 30.8951 723.896 31.3271 723.608C31.8191 723.272 32.1791 722.708 32.2631 722.108H31.2671C31.1831 722.432 31.0751 722.6 30.9071 722.768C30.6551 723.032 30.2591 723.164 29.7791 723.164C29.3111 723.164 28.9391 723.008 28.6631 722.732C28.2911 722.36 28.0751 721.76 28.0751 721.208H32.3711L32.3831 720.596ZM31.3391 720.332H28.0991C28.1231 719.444 28.6631 718.544 29.7671 718.544C30.3071 718.544 30.7151 718.76 30.9671 719.096C31.2071 719.42 31.3391 719.876 31.3391 720.332ZM38.0381 723.908V715.4H36.9461V723.908H38.0381ZM45.2623 723.908V719.912C45.2623 718.508 44.5423 717.68 43.1623 717.68C42.4783 717.68 41.6383 718.052 41.3263 718.748L41.2423 717.836H40.3543V723.908H41.3743V721.088C41.3743 720.62 41.3863 719.984 41.5903 719.54C41.8543 718.988 42.3223 718.604 42.9103 718.604C43.8703 718.604 44.2423 719.144 44.2423 720.056V723.908H45.2623ZM52.2818 723.908V719.912C52.2818 718.508 51.5618 717.68 50.1818 717.68C49.4978 717.68 48.6578 718.052 48.3458 718.748L48.2618 717.836H47.3738V723.908H48.3938V721.088C48.3938 720.62 48.4058 719.984 48.6098 719.54C48.8738 718.988 49.3418 718.604 49.9298 718.604C50.8898 718.604 51.2618 719.144 51.2618 720.056V723.908H52.2818ZM59.3253 720.872C59.3253 719.912 59.1213 719.036 58.4613 718.388C58.0173 717.956 57.3933 717.68 56.6253 717.68C55.8573 717.68 55.2333 717.956 54.7893 718.388C54.1293 719.036 53.9253 719.912 53.9253 720.872C53.9253 721.832 54.1293 722.708 54.7893 723.356C55.2333 723.788 55.8573 724.064 56.6253 724.064C57.3933 724.064 58.0173 723.788 58.4613 723.356C59.1213 722.708 59.3253 721.832 59.3253 720.872ZM58.2813 720.872C58.2813 721.58 58.1493 722.312 57.7173 722.756C57.4653 723.008 57.1053 723.188 56.6253 723.188C56.1453 723.188 55.7853 723.008 55.5333 722.756C55.1013 722.312 54.9693 721.58 54.9693 720.872C54.9693 720.164 55.1013 719.432 55.5333 718.988C55.7853 718.736 56.1453 718.556 56.6253 718.556C57.1053 718.556 57.4653 718.736 57.7173 718.988C58.1493 719.432 58.2813 720.164 58.2813 720.872ZM65.5982 717.836H64.5662L62.8742 722.708L61.1222 717.836H60.0542L62.2982 723.908H63.4022L65.5982 717.836ZM71.9501 723.848V723.092C71.9501 723.092 71.7941 723.128 71.6861 723.128C71.4821 723.128 71.3501 723.044 71.3501 722.72V719.78C71.3501 719.432 71.2901 719.12 71.1701 718.844C70.8821 718.184 70.2101 717.68 69.0341 717.68C68.2901 717.68 67.5701 717.896 67.1621 718.328C66.8501 718.652 66.6461 719.048 66.6341 719.6H67.6301C67.6301 719.3 67.7381 719.06 67.9301 718.868C68.1341 718.664 68.4821 718.508 69.0341 718.508C69.5261 718.508 69.8261 718.628 70.0301 718.82C70.3061 719.072 70.3421 719.444 70.3421 719.744V720.188L68.4941 720.296C66.8381 720.392 66.3341 721.412 66.3341 722.192C66.3341 723.128 67.0301 724.064 68.4221 724.064C69.2741 724.064 70.0301 723.68 70.3781 723.068H70.4021C70.4021 723.584 70.7381 723.992 71.2781 723.992C71.5301 723.992 71.7341 723.956 71.9501 723.848ZM70.3421 721.34C70.3421 721.844 70.1861 722.348 69.8261 722.72C69.5021 723.056 69.0461 723.212 68.5781 723.212C67.7141 723.212 67.3781 722.708 67.3781 722.168C67.3781 721.4 68.0981 721.112 68.7101 721.076L70.3421 720.98V721.34ZM76.6506 723.824V722.948C76.6506 722.948 76.0386 723.056 75.6066 723.056C75.0426 723.056 74.7906 722.816 74.7906 722.228V718.712H76.5906V717.836H74.7906V716.048L73.7706 716.288V717.836H72.5946V718.712H73.7706V722.348C73.7706 723.164 74.1306 723.992 75.4386 723.992C76.0026 723.992 76.3746 723.896 76.6506 723.824ZM79.2398 716.444V715.244H78.0518V716.444H79.2398ZM79.1678 723.908V717.836H78.1238V723.908H79.1678ZM86.3371 720.872C86.3371 719.912 86.1331 719.036 85.4731 718.388C85.0291 717.956 84.4051 717.68 83.6371 717.68C82.8691 717.68 82.2451 717.956 81.8011 718.388C81.1411 719.036 80.9371 719.912 80.9371 720.872C80.9371 721.832 81.1411 722.708 81.8011 723.356C82.2451 723.788 82.8691 724.064 83.6371 724.064C84.4051 724.064 85.0291 723.788 85.4731 723.356C86.1331 722.708 86.3371 721.832 86.3371 720.872ZM85.2931 720.872C85.2931 721.58 85.1611 722.312 84.7291 722.756C84.4771 723.008 84.1171 723.188 83.6371 723.188C83.1571 723.188 82.7971 723.008 82.5451 722.756C82.1131 722.312 81.9811 721.58 81.9811 720.872C81.9811 720.164 82.1131 719.432 82.5451 718.988C82.7971 718.736 83.1571 718.556 83.6371 718.556C84.1171 718.556 84.4771 718.736 84.7291 718.988C85.1611 719.432 85.2931 720.164 85.2931 720.872ZM93.0045 723.908V719.912C93.0045 718.508 92.2845 717.68 90.9045 717.68C90.2205 717.68 89.3805 718.052 89.0685 718.748L88.9845 717.836H88.0965V723.908H89.1165V721.088C89.1165 720.62 89.1285 719.984 89.3325 719.54C89.5965 718.988 90.0645 718.604 90.6525 718.604C91.6125 718.604 91.9845 719.144 91.9845 720.056V723.908H93.0045Z" fill="black"/>
<line x1="150.5" y1="2.18557e-08" x2="150.5" y2="753" stroke="black"/>
<line x1="150" y1="52.4089" x2="103" y2="52.4089" stroke="black"/>
<line x1="150" y1="443.328" x2="103" y2="443.328" stroke="black"/>
<line x1="150" y1="718.894" x2="103" y2="718.894" stroke="black"/>
</svg>
