<svg xmlns="http://www.w3.org/2000/svg" viewBox="0 0 283.46 283.46"><circle cx="141.73" cy="141.73" r="73.77" fill="#fff" stroke="#000" stroke-miterlimit="10" stroke-width="4"/><circle cx="141.73" cy="141.73" r="68.11" fill="none" stroke="#000" stroke-miterlimit="10" stroke-width="0.75" stroke-dasharray="2"/><polyline points="154.82 141.07 167.41 141.07 189.38 176.59 94.92 176.59 114.78 141.07 129.41 141.07" fill="none" stroke="#1d1d1b" stroke-linecap="round" stroke-linejoin="round" stroke-width="3"/><polyline points="151.02 147.03 163.63 147.03 178.22 170.63 106.98 170.63 120.17 147.03 133.18 147.03" fill="none" stroke="#010101" stroke-miterlimit="10"/><line x1="175.27" y1="130.19" x2="188.78" y2="127.11" fill="none" stroke="#010101" stroke-miterlimit="10" stroke-dasharray="2"/><line x1="168.7" y1="116.55" x2="179.52" y2="107.92" fill="none" stroke="#010101" stroke-miterlimit="10" stroke-dasharray="2"/><line x1="156.86" y1="107.12" x2="162.88" y2="94.64" fill="none" stroke="#010101" stroke-miterlimit="10" stroke-dasharray="2"/><line x1="142.09" y1="103.73" x2="142.09" y2="89.9" fill="none" stroke="#010101" stroke-miterlimit="10" stroke-dasharray="2"/><line x1="127.3" y1="107.09" x2="121.32" y2="94.64" fill="none" stroke="#010101" stroke-miterlimit="10" stroke-dasharray="2"/><line x1="115.49" y1="116.56" x2="104.67" y2="107.92" fill="none" stroke="#010101" stroke-miterlimit="10" stroke-dasharray="2"/><line x1="108.9" y1="130.19" x2="95.41" y2="127.11" fill="none" stroke="#010101" stroke-miterlimit="10" stroke-dasharray="2"/><path d="M157,126.06v.06a15.67,15.67,0,0,1-5.13,11.58,11.64,11.64,0,0,0-3.84,8.66v.37a1.2,1.2,0,0,1,.77,1.12v4.63a1.21,1.21,0,0,1-1.21,1.21h-1.25a4.93,4.93,0,0,1-9.46,0h-1a1.21,1.21,0,0,1-1.21-1.21v-4.63a1.19,1.19,0,0,1,.74-1.11v-.38a11.7,11.7,0,0,0-3.85-8.66,15.67,15.67,0,0,1-5.13-11.58v-.06a15.64,15.64,0,0,1,15.23-15.62h.09A15.63,15.63,0,0,1,157,126.06Zm-2.51,0a12.76,12.76,0,1,0-25.51,0v.06a13.15,13.15,0,0,0,4.3,9.71A14.26,14.26,0,0,1,138,146.36v.28h7.55v-.28a14.21,14.21,0,0,1,4.67-10.53,13.12,13.12,0,0,0,4.31-9.71v-.06Zm-19.33,2.1a6.82,6.82,0,0,0,4.81,6.52V140a1,1,0,0,0,2,0V117.77S135.16,124.39,135.16,128.16Zm13.65,0c0-2.62-3.31-6.62-5.32-8.82v5.57l.82-.82a.76.76,0,0,1,1.07,1.07L143.49,127v3.07l2.31-2.31a.76.76,0,0,1,1.07,1.07l-3.38,3.37v2.57A6.81,6.81,0,0,0,148.81,128.16Z" fill="#010101"/></svg>