<svg xmlns="http://www.w3.org/2000/svg" viewBox="0 0 283.46 283.46"><circle cx="141.73" cy="141.73" r="73.77" fill="#f29f9c" stroke="#000" stroke-miterlimit="10" stroke-width="4"/><circle cx="141.73" cy="141.73" r="68.1" fill="none" stroke="#000" stroke-miterlimit="10" stroke-width="0.75" stroke-dasharray="2"/><path d="M176.8,175.07l-17.73-29.14s0,0,0-.06l-4.14-6.8a17.09,17.09,0,0,1-2.47-8.86V98.3h2.64a1.83,1.83,0,0,0,0-3.66H125.53a1.83,1.83,0,0,0,0,3.66h2.63v31.91a17,17,0,0,1-2.47,8.86l-4.13,6.8s0,0,0,.06l-17.73,29.14a4.88,4.88,0,0,0,4.17,7.4h64.66a4.88,4.88,0,0,0,4.18-7.4Zm-50.49-30,2.51-4.12a20.76,20.76,0,0,0,3-10.76V98.3h16.94v31.91a20.86,20.86,0,0,0,3,10.76l2.51,4.12Z" fill="#010101"/><text transform="translate(129.07 175.31)" font-size="32.86" fill="#8d574c" font-family="AkkuratPro-Bold, Akkurat Pro" font-weight="700">€</text></svg>