<svg xmlns="http://www.w3.org/2000/svg" viewBox="0 0 283.46 283.46"><circle cx="141.73" cy="141.73" r="73.77" fill="#8e67a9" stroke="#000" stroke-miterlimit="10" stroke-width="4"/><circle cx="141.73" cy="141.73" r="68.1" fill="none" stroke="#000" stroke-miterlimit="10" stroke-width="0.75" stroke-dasharray="2"/><polyline points="154.82 141.07 167.41 141.07 189.38 176.59 94.92 176.59 114.78 141.07 129.41 141.07" fill="none" stroke="#1d1d1b" stroke-linecap="round" stroke-linejoin="round" stroke-width="3"/><polyline points="151.02 147.03 163.63 147.03 178.22 170.63 106.98 170.63 120.17 147.03 133.18 147.03" fill="none" stroke="#010101" stroke-miterlimit="10"/><path d="M157,126.25l-.06-1.68-.26-1.68-.45-1.62-.65-1.55-.9-1.49-1-1.35-1.1-1.29-1.29-1.1-1.36-1-1.49-.84-1.55-.65-1.61-.45-1.68-.26-1.68-.19-1.68.06-1.68.26-1.62.45-1.55.65-1.49.84-1.35,1-1.3,1.1-1.1,1.29-1,1.48-.84,1.49-.65,1.55-.45,1.62-.26,1.68-.06,1.68.06,1.68.26,1.68.45,1.61.65,1.56.84,1.48,1,1.36,1.1,1.29,1.29,1.1,1.36,1,1.48.84,1.56.65,1.61.45,1.68.26,1.68.06,1.68-.06,1.68-.26,1.62-.45,1.55-.65,1.49-.84,1.35-1,1.29-1.1,1.1-1.29,1-1.36.84-1.48.65-1.56.45-1.61.26-1.68.19-1.68m-33.14,15.86-1.4-1.84-1.17-1.91-1-2.06-.81-2.13-.59-2.2-.37-2.28-.14-2.28.07-2.28.29-2.28.52-2.28.73-2.2.89-2.14,1.1-2,1.32-1.91,1.47-1.77,1.62-1.61,1.77-1.47,1.91-1.25,2.05-1.11,2.14-.88,2.2-.66,2.28-.44,2.28-.22h2.28l2.28.22,2.28.44,2.2.66,2.13.88,2.06,1.11,1.91,1.25,1.77,1.47,1.62,1.61,1.47,1.77,1.32,1.91,1.1,2,.89,2.14.73,2.2.51,2.28.3,2.28.07,2.28-.14,2.28-.37,2.28-.59,2.2L164,136.3l-1,2.06-1.25,1.91-1.39,1.84L142,163.28l-18.09-21.17" fill="#8e67a9" stroke="#000" stroke-miterlimit="10" stroke-width="4" fill-rule="evenodd"/><path d="M153.73,133.78h-1.11v-13.1l.65-2.25v-1.58a.36.36,0,0,0-.36-.37h-1.22a.35.35,0,0,0-.36.37v1.58h-.94v-1.58a.35.35,0,0,0-.36-.37h-1.21a.36.36,0,0,0-.37.37v1.58h-.93v-1.58a.35.35,0,0,0-.36-.37h-1.22a.36.36,0,0,0-.36.37v1.58l.65,2.25v2.87h-8.86v-2.87l.65-2.25v-1.58a.35.35,0,0,0-.36-.37h-1.22a.35.35,0,0,0-.36.37v1.58h-.93v-1.58a.36.36,0,0,0-.36-.37h-1.22a.35.35,0,0,0-.36.37v1.58h-.94v-1.58a.35.35,0,0,0-.36-.37H130.7a.36.36,0,0,0-.37.37v1.58l.65,2.25v13.1h-1.11a.35.35,0,0,0-.37.36v1a.36.36,0,0,0,.37.37h23.86a.36.36,0,0,0,.37-.37v-1A.35.35,0,0,0,153.73,133.78Zm-11.93-4.84a1.86,1.86,0,0,1,1.37.57,1.89,1.89,0,0,1,.57,1.37v2.9h-3.88v-2.9A1.94,1.94,0,0,1,141.8,128.94Z" fill="#010101"/></svg>