<svg xmlns="http://www.w3.org/2000/svg" viewBox="0 0 283.46 283.46"><circle cx="141.73" cy="141.73" r="73.77" fill="#d27ab0" stroke="#000" stroke-miterlimit="10" stroke-width="4"/><circle cx="141.73" cy="141.73" r="68.1" fill="none" stroke="#000" stroke-miterlimit="10" stroke-width="0.75" stroke-dasharray="2"/><path d="M199.14,163.41a4.05,4.05,0,0,1-2,3.08l-51.2,29.56a8.41,8.41,0,0,1-8.38,0L86.35,166.49a4.06,4.06,0,0,1-2-3.49v-6.7" fill="none" stroke="#12100b" stroke-linecap="round" stroke-linejoin="round" stroke-width="1.85"/><path d="M152,114.64a3.09,3.09,0,1,1-3.09-3.09A3.09,3.09,0,0,1,152,114.64Z" fill="none" stroke="#12100b" stroke-linecap="round" stroke-linejoin="round" stroke-width="0.5" stroke-dasharray="1.03 1.03"/><path d="M145.85,156.3a3.1,3.1,0,1,1-3.09-3.09A3.09,3.09,0,0,1,145.85,156.3Z" fill="none" stroke="#12100b" stroke-linecap="round" stroke-linejoin="round" stroke-width="0.5" stroke-dasharray="1.03 1.03"/><path d="M113,123.4a3.1,3.1,0,1,1-3.09-3.09A3.1,3.1,0,0,1,113,123.4Z" fill="none" stroke="#12100b" stroke-linecap="round" stroke-linejoin="round" stroke-width="0.5" stroke-dasharray="1.03 1.03"/><path d="M154.78,135.15a3.09,3.09,0,1,1-3.09-3.09,3.09,3.09,0,0,1,3.09,3.09" fill="#12100b"/><path d="M142.76,89.39a3.1,3.1,0,1,1-3.1-3.09,3.09,3.09,0,0,1,3.1,3.09" fill="#12100b"/><path d="M177.57,163.41a3.09,3.09,0,1,1-3.09-3.09,3.09,3.09,0,0,1,3.09,3.09" fill="#12100b"/><path d="M135.39,172.69a3.09,3.09,0,1,1-3.09-3.09,3.09,3.09,0,0,1,3.09,3.09" fill="#12100b"/><path d="M127.79,146.07A3.09,3.09,0,1,1,124.7,143a3.09,3.09,0,0,1,3.09,3.09" fill="#12100b"/><polyline points="151.69 135.15 124.7 146.07 139.66 89.39" fill="none" stroke="#12100b" stroke-linecap="round" stroke-linejoin="round" stroke-width="0.5" stroke-dasharray="1.55 1.55 0.52 1.55"/><path d="M130.47,149.91a6.7,6.7,0,1,1-9-9.26" fill="none" stroke="#12100b" stroke-linecap="round" stroke-linejoin="round" stroke-width="1.03"/><polygon points="121.58 142.91 124.29 139.82 120.26 139.02 121.58 142.91" fill="#12100b"/><line x1="151.69" y1="135.15" x2="174.48" y2="163.41" fill="none" stroke="#12100b" stroke-linecap="round" stroke-linejoin="round" stroke-width="0.5" stroke-dasharray="1.55 1.55 0.52 1.55"/><path d="M124.7,130.61,86.35,152.75a4.1,4.1,0,0,0,0,7.1l51.19,29.55a8.37,8.37,0,0,0,8.38,0l51.2-29.55a4.1,4.1,0,0,0,0-7.1l-51.2-29.55a8.37,8.37,0,0,0-8.38,0l-4.22,2.43" fill="none" stroke="#12100b" stroke-linecap="round" stroke-linejoin="round" stroke-width="1.85"/><line x1="199.16" y1="163.41" x2="199.16" y2="156.3" fill="none" stroke="#12100b" stroke-linecap="round" stroke-linejoin="round" stroke-width="1.85"/></svg>