<svg xmlns="http://www.w3.org/2000/svg" viewBox="0 0 283.46 283.46"><circle cx="141.73" cy="141.73" r="73.77" fill="#8d574c" stroke="#000" stroke-miterlimit="10" stroke-width="4"/><circle cx="141.73" cy="141.73" r="68.11" fill="none" stroke="#000" stroke-miterlimit="10" stroke-width="0.75" stroke-dasharray="2"/><path d="M163,151.09c-2-.52-3.95-1.12-5.92-1.81v13.15h13.74v-7.22l-8.67,3.87Z" fill="#010101"/><path d="M138.12,162.52h13.75V147.39a82.17,82.17,0,0,1-13.75-7.56Z" fill="#010101"/><path d="M133,136c-1.81-1.46-3.53-2.92-5.24-4.55a87.14,87.14,0,0,1-8.51-9.19v40.3H133Z" fill="#010101"/><path d="M133,131.5c1.63,1.46,3.35,2.75,5.15,4.12a72.92,72.92,0,0,0,13.75,8c1.72.78,3.44,1.46,5.16,2.06a70.71,70.71,0,0,0,9.62,2.75l-.52,5.16,14.1-6.36-12.46-9-.52,5.07c-21.74-4.64-38.49-19.94-48-36v9.36A93.42,93.42,0,0,0,133,131.5Z" fill="#010101"/><polygon points="114.06 101.51 108.91 101.51 108.91 172.83 180.23 172.83 180.23 167.67 114.06 167.67 114.06 101.51" fill="#010101"/><circle cx="108.91" cy="167.36" r="13.19" fill="#8d574c" stroke="#000" stroke-miterlimit="10" stroke-width="4"/><path d="M106.93,168.64c-.69-.63-1.79-1.78-2.52-2.52s-1.21-.1-2.1.84,0,1.52,1.41,2.94l2.58,2.57c.94.84,1.73-.42,3-1.62l5.14-5.2c1.63-1.58,2-1.58.69-2.84s-1.11-1.2-2.94.69C111.34,164.28,107.19,168.48,106.93,168.64Z" fill="#010101" fill-rule="evenodd"/></svg>