<svg xmlns="http://www.w3.org/2000/svg" viewBox="0 0 283.46 283.46"><circle cx="141.73" cy="141.73" r="73.77" fill="#8d574c" stroke="#000" stroke-miterlimit="10" stroke-width="4"/><circle cx="141.73" cy="141.73" r="68.11" fill="none" stroke="#000" stroke-miterlimit="10" stroke-width="0.75" stroke-dasharray="2"/><path d="M185.55,112v58.61c0,3.16-2.42,6.5-5.4,6.5H103.32c-3,0-5.41-3.34-5.41-6.5V112a5.58,5.58,0,0,1,5.41-5.73h76.83A5.58,5.58,0,0,1,185.55,112Z" fill="none" stroke="#010101" stroke-miterlimit="10" stroke-width="3"/><path d="M153.58,149.7c0-.1-.12-.1-.17,0l-.26.49a2.57,2.57,0,0,1-.22.32l-.37.47a1.79,1.79,0,0,1-.27.28l-.56.49a2.37,2.37,0,0,0-.4.39.7.7,0,0,0,0,.38c0,.11.07.23.1.33a.39.39,0,0,1-.07.33c-.13.15-.33.38-.39.47a1.35,1.35,0,0,0-.26.48v.32a.2.2,0,0,0,.2.2h.19a.59.59,0,0,0,.34-.13l.24-.23.43-.48.34-.37a.71.71,0,0,0,.16-.34l.07-.36a1.15,1.15,0,0,1,.11-.36l.13-.3a1.3,1.3,0,0,1,.21-.31l.06-.07a1.36,1.36,0,0,0,.21-.32l.11-.24.19-.47a1.21,1.21,0,0,0,.07-.37,1,1,0,0,0-.08-.37Z" fill="#8d8d8e"/><path d="M141.83,136.72s.09-.05.12-.1a.33.33,0,0,0,0-.22v0c0-.08-.08-.1-.12,0a.29.29,0,0,0-.07.22v0C141.76,136.65,141.79,136.72,141.83,136.72Z" fill="#8d8d8e"/><path d="M138.81,132.13l-.09.09s-.21.08-.23.1a1,1,0,0,0-.14.24v.06s0,.09-.11.12-.1.06-.09.07,0,.11,0,.19a.11.11,0,0,0,.14.1l.12,0,.12-.05a.43.43,0,0,1,.21,0,.18.18,0,0,0,.15-.11l.06-.12a.84.84,0,0,0,0-.1.43.43,0,0,1,.13-.17.24.24,0,0,0,.07-.17.25.25,0,0,0-.14-.18l0,0A.22.22,0,0,0,138.81,132.13Z" fill="#8d8d8e"/><path d="M139.36,132c0,.06,0,.25,0,.28s.25.12.25.16a1.73,1.73,0,0,1-.14.2s-.15-.07-.19,0,0,.2,0,.23-.27.16-.28.19a.51.51,0,0,0,.18,0c.07,0,.09.06.05.1l-.09.09-.11.11c-.05.06,0,.1,0,.09l.32,0,.45,0,.26,0a.2.2,0,0,0,.16-.15,1.5,1.5,0,0,1,.07-.2.21.21,0,0,0,0-.18l-.06-.1a1,1,0,0,1-.11-.24l0-.1a.65.65,0,0,0-.16-.21l-.05,0a.34.34,0,0,1-.14-.21.33.33,0,0,1,.05-.22l.11-.18s0-.12-.07-.15l0,0a1,1,0,0,1-.19-.14.13.13,0,0,0-.17,0l-.13.09a.4.4,0,0,0-.12.22h0a.55.55,0,0,0,.06.26A.47.47,0,0,1,139.36,132Z" fill="#8d8d8e"/><path d="M138.1,129.85h.09a.81.81,0,0,0,.27,0l.17-.07.25-.13a.11.11,0,0,0,.05-.17.63.63,0,0,0-.19-.17h0a.46.46,0,0,0-.26,0l-.13,0a.57.57,0,0,1-.26,0h0a.21.21,0,0,0-.19,0,.28.28,0,0,0-.06.14v.21a.36.36,0,0,0,.09.22A.36.36,0,0,0,138.1,129.85Z" fill="#8d8d8e"/><path d="M142,127.16a.48.48,0,0,1,.19.12.09.09,0,0,0,.13,0l.07-.08,0-.06a.15.15,0,0,1,.16,0,.1.1,0,0,0,.14,0,.15.15,0,0,0-.05-.17s-.06-.07,0-.09,0-.08-.06-.12h0a.22.22,0,0,0-.22,0,.41.41,0,0,1-.24.08c-.09,0-.2,0-.21.06s-.07.24,0,.26Z" fill="#8d8d8e"/><path d="M143.56,126.58a.45.45,0,0,0,.23,0l.1,0,.26-.09.13,0c.07,0,.07-.08,0-.11l-.11,0a.58.58,0,0,0-.26,0c-.15,0-.38.07-.38.08s-.06.18-.07.21S143.51,126.56,143.56,126.58Z" fill="#8d8d8e"/><path d="M145.23,127.38a1.64,1.64,0,0,1,.23.25.72.72,0,0,0,.12.11.53.53,0,0,0,.25.08h.07l.19,0s0-.06-.06-.1l0,0-.23-.16,0,0a.45.45,0,0,1-.15-.21v0a.61.61,0,0,0-.09-.17.36.36,0,0,1,0-.18v-.11a.58.58,0,0,0-.05-.26l0-.06a.13.13,0,0,0-.15-.09.18.18,0,0,0-.11.16.56.56,0,0,1-.13.22.12.12,0,0,0,0,.13c0,.14.19.24.19.3A.44.44,0,0,0,145.23,127.38Z" fill="#8d8d8e"/><path d="M146.48,127.28l.13.1.06.05.18.09c.06,0,.13,0,.15,0a.16.16,0,0,0,0-.15.31.31,0,0,0-.1-.13l-.08,0-.19-.14-.09-.08a.27.27,0,0,0-.19,0l-.09,0s0,.12,0,.15A1.21,1.21,0,0,0,146.48,127.28Z" fill="#8d8d8e"/><path d="M125.44,138.46a1,1,0,0,1,0-.25.51.51,0,0,0,0-.24l-.06-.11a.41.41,0,0,0-.19-.18l-.06,0a.35.35,0,0,1-.16-.2l0-.15c0-.08-.08-.09-.13,0l0,0a.39.39,0,0,0-.09.23v.27a1.09,1.09,0,0,0,.11.24,2.77,2.77,0,0,1,.1.26l.06.14c0,.07.09.17.13.24l.15.24a.44.44,0,0,1,.06.25l0,.41,0,.39c0,.07,0,.08,0,0l.07-.09a1.36,1.36,0,0,0,.11-.25l.08-.29a1.26,1.26,0,0,0,0-.27v0a2.65,2.65,0,0,0,0-.27Z" fill="#8d8d8e"/><path d="M155.24,128.26a19.08,19.08,0,1,0,5.6,13.51A19,19,0,0,0,155.24,128.26Zm-13.51,31.22a17.65,17.65,0,0,1-13.07-5.78.48.48,0,0,1-.11-.24l-.05-.27a.68.68,0,0,0-.12-.24l-.24-.25s-.1-.14-.06-.2l.16-.19a.2.2,0,0,1,.22-.05l.14.07a.29.29,0,0,0,.24,0l.16-.12a.27.27,0,0,0,.11-.22l-.06-.78,0-.89a.53.53,0,0,1,.08-.25l.29-.34a.36.36,0,0,0,.07-.24l-.15-1a.53.53,0,0,0-.11-.24l-.46-.52-.37-.42a.91.91,0,0,0-.21-.18l-.48-.31a1.18,1.18,0,0,1-.21-.18l-.61-.65a.89.89,0,0,1-.16-.22l-.24-.45a.75.75,0,0,1-.09-.25l-.07-.35-.19-.83a2,2,0,0,0-.1-.26l-.42-.74a1.88,1.88,0,0,0-.16-.23.86.86,0,0,1-.18-.26c0-.07-.23-1.08-.23-1.08l-.31-1a1,1,0,0,0-.11-.25l-.35-.55a.43.43,0,0,1-.05-.25,17.75,17.75,0,0,1,.83-3.36c0-.08,0-.09,0,0l0,.1-.09.52a.3.3,0,0,0,.06.24l.1.1c0,.06.11.05.13,0l.08-.25a1.17,1.17,0,0,0,0-.27V136a1.26,1.26,0,0,0,0-.27l0-.2a.39.39,0,0,1,0-.26,17,17,0,0,1,.86-1.83.27.27,0,0,1,.2-.14.81.81,0,0,0,.25-.08l.14-.09a1.2,1.2,0,0,0,.21-.17,3.68,3.68,0,0,0,.31-.36s.33-.2.33-.25A2.14,2.14,0,0,1,128,132a.76.76,0,0,1,.26-.06h.11a.27.27,0,0,0,.22-.12,1.42,1.42,0,0,0,.14-.22s.15-.08.26-.12a.11.11,0,0,1,.15.09l0,.13a.14.14,0,0,0,.15.12,5.39,5.39,0,0,0,.6-.09.79.79,0,0,0,0-.12.76.76,0,0,1-.06-.26l0-.1a.17.17,0,0,1,.12-.18l.05,0a.49.49,0,0,0,.23-.14l.15-.15a.1.1,0,0,0,0-.16l0,0a.21.21,0,0,1-.12-.19.1.1,0,0,1,.13-.1l.15,0a.8.8,0,0,1,.26.09l.22.12.19.12a.13.13,0,0,1,0,.18l-.08.11a.48.48,0,0,1-.22.15l-.24.09a.26.26,0,0,0-.17.17l-.08.24a.24.24,0,0,0,.06.23l.21.23a.29.29,0,0,0,.23.08,1.93,1.93,0,0,0,.37-.11s0-.12,0-.21a.57.57,0,0,1,0-.26l.29-.58.21-.4a.68.68,0,0,1,.17-.21l.21-.19a.69.69,0,0,0,.16-.22c.1-.2.29-.58.32-.61l.4-.38a.4.4,0,0,0,.12-.23v-.13a.1.1,0,0,0-.13-.1l-.4.09c-.07,0-.09,0,0-.07l.21-.2.37-.39a1.09,1.09,0,0,0,.14-.23l.07-.18c0-.07,0-.13-.08-.13a.49.49,0,0,0-.23.08l-.33.25-.56.42a1.09,1.09,0,0,1-.23.14l-.17.08-.23.14-.54.38a.53.53,0,0,1-.25.08h-.11c-.08,0-.1-.05-.05-.11l.21-.25.19-.2.55-.49.47-.43.54-.45.36-.27a.77.77,0,0,1,.24-.12l.15,0,.27,0h.08c.08,0,.11,0,.08.12l-.1.19a.08.08,0,0,0,.07.12.46.46,0,0,0,.23-.05c.05,0,.11,0,.13.07h0a.28.28,0,0,1,0,.25v0l-.18.21-.13.13a.52.52,0,0,0-.14.22l-.08.26c0,.07,0,.11.08.08l.19-.08L134,128a.82.82,0,0,1,.27-.06l.15,0a1.19,1.19,0,0,0,.26-.05l.3-.11.24-.13.47-.33.41-.24a.86.86,0,0,0,.2-.18l.11-.13a.1.1,0,0,0,0-.16h0a.12.12,0,0,1-.06-.16l.13-.22.13-.27.05-.1a.1.1,0,0,1,.16,0l.1.09a.23.23,0,0,0,.23,0l.18-.11.12-.08a.31.31,0,0,1,.25,0l.31.13c.07,0,.07.07,0,.09l-.22.06a.43.43,0,0,0-.21.14.15.15,0,0,0,0,.2.09.09,0,0,1,0,.15l-.13.07a1.42,1.42,0,0,0-.23.14l-.36.31-.3.3a1.12,1.12,0,0,1-.22.16l-.3.17-.6.4a1.63,1.63,0,0,0-.2.17l-.11.11-.17.22-.16.23-.23.31a1,1,0,0,0-.11.25l0,.1a.19.19,0,0,0,.09.2l.19.11a.22.22,0,0,0,.22,0l.11-.11a1.81,1.81,0,0,0,.18-.21l.05-.06a.6.6,0,0,1,.22-.16l.23-.07.25-.11.14-.08a.55.55,0,0,1,.25-.07h.38a.59.59,0,0,0,.26-.07l.34-.18a.46.46,0,0,1,.26-.06l.34,0a.58.58,0,0,0,.26-.05l.18-.1a1.12,1.12,0,0,0,.22-.16l.14-.15a.89.89,0,0,1,.22-.16l.37-.19a.81.81,0,0,0,.19-.18l.16-.25a1.92,1.92,0,0,1,.18-.22l.19-.19a.27.27,0,0,0,.06-.23l-.1-.33-.13-.35q0-.12.09-.09l.23.09.54.23a2,2,0,0,1,.25.13l0,0a1.12,1.12,0,0,0,.25.11l.31.07a.76.76,0,0,0,.26,0l.23-.09a.8.8,0,0,1,.26,0l.25,0a.56.56,0,0,0,.26-.07l.28-.15a1.36,1.36,0,0,1,.25-.11l.2-.07a.91.91,0,0,1,.27,0h.25a.17.17,0,0,0,.16-.14l0-.09a.31.31,0,0,1,.14-.21l.09-.07a.48.48,0,0,1,.26-.06l.3,0a.31.31,0,0,0,.24-.08l.15-.14a.1.1,0,0,0,0-.17l-.25-.14a.49.49,0,0,1-.18-.2l-.06-.11c0-.07,0-.11.07-.1l.8.18.26.09.25.11a1.14,1.14,0,0,1,.23.15l.06.06a.26.26,0,0,1,.07.22l0,.1a.12.12,0,0,1-.16.1l-.1,0a.57.57,0,0,0-.26,0l-.46.1c-.07,0-.09.07,0,.12l.19.15a1.09,1.09,0,0,0,.23.14l.15.07a.47.47,0,0,1,.19.18l.12.27a.68.68,0,0,0,.17.21l.16.14a1.8,1.8,0,0,1,.19.2l.15.24a1.92,1.92,0,0,0,.18.22l.22.21c0,.05,0,.08,0,.07l-.35-.07h-.27l-.28.05c-.08,0-.08,0,0,.08l.13,0a.27.27,0,0,1,.15.15c0,.05,0,.11-.12.13l-.16,0a1,1,0,0,0-.25.12l-.19.16a.22.22,0,0,0-.07.22l0,.11a.1.1,0,0,1-.1.14H146a.3.3,0,0,0-.21.12l-.05.09a.84.84,0,0,0-.09.25v.05a.12.12,0,0,1-.16.1l-.2-.06a.55.55,0,0,1-.23-.14l-.11-.11c0-.06,0-.11,0-.12l.27,0a.18.18,0,0,0,.15-.16h0a.27.27,0,0,0-.11-.21l-.17-.1-.25-.1-.23-.06a1.33,1.33,0,0,0-.28,0h-.15a1.18,1.18,0,0,1-.27,0l-.15,0a.61.61,0,0,0-.27,0l-.49.15a.83.83,0,0,0-.23.15l-.26.27a.48.48,0,0,0-.11.24v.06a.58.58,0,0,1-.11.24l-.17.2a1.88,1.88,0,0,0-.16.23l-.08.12a.81.81,0,0,1-.19.18l-.13.06a.41.41,0,0,0-.18.19l-.06.13a.82.82,0,0,0-.06.27v.24a.2.2,0,0,0,.13.18l.12,0a.61.61,0,0,0,.27,0l.22-.07a.21.21,0,0,1,.21.07,1.15,1.15,0,0,1,.12.25l.05.14a.56.56,0,0,0,.16.21l.07.06a.23.23,0,0,0,.24,0,1.73,1.73,0,0,0,.32-.21,1.37,1.37,0,0,0,0-.33.57.57,0,0,1,0-.26l.07-.12a.31.31,0,0,0,0-.25l-.08-.19a.59.59,0,0,1,0-.26c0-.12,0-.27,0-.29a4.06,4.06,0,0,1,.23-.34.39.39,0,0,1,.21-.15.14.14,0,0,1,.18.09l0,.06a.24.24,0,0,1,0,.23l0,.06a.35.35,0,0,0-.08.24h0a.29.29,0,0,0,.13.2l.1.05a.82.82,0,0,0,.26.06h.05a1.31,1.31,0,0,0,.28,0l.11,0a.38.38,0,0,1,.24.08l0,0a.33.33,0,0,1,.1.18s0,.09-.11.09h-.4a.09.09,0,0,0-.09.13v0a1.17,1.17,0,0,1,0,.27v.13c0,.08-.05.12-.12.08l-.05,0a.19.19,0,0,0-.18,0,.24.24,0,0,0,0,.21l0,.12a.36.36,0,0,1,0,.25l-.1.21a.14.14,0,0,1-.19,0l-.08,0a.33.33,0,0,0-.24,0l-.29.16a.36.36,0,0,1-.25,0l-.27-.11-.2-.07a.21.21,0,0,1-.14-.18v-.05a1.31,1.31,0,0,1,0-.28.17.17,0,0,0-.13-.16h0a.14.14,0,0,0-.17.1l0,.19a1.18,1.18,0,0,0,0,.27v.17a.18.18,0,0,1-.13.17l-.34.08a.29.29,0,0,0-.19.15l-.1.2a1.14,1.14,0,0,1-.15.23l-.13.15a.51.51,0,0,1-.23.15l-.45.15-.46.16-.43.12a.09.09,0,0,0,0,.15l.38.48a.38.38,0,0,1,.06.24l-.05.36a.16.16,0,0,1-.16.14h-.18l-.27,0-.57-.11-.1,0a.17.17,0,0,0-.18.09l-.15.23a.37.37,0,0,0,0,.25l0,.2a.21.21,0,0,1-.08.21l0,0a.9.9,0,0,0-.2.19l-.08.12a.13.13,0,0,0,0,.18.21.21,0,0,1,.1.2V137a.21.21,0,0,0,.12.19l.18.07.25.13.12.07a.37.37,0,0,0,.25,0l.11,0a.35.35,0,0,1,.25,0l0,0a.2.2,0,0,0,.22,0l.25-.23.19-.19a.24.24,0,0,0,0-.23,3.28,3.28,0,0,1-.12-.31,1,1,0,0,1,.22-.17,1.36,1.36,0,0,1,.25-.11l.17-.05a.52.52,0,0,0,.22-.14l0-.06a.46.46,0,0,0,.1-.25v-.07a.2.2,0,0,1,.13-.18.36.36,0,0,1,.25,0l.17.09a.25.25,0,0,0,.24,0l.2-.12.37-.18a.15.15,0,0,1,.19.06l.05.1a.39.39,0,0,0,.18.18l.07,0a1.14,1.14,0,0,1,.23.15l.18.16.24.18.23.14.08.05a.26.26,0,0,1,.12.21v.13a.22.22,0,0,1-.13.19l-.1,0-.25.12-.17.1c-.07,0-.06.09,0,.12l.12,0a1.29,1.29,0,0,0,.26.08l.09,0a.2.2,0,0,0,.21-.09l.13-.19.26-.32.15-.18a.18.18,0,0,0,0-.22l-.05-.09a.65.65,0,0,0-.19-.18l-.12-.07a.65.65,0,0,0-.26-.08h0a.32.32,0,0,1-.22-.12l0-.07a1.12,1.12,0,0,0-.18-.2l-.18-.17a.36.36,0,0,1-.11-.23V135c0-.07,0-.11.09-.09a.8.8,0,0,1,.21.13l.44.35.24.16a1.08,1.08,0,0,0,.24.12l.27.11a.21.21,0,0,1,.12.18,1.07,1.07,0,0,0,0,.25l0,.11a.65.65,0,0,0,.13.23l.12.13a1.73,1.73,0,0,1,.17.21l.09.14a.43.43,0,0,0,.21.14h.08a.13.13,0,0,0,.15-.1.19.19,0,0,1,.16-.14h0c.08,0,.09,0,0-.09l0,0a.6.6,0,0,1-.15-.18,1.11,1.11,0,0,0-.09-.19.2.2,0,0,1,0-.2.49.49,0,0,1,.19-.15l0,0a1.14,1.14,0,0,1,.24-.05.27.27,0,0,1,.19.11l0,0a.74.74,0,0,1,.11.24,1.21,1.21,0,0,0,.08.25l0,.06a1.14,1.14,0,0,0,.15.23l.06.08a.65.65,0,0,0,.21.16l.06,0a.5.5,0,0,1,.18.11.15.15,0,0,0,.18,0h0a.27.27,0,0,0,.15-.15.1.1,0,0,1,.12-.07l.09,0,.18,0a.5.5,0,0,0,.35-.09l0,0a.62.62,0,0,1,.32-.13c.09,0,.17,0,.17.1v.1l0,.36.06.35a.57.57,0,0,1,0,.26l-.1.32-.07.19a.17.17,0,0,1-.18.1l-.31-.08a.44.44,0,0,0-.25,0l-.22.12a.55.55,0,0,1-.25.07h-.25l-.7-.05-.41-.05a.21.21,0,0,1-.17-.08c0-.05-.1-.08-.17-.09h-.08a.8.8,0,0,0-.27,0l-.15,0a.25.25,0,0,0-.16.17v0a.35.35,0,0,0,0,.25h0a.1.1,0,0,1-.06.16l-.1,0a.33.33,0,0,1-.24,0l0,0a.75.75,0,0,0-.25-.09l-.3,0a.31.31,0,0,1-.2-.15h0a.45.45,0,0,0-.19-.17l-.14,0a1.19,1.19,0,0,0-.27-.07l-.34-.06a.56.56,0,0,1-.24-.1l-.15-.11a.13.13,0,0,1,0-.19l.14-.19a.17.17,0,0,0,0-.19.21.21,0,0,1,0-.19.13.13,0,0,0-.07-.17l-.08,0a.47.47,0,0,0-.26,0l-.29.06a1.33,1.33,0,0,1-.28,0h-1.06a1.36,1.36,0,0,0-.27,0l-.59.21-.4.14a.76.76,0,0,1-.26,0l-.25,0-.27-.06-.09,0a.23.23,0,0,0-.22.06l-.29.33a.69.69,0,0,1-.22.16l-.17.07a.65.65,0,0,0-.21.16l-.18.2a.45.45,0,0,0-.09.25v.17a.31.31,0,0,1-.11.22l-.29.23a.58.58,0,0,1-.24.11l-.11,0a.36.36,0,0,0-.21.13l-.09.13a.86.86,0,0,1-.19.19l-.18.12a.39.39,0,0,0-.16.2l0,.13a.65.65,0,0,1-.13.23l-.32.34a1.14,1.14,0,0,0-.15.23l-.06.14a.29.29,0,0,0,0,.24l.06.12a.29.29,0,0,1,0,.24.58.58,0,0,0,0,.26l0,.08a.8.8,0,0,1,0,.27l-.07.29a1.09,1.09,0,0,1-.1.25l-.14.29a.31.31,0,0,0,0,.25h0a.46.46,0,0,1,0,.26l-.05.15a.26.26,0,0,0,0,.24l.56.66a1.14,1.14,0,0,1,.15.23l.36.65a.89.89,0,0,0,.16.22l.49.45a1.18,1.18,0,0,0,.22.17l.48.29a.36.36,0,0,0,.25,0l.54-.12a.76.76,0,0,1,.26,0l.65.13a.46.46,0,0,0,.26,0l.38-.21a1.3,1.3,0,0,1,.25-.1l.59-.12a.34.34,0,0,1,.24.05l.2.17.2.19.23.26a.26.26,0,0,0,.22.07l.38-.08a1.2,1.2,0,0,1,.27,0l.16,0a.53.53,0,0,1,.24.11l.16.14a.27.27,0,0,1,.08.23l0,.19a1.06,1.06,0,0,1-.09.25l-.14.25a.71.71,0,0,1-.16.18.13.13,0,0,0,0,.18l.49.57.19.2.35.32a.33.33,0,0,1,.1.23v.37a.82.82,0,0,0,.06.26l.07.16a1.16,1.16,0,0,0,.14.24l.06.08a.3.3,0,0,1,0,.24l0,.19a.71.71,0,0,1-.11.25l-.11.14a1.49,1.49,0,0,0-.14.24l-.19.46a.81.81,0,0,0-.05.27v.27a.44.44,0,0,0,.08.25l.4.51.28.31a.44.44,0,0,1,.09.24v.48a.34.34,0,0,0,.11.23l.12.1a.68.68,0,0,1,.17.21l.23.44a.82.82,0,0,1,.06.27v.13a.13.13,0,0,0,.13.14h.26a1.36,1.36,0,0,0,.27,0l.45-.13.27,0,.71-.07a.77.77,0,0,0,.26-.07l.35-.2c.07,0,.17-.1.24-.14l.44-.34a1.89,1.89,0,0,0,.2-.2l.36-.47a.86.86,0,0,1,.19-.19l.36-.31a1.12,1.12,0,0,0,.18-.2l.24-.39a.87.87,0,0,0,.1-.25l.09-.4a.38.38,0,0,1,.13-.22l.55-.45a1.07,1.07,0,0,1,.22-.15l.38-.21a.39.39,0,0,0,.16-.2l.13-.47a1.36,1.36,0,0,0,0-.27l0-.58a2.28,2.28,0,0,0,0-.27c0-.15,0-.38,0-.44s0-.85,0-.92a4,4,0,0,1,.28-.57,1.14,1.14,0,0,1,.15-.23c.15-.17.42-.5.49-.6s.67-.92.67-.92l.37-.49a1.16,1.16,0,0,0,.14-.24l.19-.48a1.29,1.29,0,0,0,.08-.26l.2-1.11.11-.69c0-.07,0-.12-.11-.09l-.44.14a1.89,1.89,0,0,0-.25.11l-.45.24-.25.1-.11,0a.3.3,0,0,1-.24-.05l-.05,0a.61.61,0,0,1-.19-.2l-.17-.27a.3.3,0,0,0-.21-.12h-.05a.29.29,0,0,1-.22-.1l-.15-.2a1.88,1.88,0,0,1-.16-.23l-.13-.22a.91.91,0,0,0-.18-.21c-.12-.1-.31-.26-.35-.28s-.1-.1-.15-.17a2,2,0,0,1-.1-.26l-.07-.2a1.36,1.36,0,0,0-.11-.25l-.1-.19a1.84,1.84,0,0,0-.17-.22l-.29-.27a.86.86,0,0,1-.15-.22l-.32-.69c0-.07,0-.11.07-.1l.19,0a.48.48,0,0,1,.23.13l.52.62a1.24,1.24,0,0,0,.21.18l.39.24a.26.26,0,0,1,.12.21v.27a.3.3,0,0,0,.11.22l.36.28a.7.7,0,0,1,.18.2l.43.66.41.67a.19.19,0,0,0,.2.07l.47-.16.75-.26a.51.51,0,0,0,.21-.15l.45-.56.18-.21.52-.52a.44.44,0,0,0,.11-.24c0-.34.08-1.22.08-1.28s0-.4,0-.6a.22.22,0,0,0-.12-.19l-.23-.1a.15.15,0,0,0-.19.05.14.14,0,0,1-.18,0l-.06,0a1.12,1.12,0,0,1-.21-.17l0,0a.08.08,0,0,0-.15,0l0,.06a1.83,1.83,0,0,1-.13.24l0,.07a.34.34,0,0,1-.21.14l-.09,0c-.08,0-.13,0-.11-.11v-.08a.13.13,0,0,0-.11-.16h-.06a.47.47,0,0,0-.26,0,.16.16,0,0,1-.2,0l-.45-.55a.44.44,0,0,1-.09-.24v-.28a.09.09,0,0,1,.13-.08h0a.65.65,0,0,1,.21.16l.07.1a.9.9,0,0,0,.2.19l.12.09.14.09a.77.77,0,0,0,.25.1l.12,0a.3.3,0,0,0,.24-.05h0a.84.84,0,0,1,.25-.09l.72-.05a.84.84,0,0,0,.26-.07l.51-.28a.21.21,0,0,1,.23,0l.23.21a.33.33,0,0,0,.24.07c.2,0,.55-.09.55-.14a2,2,0,0,1,.28-.42c.05-.06.1-.05.12,0l.14.53c0,.08.06.19.09.27l.26.66c0,.07.08.18.12.25l.51.86.11.25.26.82a.54.54,0,0,0,.15.22l.22.19c.06.05.1,0,.08,0a14,14,0,0,1-.23-1.72c0-.05-.18-.38-.31-.56a.42.42,0,0,1-.06-.25c0-.35.14-1.28.14-1.33s-.17-.58-.25-.84a.46.46,0,0,1,0-.26l.16-.52c0-.07.07-.08.11,0l.68,1.08a.4.4,0,0,0,.09.11s0,.05.05.13a17.45,17.45,0,0,1,.44,3.92A17.73,17.73,0,0,1,141.73,159.48Z" fill="#353535"/><path d="M141.58,154.51a3.89,3.89,0,1,1,3.89-3.89A3.9,3.9,0,0,1,141.58,154.51Z"/><path d="M141.58,147.73a2.89,2.89,0,1,1-2.9,2.89,2.9,2.9,0,0,1,2.9-2.89m0-2a4.89,4.89,0,1,0,4.89,4.89,4.89,4.89,0,0,0-4.89-4.89Z" fill="#fff"/><path d="M140.05,140.62l-2.71-17.25a4.4,4.4,0,0,1,8.79,0l-2.9,17.26Z"/><path d="M141.73,120.58a2.9,2.9,0,0,1,2.89,2.69l-.27,1.63L142,139.12h-.62l-2.26-14.3-.24-1.54a2.9,2.9,0,0,1,2.89-2.7m0-3a5.9,5.9,0,0,0-5.9,5.9l.29,1.81,2.65,16.83h5.73l2.81-16.72.32-1.92a5.9,5.9,0,0,0-5.9-5.9Z" fill="#fff"/><path d="M149.14,124.94a18.77,18.77,0,1,1-15.75.26" fill="none" stroke="#1d1d1b" stroke-miterlimit="10" stroke-width="2"/><line x1="97.91" y1="166.16" x2="185.55" y2="166.16" fill="none" stroke="#1d1d1b" stroke-miterlimit="10"/><line x1="97.91" y1="113.28" x2="185.55" y2="113.28" fill="none" stroke="#1d1d1b" stroke-miterlimit="10"/><circle cx="142.7" cy="110.42" r="0.96" fill="#010101"/></svg>