<svg xmlns="http://www.w3.org/2000/svg" viewBox="0 0 283.46 283.46"><circle cx="141.73" cy="141.73" r="73.77" fill="#8e67a9" stroke="#000" stroke-miterlimit="10" stroke-width="4"/><path d="M141.73,209.84a68.11,68.11,0,1,1,68.11-68.11A68.18,68.18,0,0,1,141.73,209.84Z" fill="none" stroke="#000" stroke-miterlimit="10" stroke-width="0.75" stroke-dasharray="2"/><path d="M151.64,152.05c1.2-2,2.33-2.78.79-5.12.18-1.07,1.22-2.31-.1-2.52a2.16,2.16,0,0,0-2.48,1.4l-.51.24c-.06-.49-.44-.9-1.8-.26,1.12-2.76-.22-2.45.69-3.86a2.26,2.26,0,0,0-1.19-3.37c1.63-2.28-2.12-3.05-3.81-1.07,0-1.12-.13-2.85-.83-2.5-1,.48.38-1.59-.61-3-1.7-2.51-3.63-2.12-4.19-1.26-.55-.19-.56-1.13-2.12-.92-.84-1.66-2.79.12-2.21,1.94-1.55-.09-1.9,1.14-.74,1.8-1.05.59-2.21,2-1.91,3.15a3.51,3.51,0,0,0-.34,2.43c-.95-.73-2.76.24-2.4,2.31-1.9-1.67-3.09,1.55-2.78,3.18a2,2,0,0,0-1.48,1.32c-1.07-.5-3.49.57-2.28,1.77-4.07,1.44-.72,6.53,1.72,6.62-.73,1.7.46,3.1,2.36,3.61.2,1.75,4.31,1.64,4.93-.42l.24.1a2,2,0,0,0,3,.79h0a31.25,31.25,0,0,1,3.07,4.54c-.16,2.85-.25,5.72-.27,6.58h3.06c0-1.46-.66-6.05-.67-6.81,0-.51,0-1.45,0-2.7.55-.7,1.24-1.53,1.91-2.22a24.12,24.12,0,0,0,5.87-1.32,7.72,7.72,0,0,0,2.43-.35c-1.85,2.5,2.51,2.06,3.83.08S154.24,150.62,151.64,152.05Zm-14.52,5c-.13.82-.25,2.23-.35,3.8a31.28,31.28,0,0,0-2.42-3.06,6,6,0,0,0,1.39-1.68c.1-.22.64-.05,1.5.06C137.2,156.51,137.16,156.81,137.12,157.09Zm1.74,1.23c0-.64,0-1.32,0-2a7.59,7.59,0,0,0,2.72-.7,2.3,2.3,0,0,1,1.26.12A8.22,8.22,0,0,0,138.86,158.32Zm2.5-1.14a3.06,3.06,0,0,1,1.42-.84,3.19,3.19,0,0,0,1-.41,16.87,16.87,0,0,0,2.27.46A17.22,17.22,0,0,1,141.36,157.18Z" fill="#010101"/><path d="M171.32,180.52H104.93c-2.58,0-4.67-2.9-4.67-5.63V114.46c0-2.73,2.09-4.26,4.67-4.26h15.56c1.24,0,2.43-.16,3.3.77l6.51,6.89a4.55,4.55,0,0,0,3.29,1.45h37.73a4.81,4.81,0,0,1,4.67,4.94v50.64C176,177.62,173.9,180.52,171.32,180.52Z" fill="none" stroke="#010101" stroke-miterlimit="10" stroke-width="3"/><path d="M107.47,110.2v-3.06c0-2.73,2.09-4.15,4.67-4.15h15.57c1.23,0,2.42-.28,3.3.65l6.5,6.89a4.52,4.52,0,0,0,3.3,1.45h37.73a4.81,4.81,0,0,1,4.66,5v50.64a4.81,4.81,0,0,1-4.66,4.94H176" fill="none" stroke="#010101" stroke-miterlimit="10" stroke-width="3"/></svg>