<svg xmlns="http://www.w3.org/2000/svg" viewBox="0 0 283.46 283.46"><circle cx="141.73" cy="141.73" r="73.77" fill="#8e67a9" stroke="#000" stroke-miterlimit="10" stroke-width="4"/><path d="M141.73,209.84a68.11,68.11,0,1,1,68.11-68.11A68.18,68.18,0,0,1,141.73,209.84Z" fill="none" stroke="#000" stroke-miterlimit="10" stroke-width="0.75" stroke-dasharray="2"/><line x1="126.27" y1="152.3" x2="149.94" y2="152.3" fill="none" stroke="#000" stroke-linecap="round" stroke-linejoin="round" stroke-width="1.71"/><line x1="126.27" y1="130.98" x2="156.97" y2="130.98" fill="none" stroke="#000" stroke-linecap="round" stroke-linejoin="round" stroke-width="1.71"/><line x1="126.27" y1="120.66" x2="146.76" y2="120.66" fill="none" stroke="#000" stroke-linecap="round" stroke-linejoin="round" stroke-width="1.71"/><line x1="126.27" y1="141.64" x2="153.44" y2="141.64" fill="none" stroke="#000" stroke-linecap="round" stroke-linejoin="round" stroke-width="1.71"/><line x1="147.04" y1="162.97" x2="154.1" y2="162.97" fill="none" stroke="#000" stroke-linecap="round" stroke-linejoin="round" stroke-width="1.71"/><path d="M168.49,125H153.35a6.59,6.59,0,0,1-6.59-6.58V104.08" fill="none" stroke="#000" stroke-linecap="round" stroke-linejoin="round" stroke-width="2.87"/><path d="M162.61,144.82a8,8,0,1,1-3.11,11.23" fill="none" stroke="#000" stroke-linecap="round" stroke-linejoin="round" stroke-width="2"/><polygon points="165.93 146.87 159.13 148.45 161.16 141.77 165.93 146.87"/><path d="M166.75,168.72a16.82,16.82,0,0,1,0-33.63,16.61,16.61,0,0,1,1.74.09V125l-21.73-21H122.39a7.63,7.63,0,0,0-7.63,7.64v60a7.63,7.63,0,0,0,7.63,7.64h38.46a7.64,7.64,0,0,0,7.64-7.64v-3.11C167.92,168.68,167.34,168.72,166.75,168.72Z" fill="none" stroke="#000" stroke-linecap="round" stroke-linejoin="round" stroke-width="2.87"/><text transform="translate(126.27 172.67)" font-size="20.1" font-family="AkkuratPro-Bold, Akkurat Pro" font-weight="700">€</text></svg>