<svg xmlns="http://www.w3.org/2000/svg" viewBox="0 0 283.46 283.46"><circle cx="141.73" cy="141.73" r="73.77" fill="#1e78b5" stroke="#000" stroke-miterlimit="10" stroke-width="4"/><circle cx="141.73" cy="141.73" r="68.1" fill="none" stroke="#000" stroke-miterlimit="10" stroke-width="0.75" stroke-dasharray="2"/><path d="M164.69,146.75h0l-8.35-13.67a4.33,4.33,0,0,0-3.75-2.17h-1.85a9,9,0,0,1-3.32-.64l-1.07-.43a11.29,11.29,0,0,0-3.47-.79c.27-.5.58-1.12.9-1.83a9.38,9.38,0,0,1,4.07-2,12.69,12.69,0,0,0,5.07,1.28,6.67,6.67,0,0,0,2.45-.44,6.88,6.88,0,0,0,3.75-4.13,2.05,2.05,0,0,0,.08-.19,1,1,0,0,0-.46-1.26l-.17-.09c-2.65-1.42-5-1.79-7.08-1.1a7.58,7.58,0,0,0-4.3,4.15c-.84.25-1.6.5-2.31.79a23.87,23.87,0,0,0,.72-2.86,1.27,1.27,0,0,0,.06-.18,1,1,0,0,0,0-.17,22.55,22.55,0,0,0,.25-5.32,18,18,0,0,0,3.24.32,9.67,9.67,0,0,0,10.08-8.55l0-.18a1,1,0,0,0-.11-.72,1,1,0,0,0-.6-.43c-1.1-.25-9.83-2-13.52,5a21.8,21.8,0,0,0-1.92-4.3,9.93,9.93,0,0,0-2.76-7.26c-1.48-1.44-4.32-3.15-9.45-3h-.15a1,1,0,0,0-1,1v.19a9.52,9.52,0,0,0,2.48,7.14c2,2,5.14,3.08,9.29,3.12a18.86,18.86,0,0,1,2.33,6.57s0,0,0,.06a.08.08,0,0,0,0,0,19.75,19.75,0,0,1,.2,2.62,7,7,0,0,0-2-1.89,10,10,0,0,0-7.69-.69l-.08,0a1,1,0,0,0-.71,1.13l0,.14a7.31,7.31,0,0,0,7.64,6.46,13.62,13.62,0,0,0,2.23-.21,23.75,23.75,0,0,1-1.31,3.86,1.42,1.42,0,0,0-.08.18,19.69,19.69,0,0,1-1.42,2.65h-.86a3.6,3.6,0,0,0-3.06,1.73l-1.82,3h-2.92a3.47,3.47,0,0,0-2.82,1.46L126.56,139a3.53,3.53,0,0,1-2.86,1.47,5.39,5.39,0,0,0-4.58,2.52h0l-1.5,5.72c.26,1.43,0-.52,0,0s4.23,6.75,4.75,6.75l18.85,8.22h1.08l21.3-10.93a1.12,1.12,0,0,0,1-1c0-.53.49-.92,0-.92" fill="#010101" fill-rule="evenodd"/><path d="M136.69,159.82a17.2,17.2,0,0,1,5,12.17v14.83H125.79v-10l-18.25-18.24V131.73A3.75,3.75,0,0,1,110.9,128a3.67,3.67,0,0,1,4,3.66v20.26l9.83,9.85a1.22,1.22,0,0,0,1.72-1.72l-7.85-7.88a3.66,3.66,0,0,1,.18-5.36,3.76,3.76,0,0,1,5.11.26Zm10.08,0a17.2,17.2,0,0,0-5,12.17v14.83h15.94v-10l18.25-18.24V131.73a3.75,3.75,0,0,0-3.35-3.78,3.68,3.68,0,0,0-4,3.66v20.26l-9.82,9.85A1.22,1.22,0,1,1,157,160l7.85-7.88a3.68,3.68,0,0,0-.18-5.37,3.76,3.76,0,0,0-5.11.27Z" fill="#010101" stroke="#1e78b5" stroke-miterlimit="10" stroke-width="2"/></svg>