<svg xmlns="http://www.w3.org/2000/svg" viewBox="0 0 283.46 283.46"><circle cx="141.73" cy="141.73" r="73.77" fill="#9697cb" stroke="#000" stroke-miterlimit="10" stroke-width="4"/><circle cx="141.73" cy="141.73" r="68.11" fill="none" stroke="#000" stroke-miterlimit="10" stroke-width="0.75" stroke-dasharray="2"/><rect x="128.78" y="169.08" width="2.88" height="2.2" fill="#010101"/><rect x="146.05" y="169.08" width="2.88" height="2.2" fill="#010101"/><rect x="151.81" y="169.08" width="2.88" height="2.2" fill="#010101"/><rect x="140.29" y="169.08" width="2.88" height="2.2" fill="#010101"/><rect x="134.53" y="169.08" width="2.88" height="2.2" fill="#010101"/><rect x="111.81" y="140.73" width="2.2" height="2.8" fill="#010101"/><rect x="111.81" y="146.33" width="2.2" height="2.8" fill="#010101"/><rect x="111.81" y="135.13" width="2.2" height="2.8" fill="#010101"/><rect x="140.29" y="112.98" width="2.88" height="2.2" fill="#010101"/><rect x="134.53" y="112.98" width="2.88" height="2.2" fill="#010101"/><rect x="146.05" y="112.98" width="2.88" height="2.2" fill="#010101"/><rect x="151.81" y="112.98" width="2.88" height="2.2" fill="#010101"/><rect x="128.78" y="112.98" width="2.88" height="2.2" fill="#010101"/><rect x="169.45" y="140.73" width="2.2" height="2.8" fill="#010101"/><rect x="169.45" y="146.33" width="2.2" height="2.8" fill="#010101"/><rect x="169.45" y="135.13" width="2.2" height="2.8" fill="#010101"/><path d="M170.48,185.15,157,177.73V160.92l.37.2,13.12,7.22Zm1.1-18.73-13.41-7.36,13.41-7.38L185,159.06Zm14.6,11.31-13.5,7.42V168.34l13.5-7.42Z" fill="#010101"/><path d="M110.77,185.15l-13.49-7.42V160.92l.54.29,13,7.13Zm1.11-18.73-13.42-7.36,13.42-7.38,13.41,7.38Zm14.6,11.31L113,185.15V168.34l13.51-7.43Z" fill="#010101"/><path d="M170.48,130.1,157,122.69V105.87l.19.1,13.3,7.32Zm1.1-18.72L158.17,104l13.41-7.38L185,104Zm14.6,11.3-13.5,7.42V113.29l13.5-7.42Z" fill="#010101"/><path d="M126.48,122.68,113,130.11V113.29l13.51-7.42Zm-14.6-26.05L125.29,104l-13.41,7.37L98.46,104Zm-14.6,9.24.35.19,13.14,7.23V130.1l-13.49-7.41Z" fill="#010101"/><path d="M150.94,142.68c.85-1.4,1.65-2,.57-3.63.12-.76.85-1.64-.08-1.79a1.53,1.53,0,0,0-1.75,1l-.37.17c0-.35-.31-.64-1.27-.19.79-2-.16-1.74.49-2.74a1.6,1.6,0,0,0-.85-2.38c1.16-1.61-1.5-2.16-2.7-.76,0-.79-.09-2-.59-1.77-.69.34.27-1.13-.42-2.16-1.21-1.78-2.58-1.5-3-.89-.39-.14-.4-.8-1.5-.65-.59-1.18-2,.08-1.57,1.37-1.1-.06-1.34.81-.52,1.28-.74.42-1.56,1.44-1.35,2.23a2.54,2.54,0,0,0-.25,1.73c-.67-.53-2,.17-1.7,1.63-1.34-1.18-2.19,1.1-2,2.26a1.38,1.38,0,0,0-1.06.93c-.75-.36-2.47.41-1.61,1.25-2.88,1-.51,4.63,1.22,4.69-.51,1.21.32,2.2,1.68,2.56.13,1.24,3,1.16,3.49-.29a.85.85,0,0,0,.17.06,1.43,1.43,0,0,0,2.11.57h0a22.79,22.79,0,0,1,2.17,3.22c-.11,2-.18,4.06-.19,4.66h2.17c0-1-.47-4.28-.48-4.82,0-.36,0-1,0-1.91a19.22,19.22,0,0,1,1.35-1.58,17.05,17.05,0,0,0,4.16-.94,5,5,0,0,0,1.72-.24c-1.31,1.77,1.78,1.46,2.72.06S152.79,141.67,150.94,142.68Zm-10.29,3.57c-.09.58-.17,1.58-.25,2.69a22,22,0,0,0-1.71-2.17,4.3,4.3,0,0,0,1-1.19c.08-.15.46,0,1.07,0Zm1.23.87c0-.45,0-.94,0-1.45a5.41,5.41,0,0,0,1.93-.5,1.79,1.79,0,0,1,.9.08A5.89,5.89,0,0,0,141.88,147.12Zm1.78-.81a2.23,2.23,0,0,1,1-.6,2.13,2.13,0,0,0,.71-.28,12.39,12.39,0,0,0,1.61.32A11.83,11.83,0,0,1,143.66,146.31Z" fill="#010101"/></svg>