<svg xmlns="http://www.w3.org/2000/svg" viewBox="0 0 283.46 283.46"><circle cx="141.73" cy="141.73" r="73.77" fill="#f29f9c" stroke="#000" stroke-miterlimit="10" stroke-width="4"/><circle cx="141.73" cy="141.73" r="68.1" fill="none" stroke="#000" stroke-miterlimit="10" stroke-width="0.75" stroke-dasharray="2"/><path d="M173.41,178.82h-1.56l-11.68-20.44a5,5,0,0,0-4.29-2.5h-2.13a10.13,10.13,0,0,1-3.81-.73l-1.23-.49a13.38,13.38,0,0,0-4-.91c.32-.58.67-1.28,1-2.1,1.16-1.14,2.65-1.62,4.68-2.24a14.41,14.41,0,0,0,5.82,1.47,7.59,7.59,0,0,0,2.81-.51,7.87,7.87,0,0,0,4.3-4.73l.09-.22a1.1,1.1,0,0,0-.53-1.45l-.19-.1c-3.05-1.63-5.78-2.06-8.13-1.27a8.78,8.78,0,0,0-4.93,4.76c-1,.3-1.84.58-2.65.92a28.79,28.79,0,0,0,.81-3.29.84.84,0,0,0,.08-.2,1.27,1.27,0,0,0,0-.2,24.9,24.9,0,0,0,.29-6.11,20,20,0,0,0,3.73.37,11.93,11.93,0,0,0,6.44-1.68c2.6-1.63,4.33-4.37,5.13-8.13l0-.21a1.09,1.09,0,0,0-.81-1.31c-1.26-.3-11.29-2.35-15.52,5.79a24.49,24.49,0,0,0-2.21-4.94,11.35,11.35,0,0,0-3.17-8.33c-1.7-1.66-5-3.62-10.84-3.48h-.18a1.09,1.09,0,0,0-1.09,1.09v.22a11,11,0,0,0,2.85,8.2c2.31,2.33,5.9,3.53,10.66,3.58a21.72,21.72,0,0,1,2.68,7.54v.07s0,0,0,0a22.39,22.39,0,0,1,.23,3,8.12,8.12,0,0,0-2.32-2.17c-2.28-1.39-5.42-1.67-8.83-.79l-.09,0a1.1,1.1,0,0,0-.81,1.31l0,.15a8.37,8.37,0,0,0,8.77,7.41,14.51,14.51,0,0,0,2.55-.24,26.56,26.56,0,0,1-1.5,4.43,1,1,0,0,0-.09.21,25.68,25.68,0,0,1-1.63,3h-1a4.11,4.11,0,0,0-3.51,2l-2.09,3.48H132.3a4,4,0,0,0-3.24,1.67L126,165.11a4.06,4.06,0,0,1-3.29,1.69,6.21,6.21,0,0,0-5.26,2.89l-5.81,9.13h-1.58a1.09,1.09,0,1,0,0,2.18h63.35a1.09,1.09,0,0,0,0-2.18" fill="#010101" fill-rule="evenodd"/><line x1="175.27" y1="130.19" x2="188.78" y2="127.11" fill="none" stroke="#010101" stroke-miterlimit="10" stroke-dasharray="2"/><line x1="168.7" y1="116.55" x2="179.52" y2="107.92" fill="none" stroke="#010101" stroke-miterlimit="10" stroke-dasharray="2"/><line x1="156.86" y1="107.12" x2="162.88" y2="94.64" fill="none" stroke="#010101" stroke-miterlimit="10" stroke-dasharray="2"/><line x1="142.09" y1="103.73" x2="142.09" y2="89.9" fill="none" stroke="#010101" stroke-miterlimit="10" stroke-dasharray="2"/><line x1="127.3" y1="107.09" x2="121.32" y2="94.64" fill="none" stroke="#010101" stroke-miterlimit="10" stroke-dasharray="2"/><line x1="115.49" y1="116.56" x2="104.67" y2="107.92" fill="none" stroke="#010101" stroke-miterlimit="10" stroke-dasharray="2"/><line x1="108.9" y1="130.19" x2="95.41" y2="127.11" fill="none" stroke="#010101" stroke-miterlimit="10" stroke-dasharray="2"/></svg>