<svg xmlns="http://www.w3.org/2000/svg" viewBox="0 0 283.46 283.46"><circle cx="141.73" cy="141.73" r="73.77" fill="#d72728" stroke="#000" stroke-miterlimit="10" stroke-width="4"/><circle cx="141.73" cy="141.73" r="68.11" transform="translate(-43.45 65.03) rotate(-22.5)" fill="none" stroke="#000" stroke-miterlimit="10" stroke-width="0.75" stroke-dasharray="2"/><path d="M141.73,185.64v2.9a46.88,46.88,0,0,1-46.5-41.46l-3.83.21,5-5.56,5.56,5-3.8.22A43.74,43.74,0,0,0,141.73,185.64Z" fill="#010101"/><path d="M188.23,136.39a46.86,46.86,0,0,0-46.5-41.46v2.89a43.76,43.76,0,0,1,43.61,38.73l-3.81.21,5.56,5,5-5.56Z" fill="#010101"/><path d="M172.09,159.26a12.05,12.05,0,0,1-2.23-2.17c-1.69-1.94-4-4.6-8.41-4.6s-6.71,2.66-8.41,4.6-2.54,2.82-4.49,2.82-2.88-1-4.49-2.82-4-4.6-8.41-4.6-6.72,2.66-8.41,4.6-2.56,2.82-4.5,2.82-2.88-1-4.49-2.82a13.82,13.82,0,0,0-4.3-3.71,2.6,2.6,0,0,0-2.28,4.67,9.53,9.53,0,0,1,2.67,2.43c1.69,1.94,4,4.6,8.4,4.6s6.72-2.66,8.41-4.6,2.55-2.82,4.5-2.82,2.88,1,4.49,2.82,4,4.6,8.41,4.6,6.72-2.66,8.41-4.6,2.57-2.8,4.5-2.8,2.89,1,4.49,2.82a16.29,16.29,0,0,0,3.28,3.09,2.59,2.59,0,0,0,2.86-4.33Z" fill="#010101"/><path d="M172.09,148.14a12.05,12.05,0,0,1-2.23-2.17c-1.69-1.94-4-4.59-8.41-4.59S154.74,144,153,146s-2.54,2.82-4.49,2.82-2.88-1-4.49-2.82-4-4.59-8.41-4.59-6.72,2.65-8.41,4.59-2.56,2.81-4.5,2.81-2.88-1-4.49-2.81a13.69,13.69,0,0,0-4.3-3.71,2.6,2.6,0,0,0-2.28,4.67h0a9.38,9.38,0,0,1,2.67,2.43c1.69,1.94,4,4.59,8.4,4.59s6.72-2.65,8.41-4.59,2.55-2.82,4.5-2.82,2.88,1,4.49,2.82,4,4.59,8.41,4.59,6.72-2.65,8.41-4.59,2.57-2.8,4.5-2.8,2.89,1,4.49,2.82a16.57,16.57,0,0,0,3.28,3.09,2.59,2.59,0,0,0,2.86-4.33Z" fill="#010101"/><path d="M111.67,135.07a9.49,9.49,0,0,1,2.67,2.42c1.69,1.94,4,4.6,8.4,4.6s6.72-2.66,8.41-4.6,2.55-2.82,4.5-2.82,2.88,1,4.49,2.82,4,4.6,8.41,4.6,6.72-2.66,8.41-4.6,2.57-2.8,4.5-2.8,2.89,1,4.49,2.82a16.62,16.62,0,0,0,3.28,3.1,2.6,2.6,0,0,0,2.86-4.34,12.05,12.05,0,0,1-2.23-2.17c-1.69-1.94-4-4.6-8.41-4.6s-6.71,2.66-8.41,4.6-2.54,2.82-4.49,2.82-2.88-1-4.49-2.82-4-4.6-8.41-4.6-6.72,2.66-8.41,4.6-2.56,2.82-4.5,2.82-2.88-1-4.49-2.82a13.82,13.82,0,0,0-4.3-3.71,2.6,2.6,0,0,0-2.28,4.68Z" fill="#010101"/><path d="M172.09,125.15a12.33,12.33,0,0,1-2.23-2.16c-1.69-1.95-4-4.6-8.41-4.6S154.74,121,153,123s-2.54,2.81-4.49,2.81-2.88-1-4.49-2.81-4-4.6-8.41-4.6-6.72,2.65-8.41,4.6-2.56,2.81-4.5,2.81-2.88-1-4.49-2.82a13.69,13.69,0,0,0-4.3-3.71,2.6,2.6,0,0,0-2.28,4.67,9.53,9.53,0,0,1,2.67,2.43c1.69,1.94,4,4.59,8.4,4.59s6.72-2.65,8.41-4.59,2.55-2.82,4.5-2.82,2.88,1,4.49,2.82,4,4.59,8.41,4.59,6.72-2.65,8.41-4.59,2.57-2.8,4.5-2.8,2.89,1,4.49,2.82a16.29,16.29,0,0,0,3.28,3.09,2.59,2.59,0,0,0,2.86-4.33Z" fill="#010101"/></svg>