<svg xmlns="http://www.w3.org/2000/svg" viewBox="0 0 283.46 283.46"><circle cx="141.73" cy="141.73" r="73.77" fill="#1e78b5" stroke="#000" stroke-miterlimit="10" stroke-width="4"/><path d="M141.73,209.84a68.11,68.11,0,1,1,68.11-68.11A68.18,68.18,0,0,1,141.73,209.84Z" fill="none" stroke="#000" stroke-miterlimit="10" stroke-width="0.75" stroke-dasharray="2"/><line x1="104.64" y1="161.69" x2="136.68" y2="161.69" fill="none" stroke="#1d1d1b" stroke-miterlimit="10" stroke-width="8"/><line x1="149.13" y1="161.69" x2="181.16" y2="161.69" fill="none" stroke="#1d1d1b" stroke-miterlimit="10" stroke-width="8"/><path d="M109,100.65a2.14,2.14,0,0,0-2.16,2.11v0a104.94,104.94,0,0,0,.81,11c.76,5.89,1.86,12.51,5.54,16.18a16.32,16.32,0,0,0,18.93,3c-4.1-4.64-9-8.21-11.12-9a2.13,2.13,0,0,1,.75-4.12,2,2,0,0,1,.83.16c3.47,1.38,8.38,5.15,12.77,10.22,3.25,4.16,5.64,8.8,5.64,13.07V154a2.14,2.14,0,1,0,4.27,0V143.3c0-4.27,2.39-8.91,5.63-13.07,4.4-5.07,9.31-8.84,12.78-10.22a2,2,0,0,1,.83-.16,2.13,2.13,0,0,1,.75,4.12c-2.08.83-7,4.4-11.12,9A16.32,16.32,0,0,0,173,130c3.68-3.67,4.78-10.29,5.54-16.18a103.25,103.25,0,0,0,.8-11,2.12,2.12,0,0,0-2.11-2.15h0a103.25,103.25,0,0,0-11,.8c-5.89.76-12.51,1.87-16.18,5.54a16.33,16.33,0,0,0-2.22,20.26,36,36,0,0,0-4.68,7.27,35.56,35.56,0,0,0-4.67-7.27A16.34,16.34,0,0,0,136.18,107c-3.68-3.67-10.29-4.78-16.18-5.54A103.25,103.25,0,0,0,109,100.65Z" fill="#010101"/><line x1="143.07" y1="134.52" x2="143.07" y2="185.29" fill="none" stroke="#1d1d1b" stroke-miterlimit="10" stroke-width="5"/><circle cx="120.07" cy="177.97" r="4.31" fill="#1d1d1b"/><circle cx="167.79" cy="180.02" r="2.64" fill="#1d1d1b"/><circle cx="159.6" cy="190.75" r="1.64" fill="#1d1d1b"/></svg>