<svg xmlns="http://www.w3.org/2000/svg" viewBox="0 0 283.46 283.46"><circle cx="141.73" cy="141.73" r="73.77" fill="#fff" stroke="#000" stroke-miterlimit="10" stroke-width="4"/><circle cx="141.73" cy="141.73" r="68.1" fill="none" stroke="#000" stroke-miterlimit="10" stroke-width="0.75" stroke-dasharray="2"/><polygon points="152.81 125.98 152.81 125.98 152.81 125.98 152.81 125.98" fill="#010101"/><path d="M109.28,129v46.36h64.9V129L141.73,96.54Zm-4.64-1.92L141.73,90l37.09,37.09V180H104.64Z" fill="#010101"/><path d="M109.28,129v46.36h64.9V129L141.73,96.54Zm-4.64-1.92L141.73,90l37.09,37.09V180H104.64Z" fill="#010101"/><line x1="104.64" y1="186.73" x2="178.82" y2="187.25" fill="none" stroke="#1d1d1b" stroke-miterlimit="10" stroke-width="8"/><path d="M143.93,139.93l0-.05,1.19-2.27c-1.16-.05-2.3-.05-3.41-.05h0a44.66,44.66,0,0,0-7.92.5,8,8,0,0,0-5.45,3.18,47.47,47.47,0,0,0-3.43,7.24,4,4,0,0,0-2.64-1.17h-.87a2.33,2.33,0,0,0-2.31,2.31v1.67a2.42,2.42,0,0,0,2.38,2.37h1.15l-.34.47a9.89,9.89,0,0,0-1.62,5.74v11.28a2.36,2.36,0,0,0,2.35,2.36h3a2.36,2.36,0,0,0,2.36-2.36h0v-1.77H155v1.78a2.36,2.36,0,0,0,2.36,2.36h3.05a2.36,2.36,0,0,0,2.36-2.36h0V159.88a9.85,9.85,0,0,0-1.64-5.7,5.48,5.48,0,0,0-.34-.46H162a2.44,2.44,0,0,0,2.4-2.42v-1.67a2.34,2.34,0,0,0-2.31-2.31h-.87a3.91,3.91,0,0,0-2.51,1.06L156.79,152a4.76,4.76,0,0,1-8.94-2.92l.3-1.79a5.06,5.06,0,0,1-4.74-5.35,5.23,5.23,0,0,1,.49-1.9Zm-11.05,22.29h-4.33a1.84,1.84,0,0,1-1.84-1.85v-1.11a1.84,1.84,0,0,1,1.85-1.84,1.76,1.76,0,0,1,.46.06l4.32,1.13a1.85,1.85,0,0,1,1.22,2.31,1.83,1.83,0,0,1-1.68,1.3Zm17.24-3.61,4.32-1.13a1.84,1.84,0,0,1,2.25,1.32,1.74,1.74,0,0,1,.06.45v1.13a1.85,1.85,0,0,1-1.85,1.85h-4.31a1.85,1.85,0,0,1-.46-3.61Zm5-26.66-.88,5.43,3.61.16h.2a1.8,1.8,0,0,1,1.44,2.09,1.68,1.68,0,0,1-.17.49l-5.4,10.36a1.48,1.48,0,0,1-1.34.84h-.24a1.51,1.51,0,0,1-1.24-1.72v0l.89-5.43-3.6-.17h-.2a1.79,1.79,0,0,1-1.48-2.06,2,2,0,0,1,.16-.49l5.42-10.36a1.49,1.49,0,0,1,1.34-.83h.24a1.49,1.49,0,0,1,1.24,1.71Z" fill="#010101"/></svg>