<svg xmlns="http://www.w3.org/2000/svg" viewBox="0 0 283.46 283.46"><circle cx="141.73" cy="141.73" r="73.77" fill="#f07e20" stroke="#000" stroke-miterlimit="10" stroke-width="4"/><circle cx="141.73" cy="141.73" r="68.11" fill="none" stroke="#000" stroke-miterlimit="10" stroke-width="0.75" stroke-dasharray="2"/><circle cx="147.63" cy="123.46" r="21" fill="#f07e20" stroke="#000" stroke-miterlimit="10" stroke-width="4"/><text transform="translate(134.11 135.87)" font-size="37.37" font-family="AkkuratPro-Bold, Akkurat Pro" font-weight="700">€</text><path d="M130.93,151a21.33,21.33,0,0,0-15.63,4.62L101,167.11l12.4,15.35,9.64-7.79L154.83,178l25.83-20.88a4.65,4.65,0,0,0,1-6.17,4.55,4.55,0,0,0-6.65-1l-19.5,15.76L138.42,164a1.5,1.5,0,0,1,.31-3l13.7,1.43a4.56,4.56,0,0,0,5-4.35,4.66,4.66,0,0,0-4.23-4.72Z" fill="#010101"/></svg>