<svg xmlns="http://www.w3.org/2000/svg" viewBox="0 0 283.46 283.46"><circle cx="141.73" cy="141.73" r="73.77" fill="#fadfd3" stroke="#000" stroke-miterlimit="10" stroke-width="4"/><circle cx="141.73" cy="141.73" r="68.11" transform="translate(-58.71 141.73) rotate(-45)" fill="none" stroke="#000" stroke-miterlimit="10" stroke-width="0.75" stroke-dasharray="2"/><path d="M144.72,104.1l0,0,1.19-2.28c-1.17,0-2.31,0-3.41,0h0a45.63,45.63,0,0,0-7.92.51,7.94,7.94,0,0,0-5.46,3.17,47.2,47.2,0,0,0-3.43,7.25,4,4,0,0,0-2.63-1.18h-.88a2.34,2.34,0,0,0-2.31,2.31v1.67a2.43,2.43,0,0,0,2.38,2.38h1.15l-.34.46a9.9,9.9,0,0,0-1.61,5.74v11.28a2.36,2.36,0,0,0,2.35,2.36h3a2.36,2.36,0,0,0,2.36-2.36h0v-1.76h26.58v1.77a2.36,2.36,0,0,0,2.35,2.36h3.06a2.36,2.36,0,0,0,2.36-2.36h0V124a10,10,0,0,0-1.64-5.7c-.11-.16-.23-.32-.34-.46h1.15a2.43,2.43,0,0,0,2.39-2.42v-1.67a2.33,2.33,0,0,0-2.31-2.31H162a3.87,3.87,0,0,0-2.51,1.07l-1.88,3.57a4.76,4.76,0,0,1-8.94-2.91l.3-1.79a5.06,5.06,0,0,1-4.74-5.36,5,5,0,0,1,.5-1.89Zm11.15-8-.88,5.43,3.61.16h.2a1.79,1.79,0,0,1,1.44,2.09,1.85,1.85,0,0,1-.17.5l-5.4,10.36a1.49,1.49,0,0,1-1.34.83h-.24a1.49,1.49,0,0,1-1.23-1.72v0l.9-5.43-3.61-.16H149a1.79,1.79,0,0,1-1.47-2.07,1.76,1.76,0,0,1,.16-.49l5.41-10.36a1.49,1.49,0,0,1,1.34-.83h.24a1.5,1.5,0,0,1,1.24,1.72Z" fill="#010101"/><circle cx="129.58" cy="121.93" r="2.1" fill="#fdfdfd"/><circle cx="155.31" cy="121.93" r="2.1" fill="#fdfdfd"/><circle cx="113.27" cy="126.97" r="2" fill="#010101"/><circle cx="109.06" cy="133.43" r="2" fill="#010101"/><circle cx="111.27" cy="140.71" r="2" fill="#010101"/><circle cx="171.79" cy="126.97" r="2" fill="#010101"/><circle cx="176" cy="133.43" r="2" fill="#010101"/><circle cx="173.79" cy="140.71" r="2" fill="#010101"/><path d="M122.53,154.74a7,7,0,1,0-7-7A7,7,0,0,0,122.53,154.74Zm0-11a4,4,0,1,1-4,4A4,4,0,0,1,122.53,143.74Z" fill="#010101"/><path d="M155.52,147.74a7,7,0,1,0,7-7A7,7,0,0,0,155.52,147.74Zm11,0a4,4,0,1,1-4-4A4,4,0,0,1,166.52,147.74Z" fill="#010101"/><path d="M142.53,142.54a8.3,8.3,0,1,0,8.29,8.3A8.31,8.31,0,0,0,142.53,142.54Zm0,13.59a5.3,5.3,0,1,1,5.29-5.29A5.3,5.3,0,0,1,142.53,156.13Z" fill="#010101"/><path d="M162.6,157.57h-.15a13.11,13.11,0,0,0-12,7.9,15.34,15.34,0,0,0-15.8,0,13.13,13.13,0,0,0-12-7.9h-.16a13.12,13.12,0,0,0-13.1,13.1v3.57a1.5,1.5,0,0,0,3,0v-3.57a10.11,10.11,0,0,1,10.1-10.1h.16a10.13,10.13,0,0,1,9.52,6.75,15.43,15.43,0,0,0-5.1,11.46,1.5,1.5,0,0,0,3,0,12.46,12.46,0,0,1,2.72-7.77,12.67,12.67,0,0,1,2.76-2.56A12.52,12.52,0,0,1,155,178.78a1.5,1.5,0,0,0,3,0,15.47,15.47,0,0,0-5.1-11.46,10.11,10.11,0,0,1,9.52-6.75h.15a10.12,10.12,0,0,1,10.11,10.1v3.57a1.5,1.5,0,0,0,3,0v-3.57A13.12,13.12,0,0,0,162.6,157.57Z" fill="#010101"/></svg>