<svg xmlns="http://www.w3.org/2000/svg" viewBox="0 0 283.46 283.46"><circle cx="141.73" cy="141.73" r="73.77" fill="#9697cb" stroke="#000" stroke-miterlimit="10" stroke-width="4"/><circle cx="141.73" cy="141.73" r="68.11" transform="translate(-28.77 247.11) rotate(-76.72)" fill="none" stroke="#000" stroke-miterlimit="10" stroke-width="0.75" stroke-dasharray="2"/><line x1="104.64" y1="186.73" x2="178.82" y2="187.25" fill="none" stroke="#1d1d1b" stroke-miterlimit="10" stroke-width="8"/><path d="M160.1,166.87a7.71,7.71,0,0,1-7.73,6.56,7.88,7.88,0,0,1-6.76-3.84H135.2v4.18H129v-4.18h-.43l-.94-9.45-17.46,18.23-3-3,20-20.83-.65-6.55c-.68-6.76-1.4-13.93-2-19.74L106,108.16l3-3,11.75,12.74v-1.16h2.71c.23-1.6,1-2.45,2.55-3.48l.57-.4h.06a8.88,8.88,0,0,1,1.3-.58v-1.9h6.25v.7c1-.09,2-.16,3-.19v-1.56h11.47v1.85a27.25,27.25,0,0,1,7.39,1.68h0l.52.22a6.9,6.9,0,0,1,.85.45,4.06,4.06,0,0,1,2.32-.7,4.12,4.12,0,0,1,4.07,3.24l10.53-11,3,3.15L163.5,122.75v7.7h-4.58c-.65,8.2-1.47,18.58-2.08,26.55l16.9,18.34-3,3.06Zm-7.73-3.08a2.11,2.11,0,1,0,2.32,2.11,2.18,2.18,0,0,0-2.27-2.11Zm-10,1.89h2.21a7.66,7.66,0,0,1,7.73-7.33L141,146.15l-9.82,10.24.92,9.29ZM153.22,153c.52-6.78,1.16-14.66,1.68-21.35l-10.85,11.38Zm-24.39-20.08c.56,5.66,1.16,12,1.77,17.79l7.46-7.78Zm12.21,7,4.37-4.57h-8.52v-5.61h13.93l3.68-3.82v-4H127.8l.38,4Zm18.78-13.05v-.29l-.28.29Zm-4.47-10.15-.15-.07-.22-.08-.56-.23a12.86,12.86,0,0,0-1.94-.61,27.43,27.43,0,0,0-3.71-.65v.55H137.3v-.89a26.57,26.57,0,0,0-3.05.21v1.77Zm-27.34,0v-.21l-.28.21Z" fill="#010101"/></svg>