<svg xmlns="http://www.w3.org/2000/svg" viewBox="0 0 283.46 283.46"><circle cx="141.73" cy="141.73" r="73.77" fill="#39509e" stroke="#000" stroke-miterlimit="10" stroke-width="4"/><path d="M141.73,209.84a68.11,68.11,0,1,1,68.11-68.11A68.18,68.18,0,0,1,141.73,209.84Z" fill="none" stroke="#000" stroke-miterlimit="10" stroke-width="0.75" stroke-dasharray="2"/><path d="M141.73,185.64v2.9a46.88,46.88,0,0,1-46.5-41.46l-3.83.21,5-5.56,5.56,5-3.8.22A43.74,43.74,0,0,0,141.73,185.64Z" fill="#010101"/><path d="M188.23,136.39a46.86,46.86,0,0,0-46.5-41.46v2.89a43.76,43.76,0,0,1,43.61,38.73l-3.81.21,5.56,5,5-5.56Z" fill="#010101"/><path d="M109.35,160.72a1,1,0,0,0,1.11,1.11h30.16V147.32H109.35Zm12.28-10.05h6.7a1.12,1.12,0,1,1,0,2.23h-6.7a1.12,1.12,0,1,1,0-2.23Zm-12.28-5.59h31.27V133.92H109.35Zm12.28-7.81h6.7a1.12,1.12,0,1,1,0,2.23h-6.7a1.12,1.12,0,1,1,0-2.23Zm-12.28-14.52v8.93h31.27V121.63H110.46A1.05,1.05,0,0,0,109.35,122.75ZM121.63,125h6.7a1.12,1.12,0,1,1,0,2.23h-6.7a1.12,1.12,0,1,1,0-2.23Z" fill="#010101"/><path d="M142.85,161.83h31.27v-40.2H142.85Zm26.8-27.91H147.32v-2.24h22.33Zm0,20.1H147.32V138.38h22.33Zm-2.23-29.26a1.59,1.59,0,0,1,1.56,1.56,1.57,1.57,0,1,1-1.56-1.56Zm-5.81,0a1.59,1.59,0,0,1,1.56,1.56,1.56,1.56,0,0,1-3.12,0A1.59,1.59,0,0,1,161.61,124.76Zm-5.7,0a1.6,1.6,0,0,1,1.57,1.56,1.57,1.57,0,1,1-1.57-1.56Zm-5.8,0a1.59,1.59,0,0,1,1.56,1.56,1.57,1.57,0,0,1-3.13,0A1.6,1.6,0,0,1,150.11,124.76Z" fill="#010101"/></svg>