<svg xmlns="http://www.w3.org/2000/svg" viewBox="0 0 283.46 283.46"><circle cx="141.73" cy="141.73" r="73.77" fill="#f29f9c" stroke="#000" stroke-miterlimit="10" stroke-width="0.75" stroke-dasharray="2"/><path d="M141.73,209.84a68.11,68.11,0,1,1,68.11-68.11A68.18,68.18,0,0,1,141.73,209.84Z" fill="none" stroke="#000" stroke-miterlimit="10" stroke-width="0.75" stroke-dasharray="2"/><path d="M149.94,151.91a16.82,16.82,0,0,0,16.82,16.81,16.56,16.56,0,0,0,1.73-.09v3.12a7.55,7.55,0,0,1-2.24,5.39c-.17.17-.35.34-.54.5a7.6,7.6,0,0,1-4.86,1.74H122.4a7.6,7.6,0,0,1-4.86-1.74c-.19-.16-.37-.33-.54-.5a7.61,7.61,0,0,1-2.24-5.39v-60a7.64,7.64,0,0,1,7.51-7.63h1.57v3.59h36.09v-3.59h1.27a7.63,7.63,0,0,1,7.29,7.62v23.46a16.56,16.56,0,0,0-1.73-.09A16.82,16.82,0,0,0,149.94,151.91Z" fill="none" stroke="#000" stroke-linecap="round" stroke-linejoin="round" stroke-width="2.87"/><path d="M168.49,168.63a16.56,16.56,0,0,1-1.73.09,16.82,16.82,0,1,1,0-33.63,16.56,16.56,0,0,1,1.73.09" fill="none" stroke="#000" stroke-linecap="round" stroke-linejoin="round" stroke-width="2.87"/><path d="M175.66,146.86,163,159.49q-3.28-3.27-6.56-6.56l1.7-1.7c1.6,1.61,3.25,3.26,4.86,4.86L174,145.16Z" fill-rule="evenodd"/><text transform="translate(125.28 121.52)" font-size="7.24" stroke="#1d1d1b" stroke-miterlimit="10" stroke-width="0.5" font-family="AkkuratPro-Bold, Akkurat Pro" font-weight="700" letter-spacing="0.1em">TEA/<tspan x="18.94" y="0" letter-spacing="0.07em">L</tspan><tspan x="23.43" y="0" letter-spacing="0.09em">C</tspan><tspan x="28.59" y="0" letter-spacing="0.1em">A</tspan></text><text transform="translate(125.28 164.98)" font-size="7.24" stroke="#1d1d1b" stroke-miterlimit="10" stroke-width="0.5" font-family="AkkuratPro-Bold, Akkurat Pro" font-weight="700" letter-spacing="0.12em">C<tspan x="5.45" y="0" letter-spacing="0.1em">02</tspan></text><path d="M155.67,98.09h-8.29a5.53,5.53,0,0,0-11,0H128a5.54,5.54,0,0,0-5.53,5.53h0v2.76h0v1.39a1.38,1.38,0,0,0,1.38,1.38h35.93a1.38,1.38,0,0,0,1.38-1.38v-4.15A5.54,5.54,0,0,0,155.67,98.09Zm2.77,8.29H125.28v-2.76a2.77,2.77,0,0,1,2.76-2.76h11.05V98.09a2.77,2.77,0,0,1,5.53,0v2.77h11a2.77,2.77,0,0,1,2.77,2.76Z"/><path d="M158.44,103.62v2.76H125.28v-2.76a2.77,2.77,0,0,1,2.76-2.76h11.05V98.09a2.77,2.77,0,0,1,5.53,0v2.77h11A2.77,2.77,0,0,1,158.44,103.62Z" fill="none"/><line x1="126.27" y1="152.3" x2="149.94" y2="152.3" fill="none" stroke="#000" stroke-linecap="round" stroke-linejoin="round" stroke-width="1.71"/><line x1="126.27" y1="130.98" x2="156.97" y2="130.98" fill="none" stroke="#000" stroke-linecap="round" stroke-linejoin="round" stroke-width="1.71"/><line x1="126.27" y1="141.64" x2="153.44" y2="141.64" fill="none" stroke="#000" stroke-linecap="round" stroke-linejoin="round" stroke-width="1.71"/><line x1="147.04" y1="162.97" x2="154.1" y2="162.97" fill="none" stroke="#000" stroke-linecap="round" stroke-linejoin="round" stroke-width="1.71"/></svg>