<svg xmlns="http://www.w3.org/2000/svg" viewBox="0 0 283.46 283.46"><circle cx="141.73" cy="141.73" r="73.77" fill="#9697cb" stroke="#000" stroke-miterlimit="10" stroke-width="4"/><circle cx="141.73" cy="141.73" r="68.11" fill="none" stroke="#000" stroke-miterlimit="10" stroke-width="0.75" stroke-dasharray="2"/><path d="M161.13,141.39c.75-2.26,2-6.83,3.72-9.11l-35.53-20.7c-.68,2-2.71,6.72-6.88,8.84-5.3,2.72-12.07.11-12.07.11s1.85-7,7.16-9.72a14.37,14.37,0,0,1,8.84-1l-2.86-1.67c-1.67-.54-6.92-2.55-9.19-7-2.71-5.31-.11-12.07-.11-12.07s7,1.84,9.73,7.15a12.87,12.87,0,0,1,1.2,6.61L155.3,120.5l-3-9.44a7.6,7.6,0,0,1-5.15.51c-2.84-.91-4.31-4.23-4.31-4.23s3.14-1.82,6-.9a6.25,6.25,0,0,1,2.58,1.71l-2.11-6.73a1.35,1.35,0,1,1,2.57-.81l3,9.61a4.83,4.83,0,0,1,.23-1.34c.92-2.83,4.23-4.3,4.23-4.3s1.83,3.13.91,6a8,8,0,0,1-4,4.17l2.45,7.82,26.64,15.55-3.88-12.34a7.65,7.65,0,0,1-5.15.52c-2.83-.92-4.31-4.23-4.31-4.23s3.14-1.83,6-.91a6.25,6.25,0,0,1,2.58,1.71l-2.11-6.73a1.35,1.35,0,1,1,2.57-.8l3,9.6a5.62,5.62,0,0,1,.23-1.33c.92-2.84,4.23-4.31,4.23-4.31s1.83,3.13.91,6a8.12,8.12,0,0,1-4,4.17l3.36,10.71,6.66,3.88-1.68,5.19-26.65-15.53c-2,2.44-3.33,7.14-3.78,8.53l0,.09" fill="#010101"/><path d="M118.1,168.59c0-.28,0,.28,0,0Z" fill="#010101"/><path d="M118.74,166c0,.09,0-.09,0,0Z" fill="#010101"/><path d="M134.51,143.9h0a2.88,2.88,0,0,1,1.12,1.44,2.92,2.92,0,0,1-1.79,3.71c-.11,0-10.82,4.76-16.19,7.48.87-1.95,3.18-3.41,4.06-3.91,3.78-2.16,6-3.47,7.82-4.51l2.32-1.35A6.27,6.27,0,0,0,134.51,143.9Z" fill="#010101"/><path d="M132.75,141.27c.52,1.52-.59,3-1.92,3.75-.75.42-1.48.85-2.33,1.35-1.78,1-4,2.35-7.8,4.49,0,0-4.56,2.63-5.4,6.15a10.08,10.08,0,0,0,1.2,8.19,5.7,5.7,0,0,0,4.44,2.79c1.38.11,3.74-1,7.22-2.67a26.7,26.7,0,0,1,4.83-2.08c2-.34,3.77,1.53,4.88,3.55-2.09,1.25-7.87,4.78-13.62,8.7-2.29,1.56-4.18,3.1-5.84,4.46a34.08,34.08,0,0,1-5.65,4.05c-4,2-10,2.58-12.36,2.73h-.11l-7.71-12.25c1.28-.72,4.83-3,8.68-8.39a68.4,68.4,0,0,0,4.35-7.5c1.91-3.62,3.89-7.36,5.9-9.53,1.09-.91,16.77-9.26,17.55-9.6A3,3,0,0,1,132.75,141.27Z" fill="#010101"/><path d="M117,159.16c2.94-1.63,11.44-5.49,15.49-7.3a2.9,2.9,0,0,1-1.74,3.51,138.6,138.6,0,0,0-13.62,6.1A4.8,4.8,0,0,1,117,159.16Z" fill="#010101"/><path d="M118.19,164.09c-.14-.23-.27-.45-.39-.68,4.32-2.29,8.84-4.21,11.47-5.28a2.66,2.66,0,0,1-1.82,3.34s-3.92,1.67-8.26,3.72A4.17,4.17,0,0,1,118.19,164.09Z" fill="#010101"/><path d="M156.41,138.58a9.13,9.13,0,0,0-2.21,1.31,10.92,10.92,0,0,0-3.08,4.69,15,15,0,0,0-6-1,5.87,5.87,0,0,0-2,.45c-3.16,1.29-5.35,5.28-3.53,9.71s8,6.65,12.6,8.33l.74.28a44.72,44.72,0,0,1,6,2.63.65.65,0,0,0,.56,0h0a.67.67,0,0,0,.38-.41,44.65,44.65,0,0,1,2.44-6.1l.32-.67c2.07-4.42,4.91-10.46,3.12-14.83S160.28,137,156.41,138.58Z" fill="#010101"/></svg>