<svg xmlns="http://www.w3.org/2000/svg" viewBox="0 0 283.46 283.46"><circle cx="141.73" cy="141.73" r="73.77" fill="#39509e" stroke="#000" stroke-miterlimit="10" stroke-width="4"/><circle cx="141.73" cy="141.73" r="68.11" transform="translate(-20.87 258.93) rotate(-80.78)" fill="none" stroke="#000" stroke-miterlimit="10" stroke-width="0.75" stroke-dasharray="2"/><path d="M109.28,129v46.36h64.9V129L141.73,96.54Zm-4.64-1.92L141.73,90l37.09,37.09V180H104.64Z" fill="#010101"/><path d="M109.28,129v46.36h64.9V129L141.73,96.54Zm-4.64-1.92L141.73,90l37.09,37.09V180H104.64Z" fill="#010101"/><line x1="104.64" y1="186.73" x2="178.82" y2="187.25" fill="none" stroke="#1d1d1b" stroke-miterlimit="10" stroke-width="8"/><polyline points="101.64 124.06 141.73 83.97 181.83 124.06" fill="none" stroke="#010101" stroke-miterlimit="10" stroke-dasharray="2"/><path d="M128,156.65a18.27,18.27,0,0,0,27.66-.16" fill="none" stroke="#151513" stroke-miterlimit="10" stroke-width="8.86"/><path d="M138.33,126.58a18.28,18.28,0,0,0-13.86,24.1" fill="none" stroke="#151513" stroke-miterlimit="10" stroke-width="8.86"/><path d="M159.07,150.47a18.3,18.3,0,0,0-13.81-23.87" fill="none" stroke="#151513" stroke-miterlimit="10" stroke-width="8.86"/><path d="M128,156.65a18.27,18.27,0,0,0,27.66-.16" fill="none" stroke="#151513" stroke-miterlimit="10" stroke-width="0.5"/><polygon points="133.59 152.92 123.55 161.74 124.16 152.31 133.59 152.92" fill="#151513"/><path d="M138.33,126.58a18.28,18.28,0,0,0-13.86,24.1" fill="none" stroke="#151513" stroke-miterlimit="10" stroke-width="0.5"/><polygon points="138.69 133.32 136.22 120.18 144.02 125.52 138.69 133.32" fill="#151513"/><path d="M159.07,150.47a18.3,18.3,0,0,0-13.81-23.87" fill="none" stroke="#151513" stroke-miterlimit="10" stroke-width="0.5"/><polygon points="153.03 147.47 165.68 151.78 157.2 155.95 153.03 147.47" fill="#151513"/></svg>