<svg xmlns="http://www.w3.org/2000/svg" viewBox="0 0 283.46 283.46"><circle cx="141.73" cy="141.73" r="73.77" fill="#f07e20" stroke="#000" stroke-miterlimit="10" stroke-width="4"/><circle cx="141.73" cy="141.73" r="68.11" transform="translate(-43.45 65.03) rotate(-22.5)" fill="none" stroke="#000" stroke-miterlimit="10" stroke-width="0.75" stroke-dasharray="2"/><path d="M165.46,128.56c.74-1.22,1.45-1.72.49-3.18.11-.67.75-1.44-.07-1.57a1.34,1.34,0,0,0-1.54.87l-.32.15c0-.31-.27-.56-1.12-.16.7-1.72-.14-1.53.43-2.41a1.4,1.4,0,0,0-.74-2.09c1-1.42-1.32-1.9-2.37-.67,0-.7-.08-1.78-.52-1.56-.61.3.24-1-.38-1.89-1.06-1.57-2.26-1.32-2.61-.79-.34-.12-.35-.7-1.32-.57-.52-1-1.73.07-1.38,1.21-1-.05-1.18.71-.46,1.12-.65.37-1.37,1.27-1.18,2a2.23,2.23,0,0,0-.22,1.52c-.59-.46-1.71.15-1.49,1.43-1.19-1-1.93,1-1.73,2a1.22,1.22,0,0,0-.93.82c-.66-.32-2.17.35-1.41,1.1-2.54.89-.45,4.06,1.07,4.12-.45,1.06.28,1.93,1.47,2.25.12,1.09,2.68,1,3.07-.26l.15.06a1.26,1.26,0,0,0,1.86.49h0a19.45,19.45,0,0,1,1.91,2.82c-.1,1.78-.16,3.57-.17,4.1h1.91c0-.91-.41-3.76-.42-4.24,0-.32,0-.9,0-1.68.35-.44.77-.95,1.19-1.38a15,15,0,0,0,3.66-.83,4.75,4.75,0,0,0,1.51-.21c-1.15,1.55,1.56,1.28,2.38,0S167.08,127.68,165.46,128.56Zm-9.05,3.14c-.08.52-.15,1.39-.22,2.37a19.68,19.68,0,0,0-1.5-1.91,3.81,3.81,0,0,0,.86-1c.07-.14.4,0,.94,0C156.46,131.35,156.44,131.53,156.41,131.7Zm1.08.77c0-.4,0-.82,0-1.27a4.92,4.92,0,0,0,1.7-.44,1.42,1.42,0,0,1,.78.07A5.27,5.27,0,0,0,157.49,132.47Zm1.56-.71a2,2,0,0,1,.89-.53,2,2,0,0,0,.62-.25,11.32,11.32,0,0,0,1.41.29A11,11,0,0,1,159.05,131.76Z" fill="#010101"/><path d="M154.76,151.53c.74-1.22,1.45-1.72.49-3.18.11-.67.76-1.44-.06-1.57a1.35,1.35,0,0,0-1.55.87l-.31.15c0-.31-.28-.56-1.12-.16.69-1.72-.14-1.53.43-2.41a1.41,1.41,0,0,0-.75-2.09c1-1.42-1.31-1.9-2.37-.67,0-.7-.08-1.78-.52-1.56-.61.3.24-1-.37-1.89-1.06-1.57-2.26-1.32-2.62-.79-.34-.12-.35-.7-1.31-.57-.53-1-1.74.07-1.38,1.21-1-.05-1.19.71-.46,1.12-.65.37-1.38,1.27-1.19,2a2.23,2.23,0,0,0-.22,1.52c-.59-.46-1.71.15-1.49,1.43-1.18-1-1.92,1-1.73,2a1.19,1.19,0,0,0-.92.82c-.67-.32-2.17.35-1.42,1.1-2.54.89-.45,4.06,1.07,4.12-.45,1.06.28,1.93,1.47,2.25.12,1.09,2.68,1,3.07-.26l.15.06a1.26,1.26,0,0,0,1.86.49h0a19.45,19.45,0,0,1,1.91,2.82c-.09,1.78-.15,3.57-.16,4.1h1.9c0-.91-.41-3.76-.42-4.24,0-.32,0-.9,0-1.68A14.83,14.83,0,0,1,148,155.1a14.93,14.93,0,0,0,3.65-.83,4.68,4.68,0,0,0,1.51-.21c-1.15,1.55,1.57,1.28,2.39.05S156.38,150.65,154.76,151.53Zm-9,3.14c-.08.52-.15,1.39-.21,2.37a19.79,19.79,0,0,0-1.51-1.91,4.1,4.1,0,0,0,.87-1c.06-.14.4,0,.93,0C145.77,154.32,145.74,154.5,145.71,154.67Zm1.09.77c0-.4,0-.82,0-1.27a4.92,4.92,0,0,0,1.7-.44,1.46,1.46,0,0,1,.79.07A5.17,5.17,0,0,0,146.8,155.44Zm1.55-.71a2,2,0,0,1,.89-.53,1.89,1.89,0,0,0,.62-.25,11.32,11.32,0,0,0,1.41.29A11,11,0,0,1,148.35,154.73Z" fill="#010101"/><path d="M177.21,151.53c.75-1.22,1.45-1.72.5-3.18.1-.67.75-1.44-.07-1.57a1.34,1.34,0,0,0-1.54.87l-.32.15c0-.31-.27-.56-1.12-.16.7-1.72-.14-1.53.43-2.41a1.4,1.4,0,0,0-.74-2.09c1-1.42-1.32-1.9-2.37-.67,0-.7-.09-1.78-.52-1.56-.61.3.23-1-.38-1.89-1.06-1.57-2.26-1.32-2.61-.79-.35-.12-.35-.7-1.32-.57-.52-1-1.74.07-1.38,1.21-1-.05-1.18.71-.46,1.12-.65.37-1.37,1.27-1.19,2a2.18,2.18,0,0,0-.21,1.52c-.59-.46-1.72.15-1.5,1.43-1.18-1-1.92,1-1.73,2a1.21,1.21,0,0,0-.92.82c-.66-.32-2.17.35-1.42,1.1-2.53.89-.45,4.06,1.08,4.12-.46,1.06.28,1.93,1.47,2.25.12,1.09,2.67,1,3.07-.26l.15.06a1.25,1.25,0,0,0,1.85.49h0a20.35,20.35,0,0,1,1.9,2.82c-.09,1.78-.15,3.57-.16,4.1h1.9c0-.91-.41-3.76-.42-4.24,0-.32,0-.9,0-1.68a16.5,16.5,0,0,1,1.19-1.38,15.08,15.08,0,0,0,3.66-.83,4.75,4.75,0,0,0,1.51-.21c-1.16,1.55,1.56,1.28,2.38.05S178.83,150.65,177.21,151.53Zm-9,3.14c-.08.52-.16,1.39-.22,2.37a19.79,19.79,0,0,0-1.51-1.91,3.89,3.89,0,0,0,.87-1c.06-.14.4,0,.93,0C168.22,154.32,168.19,154.5,168.17,154.67Zm1.08.77c0-.4,0-.82,0-1.27a5,5,0,0,0,1.7-.44,1.42,1.42,0,0,1,.78.07A5.22,5.22,0,0,0,169.25,155.44Zm1.56-.71a2.08,2.08,0,0,1,.88-.53,1.89,1.89,0,0,0,.62-.25,11.32,11.32,0,0,0,1.41.29A11,11,0,0,1,170.81,154.73Z" fill="#010101"/><text transform="translate(98.28 157.77)" font-size="52.24" font-family="AkkuratPro-Bold, Akkurat Pro" font-weight="700" letter-spacing="0.1em">S</text><text transform="translate(80.73 155.02)" font-size="52.24" font-family="AkkuratPro-Bold, Akkurat Pro" font-weight="700" letter-spacing="0.1em">[</text><text transform="translate(178.55 155.02)" font-size="52.24" font-family="AkkuratPro-Bold, Akkurat Pro" font-weight="700" letter-spacing="0.1em">]</text></svg>