<svg xmlns="http://www.w3.org/2000/svg" viewBox="0 0 283.46 283.46"><circle cx="141.73" cy="141.73" r="73.77" fill="#8d574c" stroke="#000" stroke-miterlimit="10" stroke-width="4"/><circle cx="141.73" cy="141.73" r="68.11" fill="none" stroke="#000" stroke-miterlimit="10" stroke-width="0.75" stroke-dasharray="2"/><path d="M160.92,116.81l4.56-1.94.45.33a9.51,9.51,0,0,1-.67,2.49q-3.42,6-7,11.81a2.12,2.12,0,0,1-1.52.95c-4.82-.31-9.64-.72-14.44-1.17a5.83,5.83,0,0,1-1.73-.75,13.05,13.05,0,0,1,1.44-1.44,17.88,17.88,0,0,1,2.26-1.13c-2.9-5.23-5.51-10.47-8.66-15.37-1.24-1.93-3.68-3.09-5.42-4.49a8.16,8.16,0,0,1,1-.08c5.76,0,11.53.08,17.29,0,4.85-.09,8.4,1.63,10.21,6.36A48.76,48.76,0,0,0,160.92,116.81Z" fill="#1d1d1b" fill-rule="evenodd"/><path d="M146.68,153.06c6,0,16.9.08,22.57-.05a9.92,9.92,0,0,0,3.85-1.2,28.54,28.54,0,0,0,3.49-2.39c-2.2,4-4.22,7.66-6.23,11.32-1.49,2.71-3.06,5.38-4.45,8.14a6.15,6.15,0,0,1-6,3.63H147.78c0,1.33.07,2.48,0,3.63,0,.48-.32,1.2-.66,1.31a1.55,1.55,0,0,1-1.38-.54q-4.23-6.32-8.31-12.74a1.73,1.73,0,0,1,.15-1.47q3.51-6.22,7.13-12.38c.26-.44.89-.66,1.35-1a5.63,5.63,0,0,1,.63,1.43A17.62,17.62,0,0,1,146.68,153.06Z" fill="#1d1d1b" fill-rule="evenodd"/><path d="M151.42,135.83,167,126.77c1.75,2.66,3.43,5.23,5.11,7.8,1.32,2,2.65,4,4,6a4.19,4.19,0,0,1,.43,4.4,9.77,9.77,0,0,1-8.07,5.73,58.14,58.14,0,0,1-6.86,0,2.06,2.06,0,0,1-1.51-.7C157.2,145.41,154.38,140.7,151.42,135.83Z" fill="#1d1d1b" fill-rule="evenodd"/><path d="M127.12,136.27,112,126.16s4.35-6.65,5.68-8.78a58.08,58.08,0,0,0,3.69-6c2.1-4.47,7.41-4,10-1.57,2.89,2.59,4.65,5.89,6.2,9.35a1.73,1.73,0,0,1-.22,1.33C134.6,124.93,127.12,136.27,127.12,136.27Z" fill="#1d1d1b" fill-rule="evenodd"/><path d="M111.5,141.87v.24h-3.1a1.54,1.54,0,0,0-1.55,1.51V173.9a1.54,1.54,0,0,0,1.55,1.55h14.75a1.55,1.55,0,0,0,1.55-1.55V143.62a1.52,1.52,0,0,0-1.55-1.51H120v-.24a1.4,1.4,0,0,0-1.47-1.35H113A1.43,1.43,0,0,0,111.5,141.87Zm7,.2v1.59l4.66,0V173.9H108.4V143.62h4.66v-1.55Zm-8.73,30.28v-6.13h12v6.13Z" fill="#010101"/></svg>