<svg xmlns="http://www.w3.org/2000/svg" viewBox="0 0 283.46 283.46"><circle cx="141.73" cy="141.73" r="73.77" fill="#9697cb" stroke="#000" stroke-miterlimit="10" stroke-width="4"/><circle cx="141.73" cy="141.73" r="68.11" fill="none" stroke="#000" stroke-miterlimit="10" stroke-width="0.75" stroke-dasharray="2"/><text transform="translate(121.28 165.89)" font-size="21" fill="#1d1d1b" font-family="HelveticaNeue-CondensedBlack, Helvetica Neue" font-weight="800">(3RI)</text><path d="M108.46,176.93v-6.31a2.67,2.67,0,0,1,5.33,0v3.64h52.93v-64.4H113.79v3.33a2.67,2.67,0,1,1-5.33,0v-6a2.67,2.67,0,0,1,2.67-2.67h58.26a2.67,2.67,0,0,1,2.66,2.67v69.73a2.66,2.66,0,0,1-2.66,2.66H111.13A2.66,2.66,0,0,1,108.46,176.93Zm-2.72-13.7a2.67,2.67,0,0,1,2.67-2.67h5.91a2.67,2.67,0,1,1,0,5.33h-5.91A2.66,2.66,0,0,1,105.74,163.23Zm0-8.53a2.67,2.67,0,0,1,2.67-2.67h5.91a2.67,2.67,0,1,1,0,5.33h-5.91A2.66,2.66,0,0,1,105.74,154.7Zm0-8.53a2.67,2.67,0,0,1,2.67-2.67h5.91a2.67,2.67,0,1,1,0,5.34h-5.91A2.67,2.67,0,0,1,105.74,146.17Zm0-8.53a2.67,2.67,0,0,1,2.67-2.67h5.91a2.67,2.67,0,1,1,0,5.34h-5.91A2.67,2.67,0,0,1,105.74,137.64Zm0-8.53a2.66,2.66,0,0,1,2.67-2.66h5.91a2.67,2.67,0,1,1,0,5.33h-5.91A2.67,2.67,0,0,1,105.74,129.11Zm0-8.53a2.66,2.66,0,0,1,2.67-2.66h5.91a2.67,2.67,0,1,1,0,5.33h-5.91A2.67,2.67,0,0,1,105.74,120.58Z" stroke="#fff" stroke-miterlimit="10" fill-rule="evenodd"/><path d="M143.76,118.41v-.77h.71v-.82h-.36v-2h-4.76v2H139v.82h.71v.76a5.21,5.21,0,0,0-3.89,4.78h0V125a1,1,0,0,0,.44.79v.48a1,1,0,0,0-.44.79v1.4a1,1,0,0,0,.44.79v.48a1,1,0,0,0-.44.79v13.36a1.15,1.15,0,0,0,1.22,1h9.4a1.14,1.14,0,0,0,1.22-1h0V130.51a1,1,0,0,0-.44-.79v-.48a1,1,0,0,0,.44-.79v-1.4a1,1,0,0,0-.44-.79v-.48a1,1,0,0,0,.44-.79v-1.8h0A5.18,5.18,0,0,0,143.76,118.41Z" fill="#010101"/></svg>