<svg xmlns="http://www.w3.org/2000/svg" viewBox="0 0 283.46 283.46"><circle cx="141.73" cy="141.73" r="73.77" fill="#fadfd3" stroke="#000" stroke-miterlimit="10" stroke-width="4"/><path d="M141.73,209.84a68.11,68.11,0,1,1,68.11-68.11A68.18,68.18,0,0,1,141.73,209.84Z" fill="none" stroke="#000" stroke-miterlimit="10" stroke-width="0.75" stroke-dasharray="2"/><path d="M150.76,88.26v0a9.26,9.26,0,0,1-3,6.85,6.78,6.78,0,0,0-1.68,2.32,6.93,6.93,0,0,0-.59,2.8v.22a.71.71,0,0,1,.45.66v2.74a.71.71,0,0,1-.72.71h-.73a2.92,2.92,0,0,1-5.6,0h-.57a.71.71,0,0,1-.72-.71v-2.74a.71.71,0,0,1,.44-.66v-.22a6.88,6.88,0,0,0-2.27-5.12,9.27,9.27,0,0,1-3-6.85v0a9.24,9.24,0,0,1,9-9.24h.06a9.24,9.24,0,0,1,9,9.24Zm-1.48,0a7.55,7.55,0,1,0-15.09,0v0A7.75,7.75,0,0,0,136.74,94a8.6,8.6,0,0,1,2,2.82,8.35,8.35,0,0,1,.72,3.41v.16H144v-.16a8.35,8.35,0,0,1,.72-3.41,8.46,8.46,0,0,1,2-2.82,7.75,7.75,0,0,0,2.55-5.74v0ZM137.85,89.5a4,4,0,0,0,2.84,3.85V96.5a.6.6,0,0,0,.6.59.58.58,0,0,0,.59-.59V83.35S137.85,87.27,137.85,89.5Zm8.07,0c0-1.55-2-3.92-3.15-5.22v3.29l.49-.48a.43.43,0,0,1,.63,0,.45.45,0,0,1,0,.63l-1.12,1.12v1.81l1.37-1.37a.45.45,0,0,1,.63,0,.47.47,0,0,1,0,.64l-2,2v1.52A4,4,0,0,0,145.92,89.5Z" fill="#010101"/><path d="M138.21,134.06v0a9.26,9.26,0,0,1-3,6.85,6.85,6.85,0,0,0-1.67,2.32,6.78,6.78,0,0,0-.6,2.8v.22a.71.71,0,0,1,.46.66v2.74a.72.72,0,0,1-.72.72h-.74a2.91,2.91,0,0,1-5.59,0h-.57a.72.72,0,0,1-.72-.72v-2.74a.7.7,0,0,1,.44-.65v-.22a6.79,6.79,0,0,0-.6-2.81,7,7,0,0,0-1.68-2.32,9.25,9.25,0,0,1-3-6.85v0a9.26,9.26,0,0,1,9-9.24h.06a9.26,9.26,0,0,1,9,9.24Zm-1.49,0a7.54,7.54,0,1,0-15.08,0v0a7.76,7.76,0,0,0,2.54,5.75,8.14,8.14,0,0,1,2,2.82,8.31,8.31,0,0,1,.73,3.4v.17h4.46v-.17a8.31,8.31,0,0,1,.73-3.4,8.14,8.14,0,0,1,2-2.82,7.8,7.8,0,0,0,2.54-5.75v0Zm-11.43,1.24a4,4,0,0,0,2.85,3.86v3.14a.59.59,0,0,0,.59.6.6.6,0,0,0,.6-.6V129.16S125.29,133.07,125.29,135.3Zm8.07,0c0-1.55-2-3.92-3.14-5.21v3.29l.49-.49a.45.45,0,1,1,.63.63l-1.12,1.12v1.81l1.37-1.36a.43.43,0,0,1,.63,0,.45.45,0,0,1,0,.63l-2,2v1.52A4,4,0,0,0,133.36,135.3Z" fill="#010101"/><path d="M163.32,134.06v0a9.26,9.26,0,0,1-3,6.85,7,7,0,0,0-1.68,2.32,6.93,6.93,0,0,0-.59,2.8v.22a.7.7,0,0,1,.45.66v2.74a.71.71,0,0,1-.71.72H157a2.91,2.91,0,0,1-5.59,0h-.58a.71.71,0,0,1-.71-.72v-2.74a.7.7,0,0,1,.43-.65v-.22a6.94,6.94,0,0,0-.59-2.81,7.12,7.12,0,0,0-1.68-2.32,9.26,9.26,0,0,1-3-6.85v0a9.26,9.26,0,0,1,9-9.24h.05a9.26,9.26,0,0,1,9,9.24Zm-1.49,0a7.55,7.55,0,1,0-15.09,0v0a7.77,7.77,0,0,0,2.55,5.75,8.39,8.39,0,0,1,2.76,6.22v.17h4.47v-.17a8.3,8.3,0,0,1,.72-3.4,8.4,8.4,0,0,1,2-2.82,7.77,7.77,0,0,0,2.55-5.75v0ZM150.4,135.3a4.05,4.05,0,0,0,2.84,3.86v3.14a.6.6,0,1,0,1.2,0V129.16S150.4,133.07,150.4,135.3Zm8.07,0c0-1.55-1.95-3.92-3.14-5.21v3.29l.48-.49a.45.45,0,0,1,.63,0,.43.43,0,0,1,0,.63l-1.11,1.12v1.81l1.36-1.36a.45.45,0,0,1,.63.63l-2,2v1.52A4,4,0,0,0,158.47,135.3Z" fill="#010101"/><path d="M125.71,179.86v0a9.26,9.26,0,0,1-3,6.85,6.94,6.94,0,0,0-2.28,5.12v.21a.73.73,0,0,1,.46.67v2.74a.71.71,0,0,1-.72.71h-.74a2.91,2.91,0,0,1-5.59,0h-.57a.71.71,0,0,1-.72-.71v-2.74a.71.71,0,0,1,.44-.66v-.22a6.94,6.94,0,0,0-2.28-5.12,9.26,9.26,0,0,1-3-6.85v0a9.24,9.24,0,0,1,9-9.24h.06a9.24,9.24,0,0,1,9,9.23Zm-1.49,0a7.54,7.54,0,1,0-15.08,0v0a7.78,7.78,0,0,0,2.54,5.74,8.45,8.45,0,0,1,2.77,6.23V192h4.47v-.16a8.35,8.35,0,0,1,.72-3.41,8.23,8.23,0,0,1,2-2.82,7.74,7.74,0,0,0,2.54-5.74v0Zm-11.43,1.25a4,4,0,0,0,2.85,3.85v3.14a.59.59,0,0,0,.59.6.6.6,0,0,0,.6-.6V175S112.79,178.88,112.79,181.11Zm8.07,0c0-1.56-2-3.92-3.14-5.22v3.29l.49-.48a.43.43,0,0,1,.63,0,.45.45,0,0,1,0,.63l-1.12,1.11v1.82l1.37-1.37a.45.45,0,1,1,.63.63l-2,2V185A4,4,0,0,0,120.86,181.11Z" fill="#010101"/><path d="M150.76,179.86v0a9.26,9.26,0,0,1-3,6.85,6.78,6.78,0,0,0-1.68,2.32,6.9,6.9,0,0,0-.59,2.8v.21a.74.74,0,0,1,.45.67v2.74a.71.71,0,0,1-.72.71h-.73a2.92,2.92,0,0,1-5.6,0h-.57a.71.71,0,0,1-.72-.71v-2.74a.71.71,0,0,1,.44-.66v-.22a6.88,6.88,0,0,0-2.27-5.12,9.27,9.27,0,0,1-3-6.85v0a9.24,9.24,0,0,1,9-9.24h.06a9.24,9.24,0,0,1,9,9.23Zm-1.48,0a7.55,7.55,0,1,0-15.09,0v0a7.75,7.75,0,0,0,2.55,5.74,8.6,8.6,0,0,1,2,2.82,8.35,8.35,0,0,1,.72,3.41V192H144v-.16a8.39,8.39,0,0,1,2.76-6.23,7.75,7.75,0,0,0,2.55-5.74v0Zm-11.43,1.25a4,4,0,0,0,2.84,3.85v3.14a.6.6,0,0,0,.6.6.59.59,0,0,0,.59-.6V175S137.85,178.88,137.85,181.11Zm8.07,0c0-1.56-2-3.92-3.15-5.22v3.29l.49-.48a.44.44,0,0,1,.63,0,.45.45,0,0,1,0,.63l-1.12,1.11v1.82l1.37-1.37a.45.45,0,0,1,.63.63l-2,2V185A4,4,0,0,0,145.92,181.11Z" fill="#010101"/><path d="M175.82,179.86v0a9.27,9.27,0,0,1-3,6.85,6.78,6.78,0,0,0-1.68,2.32,6.9,6.9,0,0,0-.59,2.8v.21a.74.74,0,0,1,.45.67v2.74a.71.71,0,0,1-.71.71h-.74a2.92,2.92,0,0,1-5.6,0h-.57a.71.71,0,0,1-.71-.71v-2.74a.72.72,0,0,1,.43-.66v-.22a6.88,6.88,0,0,0-2.27-5.12,9.27,9.27,0,0,1-3-6.85v0a9.24,9.24,0,0,1,9-9.24h.05a9.24,9.24,0,0,1,9,9.23Zm-1.49,0a7.55,7.55,0,1,0-15.09,0v0a7.75,7.75,0,0,0,2.55,5.74,8.6,8.6,0,0,1,2,2.82,8.35,8.35,0,0,1,.72,3.41V192H169v-.16a8.35,8.35,0,0,1,.72-3.41,8.5,8.5,0,0,1,2-2.82,7.75,7.75,0,0,0,2.55-5.74v0Zm-11.43,1.25a4,4,0,0,0,2.84,3.85v3.14a.6.6,0,0,0,.6.6.59.59,0,0,0,.59-.6V175S162.9,178.88,162.9,181.11Zm8.07,0c0-1.56-1.95-3.92-3.14-5.22v3.29l.48-.48a.45.45,0,1,1,.63.63l-1.11,1.11v1.82l1.36-1.37a.45.45,0,0,1,.63,0,.43.43,0,0,1,0,.63l-2,2V185A4,4,0,0,0,171,181.11Z" fill="#010101"/><line x1="129.21" y1="124.82" x2="129.77" y2="124" fill="none" stroke="#000" stroke-miterlimit="10" stroke-width="0.75"/><line x1="130.8" y1="122.5" x2="140.58" y2="108.26" fill="none" stroke="#000" stroke-miterlimit="10" stroke-width="0.75" stroke-dasharray="1.82 1.82"/><polyline points="141.09 107.51 141.66 106.69 142.23 107.51" fill="none" stroke="#000" stroke-miterlimit="10" stroke-width="0.75"/><line x1="143.27" y1="109.01" x2="153.17" y2="123.25" fill="none" stroke="#000" stroke-miterlimit="10" stroke-width="0.75" stroke-dasharray="1.83 1.83"/><line x1="153.69" y1="124" x2="154.26" y2="124.82" fill="none" stroke="#000" stroke-miterlimit="10" stroke-width="0.75"/><line x1="116.8" y1="170.63" x2="117.37" y2="169.8" fill="none" stroke="#000" stroke-miterlimit="10" stroke-width="0.75"/><line x1="118.4" y1="168.3" x2="128.17" y2="154.07" fill="none" stroke="#000" stroke-miterlimit="10" stroke-width="0.75" stroke-dasharray="1.82 1.82"/><polyline points="128.69 153.32 129.25 152.49 129.83 153.31" fill="none" stroke="#000" stroke-miterlimit="10" stroke-width="0.75"/><line x1="130.87" y1="154.81" x2="140.76" y2="169.06" fill="none" stroke="#000" stroke-miterlimit="10" stroke-width="0.75" stroke-dasharray="1.83 1.83"/><line x1="141.28" y1="169.81" x2="141.85" y2="170.63" fill="none" stroke="#000" stroke-miterlimit="10" stroke-width="0.75"/><line x1="141.73" y1="170.63" x2="142.3" y2="169.8" fill="none" stroke="#000" stroke-miterlimit="10" stroke-width="0.75"/><line x1="143.33" y1="168.3" x2="153.1" y2="154.07" fill="none" stroke="#000" stroke-miterlimit="10" stroke-width="0.75" stroke-dasharray="1.82 1.82"/><polyline points="153.62 153.32 154.19 152.49 154.75 153.31" fill="none" stroke="#000" stroke-miterlimit="10" stroke-width="0.75"/><line x1="155.8" y1="154.81" x2="165.69" y2="169.06" fill="none" stroke="#000" stroke-miterlimit="10" stroke-width="0.75" stroke-dasharray="1.83 1.83"/><line x1="166.21" y1="169.81" x2="166.78" y2="170.63" fill="none" stroke="#000" stroke-miterlimit="10" stroke-width="0.75"/></svg>