<svg xmlns="http://www.w3.org/2000/svg" viewBox="0 0 283.46 283.46"><circle cx="141.73" cy="141.73" r="73.77" fill="#fff" stroke="#000" stroke-miterlimit="10" stroke-width="4"/><path d="M141.73,209.84a68.11,68.11,0,1,1,68.11-68.11A68.18,68.18,0,0,1,141.73,209.84Z" fill="none" stroke="#000" stroke-miterlimit="10" stroke-width="0.75" stroke-dasharray="2"/><path d="M159.42,104.43a1,1,0,0,0-.9-.1l-.1.1a.78.78,0,0,0-.4.4l-2.2,3.7a1.06,1.06,0,0,0-.1.8.92.92,0,0,0,.4.6.91.91,0,0,0,1,0,.78.78,0,0,0,.4-.4l2.2-3.7a1.06,1.06,0,0,0,.1-.8A2.09,2.09,0,0,0,159.42,104.43Z" fill="#010101"/><path d="M139.32,104.43a1,1,0,0,1,.9-.1l.1.1a.78.78,0,0,1,.4.4l2.2,3.7a1.06,1.06,0,0,1,.1.8.92.92,0,0,1-.4.6.91.91,0,0,1-1,0,.78.78,0,0,1-.4-.4l-2.2-3.7a1.06,1.06,0,0,1-.1-.8A2.09,2.09,0,0,1,139.32,104.43Z" fill="#010101"/><path d="M134.82,114.43a.37.37,0,0,0,.3-.1.92.92,0,0,0,.6-.4.88.88,0,0,0-.4-1.3l-3.7-2.2c-.2-.1-.3-.2-.5-.2H131a1,1,0,0,0-.8.5,1.06,1.06,0,0,0-.1.8.92.92,0,0,0,.4.6l3.7,2.2C134.42,114.33,134.62,114.43,134.82,114.43Z" fill="#010101"/><path d="M168.92,110.83a.89.89,0,0,0-.8-.5H168c-.2,0-.3.1-.5.2l-3.7,2.2a1,1,0,0,0-.5.6.78.78,0,0,0,.1.8,1.05,1.05,0,0,0,.9.5c.2,0,.3-.1.5-.1l3.7-2.2a.68.68,0,0,0,.4-.6C169,111.23,169,111,168.92,110.83Z" fill="#010101"/><path d="M149.52,102.33a1.23,1.23,0,0,0-.8.4l-.1.1a.9.9,0,0,0-.1.5l-.1,4.3a1,1,0,0,0,1,1,1.05,1.05,0,0,0,.9-.5c.1-.2.2-.3.2-.5l.1-4.3a.91.91,0,0,0-.3-.7A1.33,1.33,0,0,0,149.52,102.33Z" fill="#010101"/><path d="M137.42,136.83v5.6h24.9v-5.6a5.89,5.89,0,0,0-6-6h-12.8A6,6,0,0,0,137.42,136.83Z" fill="#010101"/><path d="M149.92,128.23a7,7,0,1,0-7-7A7,7,0,0,0,149.92,128.23Z" fill="#010101"/><path d="M133.62,129.33a5.55,5.55,0,0,0,5.5-5.5,5.48,5.48,0,0,0-5.5-5.5,5.5,5.5,0,1,0,0,11Z" fill="#010101"/><path d="M166.22,129.33a5.5,5.5,0,1,0-5.5-5.5A5.55,5.55,0,0,0,166.22,129.33Z" fill="#010101"/><path d="M128.62,131.33a4.69,4.69,0,0,0-4.7,4.7v4.4h11.7v-3.6a7.13,7.13,0,0,1,2.6-5.6h-9.6Z" fill="#010101"/><path d="M171.22,131.33h-9.4a7.05,7.05,0,0,1,2.5,5.6v3.6H176V136A4.72,4.72,0,0,0,171.22,131.33Z" fill="#010101"/><path d="M130.93,149.63a21.27,21.27,0,0,0-15.63,4.61L101,165.79l12.4,15.34,9.64-7.79,31.77,3.37,25.83-20.88a4.66,4.66,0,0,0,1-6.17,4.56,4.56,0,0,0-6.65-1l-19.5,15.76-17.13-1.79a1.5,1.5,0,0,1,.31-3l13.7,1.43a4.55,4.55,0,0,0,5-4.35,4.67,4.67,0,0,0-4.23-4.72Z" fill="#010101"/></svg>